<svg width="495" height="300" viewBox="0 0 495 562" fill="none" xmlns="http://www.w3.org/2000/svg">
<g clip-path="url(#clip0_691_1820)">
<path d="M145.692 45.4542L370.648 204.84L369.675 206.208L144.718 46.8223L145.692 45.4542Z" fill="#E6E6E6"/>
<path d="M140.606 45.9227H380.16V47.6005H140.606V45.9227Z" fill="#F2F2F2"/>
<path d="M140.606 84.511H380.16V86.1887H140.606V84.511Z" fill="#F2F2F2"/>
<path d="M140.606 123.099H380.16V124.777H140.606V123.099Z" fill="#F2F2F2"/>
<path d="M140.606 161.688H380.16V163.365H140.606V161.688Z" fill="#F2F2F2"/>
<path d="M140.606 200.276H380.16V201.954H140.606V200.276Z" fill="#F2F2F2"/>
<path d="M118.95 241.307H381.34V0H379.658V170.613C379.658 188.917 372.37 206.472 359.396 219.415C346.423 232.358 328.827 239.629 310.48 239.629H118.95V241.307Z" fill="#E6E6E6"/>
<path d="M256.052 205.525C216.58 205.525 184.581 173.6 184.581 134.22C184.581 94.8398 216.58 62.9157 256.052 62.9157C295.525 62.9157 327.523 94.8398 327.523 134.22C327.523 173.6 295.525 205.525 256.052 205.525Z" fill="#83BB62"/>
<path d="M152.495 129.991L97.8925 172.147C95.5739 173.926 92.647 174.725 89.7436 174.37C86.8402 174.015 84.193 172.536 82.3733 170.251C81.4319 169.069 80.7416 167.708 80.3446 166.251C79.9476 164.794 79.8521 163.272 80.064 161.777C80.2759 160.283 80.7907 158.846 81.577 157.557C82.3634 156.267 83.4048 155.15 84.6378 154.275L142.702 112.22L176.904 85.1818C176.37 83.2619 176.442 81.2248 177.11 79.3472C177.777 77.4696 179.008 75.8425 180.635 74.687C182.262 73.5316 184.205 72.9037 186.202 72.8888C188.199 72.8739 190.152 73.4726 191.796 74.6036C193.44 75.7346 194.695 77.3431 195.391 79.2105C196.086 81.078 196.189 83.1138 195.685 85.0414C195.18 86.969 194.093 88.695 192.571 89.9848C191.049 91.2747 189.166 92.0659 187.178 92.2508L152.495 129.991Z" fill="#FFB6B6"/>
<path d="M238.395 190.425C252.697 190.425 266.678 186.194 278.569 178.266C290.461 170.339 299.729 159.072 305.203 145.89C310.676 132.707 312.108 118.201 309.318 104.207C306.527 90.2126 299.64 77.3579 289.527 67.2685C279.414 57.179 266.529 50.308 252.502 47.5244C238.475 44.7407 223.936 46.1694 210.722 51.6297C197.509 57.0901 186.215 66.3369 178.269 78.2008C170.324 90.0647 166.083 104.013 166.083 118.281C166.104 137.408 173.73 155.746 187.286 169.271C200.843 182.795 219.223 190.403 238.395 190.425ZM238.395 47.8159C232.918 74.8528 309.025 79.4265 309.025 118.281C309.004 136.964 301.556 154.875 288.315 168.085C275.074 181.295 257.121 188.726 238.395 188.747C199.449 188.747 166.956 157.128 167.764 118.281C168.574 79.3668 243.871 20.779 238.395 47.8159Z" fill="#3F3D56"/>
<path d="M107.247 127.389C92.197 127.389 79.9969 115.217 79.9969 100.203C79.9969 85.1883 92.197 73.0167 107.247 73.0167C122.296 73.0167 134.496 85.1883 134.496 100.203C134.496 115.217 122.296 127.389 107.247 127.389Z" fill="#FFB6B6"/>
<path d="M187.524 542.649L197.175 542.648L201.766 505.511H187.522L187.524 542.649Z" fill="#FFB6B6"/>
<path d="M216.655 556.854C216.651 557.933 216.22 558.966 215.456 559.729C214.692 560.493 213.658 560.925 212.577 560.932H194.409L193.846 559.768L191.277 554.478L190.281 559.768L190.061 560.932H183.209L183.306 559.76L185.134 537.899L187.524 537.753L197.852 537.142L200.389 536.988V543.515C202.314 545.558 217.422 553.281 216.655 556.854Z" fill="#2F2E41"/>
<path d="M15.1369 500.217L22.5026 506.438L50.0586 481.053L39.1874 471.872L15.1369 500.217Z" fill="#FFB6B6"/>
<path d="M28.1687 529.837C27.4666 530.657 26.4685 531.167 25.3912 531.258C24.3139 531.348 23.2444 531.011 22.4148 530.319L8.54922 518.608L8.87341 517.357L10.3383 511.663L6.15259 515.059L5.23066 515.805L0.000770569 511.388L0.834476 510.556L16.3872 495.05L18.3064 496.479L26.584 502.671L28.6205 504.188L24.3931 509.17C24.5394 511.97 31.0679 527.604 28.1687 529.837Z" fill="#2F2E41"/>
<path d="M266.945 547.163C267.335 547.18 267.722 547.078 268.053 546.869C268.384 546.661 268.642 546.355 268.793 545.995C268.944 545.635 268.98 545.237 268.897 544.856C268.814 544.475 268.615 544.128 268.328 543.863L268.197 543.344C268.214 543.303 268.231 543.261 268.249 543.22C268.642 542.292 269.302 541.501 270.145 540.946C270.988 540.391 271.977 540.097 272.987 540.101C273.996 540.105 274.983 540.406 275.822 540.967C276.66 541.528 277.314 542.324 277.701 543.255C279.247 546.97 281.215 550.691 281.7 554.618C281.913 556.354 281.823 558.114 281.434 559.82C285.065 551.918 286.95 543.329 286.962 534.636C286.963 532.455 286.842 530.275 286.598 528.107C286.398 526.33 286.119 524.565 285.762 522.813C283.816 513.308 279.637 504.399 273.57 496.817C270.633 495.218 268.258 492.76 266.765 489.773C266.224 488.7 265.842 487.554 265.63 486.371C265.961 486.414 266.879 481.381 266.629 481.072C267.091 480.373 267.917 480.025 268.421 479.343C270.929 475.952 274.384 476.544 276.187 481.153C280.04 483.093 280.078 486.311 277.714 489.405C276.209 491.374 276.003 494.038 274.683 496.145C274.819 496.319 274.96 496.487 275.096 496.66C277.578 499.844 279.741 503.263 281.554 506.868C281.113 502.829 281.64 498.744 283.09 494.948C284.56 491.41 287.315 488.43 289.742 485.372C290.383 484.55 291.255 483.937 292.246 483.61C293.237 483.282 294.303 483.255 295.309 483.532C296.316 483.809 297.217 484.377 297.9 485.165C298.583 485.953 299.016 486.925 299.145 487.959C299.15 488.004 299.155 488.049 299.16 488.094C298.8 488.297 298.447 488.512 298.102 488.74C297.668 489.029 297.332 489.442 297.138 489.924C296.943 490.407 296.9 490.937 297.013 491.445C297.125 491.953 297.389 492.415 297.77 492.771C298.15 493.127 298.63 493.36 299.145 493.439L299.198 493.447C299.07 494.743 298.843 496.027 298.519 497.288C301.632 509.298 294.912 513.672 285.317 513.868C285.105 513.976 284.899 514.085 284.687 514.188C286.509 519.339 287.651 524.705 288.086 530.15C288.333 533.362 288.318 536.589 288.043 539.799L288.059 539.686C288.755 536.116 290.663 532.895 293.463 530.567C297.622 527.159 303.497 525.904 307.983 523.164C308.46 522.859 309.014 522.696 309.581 522.695C310.147 522.693 310.702 522.854 311.181 523.157C311.659 523.46 312.04 523.893 312.28 524.405C312.52 524.917 312.607 525.487 312.533 526.048L312.515 526.167C311.846 526.439 311.195 526.752 310.565 527.105C310.204 527.308 309.852 527.523 309.507 527.751C309.073 528.04 308.737 528.453 308.543 528.935C308.348 529.418 308.305 529.948 308.417 530.456C308.53 530.964 308.794 531.426 309.175 531.782C309.555 532.138 310.035 532.37 310.55 532.45L310.603 532.458C310.641 532.463 310.674 532.469 310.711 532.474C309.569 535.196 307.965 537.702 305.97 539.881C304.024 550.364 295.665 551.359 286.723 548.306H286.718C285.737 552.559 284.315 556.699 282.476 560.66H267.324C267.27 560.492 267.221 560.318 267.172 560.15C268.575 560.238 269.983 560.154 271.365 559.901C270.241 558.525 269.116 557.138 267.992 555.761C267.967 555.736 267.944 555.709 267.922 555.68C267.351 554.976 266.776 554.277 266.205 553.573L266.205 553.572C266.175 551.413 266.424 549.258 266.945 547.163Z" fill="#F2F2F2"/>
<path d="M312.008 561.002C312.008 561.133 311.983 561.263 311.932 561.384C311.882 561.506 311.809 561.616 311.716 561.709C311.623 561.801 311.512 561.875 311.391 561.925C311.269 561.975 311.139 562 311.007 562H98.0311C97.7657 562 97.5112 561.895 97.3235 561.708C97.1359 561.52 97.0305 561.267 97.0305 561.002C97.0305 560.737 97.1359 560.483 97.3235 560.296C97.5112 560.109 97.7657 560.003 98.0311 560.003H311.007C311.139 560.003 311.269 560.029 311.391 560.079C311.512 560.129 311.623 560.202 311.716 560.295C311.809 560.388 311.882 560.498 311.932 560.619C311.983 560.741 312.008 560.871 312.008 561.002Z" fill="#CCCCCC"/>
<path d="M237.807 97.8495C237.855 97.7314 237.936 97.6302 238.042 97.5589C238.147 97.4876 238.272 97.4495 238.399 97.4495C238.526 97.4495 238.651 97.4876 238.756 97.559C238.862 97.6303 238.943 97.7316 238.99 97.8497C240.554 101.763 242.571 105.48 245.002 108.925C245.083 109.036 245.126 109.17 245.125 109.307C245.124 109.444 245.079 109.578 244.996 109.687C244.913 109.796 244.797 109.876 244.665 109.915C244.533 109.954 244.392 109.949 244.263 109.902L239.24 108.089V139.113H237.558V108.089L232.533 109.902C232.404 109.949 232.263 109.954 232.131 109.915C231.999 109.877 231.883 109.797 231.8 109.687C231.718 109.578 231.672 109.445 231.671 109.307C231.67 109.17 231.713 109.036 231.795 108.926C234.225 105.48 236.243 101.763 237.807 97.8495Z" fill="#3F3D56"/>
<path d="M96.509 257.28L162.358 240.281C162.358 240.281 194.674 281.023 196.355 329.678C196.441 332.17 195.124 335.291 196.58 338.357C198.037 341.422 194.635 347.216 196.756 349.772C198.878 352.328 199.846 354.52 196.839 357.618C193.833 360.717 202.082 493.859 205.176 498.866C208.968 505.003 201.878 509.779 205.423 512.424C208.968 515.07 205.604 522.62 205.604 522.62H187.106L160.665 425.149C160.665 425.149 143.999 379.904 146.838 374.182C149.678 368.459 144.672 366.196 144.672 366.196C144.672 366.196 140.347 364.364 142.91 359.701C145.473 355.037 137.497 339.745 137.497 339.745C141.09 339.279 135.774 386.742 114.341 429.489C98.6622 460.76 71.698 469.189 70.2294 474.804C66.9757 487.244 51.1448 473.622 55.9352 483.192C60.7256 492.763 45.8451 491.581 45.8451 491.581L29.0283 478.159L80.3195 415.243L85.8435 348.34C85.8435 348.34 88.7827 347.423 87.0737 344.003C85.3646 340.583 91.0711 340.976 89.0586 337.005C87.0462 333.034 92.4117 333.229 90.9902 330.195C89.5687 327.161 92.6636 324.296 92.6636 324.296C92.6636 324.296 84.5716 296.866 99.4725 276.991L96.509 257.28Z" fill="#2F2E41"/>
<path d="M179.945 270.311C179.945 270.311 168.174 243.467 164.81 240.111C161.447 236.756 150.107 230.691 152.629 228.174C155.152 225.658 160.164 227.157 155.976 222.632C151.788 218.108 148.568 209.316 148.568 209.316L152.198 167.129L132.858 142.802L120.677 130.865L90.9614 128.942L89.2978 145.969C89.2978 145.969 61.8479 160.126 68.1395 187.439C74.4312 214.752 85.7714 218.301 82.408 251.856C82.0334 255.593 96.9613 250.91 93.7706 252.502C92.0888 253.34 84.3757 268.417 89.4208 271.772C92.5721 273.843 95.9593 275.533 99.5108 276.806C125.341 256.452 151.767 247.148 179.945 270.311Z" fill="#E6E6E6"/>
<path d="M193.536 186.489L127.282 167.11C124.478 166.281 122.112 164.385 120.697 161.831C119.281 159.277 118.929 156.27 119.716 153.46C120.123 152.006 120.822 150.65 121.772 149.474C122.721 148.299 123.901 147.328 125.238 146.622C126.576 145.917 128.044 145.49 129.552 145.368C131.061 145.247 132.578 145.433 134.012 145.916L202.215 168.15L244.228 179.918C245.474 178.36 247.169 177.223 249.085 176.661C251.001 176.099 253.043 176.138 254.936 176.774C256.828 177.411 258.478 178.613 259.662 180.217C260.846 181.822 261.506 183.751 261.552 185.743C261.599 187.734 261.029 189.692 259.922 191.35C258.814 193.007 257.222 194.285 255.361 195.008C253.501 195.732 251.462 195.866 249.522 195.394C247.582 194.921 245.835 193.864 244.519 192.366L193.536 186.489Z" fill="#FFB6B6"/>
<path d="M76.4095 82.801C72.6183 69.0107 113.939 57.1853 121.969 68.2906C123.085 66.7118 127.212 65.7528 129.105 66.2371C130.958 66.851 132.671 67.8256 134.144 69.1043C136.28 70.7413 138.494 72.4365 139.805 74.7902C141.125 77.1343 141.329 80.3309 139.552 82.365C138.144 83.9826 135.67 92.5787 133.554 93.0049C132.078 93.3052 130.835 93.5473 129.767 93.7217C128.816 92.3365 126.389 90.5965 126.564 88.9208C125.127 89.87 125.652 91.5401 125.942 93.247C126.907 98.9309 148.641 142.93 136.193 129.964C134.756 130.78 133.244 131.458 131.678 131.989C128.58 127.266 126.208 122.107 124.639 116.684L124.627 116.786C124.328 119.139 123.339 121.352 121.786 123.148C120.232 124.944 118.183 126.243 115.894 126.883C97.2077 132.284 82.0928 124.359 76.8933 110.068C78.7967 106.213 79.626 106.631 79.4555 106.517C78.8968 106.145 78.2613 105.903 77.5961 105.809C76.9309 105.715 76.2531 105.772 75.613 105.976C74.9729 106.179 74.387 106.524 73.8987 106.984C73.4104 107.445 73.0323 108.009 72.7924 108.635C72.4913 109.422 72.2176 110.095 71.9805 110.601C69.2717 100.933 66.0499 102.329 76.4095 82.801Z" fill="#2F2E41"/>
<path d="M89.3022 72.7957L91.2109 63.0604C91.4583 62.2577 91.4382 61.3967 91.1537 60.6063C90.872 60.1484 90.4566 59.7875 89.9633 59.5719C89.47 59.3563 88.9224 59.2965 88.394 59.4005C87.3311 59.5536 86.5361 60.5222 85.4786 60.7087C81.8018 61.3572 76.9416 57.734 75.6242 66.9001C75.0749 70.7219 68.9623 71.1256 66.921 74.4055C64.8796 77.6854 64.629 82.4197 67.415 85.0993C69.64 87.2393 73.2133 87.4863 76.1032 86.3931C78.993 85.2999 81.3123 83.0918 83.3382 80.7632C85.3641 78.4346 87.1987 75.9147 89.5355 73.8967" fill="#2F2E41"/>
<path d="M74.9527 87.6031C82.409 86.5639 87.4914 83.8585 90.0587 79.5625C93.4187 73.939 91.168 67.7469 91.0707 67.486L89.4945 68.0705C89.5155 68.1275 91.5572 73.7956 88.6053 78.7179C86.3089 82.5469 81.6371 84.9775 74.7203 85.9417L74.9527 87.6031Z" fill="#83BB62"/>
<path d="M470.484 374.418C465.844 364.81 453.803 359.459 443.54 362.443C437.758 364.124 432.908 367.986 427.592 370.808C422.275 373.631 415.68 375.384 410.332 372.621C401.139 367.872 401.7 353.694 393.704 347.134C388.382 342.768 380.574 342.972 373.996 345.019C367.419 347.066 361.404 350.68 354.783 352.585C348.587 354.304 342.065 354.503 335.775 353.165C329.484 351.826 323.611 348.99 318.657 344.897C318.559 344.815 318.463 344.732 318.368 344.648C317.292 343.694 315.961 343.075 314.537 342.866C313.114 342.658 311.66 342.87 310.356 343.475C309.051 344.081 307.952 345.054 307.195 346.274C306.438 347.495 306.055 348.91 306.094 350.345L307.334 395.303H469.616L470.484 374.418Z" fill="#F2F2F2"/>
<path d="M328.061 366.317C327.943 366.27 327.841 366.188 327.77 366.083C327.699 365.978 327.66 365.854 327.66 365.727C327.66 365.6 327.699 365.475 327.77 365.37C327.842 365.265 327.943 365.184 328.061 365.136C331.984 363.577 335.71 361.564 339.163 359.139C339.274 359.058 339.408 359.015 339.546 359.016C339.683 359.017 339.817 359.062 339.927 359.145C340.036 359.228 340.116 359.343 340.155 359.475C340.194 359.607 340.189 359.747 340.142 359.876L338.324 364.888H369.422V366.565H338.324L340.142 371.579C340.189 371.708 340.194 371.848 340.155 371.98C340.117 372.111 340.036 372.227 339.927 372.31C339.817 372.392 339.683 372.437 339.546 372.438C339.409 372.44 339.274 372.396 339.163 372.316C335.71 369.891 331.984 367.877 328.061 366.317Z" fill="#3F3D56"/>
<path d="M398.023 358.236C397.958 358.127 397.927 358.001 397.933 357.874C397.94 357.747 397.985 357.625 398.063 357.524C398.14 357.423 398.246 357.347 398.366 357.307C398.487 357.266 398.617 357.263 398.74 357.297C402.808 358.425 406.995 359.074 411.215 359.23C411.353 359.233 411.486 359.279 411.594 359.363C411.703 359.447 411.782 359.564 411.819 359.696C411.856 359.828 411.85 359.968 411.801 360.096C411.752 360.224 411.663 360.333 411.547 360.407L407.059 363.298L431.809 382.083L430.79 383.418L406.041 364.633L404.445 369.722C404.404 369.853 404.323 369.967 404.212 370.049C404.101 370.13 403.967 370.174 403.83 370.173C403.692 370.172 403.559 370.128 403.449 370.046C403.339 369.963 403.258 369.848 403.219 369.717C401.942 365.701 400.198 361.848 398.023 358.236Z" fill="#3F3D56"/>
<path d="M300.943 292.224H476.367C481.306 292.228 486.042 294.186 489.536 297.67C493.029 301.153 494.994 305.878 495 310.805V405.875C494.995 410.804 493.031 415.531 489.538 419.017C486.044 422.504 481.308 424.466 476.367 424.473H300.943C296.001 424.467 291.264 422.506 287.771 419.019C284.277 415.532 282.313 410.805 282.31 405.875V310.805C282.314 305.877 284.279 301.152 287.772 297.668C291.266 294.184 296.003 292.226 300.943 292.224ZM284.361 405.875C284.363 410.262 286.111 414.469 289.22 417.571C292.329 420.673 296.546 422.416 300.943 422.418H447.753C449.77 422.419 451.784 422.285 453.782 422.015H453.79C453.942 421.998 454.102 421.973 454.253 421.948C476.14 418.819 492.948 335.435 492.948 312.735V310.805C492.941 306.421 491.191 302.219 488.083 299.119C484.975 296.02 480.761 294.277 476.367 294.271H300.943C296.548 294.275 292.334 296.018 289.226 299.118C286.117 302.217 284.368 306.421 284.361 310.805V405.875Z" fill="#E6E6E6"/>
<path d="M312.925 355.857C304.965 355.857 298.511 349.419 298.511 341.477C298.511 333.534 304.965 327.096 312.925 327.096C320.886 327.096 327.34 333.534 327.34 341.477C327.34 349.419 320.886 355.857 312.925 355.857Z" fill="#83BB62"/>
<path opacity="0.7" d="M383.554 355.857C375.594 355.857 369.14 349.419 369.14 341.477C369.14 333.534 375.594 327.096 383.554 327.096C391.515 327.096 397.969 333.534 397.969 341.477C397.969 349.419 391.515 355.857 383.554 355.857Z" fill="#83BB62"/>
<path opacity="0.25" d="M447.461 369.279C439.5 369.279 433.046 362.841 433.046 354.899C433.046 346.956 439.5 340.518 447.461 340.518C455.421 340.518 461.875 346.956 461.875 354.899C461.875 362.841 455.421 369.279 447.461 369.279Z" fill="#83BB62"/>
</g>
<defs>
<clipPath id="clip0_691_1820">
<rect width="495" height="562" fill="white" transform="matrix(-1 0 0 1 495 0)"/>
</clipPath>
</defs>
</svg>
