<svg width="495" height="300" viewBox="0 0 539 322" fill="none" xmlns="http://www.w3.org/2000/svg">
<g clip-path="url(#clip0_691_1852)">
<path d="M31.7583 247.025C15.8936 241.244 2.12202 227.416 0.375 210.597C15.7762 220.606 34.2152 224.835 52.4296 222.536C59.451 221.624 67.1656 219.878 73.174 223.629C76.9127 225.963 79.2337 230.108 80.2984 234.39C81.3631 238.672 81.3151 243.142 81.2608 247.554L81.7548 248.538C65.1823 251.76 47.623 252.806 31.7583 247.025Z" fill="#F0F0F0"/>
<path d="M0.72039 210.513C8.80504 221.929 20.2752 230.503 33.5018 235.017C36.3319 236.04 39.3053 236.609 42.3124 236.704C45.2447 236.702 48.1229 235.913 50.6479 234.42C53.0302 233.075 55.3116 231.423 57.9788 230.682C59.3497 230.322 60.781 230.258 62.1787 230.491C63.5764 230.725 64.909 231.252 66.0891 232.038C69.0804 233.919 71.2185 236.764 73.2129 239.62C75.4272 242.79 77.6771 246.119 81.1337 248.044C81.5526 248.277 81.1668 248.914 80.7486 248.681C74.7346 245.332 72.5079 238.229 67.3889 233.911C65.0003 231.896 61.9909 230.59 58.8342 231.241C56.0738 231.81 53.7198 233.512 51.3195 234.895C48.8775 236.387 46.1077 237.259 43.2521 237.432C40.2499 237.491 37.2596 237.037 34.4093 236.091C27.9584 234.063 21.8659 231.032 16.3551 227.108C10.0408 222.665 4.53183 217.173 0.066533 210.869C-0.209678 210.479 0.445984 210.126 0.72039 210.513Z" fill="white"/>
<path d="M29.1574 233.815C28.0999 235.935 26.3246 237.609 24.1485 238.539C21.9723 239.469 19.537 239.594 17.2774 238.891C16.8207 238.748 17.0223 238.03 17.4796 238.174C19.5825 238.832 21.851 238.716 23.8756 237.846C25.9003 236.975 27.5478 235.409 28.5208 233.429C28.7327 232.999 29.3681 233.387 29.1574 233.815Z" fill="white"/>
<path d="M49.5285 235.261C48.0388 230.653 44.8696 226.775 40.6527 224.403C40.2348 224.169 40.6204 223.531 41.0379 223.766C45.4214 226.242 48.7113 230.284 50.251 235.083C50.3975 235.541 49.6742 235.716 49.5285 235.261Z" fill="white"/>
<path d="M10.8811 222.149C11.4609 221.414 11.8494 220.546 12.0117 219.624C12.174 218.702 12.105 217.753 11.811 216.864C11.6588 216.409 12.3823 216.234 12.5335 216.686C12.8538 217.67 12.9287 218.717 12.7516 219.737C12.5746 220.756 12.1509 221.717 11.5177 222.535C11.4645 222.617 11.3821 222.675 11.2872 222.699C11.1923 222.722 11.0921 222.709 11.0069 222.661C10.9228 222.609 10.8625 222.526 10.839 222.431C10.8154 222.335 10.8306 222.234 10.8811 222.149Z" fill="white"/>
<path d="M40.417 169.74C40.5201 170.022 40.6232 170.304 40.7323 170.587C42.1378 174.367 43.8476 178.027 45.8447 181.529C45.9949 181.803 46.1511 182.077 46.3087 182.346C51.2102 190.733 57.6236 198.136 65.2231 204.178C68.2494 206.58 71.4536 208.748 74.8081 210.662C79.441 213.306 84.6743 215.804 88.0648 219.711C88.4231 220.115 88.7561 220.54 89.0619 220.985L82.9168 247.858C82.8722 247.912 82.8337 247.968 82.789 248.022L82.5927 249.106C82.4128 249.02 82.228 248.926 82.0481 248.839C81.9436 248.79 81.8404 248.734 81.7358 248.684C81.6666 248.649 81.5973 248.613 81.5328 248.586C81.5097 248.574 81.4867 248.562 81.4696 248.552C81.4051 248.524 81.3481 248.492 81.2897 248.465C80.2558 247.944 79.2237 247.415 78.1934 246.877C78.1873 246.876 78.1873 246.876 78.1825 246.869C70.293 242.848 62.9076 237.905 56.1808 232.142C55.9824 231.967 55.7779 231.791 55.5822 231.604C52.6233 228.971 49.8842 226.101 47.3922 223.021C46.0331 221.33 44.7603 219.571 43.5787 217.751C40.5347 213.044 38.2489 207.885 36.8052 202.466C33.9287 191.662 34.5339 180.057 39.9928 170.469C40.1326 170.224 40.2711 169.984 40.417 169.74Z" fill="#F0F0F0"/>
<path d="M40.7449 169.879C40.3383 183.869 44.3429 197.632 52.1901 209.213C53.8352 211.736 55.8671 213.984 58.211 215.873C60.5536 217.64 63.3258 218.746 66.2394 219.076C68.95 219.439 71.7645 219.496 74.3398 220.512C75.6503 221.052 76.8321 221.863 77.8076 222.893C78.7831 223.922 79.5304 225.147 80.0003 226.486C81.258 229.792 81.2547 233.353 81.1307 236.836C80.993 240.703 80.7888 244.717 82.3918 248.338C82.586 248.777 81.8949 249.053 81.701 248.615C78.9121 242.315 81.4037 235.3 79.912 228.765C79.216 225.716 77.5983 222.858 74.6866 221.475C72.1404 220.264 69.2381 220.203 66.4904 219.86C63.6433 219.579 60.9081 218.604 58.5238 217.021C56.0915 215.257 53.9765 213.092 52.2695 210.617C48.3377 205.108 45.2953 199.013 43.2535 192.557C40.8825 185.202 39.7852 177.495 40.0089 169.769C40.023 169.29 40.7589 169.404 40.7449 169.879Z" fill="white"/>
<path d="M49.4413 205.633C47.3228 206.688 44.8988 206.954 42.6023 206.384C40.3058 205.814 38.2864 204.445 36.9046 202.522C36.6263 202.132 37.2186 201.68 37.4972 202.071C38.7807 203.865 40.6619 205.14 42.8015 205.666C44.9411 206.192 47.198 205.935 49.1649 204.941C49.5926 204.725 49.8666 205.419 49.4413 205.633Z" fill="white"/>
<path d="M64.8399 219.073C66.4207 214.495 66.2207 209.488 64.2797 205.051C64.087 204.612 64.778 204.335 64.9705 204.774C66.9817 209.395 67.1793 214.606 65.5238 219.367C65.3657 219.821 64.6826 219.525 64.8399 219.073Z" fill="white"/>
<path d="M41.8622 185.297C42.7668 185.06 43.5985 184.601 44.2825 183.963C44.9666 183.324 45.4815 182.525 45.7812 181.638C45.9335 181.183 46.6164 181.479 46.4651 181.932C46.1295 182.91 45.5597 183.792 44.8055 184.499C44.0513 185.206 43.1356 185.718 42.1386 185.989C42.0467 186.022 41.9456 186.02 41.8558 185.981C41.766 185.942 41.6942 185.871 41.655 185.781C41.6188 185.69 41.6203 185.587 41.6591 185.497C41.6979 185.406 41.7709 185.334 41.8622 185.297Z" fill="white"/>
<path d="M511.94 246.47C526.975 238.78 538.945 223.361 538.615 206.455C524.559 218.283 506.779 224.75 488.42 224.712C481.34 224.671 473.47 223.888 467.967 228.351C464.544 231.127 462.749 235.526 462.218 239.907C461.686 244.287 462.283 248.717 462.878 253.09L462.509 254.127C479.351 255.285 496.905 254.16 511.94 246.47Z" fill="#F0F0F0"/>
<path d="M538.262 206.414C531.64 218.738 521.309 228.659 508.736 234.768C506.053 236.131 503.172 237.062 500.2 237.527C497.289 237.885 494.336 237.457 491.647 236.286C489.118 235.245 486.651 233.886 483.913 233.479C482.508 233.291 481.08 233.403 479.722 233.807C478.363 234.211 477.105 234.898 476.031 235.823C473.293 238.058 471.52 241.145 469.891 244.225C468.083 247.644 466.258 251.224 463.064 253.56C462.677 253.843 463.138 254.428 463.525 254.145C469.082 250.081 470.42 242.758 474.97 237.842C477.094 235.548 479.92 233.882 483.133 234.139C485.942 234.364 488.487 235.763 491.039 236.84C493.645 238.021 496.501 238.544 499.356 238.365C502.343 238.053 505.255 237.235 507.967 235.945C514.121 233.138 519.795 229.38 524.782 224.807C530.504 219.621 535.297 213.492 538.955 206.686C539.181 206.265 538.487 205.995 538.262 206.414Z" fill="white"/>
<path d="M512.902 233.04C514.211 235.013 516.179 236.457 518.453 237.111C520.726 237.766 523.159 237.59 525.315 236.615C525.75 236.416 525.462 235.729 525.026 235.928C523.02 236.84 520.754 237.004 518.638 236.389C516.522 235.775 514.695 234.424 513.486 232.578C513.223 232.178 512.64 232.641 512.902 233.04Z" fill="white"/>
<path d="M492.86 236.983C493.772 232.226 496.442 227.988 500.336 225.115C500.722 224.83 500.261 224.245 499.875 224.529C495.829 227.527 493.06 231.943 492.121 236.896C492.032 237.368 492.771 237.453 492.86 236.983Z" fill="white"/>
<path d="M529.606 219.212C528.941 218.554 528.449 217.741 528.174 216.845C527.9 215.95 527.852 215 528.035 214.082C528.13 213.611 527.39 213.526 527.296 213.994C527.099 215.01 527.153 216.058 527.454 217.048C527.755 218.038 528.293 218.94 529.022 219.673C529.085 219.748 529.174 219.796 529.271 219.808C529.368 219.819 529.465 219.793 529.544 219.735C529.621 219.674 529.671 219.584 529.683 219.486C529.694 219.388 529.667 219.29 529.606 219.212Z" fill="white"/>
<path d="M493.862 170.837C493.795 171.129 493.727 171.422 493.653 171.716C492.722 175.641 491.475 179.483 489.922 183.205C489.807 183.495 489.686 183.786 489.562 184.072C485.727 192.999 480.271 201.136 473.47 208.068C470.762 210.824 467.848 213.37 464.754 215.683C460.481 218.877 455.593 222 452.708 226.295C452.402 226.74 452.124 227.204 451.875 227.683L461.271 253.595C461.322 253.643 461.367 253.694 461.418 253.742L461.746 254.794C461.914 254.686 462.086 254.57 462.254 254.462C462.351 254.4 462.447 254.332 462.545 254.269C462.609 254.226 462.673 254.182 462.734 254.147C462.755 254.132 462.777 254.118 462.793 254.106C462.853 254.07 462.906 254.031 462.96 253.997C463.923 253.353 464.882 252.701 465.838 252.04C465.844 252.038 465.844 252.038 465.848 252.03C473.184 247.069 479.907 241.254 485.876 234.706C486.051 234.508 486.233 234.309 486.404 234.099C489.017 231.122 491.383 227.936 493.478 224.572C494.62 222.727 495.667 220.825 496.616 218.873C499.06 213.826 500.695 208.426 501.463 202.87C502.992 191.794 500.967 180.351 494.373 171.508C494.204 171.282 494.037 171.061 493.862 170.837Z" fill="#F0F0F0"/>
<path d="M493.556 171.015C495.676 184.849 493.391 199.001 487.024 211.46C485.701 214.166 483.961 216.647 481.866 218.811C479.758 220.852 477.143 222.291 474.292 222.978C471.646 223.672 468.86 224.075 466.429 225.4C465.195 226.098 464.121 227.048 463.28 228.19C462.438 229.332 461.847 230.639 461.544 232.026C460.702 235.461 461.142 238.995 461.693 242.436C462.304 246.257 462.999 250.216 461.853 254.007C461.714 254.466 462.434 254.655 462.572 254.197C464.567 247.6 461.234 240.946 461.912 234.277C462.228 231.165 463.483 228.13 466.203 226.398C468.581 224.884 471.454 224.466 474.139 223.787C476.93 223.158 479.525 221.853 481.697 219.988C483.894 217.939 485.727 215.529 487.118 212.863C490.344 206.911 492.615 200.489 493.849 193.83C495.299 186.239 495.443 178.455 494.272 170.815C494.2 170.342 493.483 170.545 493.556 171.015Z" fill="white"/>
<path d="M489.312 207.569C491.543 208.355 493.982 208.321 496.191 207.473C498.4 206.624 500.236 205.017 501.371 202.938C501.6 202.516 500.957 202.141 500.728 202.563C499.674 204.501 497.964 205.998 495.905 206.784C493.846 207.57 491.575 207.593 489.501 206.848C489.05 206.687 488.863 207.409 489.312 207.569Z" fill="white"/>
<path d="M475.68 222.803C473.549 218.454 473.133 213.461 474.515 208.818C474.652 208.358 473.933 208.169 473.796 208.628C472.367 213.462 472.81 218.658 475.037 223.179C475.25 223.609 475.891 223.231 475.68 222.803Z" fill="white"/>
<path d="M494.337 186.454C493.411 186.33 492.529 185.977 491.772 185.428C491.015 184.878 490.406 184.149 489.999 183.305C489.792 182.872 489.151 183.25 489.357 183.681C489.81 184.611 490.483 185.415 491.319 186.024C492.154 186.634 493.125 187.028 494.148 187.175C494.243 187.196 494.343 187.181 494.428 187.132C494.512 187.083 494.575 187.003 494.603 186.909C494.627 186.814 494.613 186.712 494.564 186.627C494.514 186.542 494.433 186.48 494.337 186.454Z" fill="white"/>
<path d="M469.509 11.0682H363.582V17.8937C363.58 18.2432 363.7 18.5824 363.921 18.853C363.708 24.188 363.582 30.9986 363.582 38.3997V220.88C363.582 237.984 364.267 251.901 365.107 251.901H467.984C468.824 251.901 469.509 237.984 469.509 220.88V38.3997C469.509 30.9986 469.384 24.188 469.17 18.853C469.391 18.5823 469.511 18.2432 469.509 17.8937L469.509 11.0682Z" fill="white"/>
<path d="M467.983 252.638H365.106C364.304 252.638 363.774 252.638 363.292 242.84C363.003 236.961 362.844 229.161 362.844 220.88V38.3998C362.844 31.2468 362.964 24.2945 363.183 18.8234C363.321 15.5385 363.478 12.9073 363.65 11.0017C363.989 7.27115 364.31 6.64099 365.106 6.64099H467.983C468.778 6.64099 469.1 7.27115 469.438 11.0017C469.611 12.9145 469.768 15.5457 469.905 18.8219L469.905 18.8234C470.124 24.2887 470.244 31.241 470.244 38.3998V220.88C470.244 229.162 470.085 236.961 469.796 242.84C469.314 252.638 468.785 252.638 467.983 252.638ZM365.524 251.163H467.564C468.097 249.146 468.771 238.198 468.771 220.88V38.3998C468.771 31.2605 468.651 24.3298 468.433 18.8839C468.297 15.6311 468.142 13.024 467.971 11.135C467.905 10.1203 467.767 9.11166 467.557 8.11677H365.531C365.322 9.11167 365.183 10.1203 365.117 11.135C364.947 13.0168 364.792 15.6239 364.656 18.8839C364.437 24.3345 364.317 31.2659 364.317 38.3998V220.88C364.317 238.197 364.991 249.146 365.524 251.163Z" fill="#E4E4E4"/>
<path d="M467.984 7.37878H365.107C364.703 7.37957 364.316 7.54073 364.03 7.82701C363.744 8.11328 363.583 8.50134 363.582 8.90622V17.8937C363.58 18.2432 363.7 18.5824 363.921 18.853C364.064 19.0299 364.245 19.1727 364.45 19.271C364.655 19.3692 364.88 19.4205 365.107 19.4211H467.984C468.212 19.4205 468.436 19.3692 468.641 19.2709C468.846 19.1726 469.027 19.0299 469.17 18.853C469.391 18.5823 469.511 18.2432 469.509 17.8937V8.90622C469.508 8.50137 469.348 8.11332 469.062 7.82704C468.776 7.54076 468.389 7.37957 467.984 7.37878Z" fill="#CACACA"/>
<path d="M372.435 15.1304C373.631 15.1304 374.601 14.1593 374.601 12.9613C374.601 11.7633 373.631 10.7922 372.435 10.7922C371.239 10.7922 370.27 11.7633 370.27 12.9613C370.27 14.1593 371.239 15.1304 372.435 15.1304Z" fill="white"/>
<path d="M380.654 15.1304C381.85 15.1304 382.819 14.1593 382.819 12.9613C382.819 11.7633 381.85 10.7922 380.654 10.7922C379.458 10.7922 378.488 11.7633 378.488 12.9613C378.488 14.1593 379.458 15.1304 380.654 15.1304Z" fill="white"/>
<path d="M388.877 15.1304C390.073 15.1304 391.042 14.1593 391.042 12.9613C391.042 11.7633 390.073 10.7922 388.877 10.7922C387.681 10.7922 386.711 11.7633 386.711 12.9613C386.711 14.1593 387.681 15.1304 388.877 15.1304Z" fill="white"/>
<path d="M459.932 10.0648H450.465C450.28 10.066 450.103 10.1403 449.972 10.2715C449.841 10.4027 449.767 10.5802 449.766 10.7658C449.763 10.8714 449.788 10.9759 449.84 11.0683C449.896 11.1871 449.984 11.2876 450.095 11.3581C450.206 11.4286 450.334 11.4663 450.465 11.4668H459.932C460.064 11.4674 460.194 11.4303 460.307 11.3597C460.419 11.2892 460.509 11.1881 460.566 11.0683C460.611 10.974 460.634 10.8704 460.632 10.7658C460.632 10.6737 460.614 10.5825 460.579 10.4974C460.544 10.4123 460.492 10.335 460.427 10.2699C460.362 10.2048 460.285 10.1532 460.2 10.118C460.115 10.0828 460.024 10.0647 459.932 10.0648Z" fill="white"/>
<path d="M459.932 12.699H450.465C450.28 12.699 450.102 12.7729 449.971 12.9043C449.839 13.0358 449.766 13.2141 449.766 13.4C449.766 13.5859 449.839 13.7642 449.971 13.8957C450.102 14.0272 450.28 14.101 450.465 14.101H459.932C460.117 14.101 460.296 14.0272 460.427 13.8957C460.558 13.7642 460.632 13.5859 460.632 13.4C460.632 13.2141 460.558 13.0358 460.427 12.9043C460.296 12.7729 460.117 12.699 459.932 12.699Z" fill="white"/>
<path d="M459.932 15.3333H450.465C450.28 15.3333 450.102 15.4072 449.971 15.5386C449.839 15.6701 449.766 15.8484 449.766 16.0343C449.766 16.2202 449.839 16.3985 449.971 16.53C450.102 16.6614 450.28 16.7353 450.465 16.7353H459.932C460.117 16.7353 460.296 16.6614 460.427 16.53C460.558 16.3985 460.632 16.2202 460.632 16.0343C460.632 15.8484 460.558 15.6701 460.427 15.5386C460.296 15.4072 460.117 15.3333 459.932 15.3333Z" fill="white"/>
<path d="M426.778 39.1228H407.301C406.324 39.1232 405.387 39.512 404.696 40.2039C404.006 40.8957 403.618 41.8339 403.617 42.8122V59.7099C403.619 60.6879 404.007 61.6254 404.698 62.317C405.388 63.0085 406.324 63.3977 407.301 63.3994H426.778C427.754 63.3965 428.69 63.0069 429.38 62.3156C430.07 61.6243 430.459 60.6876 430.462 59.7099V42.8122C430.46 41.8342 430.072 40.8968 429.381 40.2052C428.691 39.5136 427.755 39.1244 426.778 39.1228Z" fill="#83BB62"/>
<path d="M450.979 74.4382H383.094C382.651 74.4382 382.225 74.6146 381.912 74.9288C381.598 75.2429 381.422 75.6689 381.422 76.1132C381.422 76.5574 381.598 76.9835 381.912 77.2976C382.225 77.6117 382.651 77.7882 383.094 77.7882H450.979C451.423 77.7882 451.848 77.6117 452.162 77.2976C452.475 76.9835 452.651 76.5574 452.651 76.1132C452.651 75.6689 452.475 75.2429 452.162 74.9288C451.848 74.6146 451.423 74.4382 450.979 74.4382Z" fill="#E4E4E4"/>
<path d="M408.878 82.2894H383.094C382.651 82.2894 382.225 82.4659 381.912 82.78C381.598 83.0941 381.422 83.5202 381.422 83.9644C381.422 84.4086 381.598 84.8347 381.912 85.1488C382.225 85.4629 382.651 85.6394 383.094 85.6394H408.878C409.321 85.6394 409.747 85.4629 410.06 85.1488C410.374 84.8347 410.55 84.4086 410.55 83.9644C410.55 83.5202 410.374 83.0941 410.06 82.78C409.747 82.4659 409.321 82.2894 408.878 82.2894Z" fill="#E4E4E4"/>
<path d="M426.778 112.174H407.301C406.324 112.174 405.387 112.563 404.696 113.255C404.006 113.947 403.618 114.885 403.617 115.863V132.761C403.619 133.739 404.007 134.676 404.698 135.368C405.388 136.06 406.324 136.449 407.301 136.45H426.778C427.754 136.448 428.69 136.058 429.38 135.367C430.07 134.675 430.459 133.739 430.462 132.761V115.863C430.46 114.885 430.072 113.948 429.381 113.256C428.691 112.565 427.755 112.175 426.778 112.174Z" fill="#83BB62"/>
<path d="M450.979 147.489H383.094C382.651 147.489 382.225 147.666 381.912 147.98C381.598 148.294 381.422 148.72 381.422 149.164C381.422 149.608 381.598 150.034 381.912 150.349C382.225 150.663 382.651 150.839 383.094 150.839H450.979C451.423 150.839 451.848 150.663 452.162 150.349C452.475 150.034 452.651 149.608 452.651 149.164C452.651 148.72 452.475 148.294 452.162 147.98C451.848 147.666 451.423 147.489 450.979 147.489Z" fill="#E4E4E4"/>
<path d="M408.878 155.34H383.094C382.651 155.34 382.225 155.517 381.912 155.831C381.598 156.145 381.422 156.571 381.422 157.015C381.422 157.46 381.598 157.886 381.912 158.2C382.225 158.514 382.651 158.69 383.094 158.69H408.878C409.321 158.69 409.747 158.514 410.06 158.2C410.374 157.886 410.55 157.46 410.55 157.015C410.55 156.571 410.374 156.145 410.06 155.831C409.747 155.517 409.321 155.34 408.878 155.34Z" fill="#E4E4E4"/>
<path d="M426.778 185.225H407.301C406.324 185.225 405.387 185.614 404.696 186.306C404.006 186.998 403.618 187.936 403.617 188.914V205.812C403.619 206.79 404.007 207.727 404.698 208.419C405.388 209.111 406.324 209.5 407.301 209.501H426.778C427.754 209.499 428.69 209.109 429.38 208.418C430.07 207.726 430.459 206.79 430.462 205.812V188.914C430.46 187.936 430.072 186.999 429.381 186.307C428.691 185.616 427.755 185.227 426.778 185.225Z" fill="#83BB62"/>
<path d="M450.979 220.54H383.094C382.651 220.54 382.225 220.717 381.912 221.031C381.598 221.345 381.422 221.771 381.422 222.215C381.422 222.659 381.598 223.086 381.912 223.4C382.225 223.714 382.651 223.89 383.094 223.89H450.979C451.423 223.89 451.848 223.714 452.162 223.4C452.475 223.086 452.651 222.659 452.651 222.215C452.651 221.771 452.475 221.345 452.162 221.031C451.848 220.717 451.423 220.54 450.979 220.54Z" fill="#E4E4E4"/>
<path d="M408.878 228.391H383.094C382.651 228.391 382.225 228.568 381.912 228.882C381.598 229.196 381.422 229.622 381.422 230.066C381.422 230.511 381.598 230.937 381.912 231.251C382.225 231.565 382.651 231.741 383.094 231.741H408.878C409.321 231.741 409.747 231.565 410.06 231.251C410.374 230.937 410.55 230.511 410.55 230.066C410.55 229.622 410.374 229.196 410.06 228.882C409.747 228.568 409.321 228.391 408.878 228.391Z" fill="#E4E4E4"/>
<path d="M334.695 2.26523C334.695 1.86039 334.534 1.47234 334.248 1.18606C333.962 0.899779 333.575 0.738589 333.171 0.737793H60.8572C60.453 0.738575 60.0655 0.899742 59.7797 1.18601C59.4938 1.47229 59.3329 1.86035 59.332 2.26523V11.2527C59.3307 11.6269 59.4702 11.9878 59.7227 12.2636C59.4795 18.366 59.332 26.409 59.332 35.2194V238.072C59.332 257.095 60.0173 272.561 60.8572 272.561H333.171C334.011 272.561 334.695 257.095 334.695 238.072V35.2194C334.695 26.409 334.548 18.366 334.305 12.2636C334.558 11.9878 334.697 11.6268 334.695 11.2527V2.26523Z" fill="white"/>
<path d="M333.169 273.299H60.8556C60.0231 273.299 59.5206 273.299 59.042 262.483C58.7529 255.949 58.5938 247.28 58.5938 238.072V35.2194C58.5938 26.7283 58.7327 18.5654 58.985 12.2342C59.4693 -5.11833e-05 60.0208 -6.10352e-05 60.8556 -6.10352e-05H333.169C334.004 -6.10352e-05 334.555 0.0021106 335.04 12.2342C335.292 18.5596 335.431 26.7225 335.431 35.2194V238.072C335.431 247.28 335.271 255.95 334.982 262.483C334.504 273.299 334.001 273.299 333.169 273.299ZM61.2856 271.824H332.739C333.342 269.51 333.957 256.52 333.957 238.072V35.2194C333.957 26.7416 333.819 18.5992 333.567 12.2933C333.261 4.54293 332.902 2.18406 332.731 1.47572H61.2936C61.1223 2.18409 60.764 4.54258 60.4571 12.2929C60.2056 18.6053 60.0671 26.7473 60.0671 35.2194V238.072C60.0671 256.52 60.6827 269.51 61.2856 271.824Z" fill="#E4E4E4"/>
<path d="M333.171 0.737793H60.8572C60.453 0.738575 60.0655 0.899742 59.7797 1.18601C59.4938 1.47229 59.3329 1.86035 59.332 2.26523V11.2527C59.3307 11.6269 59.4702 11.9878 59.7227 12.2636C59.8642 12.4256 60.0387 12.5554 60.2343 12.6445C60.4299 12.7336 60.6423 12.7798 60.8572 12.7802H333.171C333.386 12.7798 333.598 12.7336 333.793 12.6445C333.989 12.5554 334.164 12.4256 334.305 12.2636C334.557 11.9878 334.697 11.6268 334.695 11.2527V2.26523C334.695 1.8604 334.534 1.47236 334.248 1.18608C333.962 0.899803 333.575 0.738604 333.171 0.737793Z" fill="#CACACA"/>
<path d="M68.1851 8.48941C69.3811 8.48941 70.3506 7.51827 70.3506 6.3203C70.3506 5.12233 69.3811 4.15118 68.1851 4.15118C66.9891 4.15118 66.0195 5.12233 66.0195 6.3203C66.0195 7.51827 66.9891 8.48941 68.1851 8.48941Z" fill="white"/>
<path d="M76.4077 8.48941C77.6038 8.48941 78.5733 7.51827 78.5733 6.3203C78.5733 5.12233 77.6038 4.15118 76.4077 4.15118C75.2117 4.15118 74.2422 5.12233 74.2422 6.3203C74.2422 7.51827 75.2117 8.48941 76.4077 8.48941Z" fill="white"/>
<path d="M84.6265 8.48941C85.8225 8.48941 86.7921 7.51827 86.7921 6.3203C86.7921 5.12233 85.8225 4.15118 84.6265 4.15118C83.4305 4.15118 82.4609 5.12233 82.4609 6.3203C82.4609 7.51827 83.4305 8.48941 84.6265 8.48941Z" fill="white"/>
<path d="M325.119 3.42377H315.653C315.467 3.42377 315.289 3.49762 315.158 3.62908C315.027 3.76054 314.953 3.93884 314.953 4.12476C314.953 4.31067 315.027 4.48898 315.158 4.62044C315.289 4.7519 315.467 4.82576 315.653 4.82576H325.119C325.305 4.82576 325.483 4.7519 325.614 4.62044C325.745 4.48898 325.819 4.31067 325.819 4.12476C325.819 3.93884 325.745 3.76054 325.614 3.62908C325.483 3.49762 325.305 3.42377 325.119 3.42377Z" fill="white"/>
<path d="M325.119 6.05804H315.653C315.467 6.05804 315.289 6.1319 315.158 6.26336C315.027 6.39482 314.953 6.57312 314.953 6.75904C314.953 6.94495 315.027 7.12325 315.158 7.25472C315.289 7.38618 315.467 7.46003 315.653 7.46003H325.119C325.305 7.46003 325.483 7.38618 325.614 7.25472C325.745 7.12325 325.819 6.94495 325.819 6.75904C325.819 6.57312 325.745 6.39482 325.614 6.26336C325.483 6.1319 325.305 6.05804 325.119 6.05804Z" fill="white"/>
<path d="M325.119 8.69226H315.653C315.467 8.69226 315.289 8.76612 315.158 8.89759C315.027 9.02905 314.953 9.20734 314.953 9.39325C314.953 9.57917 315.027 9.75747 315.158 9.88893C315.289 10.0204 315.467 10.0943 315.653 10.0943H325.119C325.305 10.0943 325.483 10.0204 325.614 9.88893C325.745 9.75747 325.819 9.57917 325.819 9.39325C325.819 9.20734 325.745 9.02905 325.614 8.89759C325.483 8.76612 325.305 8.69226 325.119 8.69226Z" fill="white"/>
<path d="M148.875 45.7639H117.006C115.409 45.7658 113.877 46.4024 112.747 47.5339C111.618 48.6655 110.982 50.1996 110.98 51.7998V79.4485C110.982 81.0487 111.618 82.5828 112.747 83.7144C113.877 84.8459 115.409 85.4825 117.006 85.4844H148.875C150.473 85.4825 152.004 84.8459 153.134 83.7144C154.264 82.5828 154.899 81.0487 154.901 79.4485V51.7998C154.899 50.1996 154.264 48.6655 153.134 47.5339C152.004 46.4024 150.473 45.7658 148.875 45.7639Z" fill="#83BB62"/>
<path d="M280.321 56.4559H169.245C168.519 56.4559 167.823 56.7447 167.309 57.2588C166.796 57.7729 166.508 58.4701 166.508 59.1971C166.508 59.9242 166.796 60.6214 167.309 61.1355C167.823 61.6496 168.519 61.9384 169.245 61.9384H280.321C281.047 61.9384 281.743 61.6496 282.256 61.1355C282.769 60.6214 283.058 59.9242 283.058 59.1971C283.058 58.4701 282.769 57.7729 282.256 57.2588C281.743 56.7447 281.047 56.4559 280.321 56.4559Z" fill="#E4E4E4"/>
<path d="M211.434 69.3024H169.245C168.519 69.3024 167.823 69.5912 167.309 70.1053C166.796 70.6194 166.508 71.3167 166.508 72.0437C166.508 72.7707 166.796 73.468 167.309 73.982C167.823 74.4961 168.519 74.7849 169.245 74.7849H211.434C212.16 74.7849 212.856 74.4961 213.369 73.982C213.883 73.468 214.171 72.7707 214.171 72.0437C214.171 71.3167 213.883 70.6194 213.369 70.1053C212.856 69.5912 212.16 69.3024 211.434 69.3024Z" fill="#E4E4E4"/>
<path d="M148.875 119.553H117.006C115.409 119.555 113.877 120.191 112.747 121.323C111.618 122.454 110.982 123.988 110.98 125.589V153.237C110.982 154.838 111.618 156.372 112.747 157.503C113.877 158.635 115.409 159.271 117.006 159.273H148.875C150.473 159.271 152.004 158.635 153.134 157.503C154.264 156.372 154.899 154.838 154.901 153.237V125.589C154.899 123.988 154.264 122.454 153.134 121.323C152.004 120.191 150.473 119.555 148.875 119.553Z" fill="#83BB62"/>
<path d="M280.321 130.245H169.245C168.519 130.245 167.823 130.534 167.309 131.048C166.796 131.562 166.508 132.259 166.508 132.986C166.508 133.713 166.796 134.41 167.309 134.924C167.823 135.438 168.519 135.727 169.245 135.727H280.321C281.047 135.727 281.743 135.438 282.256 134.924C282.769 134.41 283.058 133.713 283.058 132.986C283.058 132.259 282.769 131.562 282.256 131.048C281.743 130.534 281.047 130.245 280.321 130.245Z" fill="#E4E4E4"/>
<path d="M211.434 143.091H169.245C168.519 143.091 167.823 143.38 167.309 143.894C166.796 144.408 166.508 145.106 166.508 145.833C166.508 146.56 166.796 147.257 167.309 147.771C167.823 148.285 168.519 148.574 169.245 148.574H211.434C212.16 148.574 212.856 148.285 213.369 147.771C213.883 147.257 214.171 146.56 214.171 145.833C214.171 145.106 213.883 144.408 213.369 143.894C212.856 143.38 212.16 143.091 211.434 143.091Z" fill="#E4E4E4"/>
<path d="M148.875 193.342H117.006C115.409 193.344 113.877 193.98 112.747 195.112C111.618 196.243 110.982 197.777 110.98 199.378V227.026C110.982 228.627 111.618 230.161 112.747 231.292C113.877 232.424 115.409 233.06 117.006 233.062H148.875C150.473 233.06 152.004 232.424 153.134 231.292C154.264 230.161 154.899 228.627 154.901 227.026V199.378C154.899 197.777 154.264 196.243 153.134 195.112C152.004 193.98 150.473 193.344 148.875 193.342Z" fill="#83BB62"/>
<path d="M280.321 204.034H169.245C168.519 204.034 167.823 204.323 167.309 204.837C166.796 205.351 166.508 206.048 166.508 206.775C166.508 207.502 166.796 208.199 167.309 208.713C167.823 209.227 168.519 209.516 169.245 209.516H280.321C281.047 209.516 281.743 209.227 282.256 208.713C282.769 208.199 283.058 207.502 283.058 206.775C283.058 206.048 282.769 205.351 282.256 204.837C281.743 204.323 281.047 204.034 280.321 204.034Z" fill="#E4E4E4"/>
<path d="M211.434 216.88H169.245C168.519 216.88 167.823 217.169 167.309 217.683C166.796 218.197 166.508 218.895 166.508 219.622C166.508 220.349 166.796 221.046 167.309 221.56C167.823 222.074 168.519 222.363 169.245 222.363H211.434C212.16 222.363 212.856 222.074 213.369 221.56C213.883 221.046 214.171 220.349 214.171 219.622C214.171 218.895 213.883 218.197 213.369 217.683C212.856 217.169 212.16 216.88 211.434 216.88Z" fill="#E4E4E4"/>
<path d="M381.791 321.262H199.353C198.512 321.262 197.828 308.313 197.828 292.393V122.58C197.828 106.661 198.512 93.7114 199.353 93.7114H381.791C382.632 93.7114 383.316 106.661 383.316 122.58V292.393C383.317 308.313 382.632 321.262 381.791 321.262Z" fill="white"/>
<path d="M381.794 322H199.356C198.584 322 198.026 322 197.542 312.837C197.253 307.365 197.094 300.105 197.094 292.393V122.58C197.094 114.869 197.253 107.608 197.542 102.137C198.026 92.9733 198.584 92.9733 199.356 92.9733H381.794C382.565 92.9733 383.123 92.9733 383.607 102.137C383.896 107.608 384.056 114.869 384.056 122.58V292.393C384.056 300.105 383.896 307.365 383.607 312.837C383.123 322 382.565 322 381.794 322ZM199.763 320.524H381.386C381.915 318.613 382.582 308.427 382.582 292.393V122.58C382.582 106.546 381.915 96.3608 381.386 94.4491H199.763C199.235 96.3608 198.567 106.546 198.567 122.58V292.393C198.567 308.427 199.235 318.613 199.763 320.524Z" fill="#E4E4E4"/>
<path d="M381.791 105.754H199.353C198.949 105.754 198.561 105.592 198.275 105.306C197.989 105.02 197.829 104.631 197.828 104.226V95.2392C197.829 94.8341 197.989 94.4458 198.275 94.1593C198.561 93.8729 198.949 93.7118 199.353 93.7114H381.791C382.196 93.7118 382.583 93.8729 382.869 94.1593C383.155 94.4458 383.316 94.8341 383.316 95.2392V104.226C383.316 104.631 383.155 105.02 382.869 105.306C382.583 105.592 382.196 105.754 381.791 105.754Z" fill="#CACACA"/>
<path d="M206.681 101.463C207.877 101.463 208.847 100.492 208.847 99.2943C208.847 98.0963 207.877 97.1252 206.681 97.1252C205.485 97.1252 204.516 98.0963 204.516 99.2943C204.516 100.492 205.485 101.463 206.681 101.463Z" fill="white"/>
<path d="M214.9 101.463C216.096 101.463 217.065 100.492 217.065 99.2943C217.065 98.0963 216.096 97.1252 214.9 97.1252C213.704 97.1252 212.734 98.0963 212.734 99.2943C212.734 100.492 213.704 101.463 214.9 101.463Z" fill="white"/>
<path d="M223.123 101.463C224.319 101.463 225.288 100.492 225.288 99.2943C225.288 98.0963 224.319 97.1252 223.123 97.1252C221.927 97.1252 220.957 98.0963 220.957 99.2943C220.957 100.492 221.927 101.463 223.123 101.463Z" fill="white"/>
<path d="M373.741 97.8014H364.275C364.089 97.8014 363.911 97.7274 363.78 97.5957C363.648 97.464 363.574 97.2853 363.574 97.0991C363.574 96.9128 363.648 96.7342 363.78 96.6025C363.911 96.4708 364.089 96.3968 364.275 96.3968H373.741C373.926 96.3974 374.104 96.4716 374.235 96.6033C374.366 96.7349 374.44 96.9132 374.44 97.0991C374.44 97.2849 374.366 97.4632 374.235 97.5949C374.104 97.7265 373.926 97.8008 373.741 97.8014Z" fill="white"/>
<path d="M373.741 100.435H364.275C364.089 100.435 363.911 100.361 363.78 100.229C363.648 100.098 363.574 99.9189 363.574 99.7326C363.574 99.5464 363.648 99.3677 363.78 99.236C363.911 99.1043 364.089 99.0303 364.275 99.0303H373.741C373.927 99.0303 374.105 99.1043 374.236 99.236C374.368 99.3677 374.442 99.5464 374.442 99.7326C374.442 99.9189 374.368 100.098 374.236 100.229C374.105 100.361 373.927 100.435 373.741 100.435Z" fill="white"/>
<path d="M373.741 103.069H364.275C364.089 103.069 363.911 102.995 363.78 102.863C363.648 102.731 363.574 102.552 363.574 102.366C363.574 102.18 363.648 102.001 363.78 101.87C363.911 101.738 364.089 101.664 364.275 101.664H373.741C373.926 101.665 374.104 101.739 374.235 101.87C374.366 102.002 374.44 102.18 374.44 102.366C374.44 102.552 374.366 102.73 374.235 102.862C374.104 102.994 373.926 103.068 373.741 103.069Z" fill="white"/>
<path d="M255.418 161.536H232.144C230.977 161.535 229.858 161.07 229.033 160.243C228.208 159.417 227.744 158.296 227.742 157.128V136.937C227.744 135.768 228.208 134.647 229.033 133.821C229.858 132.994 230.977 132.529 232.144 132.528H255.418C256.584 132.529 257.703 132.994 258.528 133.821C259.353 134.647 259.818 135.768 259.819 136.937V157.128C259.818 158.296 259.353 159.417 258.528 160.243C257.703 161.07 256.584 161.535 255.418 161.536Z" fill="#83BB62"/>
<path d="M351.407 144.343H270.291C269.761 144.343 269.253 144.132 268.878 143.757C268.503 143.381 268.293 142.872 268.293 142.341C268.293 141.811 268.503 141.301 268.878 140.926C269.253 140.551 269.761 140.34 270.291 140.34H351.407C351.937 140.34 352.445 140.551 352.82 140.926C353.195 141.301 353.406 141.811 353.406 142.341C353.406 142.872 353.195 143.381 352.82 143.757C352.445 144.132 351.937 144.343 351.407 144.343Z" fill="#E4E4E4"/>
<path d="M301.1 153.724H270.291C269.761 153.724 269.253 153.513 268.878 153.138C268.503 152.763 268.293 152.254 268.293 151.723C268.293 151.192 268.503 150.683 268.878 150.308C269.253 149.932 269.761 149.721 270.291 149.721H301.1C301.363 149.721 301.623 149.772 301.866 149.873C302.109 149.973 302.33 150.12 302.516 150.306C302.702 150.492 302.849 150.713 302.95 150.956C303.051 151.199 303.102 151.46 303.102 151.723C303.102 151.986 303.051 152.247 302.95 152.49C302.849 152.733 302.702 152.954 302.516 153.139C302.33 153.325 302.109 153.473 301.866 153.573C301.623 153.673 301.363 153.725 301.1 153.724Z" fill="#E4E4E4"/>
<path d="M255.418 221.305H232.144C230.977 221.304 229.858 220.839 229.033 220.012C228.208 219.186 227.744 218.065 227.742 216.897V196.706C227.744 195.537 228.208 194.416 229.033 193.59C229.858 192.763 230.977 192.298 232.144 192.297H255.418C256.584 192.298 257.703 192.763 258.528 193.59C259.353 194.416 259.818 195.537 259.819 196.706V216.897C259.818 218.065 259.353 219.186 258.528 220.012C257.703 220.839 256.584 221.304 255.418 221.305Z" fill="#83BB62"/>
<path d="M351.407 204.112H270.291C269.761 204.112 269.253 203.901 268.878 203.526C268.503 203.15 268.293 202.641 268.293 202.11C268.293 201.579 268.503 201.07 268.878 200.695C269.253 200.32 269.761 200.109 270.291 200.109H351.407C351.937 200.109 352.445 200.32 352.82 200.695C353.195 201.07 353.406 201.579 353.406 202.11C353.406 202.641 353.195 203.15 352.82 203.526C352.445 203.901 351.937 204.112 351.407 204.112Z" fill="#E4E4E4"/>
<path d="M301.1 213.493H270.291C269.761 213.493 269.253 213.282 268.878 212.907C268.503 212.532 268.293 212.023 268.293 211.492C268.293 210.961 268.503 210.452 268.878 210.077C269.253 209.701 269.761 209.49 270.291 209.49H301.1C301.363 209.49 301.623 209.541 301.866 209.642C302.109 209.742 302.33 209.889 302.516 210.075C302.702 210.261 302.849 210.482 302.95 210.725C303.051 210.968 303.102 211.229 303.102 211.492C303.102 211.755 303.051 212.016 302.95 212.259C302.849 212.502 302.702 212.723 302.516 212.908C302.33 213.094 302.109 213.242 301.866 213.342C301.623 213.442 301.363 213.494 301.1 213.493Z" fill="#E4E4E4"/>
<path d="M255.418 281.074H232.144C230.977 281.073 229.858 280.608 229.033 279.781C228.208 278.955 227.744 277.834 227.742 276.666V256.475C227.744 255.306 228.208 254.185 229.033 253.359C229.858 252.532 230.977 252.067 232.144 252.066H255.418C256.584 252.067 257.703 252.532 258.528 253.359C259.353 254.185 259.818 255.306 259.819 256.475V276.666C259.818 277.834 259.353 278.955 258.528 279.781C257.703 280.608 256.584 281.073 255.418 281.074Z" fill="#83BB62"/>
<path d="M351.407 263.881H270.291C269.761 263.881 269.253 263.67 268.878 263.295C268.503 262.919 268.293 262.41 268.293 261.879C268.293 261.349 268.503 260.839 268.878 260.464C269.253 260.089 269.761 259.878 270.291 259.878H351.407C351.937 259.878 352.445 260.089 352.82 260.464C353.195 260.839 353.406 261.349 353.406 261.879C353.406 262.41 353.195 262.919 352.82 263.295C352.445 263.67 351.937 263.881 351.407 263.881Z" fill="#E4E4E4"/>
<path d="M301.1 273.262H270.291C269.761 273.262 269.253 273.052 268.878 272.676C268.503 272.301 268.293 271.792 268.293 271.261C268.293 270.73 268.503 270.221 268.878 269.846C269.253 269.47 269.761 269.259 270.291 269.259H301.1C301.363 269.259 301.623 269.31 301.866 269.411C302.109 269.511 302.33 269.658 302.516 269.844C302.702 270.03 302.849 270.251 302.95 270.494C303.051 270.737 303.102 270.998 303.102 271.261C303.102 271.524 303.051 271.785 302.95 272.028C302.849 272.271 302.702 272.492 302.516 272.678C302.33 272.863 302.109 273.011 301.866 273.111C301.623 273.211 301.363 273.263 301.1 273.262Z" fill="#E4E4E4"/>
</g>
<defs>
<clipPath id="clip0_691_1852">
<rect width="539" height="322" fill="white"/>
</clipPath>
</defs>
</svg>
