<svg width="495" height="300" viewBox="0 0 653 511" fill="none" xmlns="http://www.w3.org/2000/svg">
<g clip-path="url(#clip0_691_1927)">
<path d="M115.178 421.106C104.248 413.771 94.0071 397.013 103.075 383.012C107.572 376.069 115.419 373.501 122.81 372.745C133.034 371.7 143.375 373.839 152.883 377.071C163.851 380.799 174.145 386.212 184.344 391.668C194.412 397.054 204.533 402.309 214.873 407.141C235.247 416.657 256.206 424.868 277.624 431.724C298.62 438.459 320.019 443.868 341.695 447.92C352.454 449.927 363.281 451.58 374.178 452.881C384.35 454.089 394.602 455.192 404.911 455.149C418.493 455.091 441.162 453.511 446.153 436.144C448.799 426.935 445.218 417.357 440.74 409.91C435.325 400.906 427.893 393.471 420.601 386.222C386.683 352.504 352.684 318.876 318.604 285.338C310.669 277.49 302.627 269.728 295.25 261.281C288.344 253.373 281.764 244.75 277.623 234.762C274.006 226.038 271.887 215.395 275.8 205.95C279.046 198.117 286.029 193.121 293.331 190.2C311.41 182.969 332.094 185.25 350.041 189.221C372.338 194.155 393.654 202.495 415.921 207.547C433.9 211.626 453.97 213.786 472.292 207.64C479.317 205.284 486.214 201.414 490.931 195.136C495.552 188.987 497.172 181.286 496.439 173.815C495.573 164.997 491.897 156.806 487.498 149.557C482.248 141.109 475.843 133.435 468.467 126.759C452.674 112.159 434.549 100.691 417.637 87.6165C409.343 81.2043 401.058 74.4891 394.206 66.3615C388.401 59.4758 382.483 50.9385 381.522 41.3035C379.54 21.4241 403.59 19.4254 416.492 20.1487C425.283 20.7655 434.021 22.0029 442.638 23.8516C444.482 24.2201 444.858 21.0998 443.023 20.733C433.969 18.9239 424.808 17.3586 415.52 16.9629C407.699 16.6297 399.37 16.9523 391.866 20.1733C385.563 22.8785 380.243 28.1417 378.829 35.3373C377.155 43.851 380.997 52.4145 385.121 59.1405C390.574 68.0349 397.91 75.3168 405.645 81.938C413.791 88.9114 422.422 95.2368 431.069 101.512C448.346 114.051 466.701 126.379 479.89 143.858C489.117 156.085 500.14 176.559 489.299 192.373C484.487 199.392 476.678 203.301 469.063 205.445C459.859 208.037 450.286 208.523 440.961 208.036C397.481 205.764 358.681 180.105 314.406 182.788C299.353 183.701 279.672 188.379 272.952 205.204C269.46 213.944 270.585 223.649 273.377 232.062C276.721 242.139 282.704 250.962 289.191 258.915C296.053 267.329 303.712 274.966 311.371 282.551C319.896 290.991 328.425 299.427 336.958 307.858L388.728 359.061L414.451 384.501C422.301 392.266 430.459 399.959 436.706 409.297C441.822 416.942 446.985 428.226 442.365 437.93C438.695 445.637 430.061 448.861 422.719 450.405C413.212 452.403 403.455 452.288 393.953 451.647C382.993 450.909 372.077 449.584 361.242 447.994C338.934 444.706 316.867 439.948 295.187 433.751C273.43 427.548 252.092 419.964 231.302 411.045C220.793 406.536 210.437 401.685 200.233 396.493C189.717 391.137 179.476 385.213 168.797 380.19C159.138 375.646 149.06 371.891 138.447 370.233C129.585 368.848 119.712 368.692 111.072 372.535C108.019 373.877 105.283 375.847 103.041 378.315C100.8 380.784 99.1039 383.696 98.0629 386.863C96.1276 393.325 96.483 400.256 99.069 406.486C101.986 413.518 106.963 419.505 113.346 423.66C114.907 424.708 116.747 422.159 115.178 421.106Z" fill="#F2F2F2"/>
<path d="M653 81.2113H413.176V0H653V81.2113Z" fill="white"/>
<path d="M498.474 254.509H267.414V410.282H498.474V254.509Z" fill="white"/>
<path d="M499.271 411.078H266.617V253.713H499.271V411.078ZM268.211 409.486H497.677V255.305H268.211V409.486Z" fill="#3F3D56"/>
<path d="M286.938 376.136H478.945V266.867H286.938V376.136Z" fill="#E6E6E6"/>
<path d="M343.424 334.804C354.052 334.804 362.668 326.194 362.668 315.574C362.668 304.953 354.052 296.343 343.424 296.343C332.796 296.343 324.18 304.953 324.18 315.574C324.18 326.194 332.796 334.804 343.424 334.804Z" fill="#83BB62"/>
<path d="M403.771 374.835H309.364C309.246 374.836 309.128 374.827 309.012 374.807L353.661 297.522C353.934 297.041 354.329 296.641 354.807 296.362C355.285 296.083 355.829 295.937 356.382 295.937C356.936 295.937 357.479 296.083 357.957 296.362C358.435 296.641 358.831 297.041 359.103 297.522L389.069 349.386L390.504 351.868L403.771 374.835Z" fill="#3F3D56"/>
<path opacity="0.2" d="M403.772 374.835H371.539L387.362 351.868L388.501 350.213L389.071 349.386L390.506 351.868L403.772 374.835Z" fill="black"/>
<path d="M456.337 374.835H374.684L390.506 351.868L391.645 350.213L412.264 320.283C412.628 319.826 413.085 319.451 413.604 319.181C414.123 318.912 414.694 318.754 415.278 318.72C415.862 318.685 416.446 318.773 416.994 318.979C417.542 319.184 418.04 319.503 418.457 319.913C418.563 320.03 418.663 320.154 418.754 320.283L456.337 374.835Z" fill="#3F3D56"/>
<path d="M582.884 109.874H347.84V223.729H582.884V109.874Z" fill="white"/>
<path d="M386.025 164.547C395.415 164.547 403.027 156.941 403.027 147.558C403.027 138.175 395.415 130.568 386.025 130.568C376.635 130.568 369.023 138.175 369.023 147.558C369.023 156.941 376.635 164.547 386.025 164.547Z" fill="#E6E6E6"/>
<path d="M425.291 136.232C424.539 136.232 423.818 136.53 423.287 137.061C422.756 137.592 422.457 138.312 422.457 139.063C422.457 139.814 422.756 140.534 423.287 141.066C423.818 141.597 424.539 141.895 425.291 141.895H558.875C559.625 141.893 560.344 141.594 560.874 141.063C561.404 140.532 561.702 139.813 561.702 139.063C561.702 138.313 561.404 137.594 560.874 137.063C560.344 136.533 559.625 136.233 558.875 136.232H425.291Z" fill="#E6E6E6"/>
<path d="M425.292 153.221C424.919 153.22 424.551 153.292 424.206 153.433C423.862 153.575 423.549 153.783 423.284 154.045C423.02 154.308 422.811 154.619 422.668 154.963C422.524 155.306 422.45 155.675 422.449 156.047C422.448 156.419 422.521 156.787 422.663 157.131C422.805 157.475 423.013 157.788 423.276 158.052C423.539 158.315 423.851 158.524 424.195 158.667C424.539 158.81 424.908 158.884 425.28 158.884H482.773C483.525 158.884 484.246 158.586 484.777 158.055C485.309 157.524 485.607 156.804 485.607 156.053C485.607 155.302 485.309 154.581 484.777 154.05C484.246 153.519 483.525 153.221 482.773 153.221H425.292Z" fill="#E6E6E6"/>
<path d="M372.984 180.382C370.828 180.382 369.074 181.653 369.074 183.214C369.074 184.775 370.828 186.045 372.984 186.045H557.289C559.444 186.045 561.198 184.775 561.198 183.214C561.198 181.653 559.444 180.382 557.289 180.382H372.984Z" fill="#E6E6E6"/>
<path d="M372.984 197.372C370.828 197.372 369.074 198.642 369.074 200.203C369.074 201.765 370.828 203.035 372.984 203.035H557.289C559.444 203.035 561.198 201.765 561.198 200.203C561.198 198.642 559.444 197.372 557.289 197.372H372.984Z" fill="#E6E6E6"/>
<path d="M585.277 226.118H345.453V107.486H585.277V226.118ZM350.234 221.341H580.497V112.263H350.234V221.341Z" fill="#E6E6E6"/>
<path d="M453.752 57.0618C463.141 57.0618 470.753 49.4554 470.753 40.0723C470.753 30.6893 463.141 23.0829 453.752 23.0829C444.362 23.0829 436.75 30.6893 436.75 40.0723C436.75 49.4554 444.362 57.0618 453.752 57.0618Z" fill="#E6E6E6"/>
<path d="M493.017 28.7461C492.266 28.7461 491.545 29.0444 491.014 29.5754C490.482 30.1065 490.184 30.8267 490.184 31.5777C490.184 32.3287 490.482 33.0489 491.014 33.5799C491.545 34.1109 492.266 34.4092 493.017 34.4092H626.601C627.352 34.4075 628.071 34.1084 628.6 33.5775C629.13 33.0467 629.428 32.3275 629.428 31.5777C629.428 30.8279 629.13 30.1086 628.6 29.5778C628.071 29.047 627.352 28.7479 626.601 28.7461H493.017Z" fill="#E6E6E6"/>
<path d="M493.015 45.7355C492.642 45.7343 492.273 45.8065 491.929 45.9479C491.584 46.0893 491.271 46.2971 491.007 46.5595C490.743 46.8219 490.534 47.1338 490.39 47.4772C490.247 47.8207 490.173 48.189 490.172 48.5611C490.171 48.9332 490.244 49.3018 490.386 49.6458C490.527 49.9899 490.736 50.3026 490.999 50.5662C491.262 50.8297 491.574 51.0389 491.918 51.1817C492.262 51.3245 492.63 51.3983 493.003 51.3986H550.496C551.248 51.3986 551.968 51.1003 552.5 50.5693C553.031 50.0383 553.33 49.318 553.33 48.5671C553.33 47.8161 553.031 47.0959 552.5 46.5648C551.968 46.0338 551.248 45.7355 550.496 45.7355H493.015Z" fill="#E6E6E6"/>
<path d="M653 81.2113H413.176V0H653V81.2113ZM417.956 76.4342H648.219V4.77714H417.956V76.4342Z" fill="#E6E6E6"/>
<path d="M146.924 497.513L159.821 497.513L165.956 447.803L146.922 447.805L146.924 497.513Z" fill="#FFB8B8"/>
<path d="M184.695 509.479L144.163 509.48L144.162 493.831L172.833 493.83C175.979 493.83 178.996 495.079 181.221 497.301C183.445 499.524 184.695 502.539 184.695 505.682L184.695 509.479Z" fill="#2F2E41"/>
<path d="M95.3766 497.513L108.274 497.513L114.409 447.803L95.375 447.805L95.3766 497.513Z" fill="#FFB8B8"/>
<path d="M133.148 509.479L92.6159 509.481L92.6151 493.831L121.286 493.83C124.432 493.83 127.449 495.079 129.674 497.301C131.898 499.524 133.148 502.539 133.148 505.682L133.148 509.479Z" fill="#2F2E41"/>
<path d="M169.394 354.213C168.342 353.227 167.519 352.023 166.984 350.685C166.448 349.347 166.212 347.908 166.293 346.469C166.374 345.03 166.77 343.627 167.453 342.357C168.135 341.088 169.088 339.984 170.244 339.122L164.719 317.284L177.18 310.692L184.55 341.641C185.869 343.677 186.396 346.127 186.029 348.525C185.662 350.923 184.428 353.104 182.56 354.654C180.692 356.203 178.32 357.014 175.893 356.933C173.466 356.852 171.154 355.884 169.394 354.213Z" fill="#FFB8B8"/>
<path d="M90.793 316.07L91.8447 389.654L92.8964 486.365L116.04 484.262L127.611 350.76L142.338 484.262H166.231L168.637 349.708L160.222 320.274L90.793 316.07Z" fill="#2F2E41"/>
<path d="M136.09 325.951C110.908 325.953 87.7297 314.564 87.4168 314.408L87.1569 314.278L85.0437 263.601C84.4309 261.81 72.3646 226.474 70.321 215.242C68.2505 203.863 98.259 193.877 101.903 192.709L102.73 183.555L136.358 179.933L140.621 191.647L152.685 196.167C154.053 196.68 155.185 197.676 155.866 198.968C156.548 200.259 156.732 201.755 156.383 203.172L149.678 230.421L162.867 320.571L162.529 320.724C154.078 324.537 144.957 325.951 136.09 325.951Z" fill="#83BB62"/>
<path d="M166.151 331.607L154.481 283.599L141.832 225.665L148.253 196.791H153.742C153.843 196.791 163.818 196.94 165.966 209.817C168.046 222.289 174.319 261.982 174.382 262.381L184.984 330.186L166.151 331.607Z" fill="#83BB62"/>
<path d="M116.216 323.494C116.148 322.055 115.765 320.648 115.093 319.372C114.422 318.097 113.479 316.984 112.331 316.112C111.183 315.241 109.857 314.631 108.448 314.326C107.038 314.022 105.579 314.03 104.173 314.35L91.1284 295.979L78.0234 301.178L96.8095 326.862C97.5039 329.187 99.0276 331.176 101.092 332.453C103.156 333.731 105.618 334.207 108.01 333.792C110.402 333.377 112.558 332.099 114.071 330.201C115.583 328.303 116.347 325.917 116.216 323.494Z" fill="#FFB8B8"/>
<path d="M90.791 322.133L51.3203 270.964L66.1097 224.517C67.1934 212.839 74.5059 209.579 74.8171 209.445L75.2917 209.242L88.1611 243.537L78.712 268.717L101.905 307.696L90.791 322.133Z" fill="#83BB62"/>
<path d="M132.473 171.172C144.206 164.762 148.519 150.061 142.105 138.336C135.69 126.611 120.979 122.302 109.245 128.711C97.5119 135.121 93.1997 149.822 99.6138 161.547C106.028 173.272 120.739 177.581 132.473 171.172Z" fill="#FFB8B8"/>
<path d="M137.117 138.157C134.61 141.121 130.368 141.957 126.456 142.3C118.509 142.996 106.954 141.867 99.1881 140.075C98.6339 145.443 100.145 151.232 96.9809 155.648C95.4976 150.301 94.6351 144.802 94.4105 139.259C94.3145 136.882 94.3521 134.422 95.319 132.24C96.2859 130.058 98.3941 128.205 100.822 128.186C99.0184 126.818 96.9054 125.915 94.6698 125.557L102.358 121.697L100.384 119.671L114.302 118.82L110.271 116.261C116.338 115.428 122.477 115.234 128.585 115.683C131.421 115.892 134.387 116.291 136.685 117.933C138.983 119.575 140.311 122.839 138.884 125.25C140.67 125.543 142.352 126.287 143.77 127.411C145.188 128.536 146.295 130.003 146.987 131.675C148.011 134.27 147.917 137.153 147.602 139.919C147.077 144.342 146.049 148.692 144.535 152.882" fill="#2F2E41"/>
<path d="M304.362 511H0.796758C0.585445 511 0.382786 510.916 0.233364 510.767C0.0839433 510.617 0 510.415 0 510.204C0 509.993 0.0839433 509.79 0.233364 509.641C0.382786 509.491 0.585445 509.408 0.796758 509.408H304.362C304.573 509.408 304.776 509.491 304.925 509.641C305.074 509.79 305.158 509.993 305.158 510.204C305.158 510.415 305.074 510.617 304.925 510.767C304.776 510.916 304.573 511 304.362 511Z" fill="#CCCCCC"/>
</g>
<defs>
<clipPath id="clip0_691_1927">
<rect width="653" height="511" fill="white"/>
</clipPath>
</defs>
</svg>
