<svg width="445" height="265" viewBox="0 0 610 400" fill="none" xmlns="http://www.w3.org/2000/svg">
<g clip-path="url(#clip0_691_1961)">
<path d="M535.21 268.114C534.619 267.405 534.19 266.574 533.954 265.681C533.718 264.788 533.68 263.854 533.843 262.945C534.007 262.036 534.367 261.174 534.898 260.419C535.43 259.664 536.12 259.036 536.921 258.577L532.793 236.506L543.53 241.025L545.804 261.292C546.483 262.69 546.627 264.29 546.208 265.788C545.789 267.285 544.836 268.577 543.531 269.418C542.225 270.259 540.656 270.59 539.123 270.35C537.589 270.11 536.197 269.314 535.21 268.114Z" fill="#FFB6B6"/>
<path d="M509.699 12.9486H38.3398V237.067H509.699V12.9486Z" fill="#E6E6E6"/>
<path d="M496.223 32.1672H51.8203V219.157H496.223V32.1672Z" fill="white"/>
<path d="M509.5 0H38.1406V20.0651H509.5V0Z" fill="#83BB62"/>
<path d="M53.0201 13C55.0699 13 56.7316 11.3349 56.7316 9.281C56.7316 7.22706 55.0699 5.56201 53.0201 5.56201C50.9703 5.56201 49.3086 7.22706 49.3086 9.281C49.3086 11.3349 50.9703 13 53.0201 13Z" fill="white"/>
<path d="M67.1099 13C69.1598 13 70.8215 11.3349 70.8215 9.281C70.8215 7.22706 69.1598 5.56201 67.1099 5.56201C65.0601 5.56201 63.3984 7.22706 63.3984 9.281C63.3984 11.3349 65.0601 13 67.1099 13Z" fill="white"/>
<path d="M81.1959 13C83.2457 13 84.9074 11.3349 84.9074 9.281C84.9074 7.22706 83.2457 5.56201 81.1959 5.56201C79.1461 5.56201 77.4844 7.22706 77.4844 9.281C77.4844 11.3349 79.1461 13 81.1959 13Z" fill="white"/>
<path d="M77.8117 152.471C77.2964 152.473 76.8028 152.679 76.4391 153.045C76.0753 153.411 75.8711 153.906 75.8711 154.422C75.8711 154.939 76.0753 155.434 76.4391 155.8C76.8028 156.166 77.2964 156.372 77.8117 156.374H184.679C185.195 156.372 185.688 156.166 186.052 155.8C186.416 155.434 186.62 154.939 186.62 154.422C186.62 153.906 186.416 153.411 186.052 153.045C185.688 152.679 185.195 152.473 184.679 152.471H77.8117Z" fill="#E6E6E6"/>
<path d="M77.8117 164.181C77.2964 164.183 76.8028 164.389 76.4391 164.755C76.0753 165.121 75.8711 165.616 75.8711 166.133C75.8711 166.649 76.0753 167.144 76.4391 167.51C76.8028 167.876 77.2964 168.082 77.8117 168.084H132.37C132.885 168.082 133.379 167.876 133.742 167.51C134.106 167.144 134.31 166.649 134.31 166.133C134.31 165.616 134.106 165.121 133.742 164.755C133.379 164.389 132.885 164.183 132.37 164.181H77.8117Z" fill="#E6E6E6"/>
<path d="M184.813 186.289H144.218C143.692 186.288 143.188 186.079 142.816 185.706C142.444 185.334 142.235 184.829 142.234 184.302V177.785C142.235 177.258 142.444 176.753 142.816 176.38C143.188 176.008 143.692 175.798 144.218 175.797H184.813C185.339 175.798 185.843 176.008 186.215 176.38C186.586 176.753 186.795 177.258 186.796 177.785V184.302C186.795 184.829 186.586 185.334 186.215 185.706C185.843 186.079 185.339 186.288 184.813 186.289Z" fill="#83BB62"/>
<path d="M184.813 118.422H144.218C143.692 118.421 143.188 118.212 142.816 117.839C142.444 117.467 142.235 116.962 142.234 116.435V109.917C142.235 109.391 142.444 108.885 142.816 108.513C143.188 108.14 143.692 107.931 144.218 107.93H184.813C185.339 107.931 185.843 108.14 186.215 108.513C186.586 108.885 186.795 109.391 186.796 109.917V116.435C186.795 116.962 186.586 117.467 186.215 117.839C185.843 118.212 185.339 118.421 184.813 118.422Z" fill="#83BB62"/>
<path d="M256.365 64.8699C255.692 64.8709 255.047 65.1397 254.571 65.6171C254.095 66.0945 253.828 66.7416 253.828 67.4163C253.828 68.0909 254.095 68.738 254.571 69.2154C255.047 69.6929 255.692 69.9616 256.365 69.9627H468.909C469.582 69.9616 470.228 69.6929 470.704 69.2154C471.179 68.738 471.446 68.0909 471.446 67.4163C471.446 66.7416 471.179 66.0945 470.704 65.6171C470.228 65.1397 469.582 64.8709 468.909 64.8699H256.365Z" fill="#E6E6E6"/>
<path d="M256.365 80.1497C255.692 80.1507 255.047 80.4195 254.571 80.8969C254.095 81.3743 253.828 82.0214 253.828 82.6961C253.828 83.3707 254.095 84.0178 254.571 84.4952C255.047 84.9727 255.692 85.2414 256.365 85.2424H400.654C401.327 85.2414 401.972 84.9727 402.448 84.4952C402.924 84.0178 403.191 83.3707 403.191 82.6961C403.191 82.0214 402.924 81.3743 402.448 80.8969C401.972 80.4195 401.327 80.1507 400.654 80.1497H256.365Z" fill="#E6E6E6"/>
<path d="M256.365 95.0837C255.692 95.0848 255.047 95.3535 254.571 95.831C254.095 96.3084 253.828 96.9555 253.828 97.6301C253.828 98.3048 254.095 98.9519 254.571 99.4293C255.047 99.9067 255.692 100.175 256.365 100.177H468.909C469.582 100.175 470.228 99.9067 470.704 99.4293C471.179 98.9519 471.446 98.3048 471.446 97.6301C471.446 96.9555 471.179 96.3084 470.704 95.831C470.228 95.3535 469.582 95.0848 468.909 95.0837H256.365Z" fill="#E6E6E6"/>
<path d="M256.365 110.364C255.692 110.365 255.047 110.633 254.571 111.111C254.095 111.588 253.828 112.235 253.828 112.91C253.828 113.585 254.095 114.232 254.571 114.709C255.047 115.187 255.692 115.455 256.365 115.456H400.654C401.327 115.455 401.972 115.187 402.448 114.709C402.924 114.232 403.191 113.585 403.191 112.91C403.191 112.235 402.924 111.588 402.448 111.111C401.972 110.633 401.327 110.365 400.654 110.364H256.365Z" fill="#E6E6E6"/>
<path d="M469.532 143.411H428.936C428.411 143.411 427.906 143.201 427.535 142.828C427.163 142.456 426.954 141.951 426.953 141.424V134.907C426.954 134.38 427.163 133.875 427.535 133.502C427.906 133.13 428.411 132.92 428.936 132.919H469.532C470.057 132.92 470.562 133.13 470.933 133.502C471.305 133.875 471.514 134.38 471.515 134.907V141.424C471.514 141.951 471.305 142.456 470.933 142.828C470.562 143.201 470.057 143.411 469.532 143.411Z" fill="#83BB62"/>
<path d="M123.839 67.6282C123.117 67.6305 122.534 68.569 122.535 69.7245C122.537 70.8767 123.119 71.8102 123.839 71.8124H185.41C186.132 71.8102 186.715 70.8716 186.714 69.7162C186.712 68.564 186.13 67.6304 185.41 67.6282H123.839Z" fill="#E4E4E4"/>
<path d="M123.839 79.7515C123.117 79.7538 122.534 80.6923 122.535 81.8477C122.537 83 123.119 83.9335 123.839 83.9357H185.41C186.132 83.9335 186.715 82.9949 186.714 81.8395C186.712 80.6872 186.13 79.7537 185.41 79.7515H123.839Z" fill="#E4E4E4"/>
<path d="M123.839 91.7283C123.117 91.7306 122.534 92.6691 122.535 93.8246C122.537 94.9768 123.119 95.9103 123.839 95.9126H150.333C151.054 95.9103 151.638 94.9717 151.636 93.8163C151.635 92.664 151.052 91.7305 150.333 91.7283H123.839Z" fill="#E4E4E4"/>
<path d="M92.5753 98.3534C101.803 98.3534 109.283 90.8579 109.283 81.6116C109.283 72.3654 101.803 64.8699 92.5753 64.8699C83.3477 64.8699 75.8672 72.3654 75.8672 81.6116C75.8672 90.8579 83.3477 98.3534 92.5753 98.3534Z" fill="#E4E4E4"/>
<path d="M438.54 140.096C438.422 141.012 438.506 141.943 438.785 142.823C439.065 143.703 439.534 144.511 440.159 145.191C440.784 145.87 441.55 146.403 442.403 146.754C443.256 147.104 444.175 147.263 445.096 147.218L453.447 168.057L460.08 158.466L451.133 140.147C450.956 138.602 450.22 137.175 449.064 136.138C447.908 135.1 446.412 134.523 444.86 134.517C443.307 134.511 441.807 135.075 440.642 136.103C439.478 137.131 438.73 138.552 438.54 140.096Z" fill="#FFB6B6"/>
<path d="M532.686 390.717H524.998L521.34 361.001L532.688 361.002L532.686 390.717Z" fill="#FFB6B6"/>
<path d="M534.651 398.185L509.859 398.184V397.87C509.86 395.306 510.876 392.847 512.686 391.033C514.495 389.22 516.95 388.202 519.509 388.201H519.509L534.651 388.202L534.651 398.185Z" fill="#2F2E41"/>
<path d="M507.529 390.473L500.199 388.147L505.662 358.711L516.48 362.143L507.529 390.473Z" fill="#FFB6B6"/>
<path d="M507.147 398.185L483.512 390.687L483.606 390.388C484.379 387.943 486.089 385.906 488.36 384.725C490.631 383.543 493.278 383.314 495.718 384.088L510.154 388.668L507.147 398.185Z" fill="#2F2E41"/>
<path d="M498.423 245.484C498.423 245.484 487.015 263.433 491.046 279.452C495.077 295.471 499.467 326.263 499.467 326.263L521.324 378.384L537.617 377.718L521.437 316.265L522.077 275.177C522.077 275.177 533.323 255.54 531.133 249.427C528.943 243.314 498.423 245.484 498.423 245.484Z" fill="#2F2E41"/>
<path d="M535.693 251.901C535.693 251.901 537.097 269.707 532.707 277.248C528.317 284.788 523.64 313.489 523.64 313.489L516.178 370.891L500.723 365.852L513.902 301.54L524.26 250.951L535.693 251.901Z" fill="#2F2E41"/>
<path d="M541.173 165.706L529.114 157.401L510.764 156.867L504.374 163.145L494.622 168.135L493.719 249.427C493.719 249.427 522.921 263.452 538.632 256.682L546.19 193.356C549.326 180.788 541.173 165.706 541.173 165.706Z" fill="#3F3D56"/>
<path d="M497.07 189.858H464.906L443.773 153.41L457.514 147.956L469.151 168.698L485.994 167.171L496.511 166.661C498.196 166.58 499.879 166.868 501.442 167.506C503.004 168.144 504.409 169.117 505.557 170.355C506.705 171.594 507.569 173.069 508.089 174.678C508.609 176.286 508.772 177.989 508.566 179.667C508.219 182.478 506.859 185.065 504.742 186.942C502.625 188.818 499.897 189.856 497.07 189.858Z" fill="#3F3D56"/>
<path d="M521.434 150.173C530.221 150.173 537.344 143.035 537.344 134.23C537.344 125.426 530.221 118.288 521.434 118.288C512.647 118.288 505.523 125.426 505.523 134.23C505.523 143.035 512.647 150.173 521.434 150.173Z" fill="#FFB6B6"/>
<path d="M540.603 130.603C540.114 127.103 537.749 123.78 534.384 122.719C533.048 118.831 529.508 115.967 525.597 114.719C521.975 113.562 518.072 113.642 514.5 114.948C510.929 116.253 507.89 118.709 505.862 121.931C505.563 122.403 504.643 123.561 504.668 124.124C504.701 124.839 505.792 125.577 506.34 126.027C507.699 127.079 509.164 127.986 510.712 128.731C516.433 131.703 514.529 136.374 514.451 141.667C514.413 144.239 515.27 146.435 517.459 147.904C520.618 150.025 525.139 149.181 528.576 148.33C532.476 147.364 535.719 143.931 537.943 140.621C539.913 137.689 541.092 134.103 540.603 130.603Z" fill="#2F2E41"/>
<path d="M540.715 186.462L546.906 254.507L527.016 253.438L540.715 186.462Z" fill="#3F3D56"/>
<path d="M609.254 400H365.741C365.543 400 365.354 399.92 365.214 399.78C365.074 399.64 364.996 399.45 364.996 399.252C364.996 399.054 365.074 398.864 365.214 398.724C365.354 398.583 365.543 398.504 365.741 398.504H609.254C609.452 398.504 609.642 398.582 609.782 398.723C609.922 398.863 610.001 399.053 610.001 399.252C610.001 399.45 609.922 399.641 609.782 399.781C609.642 399.921 609.452 400 609.254 400Z" fill="#CACACA"/>
<path d="M52.7356 392.54H58.6991L61.5362 369.491H52.7344L52.7356 392.54Z" fill="#9E616A"/>
<path d="M51.2148 390.589L62.9595 390.589C64.9445 390.589 66.8486 391.379 68.2522 392.785C69.6558 394.192 70.4444 396.099 70.4446 398.088V398.332L51.2152 398.333L51.2148 390.589Z" fill="#2F2E41"/>
<path d="M107.704 392.54H113.668L116.505 369.491H107.703L107.704 392.54Z" fill="#9E616A"/>
<path d="M106.184 390.589L117.928 390.589C119.913 390.589 121.817 391.379 123.221 392.785C124.625 394.192 125.413 396.099 125.413 398.088V398.332L106.184 398.333L106.184 390.589Z" fill="#2F2E41"/>
<path d="M100.503 207.369L104.395 232.228L67.4258 232.715L72.2898 208.832L100.503 207.369Z" fill="#9E616A"/>
<path d="M103.321 226.158L115.096 257.574L116.555 387.765H106.583L82.7475 283.163L60.8577 385.034H51.1289L57.9391 270.49C57.9391 270.49 55.9308 247.5 66.2086 233.934L68.7102 226.692L103.321 226.158Z" fill="#2F2E41"/>
<path d="M52.8163 250.648C53.8456 250.367 54.8009 249.863 55.615 249.172C56.429 248.481 57.0819 247.62 57.5276 246.649C57.9734 245.677 58.2013 244.62 58.1951 243.551C58.189 242.482 57.949 241.427 57.492 240.461L73.2194 189.083L61.6513 186.785L47.2671 237.147C45.6984 238.023 44.5051 239.446 43.9134 241.146C43.3217 242.845 43.3727 244.703 44.0567 246.367C44.7407 248.032 46.0102 249.387 47.6247 250.176C49.2391 250.965 51.0863 251.133 52.8163 250.648Z" fill="#9E616A"/>
<path d="M73.5576 221.099C73.3418 221.099 73.1265 221.077 72.9148 221.035C72.203 220.892 71.5574 220.52 71.0765 219.975C70.5957 219.43 70.3061 218.743 70.2519 218.017C69.8862 213 68.0743 204.268 64.8665 192.061C63.7835 187.913 64.0234 183.528 65.5524 179.523C67.0813 175.518 69.8228 172.093 73.3924 169.727C76.962 167.362 81.1808 166.175 85.4575 166.334C89.7341 166.492 93.8541 167.987 97.24 170.61C99.4079 172.274 101.217 174.36 102.559 176.743C103.901 179.126 104.748 181.757 105.048 184.477C106.642 198.545 103.637 212.67 102.27 218.09C102.091 218.798 101.685 219.427 101.114 219.881C100.544 220.335 99.8409 220.589 99.1125 220.605L73.6285 221.098C73.6049 221.098 73.5813 221.099 73.5576 221.099Z" fill="#3F3D56"/>
<path d="M144.754 175.968C144.6 176.312 144.475 176.667 144.377 177.031L112.479 187.893L106.315 182.497L96.9727 190.754L106.958 201.368C107.765 202.225 108.827 202.798 109.986 202.999C111.145 203.199 112.337 203.018 113.385 202.482L147.518 185.012C148.753 185.77 150.188 186.135 151.634 186.056C153.08 185.977 154.468 185.459 155.613 184.571C156.758 183.682 157.606 182.465 158.044 181.082C158.482 179.699 158.489 178.216 158.065 176.828C157.641 175.441 156.805 174.216 155.669 173.316C154.534 172.416 153.151 171.884 151.706 171.79C150.261 171.697 148.822 172.047 147.58 172.793C146.338 173.539 145.352 174.647 144.754 175.968Z" fill="#9E616A"/>
<path d="M111.366 188.486L99.7376 198.663C99.4068 198.953 99.0175 199.168 98.5964 199.293C98.1752 199.418 97.7321 199.451 97.2972 199.389C96.8622 199.327 96.4457 199.172 96.0759 198.934C95.7062 198.697 95.3919 198.382 95.1545 198.012L86.837 185.034C85.3664 183.329 84.6307 181.11 84.7912 178.863C84.9517 176.615 85.9954 174.524 87.6933 173.046C89.3911 171.569 91.6044 170.827 93.8475 170.983C96.0907 171.139 98.1804 172.181 99.6582 173.879L111.338 183.848C111.672 184.134 111.941 184.488 112.127 184.887C112.312 185.286 112.409 185.721 112.412 186.161C112.415 186.601 112.323 187.036 112.142 187.438C111.962 187.839 111.697 188.197 111.366 188.486Z" fill="#3F3D56"/>
<path d="M71.3798 202.238L57.0095 196.581C56.6006 196.42 56.2311 196.173 55.9263 195.856C55.6214 195.539 55.3883 195.16 55.2428 194.744C55.0973 194.329 55.0429 193.887 55.0832 193.449C55.1235 193.01 55.2576 192.586 55.4764 192.204L63.1436 178.83C63.9771 176.738 65.6045 175.063 67.6688 174.172C69.7331 173.281 72.0659 173.246 74.1556 174.076C76.2453 174.906 77.9213 176.532 78.8162 178.598C79.711 180.664 79.7517 183.002 78.9291 185.098L75.4759 200.077C75.3769 200.506 75.1868 200.908 74.9186 201.257C74.6503 201.606 74.3103 201.892 73.9216 202.097C73.5328 202.302 73.1046 202.421 72.666 202.445C72.2273 202.469 71.7886 202.399 71.3798 202.238Z" fill="#3F3D56"/>
<path d="M82.0337 163.167C90.6666 163.167 97.665 156.154 97.665 147.504C97.665 138.854 90.6666 131.841 82.0337 131.841C73.4007 131.841 66.4023 138.854 66.4023 147.504C66.4023 156.154 73.4007 163.167 82.0337 163.167Z" fill="#9E616A"/>
<path d="M244.262 400H0.748463C0.550795 400 0.361418 399.92 0.221848 399.78C0.0822777 399.64 0.00390625 399.45 0.00390625 399.252C0.00390625 399.054 0.0822777 398.864 0.221848 398.724C0.361418 398.583 0.550795 398.504 0.748463 398.504H244.262C244.459 398.504 244.649 398.583 244.788 398.724C244.928 398.864 245.006 399.054 245.006 399.252C245.006 399.45 244.928 399.64 244.788 399.78C244.649 399.92 244.459 400 244.262 400Z" fill="#CACACA"/>
<path d="M92.7873 141.208C96.141 141.189 99.4947 141.17 102.848 141.151C103.087 138.861 102.07 136.582 100.588 134.822C99.0256 133.129 97.2442 131.653 95.2909 130.435C93.3672 129.112 91.3744 127.759 89.0875 127.297C87.1706 126.909 85.1894 127.178 83.2528 127.448C80.6846 127.806 78.1164 128.164 75.5484 128.521C72.7293 128.914 69.7798 129.358 67.4902 131.052C64.3937 133.343 63.2093 137.358 62.2144 141.083L56.707 161.705L89.237 165.124C90.4137 165.327 91.6191 165.292 92.7821 165.02C93.3612 164.875 93.8849 164.561 94.2879 164.12C94.6909 163.678 94.9556 163.128 95.049 162.537C95.1427 161.207 94.0902 160.119 93.2356 159.098C91.1968 156.567 89.9729 153.475 89.7261 150.232C89.4792 146.988 90.2209 143.746 91.853 140.934L92.7873 141.208Z" fill="#2F2E41"/>
</g>
<defs>
<clipPath id="clip0_691_1961">
<rect width="610" height="400" fill="white"/>
</clipPath>
</defs>
</svg>
