<svg width="520" height="374" viewBox="0 0 520 374" fill="none" xmlns="http://www.w3.org/2000/svg">
<g clip-path="url(#clip0_695_2393)">
<path d="M138.483 0.216179H519.836V244.764H138.483V0.216179Z" fill="#E6E6E6"/>
<path d="M149.39 30.8885H508.934V230.297H149.39V30.8885Z" fill="white"/>
<path d="M138.647 0H520V16.2219H138.647V0Z" fill="#83BB62"/>
<path d="M507.962 11.3008C506.303 11.3008 504.959 9.9546 504.959 8.29394C504.959 6.63329 506.303 5.28706 507.962 5.28706C509.62 5.28706 510.965 6.63329 510.965 8.29394C510.965 9.9546 509.62 11.3008 507.962 11.3008Z" fill="white"/>
<path d="M496.563 11.3008C494.905 11.3008 493.56 9.9546 493.56 8.29394C493.56 6.63329 494.905 5.28706 496.563 5.28706C498.222 5.28706 499.566 6.63329 499.566 8.29394C499.566 9.9546 498.222 11.3008 496.563 11.3008Z" fill="white"/>
<path d="M485.165 11.3008C483.506 11.3008 482.162 9.9546 482.162 8.29394C482.162 6.63329 483.506 5.28706 485.165 5.28706C486.823 5.28706 488.168 6.63329 488.168 8.29394C488.168 9.9546 486.823 11.3008 485.165 11.3008Z" fill="white"/>
<path d="M394.374 47.2904H464.695V123.681H394.374V47.2904Z" fill="#E6E6E6"/>
<path d="M293.999 47.2904H364.32V123.681H293.999V47.2904Z" fill="#E6E6E6"/>
<path d="M193.628 47.2904H263.949V123.681H193.628V47.2904Z" fill="#E6E6E6"/>
<path d="M394.374 137.507H464.695V213.898H394.374V137.507Z" fill="#E6E6E6"/>
<path d="M293.999 137.507H364.32V213.898H293.999V137.507Z" fill="#E6E6E6"/>
<path d="M193.628 137.507H263.949V213.898H193.628V137.507Z" fill="#E6E6E6"/>
<path d="M347.324 157.14L334.476 152.054L332.982 177.485C332.982 177.485 330.293 185.263 331.189 188.255C331.189 188.255 330.592 193.342 332.086 193.641C333.58 193.94 337.764 194.539 338.06 194.239C338.356 193.939 338.359 193.042 338.359 193.042C338.359 193.042 341.347 195.136 341.646 197.53C341.646 197.53 354.195 201.419 354.494 197.829C354.793 194.238 348.219 191.246 348.219 191.246L343.14 183.468L347.324 157.14Z" fill="white"/>
<path d="M320.131 157.14L307.285 152.054L305.79 177.485C305.79 177.485 303.102 185.263 303.998 188.255C303.998 188.255 303.4 193.342 304.894 193.641C306.388 193.94 310.573 194.539 310.868 194.239C311.164 193.939 311.167 193.042 311.167 193.042C311.167 193.042 314.155 195.136 314.454 197.53C314.454 197.53 327.004 201.419 327.303 197.829C327.601 194.238 321.028 191.246 321.028 191.246L315.948 183.468L320.131 157.14Z" fill="white"/>
<path d="M318.876 58.9353C318.876 58.9353 321.612 66.5896 318.442 70.0413L321.085 79.1342C321.085 79.1342 311.695 107.339 314.378 111.278C314.378 111.278 324.393 116.292 344.426 109.487L336.289 77.8804L337.451 64.5392L335.841 58.2714L332.265 57.916C332.265 57.916 334.411 65.9743 330.476 67.2281C326.541 68.4819 322.703 58.1174 322.703 58.1174L318.876 58.9353Z" fill="#3F3D56"/>
<path d="M445.223 108.345L441.77 109.76L425.292 88.0755L420.114 113.531L416.661 112.902C414.446 90.9562 412.639 68.5719 414.856 57.9848L427.646 57.4345L433.452 75.9786L436.277 88.5493L445.223 108.345Z" fill="white"/>
<path d="M235.682 57.8112C235.682 57.8112 240.394 64.3699 240.164 67.0166C239.934 69.6634 236.946 112.814 236.946 112.814L229.936 113.159L232.006 82.0907L230.282 73.6908L226.03 112.814L217.411 113.044L225.11 62.2993L226.604 57.8118L235.682 57.8112Z" fill="white"/>
<path d="M209.049 163.473C210.3 161.97 212.45 161.157 214.515 160.718C214.456 160.53 220.796 159.218 220.903 159.488L223.294 157.582L230.638 161.4L234.765 158.587L236.682 159.268C236.604 158.929 242.633 159.975 242.633 159.975C243.785 160.017 245.256 160.089 246.903 160.216C252.669 160.66 253.113 175.614 253.113 175.614C250.46 174.528 247.631 173.934 244.765 173.864L243.207 191.75C235.19 191.062 226.783 191.863 218.068 193.823L213.982 179.763L204.465 176.057C204.465 176.057 206.091 167.026 209.049 163.473Z" fill="#3F3D56"/>
<path d="M413.271 154.956C414.302 153.717 416.074 153.048 417.776 152.686C417.725 152.531 422.951 151.45 423.04 151.673L425.01 150.102L431.06 153.248L434.461 150.931L436.04 151.492C435.975 151.213 440.943 152.075 440.943 152.075C441.89 152.109 443.105 152.168 444.461 152.273C449.213 152.639 449.578 164.96 449.578 164.96C447.392 164.064 445.061 163.575 442.7 163.518L441.415 199.594C434.81 199.027 427.883 199.687 420.704 201.302L417.337 168.379L409.496 165.326C409.496 165.326 410.835 157.885 413.271 154.956Z" fill="white"/>
<path d="M76.7031 164.559H42.9878V146.495C42.9878 142.018 44.7639 137.725 47.9253 134.559C51.0867 131.394 55.3745 129.616 59.8455 129.616C64.3164 129.616 68.6042 131.394 71.7656 134.559C74.927 137.725 76.7031 142.018 76.7031 146.495V164.559Z" fill="#2F2E41"/>
<path d="M91.7518 365.537H99.003L102.453 337.528H91.7506L91.7518 365.537Z" fill="#FFB6B6"/>
<path d="M89.9027 363.166H104.184C106.598 363.166 108.913 364.126 110.619 365.835C112.326 367.544 113.285 369.861 113.285 372.278V372.574H89.9027V363.166Z" fill="#2F2E41"/>
<path d="M5.06598 355.847L11.3808 359.417L28.1367 336.727L18.8165 331.459L5.06598 355.847Z" fill="#FFB6B6"/>
<path d="M4.62085 352.872L17.0571 359.9C19.1589 361.088 20.7032 363.064 21.3504 365.392C21.9975 367.72 21.6944 370.211 20.5078 372.315L20.3624 372.573L0.000646591 361.064L4.62085 352.872Z" fill="#2F2E41"/>
<path d="M51.4118 239.581L50.8522 242.383C50.8522 242.383 49.1736 244.064 50.0129 244.904C50.8522 245.744 50.5725 249.667 50.5725 249.667C50.1028 256.819 40.7696 297.009 39.1004 304.859C39.1004 304.859 26.2294 313.263 16.1568 329.793C6.08418 346.322 5.80559 350.524 5.80559 350.524L16.9955 355.288L44.9734 321.388C44.9734 321.388 52.8077 316.626 55.6061 312.423C58.4045 308.221 75.7549 264.795 75.7549 264.795L85.5501 310.182C85.5501 310.182 84.9905 326.711 87.5085 337.357C89.0567 344.076 89.9932 350.921 90.3063 357.809L103.457 356.409C103.457 356.409 102.618 316.626 101.219 312.423C101.219 312.423 107.095 263.955 95.3429 244.624L85.8718 219.342L76.596 215.767L51.4118 239.581Z" fill="#2F2E41"/>
<path d="M59.6705 134.031C77.3249 134.334 77.3219 160.628 59.6705 160.927C42.0172 160.625 42.0196 134.331 59.6705 134.031Z" fill="#FFB8B8"/>
<path d="M73.2578 146.782H70.2571L69.4403 144.736L69.849 146.782H53.4379L53.9703 142.501L49.9812 146.782H46.0022V144.462C46.001 142.67 46.3521 140.896 47.0358 139.24C47.7194 137.584 48.7222 136.079 49.9866 134.811C51.2511 133.544 52.7526 132.537 54.4054 131.851C56.0582 131.164 57.83 130.81 59.6195 130.808C61.409 130.807 63.1812 131.159 64.835 131.843C66.4888 132.528 67.9917 133.532 69.258 134.798C70.5243 136.064 71.5291 137.567 72.2151 139.222C72.9011 140.877 73.2548 142.651 73.256 144.443V144.462L73.2578 146.782Z" fill="#2F2E41"/>
<path d="M77.8749 168.779L44.5145 169.05L51.5627 240.663C51.5627 240.663 90.5773 238.602 90.6016 226.678L86.9467 216.082L77.8749 168.779Z" fill="#3F3D56"/>
<path d="M43.0819 247.586C43.5947 246.957 43.9635 246.224 44.1625 245.437C44.3614 244.65 44.3856 243.829 44.2334 243.031C44.0811 242.234 43.7561 241.479 43.2812 240.821C42.8063 240.163 42.1932 239.618 41.4849 239.223L42.9346 226.615L35.4977 223.864L33.7002 241.698C33.1199 242.933 33.0115 244.338 33.3955 245.647C33.7795 246.957 34.6293 248.081 35.7843 248.806C36.9393 249.531 38.3195 249.807 39.6641 249.582C41.0087 249.358 42.2246 248.648 43.0819 247.586Z" fill="#FFB6B6"/>
<path d="M48.9025 175.219L44.513 169.076C44.513 169.076 41.5088 168.408 37.9598 172.554C34.4108 176.7 32.3406 228.522 32.3406 228.522L45.3535 231.483L53.043 194.764L48.9025 175.219Z" fill="#3F3D56"/>
<path d="M122.434 231.417L121.466 277.457L91.6988 293.208L37.4893 283.516L36.1578 235.658L70.5232 223.541L122.434 231.417Z" fill="white"/>
<path d="M91.7764 293.705L121.935 277.747L122.918 231.009L70.477 223.053L70.3653 223.093L35.6731 235.324L37.0245 283.916L91.7764 293.705ZM120.997 277.167L91.6214 292.711L37.9534 283.115L36.6428 235.991L70.5691 224.03L121.95 231.825L120.997 277.167Z" fill="#CACACA"/>
<path d="M92.3632 243.9L92.4797 243.854L122.609 231.859L122.259 230.975L92.2449 242.923L36.223 235.186L36.0929 236.129L92.3632 243.9Z" fill="#CACACA"/>
<path d="M91.8306 243.406L92.7812 243.417L92.1763 293.214L91.2256 293.202L91.8306 243.406Z" fill="#CACACA"/>
<path d="M96.1702 241.517L107.031 237.108L54.7459 228.766L43.8848 233.174L96.1702 241.517Z" fill="#CACACA"/>
<path d="M122.245 244.773L122.621 245.647L110.024 251.078L109.648 250.203L122.245 244.773Z" fill="#CACACA"/>
<path d="M116.542 260.479L116.918 261.354L104.321 266.784L103.945 265.91L116.542 260.479Z" fill="#83BB62"/>
<path d="M288.055 295.381L287.087 341.421L257.32 357.172L203.11 347.479L201.779 299.621L236.144 287.505L288.055 295.381Z" fill="white"/>
<path d="M257.398 357.669L287.556 341.711L288.539 294.973L236.098 287.017L235.986 287.056L201.294 299.287L202.646 347.879L257.398 357.669ZM286.618 341.131L257.242 356.674L203.575 347.078L202.264 299.955L236.19 287.993L287.571 295.788L286.618 341.131Z" fill="#CACACA"/>
<path d="M257.984 307.864L258.101 307.818L288.23 295.823L287.88 294.938L257.866 306.887L201.844 299.15L201.714 300.093L257.984 307.864Z" fill="#CACACA"/>
<path d="M257.448 307.369L258.398 307.381L257.793 357.177L256.843 357.166L257.448 307.369Z" fill="#CACACA"/>
<path d="M264.422 304.397L272.652 301.072L220.367 292.73L212.137 296.055L264.422 304.397Z" fill="#CACACA"/>
<path d="M287.866 308.736L288.242 309.611L275.645 315.041L275.269 314.167L287.866 308.736Z" fill="#CACACA"/>
<path d="M282.163 324.443L282.539 325.317L269.942 330.748L269.566 329.874L282.163 324.443Z" fill="#83BB62"/>
<path d="M236.34 301.693L235.216 355.139L200.661 373.423L137.733 362.171L136.188 306.616L176.08 292.551L236.34 301.693Z" fill="#83BB62"/>
<path d="M200.752 374L235.762 355.475L236.902 301.22L176.027 291.984L175.897 292.03L135.625 306.228L137.194 362.636L200.752 374ZM234.672 354.802L200.572 372.845L138.272 361.706L136.751 307.003L176.134 293.118L235.779 302.167L234.672 354.802Z" fill="#3F3D56"/>
<path d="M201.432 316.184L201.567 316.13L236.543 302.207L236.135 301.18L201.294 315.05L136.262 306.069L136.111 307.163L201.432 316.184Z" fill="#3F3D56"/>
<path d="M200.81 315.61L201.914 315.624L201.212 373.429L200.108 373.416L200.81 315.61Z" fill="#3F3D56"/>
<path d="M208.348 312.185L218.461 308.3L157.766 298.616L147.652 302.501L208.348 312.185Z" fill="#3F3D56"/>
<path d="M236.122 317.197L236.559 318.212L221.936 324.516L221.499 323.501L236.122 317.197Z" fill="#3F3D56"/>
<path d="M229.501 335.43L229.938 336.445L215.315 342.749L214.878 341.734L229.501 335.43Z" fill="white"/>
<path d="M105.558 239.03C104.824 238.685 104.175 238.183 103.655 237.56C103.136 236.936 102.76 236.206 102.552 235.422C102.345 234.637 102.313 233.816 102.456 233.017C102.6 232.218 102.917 231.461 103.385 230.798L96.6292 220.06L102.144 214.358L111.473 229.655C112.533 230.516 113.24 231.737 113.461 233.086C113.683 234.434 113.402 235.817 112.673 236.973C111.944 238.128 110.817 238.976 109.506 239.355C108.195 239.734 106.79 239.619 105.558 239.031V239.03Z" fill="#FFB6B6"/>
<path d="M72.7484 171.602L77.5887 168.408C77.5887 168.408 81.324 169.247 85.2965 176.898C89.269 184.548 105.289 218.754 105.289 218.754L98.7039 225.446L81.1365 198.612L72.7484 171.602Z" fill="#3F3D56"/>
</g>
<defs>
<clipPath id="clip0_695_2393">
<rect width="520" height="374" fill="white" transform="matrix(-1 0 0 1 520 0)"/>
</clipPath>
</defs>
</svg>
