<svg width="711" height="459" viewBox="0 0 711 459" fill="none" xmlns="http://www.w3.org/2000/svg">
<g clip-path="url(#clip0_695_2492)">
<path d="M334.894 72.1937H268.067C267.059 72.1937 266.094 71.7934 265.382 71.0808C264.67 70.3682 264.27 69.4018 264.27 68.394C264.27 67.3863 264.67 66.4198 265.382 65.7073C266.094 64.9947 267.059 64.5944 268.067 64.5944H334.894C335.901 64.5944 336.866 64.9947 337.578 65.7073C338.291 66.4198 338.691 67.3863 338.691 68.394C338.691 69.4018 338.291 70.3682 337.578 71.0808C336.866 71.7934 335.901 72.1937 334.894 72.1937Z" fill="#CCCCCC"/>
<path d="M386.533 98.7914H268.067C267.059 98.7914 266.094 98.3911 265.382 97.6785C264.67 96.9659 264.27 95.9995 264.27 94.9917C264.27 93.984 264.67 93.0176 265.382 92.305C266.094 91.5924 267.059 91.1921 268.067 91.1921H386.533C387.54 91.1921 388.505 91.5924 389.218 92.305C389.93 93.0176 390.33 93.984 390.33 94.9917C390.33 95.9995 389.93 96.9659 389.218 97.6785C388.505 98.3911 387.54 98.7914 386.533 98.7914Z" fill="#CCCCCC"/>
<path d="M356.916 125.389H268.067C267.059 125.389 266.094 124.989 265.382 124.276C264.67 123.564 264.27 122.597 264.27 121.589C264.27 120.582 264.67 119.615 265.382 118.903C266.094 118.19 267.059 117.79 268.067 117.79H356.916C357.923 117.79 358.889 118.19 359.601 118.903C360.313 119.615 360.713 120.582 360.713 121.589C360.713 122.597 360.313 123.564 359.601 124.276C358.889 124.989 357.923 125.389 356.916 125.389Z" fill="#CCCCCC"/>
<path d="M386.533 151.987H268.067C267.059 151.987 266.094 151.586 265.382 150.874C264.67 150.161 264.27 149.195 264.27 148.187C264.27 147.179 264.67 146.213 265.382 145.5C266.094 144.788 267.059 144.387 268.067 144.387H386.533C387.54 144.387 388.505 144.788 389.218 145.5C389.93 146.213 390.33 147.179 390.33 148.187C390.33 149.195 389.93 150.161 389.218 150.874C388.505 151.586 387.54 151.987 386.533 151.987Z" fill="#CCCCCC"/>
<path d="M113.381 174.797C150.905 174.797 181.324 144.356 181.324 106.805C181.324 69.2547 150.905 38.8139 113.381 38.8139C75.8568 38.8139 45.4375 69.2547 45.4375 106.805C45.4375 144.356 75.8568 174.797 113.381 174.797Z" fill="#83BB62"/>
<path d="M117.18 42.6509H109.586V35.0515H117.18V42.6509ZM111.105 41.131H115.661V36.5714H111.105V41.131Z" fill="#3F3D56"/>
<path d="M156.088 38.0912H115.84V39.6111H156.088V38.0912Z" fill="#3F3D56"/>
<path d="M156.086 40.4339C156.959 40.4339 157.667 39.7253 157.667 38.8512C157.667 37.9771 156.959 37.2684 156.086 37.2684C155.212 37.2684 154.504 37.9771 154.504 38.8512C154.504 39.7253 155.212 40.4339 156.086 40.4339Z" fill="#3F3D56"/>
<path d="M110.524 38.0912H71.0352V39.6111H110.524V38.0912Z" fill="#3F3D56"/>
<path d="M71.0348 40.4339C71.9083 40.4339 72.6164 39.7253 72.6164 38.8512C72.6164 37.9771 71.9083 37.2684 71.0348 37.2684C70.1612 37.2684 69.4531 37.9771 69.4531 38.8512C69.4531 39.7253 70.1612 40.4339 71.0348 40.4339Z" fill="#3F3D56"/>
<path d="M184.942 110.426H177.348V102.827H184.942V110.426ZM178.866 108.906H183.423V104.347H178.866V108.906Z" fill="#3F3D56"/>
<path d="M181.906 109.845H180.387V149.361H181.906V109.845Z" fill="#3F3D56"/>
<path d="M181.148 150.944C182.022 150.944 182.73 150.236 182.73 149.362C182.73 148.487 182.022 147.779 181.148 147.779C180.275 147.779 179.566 148.487 179.566 149.362C179.566 150.236 180.275 150.944 181.148 150.944Z" fill="#3F3D56"/>
<path d="M181.906 64.2488H180.387V103.765H181.906V64.2488Z" fill="#3F3D56"/>
<path d="M181.148 65.8317C182.022 65.8317 182.73 65.1231 182.73 64.249C182.73 63.3748 182.022 62.6662 181.148 62.6662C180.275 62.6662 179.566 63.3748 179.566 64.249C179.566 65.1231 180.275 65.8317 181.148 65.8317Z" fill="#3F3D56"/>
<path d="M49.012 110.426H41.418V102.827H49.012V110.426ZM42.9368 108.906H47.4932V104.347H42.9368V108.906Z" fill="#3F3D56"/>
<path d="M45.9719 109.845H44.4531V149.361H45.9719V109.845Z" fill="#3F3D56"/>
<path d="M45.2145 150.944C46.088 150.944 46.7961 150.236 46.7961 149.362C46.7961 148.487 46.088 147.779 45.2145 147.779C44.3409 147.779 43.6328 148.487 43.6328 149.362C43.6328 150.236 44.3409 150.944 45.2145 150.944Z" fill="#3F3D56"/>
<path d="M45.9719 62.7289H44.4531V103.765H45.9719V62.7289Z" fill="#3F3D56"/>
<path d="M45.2144 65.8317C46.088 65.8317 46.7961 65.1231 46.7961 64.249C46.7961 63.3748 46.088 62.6662 45.2144 62.6662C44.3409 62.6662 43.6328 63.3748 43.6328 64.249C43.6328 65.1231 44.3409 65.8317 45.2144 65.8317Z" fill="#3F3D56"/>
<path d="M117.18 178.679H109.586V171.08H117.18V178.679ZM111.105 177.159H115.661V172.599H111.105V177.159Z" fill="#3F3D56"/>
<path d="M156.846 174.119H116.598V175.639H156.846V174.119Z" fill="#3F3D56"/>
<path d="M156.086 176.462C156.959 176.462 157.667 175.753 157.667 174.879C157.667 174.005 156.959 173.297 156.086 173.297C155.212 173.297 154.504 174.005 154.504 174.879C154.504 175.753 155.212 176.462 156.086 176.462Z" fill="#3F3D56"/>
<path d="M110.524 174.119H71.0352V175.639H110.524V174.119Z" fill="#3F3D56"/>
<path d="M71.0348 176.462C71.9083 176.462 72.6164 175.753 72.6164 174.879C72.6164 174.005 71.9083 173.297 71.0348 173.297C70.1613 173.297 69.4531 174.005 69.4531 174.879C69.4531 175.753 70.1613 176.462 71.0348 176.462Z" fill="#3F3D56"/>
<path d="M426.782 231.78H12.9098C9.48706 231.776 6.20564 230.414 3.78542 227.992C1.36519 225.57 0.00383704 222.286 0 218.861V12.9189C0.00383704 9.49375 1.36519 6.21002 3.78542 3.7881C6.20564 1.36617 9.48706 0.00383974 12.9098 0H426.782C430.204 0.0038558 433.486 1.36618 435.906 3.78811C438.326 6.21003 439.688 9.49376 439.692 12.9189V218.861C439.688 222.286 438.326 225.57 435.906 227.992C433.486 230.414 430.204 231.776 426.782 231.78ZM12.9098 1.51987C9.88974 1.52329 6.99439 2.72534 4.8589 4.86233C2.72342 6.99932 1.52221 9.89672 1.5188 12.9189V218.861C1.52221 221.883 2.72342 224.78 4.8589 226.917C6.99439 229.054 9.88974 230.257 12.9098 230.26H426.782C429.802 230.257 432.697 229.054 434.833 226.917C436.968 224.78 438.169 221.883 438.173 218.861V12.9189C438.169 9.89672 436.968 6.99932 434.833 4.86233C432.697 2.72534 429.802 1.52329 426.782 1.51987H12.9098Z" fill="#3F3D56"/>
<path d="M250.602 72.1937C252.699 72.1937 254.399 70.4925 254.399 68.394C254.399 66.2955 252.699 64.5944 250.602 64.5944C248.505 64.5944 246.805 66.2955 246.805 68.394C246.805 70.4925 248.505 72.1937 250.602 72.1937Z" fill="#CCCCCC"/>
<path d="M250.602 98.7914C252.699 98.7914 254.399 97.0902 254.399 94.9917C254.399 92.8932 252.699 91.1921 250.602 91.1921C248.505 91.1921 246.805 92.8932 246.805 94.9917C246.805 97.0902 248.505 98.7914 250.602 98.7914Z" fill="#CCCCCC"/>
<path d="M250.602 125.389C252.699 125.389 254.399 123.688 254.399 121.589C254.399 119.491 252.699 117.79 250.602 117.79C248.505 117.79 246.805 119.491 246.805 121.589C246.805 123.688 248.505 125.389 250.602 125.389Z" fill="#CCCCCC"/>
<path d="M250.602 151.987C252.699 151.987 254.399 150.286 254.399 148.187C254.399 146.089 252.699 144.387 250.602 144.387C248.505 144.387 246.805 146.089 246.805 148.187C246.805 150.286 248.505 151.987 250.602 151.987Z" fill="#CCCCCC"/>
<path d="M332.659 181.645H309.469C308.712 181.644 307.986 181.343 307.451 180.807C306.915 180.271 306.614 179.545 306.613 178.787V151.403C306.614 150.645 306.915 149.918 307.451 149.383C307.986 148.847 308.712 148.546 309.469 148.545H332.659C333.416 148.546 334.142 148.847 334.677 149.383C335.213 149.918 335.514 150.645 335.515 151.403V178.787C335.514 179.545 335.213 180.271 334.677 180.807C334.142 181.343 333.416 181.644 332.659 181.645Z" fill="#FF6584"/>
<path d="M574.718 457.898L572.144 458.529C573.306 458.696 574.468 458.855 575.629 459H618.566C621.786 458.589 624.988 458.083 628.172 457.48C647.354 453.94 665.659 446.684 682.059 436.118C692.136 429.56 701.743 421.497 706.96 410.668C714.045 395.963 711.57 377.345 701.454 364.54C697.771 359.92 693.237 356.05 688.096 353.141C687.33 352.7 686.555 352.282 685.765 351.887C677.202 347.581 667.586 345.82 658.055 346.811C641.841 348.581 626.881 358.491 618.247 372.337C608.701 387.627 606.871 406.336 605.276 424.294C602.383 414.977 591.524 409.285 581.993 411.344C572.471 413.396 565.119 422.295 563.935 431.977C562.773 441.445 567.071 451.165 574.232 457.48C574.392 457.617 574.551 457.761 574.718 457.898Z" fill="#F2F2F2"/>
<path d="M607.826 459H609.975C610.188 458.83 610.353 458.607 610.454 458.354C610.575 458.065 610.689 457.769 610.819 457.48C627.452 417.233 653.834 381.762 687.586 354.266C687.763 354.14 687.903 353.97 687.992 353.772C688.081 353.575 688.117 353.357 688.095 353.141C688.051 352.853 687.933 352.582 687.751 352.354C687.569 352.127 687.33 351.952 687.059 351.846C686.788 351.741 686.494 351.708 686.206 351.753C685.919 351.798 685.648 351.917 685.422 352.1C672.042 363.004 659.769 375.202 648.781 388.516C631.591 409.262 617.677 432.519 607.522 457.48C607.515 457.503 607.507 457.518 607.5 457.541C607.378 457.784 607.344 458.063 607.404 458.328C607.463 458.594 607.612 458.831 607.826 459Z" fill="white"/>
<path d="M532.547 290.321C532.549 288.027 533.461 285.828 535.082 284.206C536.703 282.584 538.901 281.672 541.193 281.669C541.277 281.669 541.359 281.673 541.442 281.679L568.179 260.352L549.018 241.177C548.231 240.392 547.606 239.46 547.179 238.433C546.752 237.407 546.532 236.306 546.531 235.194C546.53 234.082 546.748 232.98 547.173 231.953C547.598 230.925 548.221 229.991 549.007 229.205C549.792 228.419 550.725 227.795 551.752 227.37C552.779 226.945 553.88 226.727 554.991 226.728C556.102 226.729 557.202 226.949 558.228 227.376C559.254 227.803 560.186 228.429 560.97 229.217L591.768 260.035L549.834 290.554C549.773 292.827 548.82 294.986 547.181 296.561C545.542 298.137 543.349 299.003 541.076 298.972C538.803 298.942 536.634 298.017 535.038 296.398C533.442 294.779 532.547 292.596 532.547 290.321Z" fill="#FFB8B8"/>
<path d="M501.159 448.398L492.117 445.02L500.835 408.511L514.18 413.497L501.159 448.398Z" fill="#FFB8B8"/>
<path d="M486.236 439.877L504.063 446.537L499.964 457.525L471.545 446.908L471.691 446.519C472.739 443.708 474.861 441.429 477.589 440.183C480.316 438.938 483.427 438.828 486.236 439.877Z" fill="#2F2E41"/>
<path d="M582.509 448.535H572.857L568.266 411.28L582.511 411.281L582.509 448.535Z" fill="#FFB8B8"/>
<path d="M565.547 445.775H584.576V457.503H554.242V457.088C554.242 455.603 554.535 454.131 555.103 452.759C555.671 451.386 556.504 450.139 557.553 449.089C558.603 448.038 559.849 447.205 561.221 446.636C562.593 446.068 564.063 445.775 565.547 445.775Z" fill="#2F2E41"/>
<path d="M569.722 434.372C569.367 434.028 569.09 433.612 568.912 433.152C568.733 432.692 568.656 432.198 568.687 431.705C570.409 403.253 555.423 351.536 550.789 336.363C550.665 335.94 550.434 335.556 550.12 335.246C549.806 334.937 549.418 334.713 548.993 334.595C548.56 334.471 548.102 334.457 547.662 334.556C547.222 334.655 546.814 334.863 546.475 335.161C521.444 356.98 513.974 418.538 512.731 430.656C512.684 431.109 512.548 431.548 512.329 431.947C512.111 432.346 511.815 432.698 511.459 432.981C511.103 433.264 510.694 433.473 510.256 433.595C509.818 433.718 509.36 433.752 508.908 433.695L496.415 432.132C495.945 432.073 495.491 431.917 495.085 431.673C494.678 431.43 494.326 431.104 494.051 430.717C493.777 430.33 493.586 429.889 493.491 429.424C493.396 428.96 493.399 428.48 493.499 428.016L526.257 276.454L526.276 276.363L526.336 276.291C534.257 266.778 557.208 270.482 558.181 270.644L558.282 270.661L558.361 270.727C587.834 295.185 586.34 408.553 585.741 431.031C585.718 431.865 585.39 432.661 584.821 433.271C584.251 433.88 583.479 434.26 582.649 434.339L572.418 435.314C572.309 435.324 572.2 435.329 572.091 435.329C571.207 435.33 570.357 434.986 569.722 434.372Z" fill="#2F2E41"/>
<path d="M552.402 209.626C562.703 209.626 571.053 201.27 571.053 190.961C571.053 180.653 562.703 172.297 552.402 172.297C542.101 172.297 533.75 180.653 533.75 190.961C533.75 201.27 542.101 209.626 552.402 209.626Z" fill="#FFB8B8"/>
<path d="M570.716 226.113C570.716 226.113 553.396 205.629 539.225 222.174C530.107 232.819 525.285 246.485 525.701 260.499L526.235 278.504L558.907 273.383L570.716 226.113Z" fill="#83BB62"/>
<path d="M549.379 194.19L541.366 184.743C539.301 182.309 537.14 179.657 536.848 176.477C536.528 172.991 538.647 169.602 541.544 167.64C544.441 165.677 547.998 164.938 551.485 164.667C557.954 164.165 564.761 165.234 570.079 168.954C575.396 172.674 578.875 179.39 577.579 185.752C576.558 190.761 572.796 195.56 574.258 200.458C575.858 205.818 582.419 207.463 587.776 209.061C596.767 211.744 605.353 217.025 610.065 225.145C614.778 233.264 614.757 244.46 608.476 251.434C604.408 255.951 598.273 258.234 592.208 258.578C586.142 258.922 580.104 257.492 574.351 255.537C569.053 253.736 563.813 251.42 559.641 247.687C555.47 243.955 552.466 238.614 552.596 233.016C552.72 227.682 555.575 222.822 556.748 217.617C557.674 213.258 557.431 208.732 556.045 204.497C554.658 200.263 552.178 196.47 548.854 193.504" fill="#2F2E41"/>
<path d="M529.573 362.743H506.383C505.626 362.742 504.9 362.441 504.365 361.905C503.829 361.369 503.528 360.643 503.527 359.885V332.5C503.528 331.743 503.829 331.016 504.365 330.48C504.9 329.945 505.626 329.643 506.383 329.642H529.573C530.33 329.643 531.056 329.945 531.591 330.48C532.127 331.016 532.428 331.743 532.429 332.5V359.885C532.428 360.643 532.127 361.369 531.591 361.905C531.056 362.441 530.33 362.742 529.573 362.743Z" fill="#83BB62"/>
<path d="M522.698 339.32C521.591 337.593 521.151 335.521 521.459 333.493C521.767 331.464 522.802 329.617 524.371 328.297L537.064 228.218C537.339 226.08 538.382 224.115 539.998 222.69C541.614 221.265 543.693 220.477 545.847 220.473L545.965 220.474C547.251 220.491 548.519 220.788 549.678 221.344C550.838 221.901 551.863 222.704 552.681 223.697C553.499 224.691 554.091 225.85 554.416 227.096C554.741 228.342 554.791 229.643 554.562 230.91L536.715 329.748L536.719 329.753C537.465 330.771 537.975 331.942 538.211 333.183C538.448 334.423 538.405 335.7 538.086 336.921C537.766 338.143 537.179 339.278 536.366 340.243C535.552 341.208 534.534 341.98 533.386 342.502C532.306 342.993 531.134 343.245 529.948 343.242C528.508 343.248 527.089 342.892 525.823 342.207C524.556 341.522 523.481 340.529 522.698 339.32Z" fill="#FFB8B8"/>
<path d="M648.847 459H453.681C453.48 459 453.287 458.92 453.144 458.777C453.002 458.635 452.922 458.442 452.922 458.24C452.922 458.038 453.002 457.845 453.144 457.703C453.287 457.56 453.48 457.48 453.681 457.48H648.847C649.048 457.48 649.241 457.56 649.384 457.703C649.526 457.845 649.606 458.038 649.606 458.24C649.606 458.442 649.526 458.635 649.384 458.777C649.241 458.92 649.048 459 648.847 459Z" fill="#3F3D56"/>
</g>
<defs>
<clipPath id="clip0_695_2492">
<rect width="711" height="459" fill="white"/>
</clipPath>
</defs>
</svg>
