<svg width="495" height="300" viewBox="0 0 634 466" fill="none" xmlns="http://www.w3.org/2000/svg">
<g clip-path="url(#clip0_695_2538)">
<path d="M630.488 27.6293H3.51189C2.58079 27.6283 1.68812 27.2586 1.02973 26.6015C0.371346 25.9444 0.0010177 25.0534 0 24.124V3.50524C0.0010177 2.5759 0.371346 1.68491 1.02973 1.02777C1.68812 0.370633 2.58079 0.00101368 3.51189 0H630.488C631.419 0.00101577 632.312 0.370645 632.97 1.02779C633.629 1.68493 633.999 2.5759 634 3.50524V24.1241C633.999 25.0534 633.629 25.9444 632.97 26.6015C632.312 27.2587 631.419 27.6283 630.488 27.6293Z" fill="#E4E4E4"/>
<path d="M20.3805 17.7855C23.1342 17.7855 25.3666 15.5575 25.3666 12.809C25.3666 10.0605 23.1342 7.8324 20.3805 7.8324C17.6268 7.8324 15.3945 10.0605 15.3945 12.809C15.3945 15.5575 17.6268 17.7855 20.3805 17.7855Z" fill="white"/>
<path d="M39.3063 17.7855C42.06 17.7855 44.2923 15.5575 44.2923 12.809C44.2923 10.0605 42.06 7.8324 39.3063 7.8324C36.5526 7.8324 34.3203 10.0605 34.3203 12.809C34.3203 15.5575 36.5526 17.7855 39.3063 17.7855Z" fill="white"/>
<path d="M58.2321 17.7855C60.9858 17.7855 63.2181 15.5575 63.2181 12.809C63.2181 10.0605 60.9858 7.8324 58.2321 7.8324C55.4784 7.8324 53.2461 10.0605 53.2461 12.809C53.2461 15.5575 55.4784 17.7855 58.2321 17.7855Z" fill="white"/>
<path d="M611.947 9.38363H590.154C589.726 9.38269 589.316 9.21251 589.015 8.91044C588.713 8.60838 588.543 8.19909 588.543 7.77237C588.543 7.34566 588.713 6.93638 589.015 6.63432C589.316 6.33225 589.726 6.16208 590.154 6.16113H611.947C612.375 6.16083 612.785 6.33003 613.088 6.63158C613.391 6.93312 613.561 7.34235 613.562 7.76936C613.563 8.19636 613.394 8.60622 613.092 8.9089C612.79 9.21158 612.381 9.38233 611.953 9.38363H611.947Z" fill="white"/>
<path d="M611.947 15.4259H590.154C589.726 15.4249 589.316 15.2547 589.015 14.9527C588.713 14.6506 588.543 14.2413 588.543 13.8146C588.543 13.3879 588.713 12.9786 589.015 12.6766C589.316 12.3745 589.726 12.2043 590.154 12.2034H611.947C612.375 12.2031 612.785 12.3723 613.088 12.6738C613.391 12.9754 613.561 13.3846 613.562 13.8116C613.563 14.2386 613.394 14.6485 613.092 14.9511C612.79 15.2538 612.381 15.4246 611.953 15.4259H611.947Z" fill="white"/>
<path d="M611.946 21.468H590.153C589.725 21.468 589.315 21.2982 589.012 20.9961C588.709 20.6939 588.539 20.2841 588.539 19.8567C588.539 19.4294 588.709 19.0196 589.012 18.7174C589.315 18.4152 589.725 18.2455 590.153 18.2455H611.946C612.375 18.2447 612.786 18.4137 613.089 18.7153C613.392 19.0169 613.563 19.4264 613.564 19.8537C613.565 20.281 613.395 20.6912 613.093 20.9939C612.791 21.2967 612.381 21.4672 611.953 21.468H611.946Z" fill="white"/>
<path d="M178.776 409.729C181.083 391.212 192.58 372.968 210.273 366.942C203.295 386.001 203.297 406.909 210.277 425.966C212.996 433.306 216.785 441.187 214.228 448.585C212.637 453.188 208.744 456.71 204.393 458.912C200.042 461.114 195.213 462.163 190.445 463.192L189.506 463.966C181.937 446.905 176.469 428.245 178.776 409.729Z" fill="#F0F0F0"/>
<path d="M210.446 367.293C200.142 378.815 193.739 393.285 192.144 408.647C191.742 411.948 191.863 415.292 192.504 418.555C193.232 421.714 194.793 424.621 197.027 426.973C199.065 429.208 201.41 431.259 202.868 433.95C203.594 435.339 204.018 436.865 204.112 438.428C204.205 439.992 203.967 441.557 203.412 443.022C202.124 446.708 199.586 449.713 197.002 452.565C194.133 455.732 191.102 458.976 189.883 463.174C189.735 463.683 188.953 463.424 189.1 462.916C191.222 455.612 198.326 451.463 201.714 444.884C203.295 441.814 203.959 438.25 202.477 435.01C201.181 432.176 198.765 430.059 196.682 427.814C194.469 425.55 192.845 422.781 191.952 419.747C191.147 416.527 190.896 413.194 191.211 409.89C191.802 402.44 193.562 395.129 196.428 388.225C199.655 380.328 204.211 373.04 209.9 366.676C210.253 366.282 210.796 366.901 210.446 367.293Z" fill="white"/>
<path d="M192.365 403.671C189.819 403.054 187.576 401.554 186.036 399.438C184.496 397.323 183.759 394.73 183.958 392.122C183.967 392.016 184.017 391.917 184.097 391.847C184.178 391.777 184.282 391.741 184.389 391.746C184.496 391.751 184.596 391.798 184.669 391.876C184.742 391.953 184.782 392.057 184.781 392.163C184.591 394.591 185.278 397.006 186.716 398.973C188.154 400.94 190.249 402.329 192.624 402.89C193.139 403.012 192.878 403.792 192.365 403.671Z" fill="white"/>
<path d="M195.844 425.976C200.443 423.235 203.837 418.865 205.351 413.738C205.501 413.23 206.283 413.488 206.134 413.996C204.548 419.329 201.006 423.869 196.215 426.71C195.758 426.981 195.39 426.245 195.844 425.976Z" fill="white"/>
<path d="M200.421 381.107C201.356 381.551 202.387 381.755 203.421 381.703C204.455 381.651 205.46 381.343 206.346 380.807C206.799 380.531 207.166 381.267 206.716 381.541C205.735 382.129 204.625 382.467 203.482 382.528C202.34 382.588 201.2 382.369 200.162 381.888C200.061 381.851 199.977 381.776 199.928 381.68C199.88 381.583 199.87 381.472 199.9 381.368C199.935 381.265 200.009 381.18 200.107 381.131C200.204 381.082 200.317 381.073 200.421 381.107Z" fill="white"/>
<path d="M264.199 400.015C263.921 400.195 263.643 400.376 263.364 400.563C259.638 403.009 256.117 405.752 252.837 408.767C252.579 408.996 252.322 409.232 252.071 409.468C244.245 416.815 237.852 425.549 233.22 435.225C231.38 439.077 229.836 443.063 228.602 447.149C226.899 452.792 225.501 459.045 222.128 463.661C221.782 464.146 221.406 464.61 221.002 465.049H190.523C190.454 465.014 190.384 464.986 190.315 464.952L189.098 465.007C189.147 464.792 189.202 464.57 189.251 464.355C189.279 464.23 189.313 464.105 189.341 463.98C189.362 463.897 189.383 463.813 189.397 463.737C189.404 463.709 189.411 463.682 189.418 463.661C189.431 463.584 189.453 463.515 189.466 463.446C189.772 462.203 190.088 460.961 190.412 459.718C190.412 459.711 190.412 459.711 190.419 459.705C192.801 450.214 196.302 441.039 200.85 432.372C200.989 432.115 201.128 431.852 201.281 431.595C203.387 427.758 205.803 424.1 208.506 420.656C209.992 418.775 211.573 416.971 213.242 415.249C217.562 410.81 222.556 407.077 228.039 404.186C238.971 398.425 251.626 396.218 263.309 399.737C263.608 399.828 263.9 399.918 264.199 400.015Z" fill="#F0F0F0"/>
<path d="M264.133 400.401C248.956 403.41 235.115 411.115 224.575 422.422C222.262 424.816 220.343 427.559 218.886 430.55C217.561 433.509 217.055 436.768 217.419 439.989C217.698 442.999 218.333 446.045 217.874 449.07C217.617 450.615 217.034 452.088 216.166 453.392C215.298 454.697 214.163 455.804 212.836 456.64C209.585 458.81 205.746 459.683 201.962 460.408C197.761 461.212 193.385 461.981 189.878 464.6C189.453 464.918 188.985 464.241 189.409 463.924C195.509 459.367 203.684 460.324 210.358 457.107C213.472 455.605 216.152 453.159 216.923 449.681C217.598 446.639 216.946 443.497 216.637 440.452C216.235 437.316 216.609 434.129 217.726 431.17C219.026 428.115 220.836 425.303 223.081 422.854C228.046 417.261 233.861 412.481 240.314 408.691C247.654 404.324 255.689 401.243 264.07 399.581C264.589 399.478 264.649 400.299 264.133 400.401Z" fill="white"/>
<path d="M227.752 418.582C226.092 416.56 225.205 414.014 225.252 411.399C225.298 408.784 226.274 406.271 228.005 404.309C228.357 403.913 228.99 404.44 228.638 404.836C227.022 406.661 226.113 409.002 226.075 411.437C226.037 413.871 226.872 416.24 228.43 418.114C228.768 418.522 228.088 418.987 227.752 418.582Z" fill="white"/>
<path d="M217.074 438.481C222.398 439.057 227.745 437.608 232.046 434.423C232.472 434.107 232.941 434.784 232.516 435.099C228.033 438.405 222.466 439.901 216.927 439.291C216.399 439.232 216.549 438.423 217.074 438.481Z" fill="white"/>
<path d="M247.792 405.406C248.272 406.322 248.971 407.105 249.829 407.685C250.686 408.264 251.674 408.622 252.704 408.727C253.233 408.778 253.082 409.587 252.557 409.536C251.419 409.415 250.329 409.019 249.38 408.38C248.431 407.742 247.654 406.882 247.115 405.874C247.056 405.783 247.034 405.674 247.054 405.568C247.073 405.461 247.132 405.366 247.219 405.302C247.309 405.24 247.42 405.217 247.527 405.236C247.635 405.256 247.73 405.317 247.792 405.406Z" fill="white"/>
<path d="M205.497 143.765H104.66C101.543 143.761 98.5559 142.524 96.3525 140.325C94.1491 138.126 92.9097 135.144 92.9062 132.034V77.2165C92.9097 74.1063 94.1492 71.1246 96.3526 68.9254C98.556 66.7262 101.543 65.4892 104.66 65.4858H205.497C208.613 65.4892 211.601 66.7262 213.804 68.9254C216.008 71.1246 217.247 74.1063 217.251 77.2165V132.034C217.247 135.144 216.008 138.126 213.804 140.325C211.601 142.524 208.613 143.761 205.497 143.765Z" fill="#E6E6E6"/>
<path d="M359.447 143.765H258.609C255.493 143.761 252.505 142.524 250.302 140.325C248.098 138.126 246.859 135.144 246.855 132.034V77.2165C246.859 74.1063 248.098 71.1246 250.302 68.9254C252.505 66.7262 255.493 65.4892 258.609 65.4858H359.447C362.563 65.4892 365.55 66.7262 367.753 68.9254C369.957 71.1246 371.196 74.1063 371.2 77.2165V132.034C371.196 135.144 369.957 138.126 367.754 140.325C365.55 142.524 362.563 143.761 359.447 143.765Z" fill="#83BB62"/>
<path d="M513.4 143.765H412.562C409.446 143.761 406.458 142.524 404.255 140.325C402.051 138.126 400.812 135.144 400.809 132.034V77.2165C400.812 74.1063 402.051 71.1246 404.255 68.9254C406.458 66.7262 409.446 65.4892 412.562 65.4858H513.4C516.516 65.4892 519.503 66.7262 521.707 68.9254C523.91 71.1246 525.149 74.1063 525.153 77.2165V132.034C525.149 135.144 523.91 138.126 521.707 140.325C519.503 142.524 516.516 143.761 513.4 143.765Z" fill="#E6E6E6"/>
<path d="M205.497 265.904H104.66C101.543 265.901 98.5559 264.664 96.3525 262.464C94.1491 260.265 92.9097 257.283 92.9062 254.173V199.356C92.9097 196.246 94.1492 193.264 96.3526 191.065C98.556 188.865 101.543 187.628 104.66 187.625H205.497C208.613 187.628 211.601 188.865 213.804 191.065C216.008 193.264 217.247 196.245 217.251 199.356V254.173C217.247 257.283 216.008 260.265 213.804 262.464C211.601 264.664 208.613 265.901 205.497 265.904Z" fill="#F2F2F2"/>
<path d="M359.447 265.904H258.609C255.493 265.901 252.505 264.664 250.302 262.464C248.098 260.265 246.859 257.283 246.855 254.173V199.356C246.859 196.246 248.098 193.264 250.302 191.065C252.505 188.865 255.493 187.628 258.609 187.625H359.447C362.563 187.628 365.55 188.865 367.753 191.065C369.957 193.264 371.196 196.245 371.2 199.356V254.173C371.196 257.283 369.957 260.265 367.754 262.464C365.55 264.664 362.563 265.901 359.447 265.904Z" fill="#E6E6E6"/>
<path d="M366.569 275.991C376.515 275.991 384.579 267.943 384.579 258.015C384.579 248.088 376.515 240.039 366.569 240.039C356.622 240.039 348.559 248.088 348.559 258.015C348.559 267.943 356.622 275.991 366.569 275.991Z" fill="#83BB62"/>
<path d="M374.046 256.506H367.923V250.394C367.923 250.205 367.885 250.018 367.813 249.844C367.74 249.669 367.634 249.511 367.501 249.377C367.367 249.244 367.208 249.138 367.033 249.065C366.858 248.993 366.671 248.956 366.482 248.956C366.292 248.956 366.105 248.993 365.93 249.065C365.755 249.138 365.597 249.244 365.463 249.377C365.329 249.511 365.223 249.669 365.15 249.844C365.078 250.018 365.041 250.205 365.041 250.394V256.506H358.917C358.728 256.506 358.541 256.543 358.366 256.615C358.191 256.688 358.032 256.793 357.899 256.927C357.765 257.061 357.659 257.219 357.586 257.394C357.514 257.568 357.477 257.755 357.477 257.944C357.477 258.133 357.514 258.32 357.586 258.494C357.659 258.669 357.765 258.827 357.899 258.961C358.032 259.094 358.191 259.2 358.366 259.273C358.541 259.345 358.728 259.382 358.917 259.382H365.041V265.494C365.041 265.683 365.078 265.87 365.151 266.044C365.223 266.219 365.329 266.377 365.463 266.511C365.597 266.644 365.755 266.75 365.93 266.823C366.105 266.895 366.292 266.932 366.482 266.932C366.864 266.932 367.23 266.781 367.501 266.511C367.771 266.241 367.923 265.875 367.923 265.494V259.382H374.046C374.235 259.382 374.422 259.345 374.597 259.273C374.772 259.2 374.931 259.094 375.065 258.961C375.198 258.827 375.305 258.669 375.377 258.494C375.449 258.32 375.487 258.133 375.487 257.944C375.487 257.755 375.449 257.568 375.377 257.394C375.305 257.219 375.198 257.061 375.065 256.927C374.931 256.793 374.772 256.687 374.597 256.615C374.422 256.543 374.235 256.506 374.046 256.506Z" fill="white"/>
<path d="M522.885 157.004C532.832 157.004 540.895 148.956 540.895 139.028C540.895 129.1 532.832 121.052 522.885 121.052C512.938 121.052 504.875 129.1 504.875 139.028C504.875 148.956 512.938 157.004 522.885 157.004Z" fill="#83BB62"/>
<path d="M530.362 137.519H524.239V131.407C524.239 131.218 524.202 131.031 524.129 130.856C524.057 130.682 523.951 130.523 523.817 130.39C523.683 130.256 523.524 130.15 523.349 130.078C523.175 130.006 522.987 129.969 522.798 129.969C522.609 129.969 522.421 130.006 522.247 130.078C522.072 130.15 521.913 130.256 521.779 130.39C521.645 130.523 521.539 130.682 521.467 130.856C521.394 131.031 521.357 131.218 521.357 131.407V137.519H515.234C515.045 137.519 514.857 137.556 514.682 137.628C514.508 137.7 514.349 137.806 514.215 137.94C514.081 138.073 513.975 138.232 513.903 138.406C513.83 138.581 513.793 138.768 513.793 138.957C513.793 139.146 513.83 139.333 513.903 139.507C513.975 139.682 514.081 139.84 514.215 139.974C514.349 140.107 514.508 140.213 514.682 140.285C514.857 140.358 515.045 140.395 515.234 140.395H521.357V146.507C521.357 146.696 521.395 146.883 521.467 147.057C521.539 147.232 521.645 147.39 521.779 147.524C521.913 147.657 522.072 147.763 522.247 147.835C522.421 147.908 522.609 147.945 522.798 147.945C523.18 147.945 523.547 147.793 523.817 147.524C524.087 147.254 524.239 146.888 524.239 146.507V140.395H530.362C530.551 140.395 530.739 140.358 530.914 140.285C531.088 140.213 531.247 140.107 531.381 139.974C531.515 139.84 531.621 139.682 531.693 139.507C531.766 139.333 531.803 139.146 531.803 138.957C531.803 138.768 531.766 138.581 531.693 138.406C531.621 138.232 531.515 138.073 531.381 137.94C531.247 137.806 531.088 137.7 530.914 137.628C530.739 137.556 530.552 137.519 530.362 137.519Z" fill="white"/>
<path d="M212.619 155.428C222.566 155.428 230.629 147.38 230.629 137.452C230.629 127.524 222.566 119.476 212.619 119.476C202.673 119.476 194.609 127.524 194.609 137.452C194.609 147.38 202.673 155.428 212.619 155.428Z" fill="#83BB62"/>
<path d="M220.097 135.943H213.973V129.831C213.973 129.642 213.936 129.455 213.864 129.281C213.791 129.106 213.685 128.947 213.551 128.814C213.418 128.68 213.259 128.574 213.084 128.502C212.909 128.43 212.722 128.393 212.533 128.393C212.343 128.393 212.156 128.43 211.981 128.502C211.806 128.574 211.647 128.68 211.514 128.814C211.38 128.947 211.274 129.106 211.201 129.281C211.129 129.455 211.092 129.642 211.092 129.831V135.943H204.968C204.779 135.943 204.592 135.98 204.417 136.052C204.242 136.124 204.083 136.23 203.949 136.364C203.816 136.497 203.709 136.656 203.637 136.83C203.565 137.005 203.527 137.192 203.527 137.381C203.527 137.762 203.679 138.128 203.949 138.398C204.22 138.667 204.586 138.819 204.968 138.819H211.092V144.931C211.092 145.12 211.129 145.307 211.201 145.481C211.274 145.656 211.38 145.814 211.514 145.948C211.647 146.081 211.806 146.187 211.981 146.259C212.156 146.332 212.343 146.369 212.532 146.369C212.722 146.369 212.909 146.332 213.084 146.259C213.259 146.187 213.418 146.081 213.551 145.948C213.685 145.814 213.791 145.656 213.864 145.481C213.936 145.307 213.973 145.12 213.973 144.931V138.819H220.097C220.286 138.819 220.473 138.782 220.648 138.709C220.823 138.637 220.982 138.531 221.116 138.398C221.249 138.264 221.356 138.106 221.428 137.931C221.5 137.757 221.538 137.57 221.538 137.381C221.538 136.999 221.386 136.634 221.116 136.364C220.845 136.094 220.479 135.943 220.097 135.943Z" fill="white"/>
<path d="M347.455 112.62C347.784 113.612 347.891 114.664 347.768 115.701C347.645 116.739 347.296 117.737 346.745 118.625C346.194 119.514 345.454 120.271 344.579 120.843C343.703 121.415 342.712 121.789 341.676 121.938L333.348 178.674L319.688 172.014L333.428 115.381C333.293 113.627 333.807 111.885 334.873 110.484C335.94 109.083 337.484 108.122 339.213 107.782C340.942 107.441 342.736 107.746 344.255 108.637C345.774 109.529 346.913 110.946 347.455 112.62Z" fill="#9E616A"/>
<path d="M247.988 294.331C248.596 293.481 249.01 292.508 249.201 291.48C249.391 290.453 249.354 289.396 249.091 288.385C248.828 287.374 248.346 286.432 247.68 285.627C247.013 284.821 246.177 284.172 245.231 283.723L250.85 223.374L239.083 229.394L235.408 287.549C234.759 289.184 234.734 291 235.337 292.653C235.94 294.306 237.129 295.681 238.68 296.517C240.231 297.353 242.035 297.592 243.75 297.189C245.466 296.787 246.974 295.77 247.988 294.331Z" fill="#9E616A"/>
<path d="M256.031 263.808L306.528 261.869L309.441 209.53H251.176L256.031 263.808Z" fill="#9E616A"/>
<path d="M246.658 448.648L255.287 448.648L259.391 415.428H246.656L246.658 448.648Z" fill="#9E616A"/>
<path d="M244.517 444.4L258.157 443.587V449.42L271.126 458.36C271.766 458.801 272.249 459.435 272.503 460.17C272.757 460.904 272.769 461.701 272.537 462.442C272.305 463.184 271.842 463.832 271.215 464.293C270.588 464.753 269.83 465.002 269.051 465.002H252.812L250.013 459.232L248.92 465.002H242.797L244.517 444.4Z" fill="#2F2E41"/>
<path d="M285.037 448.648L293.666 448.648L297.77 415.428H285.035L285.037 448.648Z" fill="#9E616A"/>
<path d="M255.329 251.521C255.329 251.521 240.22 263.696 248.411 307.176C247.164 307.324 248.576 309.778 248.576 309.778L249.758 345.206L250.671 349.266L247.635 355.818L248.886 362.937L245.027 427.546L259.283 429.386L272.926 362.293L275.524 354.75L278.13 348.138L276.724 341.088L277.877 330.144L285.742 293.243L287.667 357.242L284.981 363.352L286.476 370.059L283.145 373.62L281.828 433.499L297.029 434.209L309.607 373.846L308.632 366.143L310.305 360.448V347.144L313.171 340.865L319.419 306.629C319.419 306.629 321.304 279.87 307.552 248.381L255.329 251.521Z" fill="#2F2E41"/>
<path d="M261.486 166.031C261.486 166.031 242.403 169.798 239.115 186.042C235.826 202.286 233.711 239.045 233.711 239.045L234.431 244.164L252.891 248.436L264.673 196.93L261.486 166.031Z" fill="#3F3D56"/>
<path d="M305.035 171.514C305.035 171.514 306.97 168.808 317.802 168.391C318.248 168.374 317.696 167.491 317.696 167.491L322.906 142.076L340.267 151.67L337.336 178.314L308.808 210.701L305.035 171.514Z" fill="#3F3D56"/>
<path d="M294.215 247.28C286.041 247.281 273.739 246.381 255.217 243.636C254.024 243.457 252.92 242.901 252.066 242.051C251.212 241.2 250.653 240.099 250.47 238.909C249.865 238.272 249.471 237.464 249.343 236.595C249.214 235.727 249.356 234.84 249.75 234.055L249.767 234.021L249.348 233.528C248.699 232.767 248.317 231.814 248.262 230.816C248.207 229.819 248.481 228.83 249.042 228.003L243.307 187.047C242.724 182.98 243.615 178.839 245.819 175.369C248.023 171.899 251.395 169.328 255.329 168.118L257.446 167.46L265.453 157.006L265.611 157.008L291.318 157.35L299.66 167.923L313.145 171.097L313.18 171.302L316.311 189.358C317.939 198.749 314.205 202.443 309.438 210.702L310.837 233.896L311.472 235.047C311.824 235.684 311.942 236.424 311.806 237.139C311.669 237.854 311.286 238.498 310.724 238.961C311.149 240.175 311.178 241.491 310.806 242.722L310.477 243.81C310.477 243.841 310.389 244.283 309.677 244.823C308.393 245.796 304.707 247.28 294.215 247.28Z" fill="#3F3D56"/>
<path d="M282.896 444.4L296.536 443.587V449.42L309.505 458.36C310.145 458.801 310.628 459.435 310.882 460.17C311.136 460.904 311.147 461.701 310.916 462.442C310.684 463.184 310.221 463.832 309.594 464.293C308.967 464.753 308.209 465.002 307.43 465.002H291.191L288.392 459.232L287.299 465.002H281.176L282.896 444.4Z" fill="#2F2E41"/>
<path d="M297.224 134.225C299.007 123.259 291.546 112.927 280.56 111.148C269.573 109.368 259.222 116.815 257.439 127.781C255.656 138.747 263.117 149.079 274.104 150.858C285.09 152.637 295.442 145.191 297.224 134.225Z" fill="#9E616A"/>
<path d="M289.115 111.348C281.728 106.278 275.224 105.506 269.881 106.944C269.188 105.874 268.217 105.013 267.071 104.453C262.904 93.9731 250.222 87.679 239.339 90.7386C228.385 93.818 220.827 105.929 222.888 117.099C224.165 124.023 228.531 130.019 230.287 136.838C233.687 150.038 225.394 165.159 212.422 169.414C224.704 171.875 238.224 164.387 242.631 152.682C244.771 146.996 244.9 140.789 245.172 134.722C245.244 130.534 245.758 126.365 246.706 122.285C247.176 120.454 247.841 118.679 248.689 116.989C250.535 113.275 253.602 110.305 257.378 108.575C257.04 109.619 256.955 110.728 257.131 111.811C257.307 112.893 257.739 113.919 258.39 114.802C255.509 118.404 253.941 122.299 253.941 124.631C247.958 135.547 256.515 144.923 267.451 150.896C271.813 153.29 276.85 154.167 281.767 153.387L282.224 151.437L282.844 153.193L284.914 159.08C287.301 160.233 289.668 161.497 292.014 162.871C291.122 158.694 290.401 154.524 289.905 150.447C289.218 144.898 291.613 136.637 293.34 131.613C294.411 128.517 294.961 125.265 294.967 121.989V121.846L296.649 127.238L302.772 124.631C301.633 118.11 302.772 110.706 289.115 111.348Z" fill="#2F2E41"/>
<path d="M540.936 466H93.0642C92.8157 465.999 92.5779 465.899 92.4026 465.724C92.2273 465.548 92.1289 465.31 92.1289 465.062C92.1289 464.814 92.2273 464.576 92.4026 464.4C92.5779 464.224 92.8157 464.125 93.0642 464.124H540.936C541.184 464.125 541.422 464.224 541.598 464.4C541.773 464.576 541.871 464.814 541.871 465.062C541.871 465.31 541.773 465.548 541.598 465.724C541.422 465.899 541.184 465.999 540.936 466Z" fill="#CCCCCC"/>
<path d="M210.561 278.353C220.507 278.353 228.571 270.305 228.571 260.378C228.571 250.45 220.507 242.402 210.561 242.402C200.614 242.402 192.551 250.45 192.551 260.378C192.551 270.305 200.614 278.353 210.561 278.353Z" fill="#E6E6E6"/>
<path d="M481.54 250.046H418.371C416.419 250.044 414.547 249.269 413.167 247.891C411.786 246.514 411.01 244.646 411.008 242.697V208.358C411.01 206.409 411.786 204.541 413.167 203.164C414.547 201.786 416.419 201.011 418.371 201.009H481.54C483.492 201.011 485.363 201.786 486.744 203.164C488.124 204.541 488.9 206.409 488.903 208.357V242.697C488.9 244.646 488.124 246.514 486.744 247.891C485.363 249.269 483.492 250.044 481.54 250.046Z" fill="#F2F2F2"/>
<path d="M482.471 236.098C487.753 236.098 492.035 231.824 492.035 226.552C492.035 221.279 487.753 217.005 482.471 217.005C477.188 217.005 472.906 221.279 472.906 226.552C472.906 231.824 477.188 236.098 482.471 236.098Z" fill="#83BB62"/>
<path d="M486.444 225.75H483.192V222.504C483.192 222.404 483.172 222.305 483.134 222.212C483.095 222.119 483.039 222.035 482.968 221.964C482.897 221.893 482.812 221.837 482.72 221.799C482.627 221.76 482.527 221.74 482.427 221.74C482.224 221.74 482.029 221.821 481.886 221.964C481.742 222.107 481.662 222.302 481.662 222.504V225.75H478.41C478.207 225.75 478.012 225.83 477.869 225.974C477.725 226.117 477.645 226.311 477.645 226.514C477.645 226.614 477.664 226.713 477.703 226.806C477.741 226.899 477.798 226.983 477.869 227.054C477.94 227.125 478.024 227.181 478.117 227.219C478.21 227.258 478.309 227.277 478.41 227.277H481.662V230.523C481.662 230.623 481.681 230.723 481.72 230.815C481.758 230.908 481.815 230.992 481.886 231.063C481.957 231.134 482.041 231.19 482.134 231.229C482.227 231.267 482.326 231.287 482.427 231.287C482.63 231.287 482.824 231.206 482.968 231.063C483.111 230.92 483.192 230.726 483.192 230.523V227.277H486.444C486.647 227.277 486.841 227.197 486.985 227.054C487.128 226.911 487.209 226.716 487.209 226.514C487.209 226.413 487.189 226.314 487.151 226.221C487.112 226.129 487.056 226.045 486.985 225.974C486.914 225.903 486.83 225.846 486.737 225.808C486.644 225.77 486.544 225.75 486.444 225.75Z" fill="white"/>
<path d="M507.274 240.301H455.217C453.007 240.299 450.889 239.422 449.327 237.862C447.764 236.303 446.885 234.189 446.883 231.984V200.968C446.884 200.562 447.046 200.173 447.334 199.887C447.622 199.6 448.012 199.439 448.418 199.439C448.825 199.439 449.215 199.6 449.503 199.887C449.79 200.173 449.953 200.562 449.954 200.968V209.275L510.421 214.761C511.629 214.782 512.78 215.276 513.627 216.135C514.474 216.995 514.949 218.152 514.951 219.358C514.951 219.452 514.942 219.547 514.924 219.64L511.877 235.861C511.835 237.052 511.332 238.18 510.473 239.008C509.615 239.836 508.468 240.3 507.274 240.301ZM449.954 212.352V231.984C449.955 233.376 450.51 234.711 451.497 235.696C452.484 236.681 453.821 237.235 455.217 237.236H507.274C507.681 237.236 508.071 237.074 508.359 236.787C508.647 236.5 508.809 236.11 508.809 235.704C508.809 235.609 508.818 235.515 508.836 235.422L511.876 219.239C511.845 218.855 511.671 218.496 511.387 218.234C511.103 217.971 510.731 217.826 510.345 217.825C510.298 217.825 510.252 217.823 510.206 217.819L449.954 212.352Z" fill="#83BB62"/>
<path d="M441.383 254.604C442.796 254.604 443.942 253.461 443.942 252.05C443.942 250.64 442.796 249.496 441.383 249.496C439.97 249.496 438.824 250.64 438.824 252.05C438.824 253.461 439.97 254.604 441.383 254.604Z" fill="#83BB62"/>
<path d="M505.227 254.604C506.64 254.604 507.786 253.461 507.786 252.05C507.786 250.64 506.64 249.496 505.227 249.496C503.814 249.496 502.668 250.64 502.668 252.05C502.668 253.461 503.814 254.604 505.227 254.604Z" fill="#83BB62"/>
<path d="M507.785 249.496H439.336C438.929 249.496 438.538 249.335 438.251 249.047C437.963 248.76 437.801 248.37 437.801 247.964C437.801 247.557 437.963 247.167 438.251 246.88C438.538 246.593 438.929 246.431 439.336 246.431H507.785C508.192 246.431 508.583 246.593 508.871 246.88C509.159 247.167 509.321 247.557 509.321 247.964C509.321 248.37 509.159 248.76 508.871 249.047C508.583 249.335 508.192 249.496 507.785 249.496Z" fill="#83BB62"/>
<path d="M452.514 201.99H439.208C438.801 201.989 438.411 201.827 438.124 201.54C437.837 201.252 437.676 200.863 437.676 200.457C437.676 200.052 437.837 199.662 438.124 199.375C438.411 199.088 438.801 198.926 439.208 198.925H452.514C452.921 198.926 453.31 199.088 453.598 199.375C453.885 199.662 454.046 200.052 454.046 200.457C454.046 200.863 453.885 201.252 453.598 201.54C453.31 201.827 452.921 201.989 452.514 201.99Z" fill="#83BB62"/>
<path d="M463.187 248.716C462.82 248.716 462.466 248.585 462.188 248.346L452.096 239.69C451.942 239.559 451.816 239.399 451.725 239.219C451.634 239.039 451.579 238.844 451.563 238.643C451.548 238.442 451.572 238.24 451.635 238.048C451.698 237.857 451.798 237.68 451.929 237.527C452.061 237.374 452.221 237.248 452.402 237.158C452.582 237.067 452.778 237.012 452.98 236.997C453.181 236.982 453.383 237.007 453.575 237.07C453.767 237.133 453.944 237.233 454.097 237.365L464.189 246.021C464.427 246.225 464.596 246.497 464.675 246.8C464.753 247.103 464.737 247.423 464.628 247.716C464.519 248.01 464.322 248.263 464.065 248.442C463.807 248.62 463.501 248.716 463.187 248.716Z" fill="#83BB62"/>
<path d="M465.317 239.36C465.115 239.36 464.915 239.32 464.729 239.243C464.543 239.166 464.374 239.053 464.231 238.911C464.088 238.769 463.975 238.6 463.898 238.414C463.821 238.228 463.781 238.029 463.781 237.828V213.228C463.781 212.821 463.943 212.432 464.231 212.144C464.519 211.857 464.909 211.695 465.317 211.695C465.724 211.695 466.114 211.857 466.402 212.144C466.69 212.432 466.852 212.821 466.852 213.228V237.827C466.852 238.029 466.812 238.228 466.735 238.414C466.658 238.6 466.545 238.769 466.402 238.911C466.26 239.053 466.091 239.166 465.904 239.243C465.718 239.32 465.518 239.36 465.317 239.36Z" fill="#83BB62"/>
<path d="M497.746 239.36C497.545 239.36 497.345 239.32 497.159 239.243C496.972 239.166 496.803 239.054 496.661 238.911C496.518 238.769 496.405 238.6 496.328 238.414C496.251 238.228 496.211 238.029 496.211 237.828V215.271C496.212 214.865 496.374 214.476 496.662 214.19C496.95 213.903 497.34 213.742 497.746 213.742C498.153 213.742 498.543 213.903 498.831 214.19C499.119 214.476 499.281 214.865 499.282 215.271V237.828C499.282 238.029 499.242 238.228 499.165 238.414C499.088 238.6 498.975 238.769 498.832 238.911C498.689 239.053 498.52 239.166 498.334 239.243C498.148 239.32 497.948 239.36 497.746 239.36Z" fill="#83BB62"/>
</g>
<defs>
<clipPath id="clip0_695_2538">
<rect width="634" height="466" fill="white"/>
</clipPath>
</defs>
</svg>
