<svg width="804" height="698" viewBox="0 0 804 698" fill="none" xmlns="http://www.w3.org/2000/svg">
<g clip-path="url(#clip0_695_2708)">
<path d="M669.819 165.283H665.997V60.5937C665.997 44.5233 659.613 29.111 648.25 17.7475C636.886 6.38397 621.474 1.06087e-05 605.404 0H383.598C375.64 0 367.761 1.5673 360.409 4.61242C353.058 7.65754 346.378 12.1208 340.751 17.7475C335.125 23.3741 330.661 30.0539 327.616 37.4055C324.571 44.7571 323.004 52.6364 323.004 60.5937V634.937C323.004 651.008 329.388 666.42 340.751 677.783C352.115 689.147 367.527 695.531 383.598 695.531H605.403C621.474 695.531 636.886 689.146 648.249 677.783C659.612 666.42 665.996 651.007 665.996 634.937V239.803H669.818L669.819 165.283Z" fill="#E6E6E6"/>
<path d="M607.848 15.7585H578.897C580.229 19.023 580.737 22.5649 580.377 26.0721C580.017 29.5793 578.8 32.9442 576.833 35.8703C574.867 38.7964 572.211 41.1939 569.099 42.8515C565.987 44.5092 562.516 45.3761 558.99 45.376H431.92C428.395 45.3758 424.923 44.5087 421.812 42.8509C418.701 41.1931 416.045 38.7956 414.078 35.8695C412.112 32.9435 410.895 29.5787 410.535 26.0717C410.175 22.5646 410.684 19.0229 412.015 15.7585H384.973C372.972 15.7585 361.462 20.526 352.976 29.0122C344.49 37.4984 339.723 49.0081 339.723 61.0093V634.519C339.723 646.52 344.49 658.03 352.976 666.516C361.462 675.002 372.972 679.77 384.973 679.77H607.848C619.849 679.77 631.359 675.002 639.845 666.516C648.331 658.03 653.098 646.52 653.098 634.519V61.0084C653.098 49.0073 648.331 37.4978 639.844 29.0119C631.358 20.5259 619.849 15.7585 607.848 15.7585Z" fill="white"/>
<path d="M428.995 149.53C427.787 149.541 426.591 149.298 425.483 148.815C424.376 148.333 423.383 147.624 422.568 146.732C421.6 145.614 420.875 144.307 420.437 142.894C420 141.482 419.859 139.994 420.024 138.524C420.254 135.725 421.428 133.087 423.352 131.041C424.276 130.042 425.394 129.242 426.639 128.691C427.883 128.139 429.227 127.848 430.588 127.835C431.853 127.829 433.106 128.09 434.264 128.6C435.422 129.111 436.459 129.859 437.309 130.797C438.273 131.886 439.001 133.163 439.446 134.548C439.892 135.933 440.046 137.394 439.898 138.841C439.718 141.811 438.437 144.607 436.305 146.682C434.321 148.529 431.706 149.548 428.995 149.53ZM430.588 131.451C427.049 131.451 423.991 134.697 423.626 138.841C423.505 139.811 423.586 140.796 423.863 141.733C424.139 142.671 424.606 143.541 425.234 144.29C425.709 144.813 426.291 145.228 426.939 145.508C427.588 145.788 428.288 145.927 428.995 145.915C432.304 145.915 435.845 143.629 436.296 138.524C436.4 137.576 436.307 136.618 436.022 135.708C435.738 134.799 435.268 133.958 434.642 133.239C434.13 132.673 433.504 132.221 432.806 131.913C432.107 131.605 431.351 131.448 430.588 131.451Z" fill="#3F3D56"/>
<path d="M429.114 160.378C426.317 160.424 423.542 159.874 420.973 158.765C418.405 157.657 416.102 156.015 414.217 153.948C412.331 151.881 410.907 149.437 410.038 146.778C409.169 144.119 408.876 141.306 409.177 138.525C409.77 132.687 412.484 127.27 416.804 123.3C421.125 119.331 426.752 117.084 432.619 116.987C439.128 116.987 444.484 119.078 448.107 123.035C451.543 126.787 453.152 132.068 452.637 137.907C452.15 143.437 449.804 146.318 447.921 147.761C447.09 148.438 446.129 148.94 445.098 149.236C444.067 149.531 442.987 149.614 441.923 149.48C438.947 148.952 435.655 146.249 436.173 140.366L437.131 129.49C437.175 129.014 437.406 128.575 437.773 128.269C438.14 127.963 438.614 127.814 439.09 127.856C439.566 127.898 440.006 128.127 440.314 128.493C440.622 128.858 440.773 129.331 440.733 129.807L439.775 140.683C439.517 143.608 440.556 145.565 442.554 145.92C443.704 146.009 444.844 145.639 445.722 144.89C447.028 143.889 448.664 141.81 449.035 137.589C449.466 132.704 448.223 128.515 445.441 125.477C442.52 122.288 438.087 120.603 432.619 120.603C427.656 120.697 422.898 122.603 419.244 125.963C415.589 129.322 413.29 133.903 412.78 138.84C412.522 141.122 412.755 143.432 413.462 145.616C414.17 147.8 415.336 149.808 416.883 151.505C418.429 153.202 420.32 154.549 422.43 155.456C424.539 156.362 426.818 156.808 429.114 156.762C431.945 156.915 434.774 156.403 437.372 155.265C437.813 155.081 438.31 155.081 438.752 155.262C439.194 155.444 439.547 155.793 439.732 156.234C439.917 156.675 439.92 157.171 439.74 157.615C439.561 158.058 439.213 158.411 438.772 158.599C435.731 159.922 432.427 160.531 429.114 160.378Z" fill="#3F3D56"/>
<path d="M410.023 418.805C409.665 418.805 409.316 418.699 409.018 418.501C408.721 418.302 408.489 418.02 408.352 417.689C408.216 417.359 408.18 416.995 408.25 416.645C408.319 416.294 408.491 415.972 408.744 415.719L420.496 403.967C420.836 403.632 421.295 403.445 421.772 403.447C422.249 403.449 422.706 403.639 423.044 403.976C423.381 404.314 423.571 404.771 423.573 405.248C423.575 405.725 423.388 406.184 423.053 406.524L411.301 418.276C411.133 418.444 410.934 418.577 410.715 418.668C410.495 418.759 410.26 418.806 410.023 418.805ZM439.854 414.285C439.497 414.285 439.147 414.179 438.85 413.981C438.553 413.782 438.321 413.5 438.184 413.169C438.047 412.839 438.011 412.475 438.081 412.125C438.151 411.774 438.323 411.452 438.576 411.199L448.52 401.255C448.86 400.92 449.318 400.733 449.795 400.735C450.273 400.737 450.73 400.927 451.067 401.264C451.405 401.602 451.595 402.059 451.597 402.536C451.599 403.013 451.412 403.472 451.077 403.812L441.133 413.756C440.965 413.924 440.766 414.057 440.546 414.148C440.327 414.239 440.092 414.286 439.854 414.285ZM434.43 414.285C434.193 414.286 433.958 414.239 433.738 414.148C433.519 414.057 433.32 413.924 433.152 413.756L425.92 406.524C425.75 406.356 425.615 406.157 425.523 405.937C425.43 405.717 425.382 405.481 425.381 405.243C425.381 405.004 425.427 404.768 425.518 404.548C425.609 404.327 425.742 404.127 425.911 403.958C426.08 403.789 426.28 403.656 426.501 403.565C426.721 403.474 426.957 403.428 427.196 403.429C427.434 403.429 427.67 403.477 427.89 403.57C428.11 403.662 428.309 403.797 428.477 403.967L435.709 411.199C435.962 411.452 436.134 411.774 436.204 412.125C436.273 412.475 436.237 412.839 436.101 413.169C435.964 413.5 435.732 413.782 435.435 413.981C435.137 414.179 434.788 414.285 434.43 414.285Z" fill="#3F3D56"/>
<path d="M452.508 404.342C451.614 404.342 450.74 404.077 449.997 403.58C449.254 403.083 448.674 402.377 448.332 401.551C447.99 400.725 447.901 399.817 448.075 398.94C448.25 398.063 448.68 397.258 449.312 396.626C449.944 395.994 450.75 395.563 451.626 395.389C452.503 395.214 453.412 395.304 454.238 395.646C455.064 395.988 455.77 396.567 456.266 397.311C456.763 398.054 457.028 398.928 457.028 399.822C457.027 401.02 456.55 402.169 455.703 403.016C454.855 403.864 453.707 404.34 452.508 404.342ZM452.508 398.918C452.329 398.918 452.155 398.971 452.006 399.07C451.857 399.169 451.741 399.311 451.673 399.476C451.605 399.641 451.587 399.823 451.622 399.998C451.656 400.173 451.743 400.335 451.869 400.461C451.995 400.587 452.156 400.673 452.332 400.708C452.507 400.743 452.689 400.725 452.854 400.657C453.019 400.588 453.16 400.473 453.26 400.324C453.359 400.175 453.412 400.001 453.412 399.822C453.412 399.582 453.317 399.352 453.147 399.183C452.978 399.013 452.748 398.918 452.508 398.918Z" fill="#3F3D56"/>
<path d="M437.141 419.709C436.247 419.709 435.373 419.444 434.63 418.948C433.887 418.451 433.307 417.745 432.965 416.919C432.623 416.093 432.534 415.184 432.708 414.308C432.882 413.431 433.313 412.625 433.945 411.993C434.577 411.361 435.382 410.931 436.259 410.756C437.136 410.582 438.045 410.671 438.871 411.013C439.697 411.356 440.403 411.935 440.899 412.678C441.396 413.422 441.661 414.295 441.661 415.189C441.66 416.388 441.183 417.537 440.336 418.384C439.488 419.231 438.339 419.708 437.141 419.709ZM437.141 414.285C436.962 414.285 436.787 414.338 436.639 414.438C436.49 414.537 436.374 414.678 436.306 414.843C436.237 415.009 436.22 415.19 436.254 415.366C436.289 415.541 436.375 415.702 436.502 415.829C436.628 415.955 436.789 416.041 436.965 416.076C437.14 416.111 437.322 416.093 437.487 416.025C437.652 415.956 437.793 415.84 437.893 415.692C437.992 415.543 438.045 415.368 438.045 415.189C438.045 414.95 437.949 414.72 437.78 414.55C437.61 414.381 437.381 414.286 437.141 414.285Z" fill="#3F3D56"/>
<path d="M424.485 407.054C423.591 407.054 422.717 406.788 421.974 406.292C421.23 405.795 420.651 405.089 420.309 404.263C419.967 403.437 419.877 402.529 420.052 401.652C420.226 400.775 420.657 399.97 421.289 399.338C421.921 398.705 422.726 398.275 423.603 398.101C424.48 397.926 425.389 398.016 426.214 398.358C427.04 398.7 427.746 399.279 428.243 400.022C428.74 400.766 429.005 401.64 429.005 402.534C429.003 403.732 428.527 404.881 427.679 405.728C426.832 406.576 425.683 407.052 424.485 407.054ZM424.485 401.63C424.306 401.63 424.131 401.683 423.983 401.782C423.834 401.881 423.718 402.022 423.65 402.188C423.581 402.353 423.563 402.535 423.598 402.71C423.633 402.885 423.719 403.046 423.846 403.173C423.972 403.299 424.133 403.385 424.308 403.42C424.484 403.455 424.666 403.437 424.831 403.369C424.996 403.3 425.137 403.185 425.236 403.036C425.336 402.887 425.389 402.712 425.389 402.534C425.389 402.294 425.293 402.064 425.124 401.895C424.954 401.725 424.724 401.63 424.485 401.63Z" fill="#3F3D56"/>
<path d="M407.309 424.229C406.415 424.229 405.541 423.964 404.798 423.468C404.055 422.971 403.475 422.265 403.133 421.439C402.791 420.613 402.702 419.704 402.876 418.828C403.05 417.951 403.481 417.145 404.113 416.513C404.745 415.881 405.55 415.451 406.427 415.276C407.304 415.102 408.213 415.191 409.039 415.534C409.865 415.876 410.571 416.455 411.067 417.198C411.564 417.942 411.829 418.815 411.829 419.709C411.828 420.908 411.351 422.057 410.504 422.904C409.656 423.751 408.507 424.228 407.309 424.229ZM407.309 418.805C407.13 418.805 406.955 418.858 406.807 418.958C406.658 419.057 406.542 419.198 406.474 419.363C406.405 419.529 406.387 419.71 406.422 419.886C406.457 420.061 406.543 420.222 406.67 420.349C406.796 420.475 406.957 420.561 407.133 420.596C407.308 420.631 407.49 420.613 407.655 420.545C407.82 420.476 407.961 420.36 408.061 420.212C408.16 420.063 408.213 419.888 408.213 419.709C408.213 419.47 408.117 419.24 407.948 419.07C407.778 418.901 407.549 418.806 407.309 418.805Z" fill="#3F3D56"/>
<path d="M578.893 563.653H540.926C539.248 563.651 537.639 562.984 536.453 561.798C535.267 560.611 534.6 559.003 534.598 557.325V530.206C534.6 528.528 535.267 526.92 536.453 525.733C537.639 524.547 539.248 523.88 540.926 523.878H578.893C580.571 523.88 582.179 524.547 583.365 525.733C584.552 526.92 585.219 528.528 585.221 530.206V557.325C585.219 559.003 584.552 560.611 583.365 561.798C582.179 562.984 580.571 563.651 578.893 563.653ZM540.926 527.494C540.207 527.494 539.517 527.78 539.009 528.289C538.5 528.797 538.214 529.487 538.214 530.206V557.325C538.214 558.044 538.5 558.734 539.009 559.242C539.517 559.75 540.207 560.036 540.926 560.037H578.893C579.612 560.036 580.301 559.75 580.81 559.242C581.318 558.734 581.604 558.044 581.605 557.325V530.206C581.604 529.487 581.318 528.797 580.81 528.289C580.301 527.78 579.612 527.494 578.893 527.494L540.926 527.494Z" fill="#3F3D56"/>
<path d="M559.912 547.381C559.51 547.382 559.119 547.248 558.802 547.001L542.53 534.345C542.343 534.199 542.186 534.018 542.068 533.811C541.951 533.605 541.875 533.377 541.846 533.142C541.817 532.906 541.834 532.667 541.897 532.438C541.96 532.209 542.067 531.995 542.213 531.808C542.359 531.62 542.54 531.463 542.746 531.346C542.953 531.229 543.18 531.153 543.416 531.124C543.651 531.094 543.89 531.111 544.119 531.174C544.348 531.237 544.563 531.345 544.75 531.491L559.912 543.283L575.074 531.491C575.261 531.345 575.475 531.237 575.704 531.174C575.933 531.111 576.172 531.094 576.408 531.124C576.643 531.153 576.871 531.229 577.077 531.346C577.284 531.463 577.465 531.62 577.611 531.808C577.756 531.995 577.864 532.209 577.927 532.438C577.99 532.667 578.007 532.906 577.978 533.142C577.948 533.377 577.873 533.605 577.755 533.811C577.638 534.018 577.481 534.199 577.294 534.345L561.022 547.001C560.705 547.248 560.314 547.382 559.912 547.381Z" fill="#3F3D56"/>
<path d="M763.837 588.683L554.695 588.766C554.43 588.766 554.176 588.66 553.988 588.473C553.801 588.285 553.695 588.031 553.695 587.766C553.695 587.5 553.801 587.246 553.988 587.058C554.176 586.871 554.43 586.766 554.695 586.766L763.837 586.683C764.102 586.683 764.356 586.788 764.544 586.976C764.731 587.163 764.837 587.417 764.837 587.683C764.837 587.948 764.731 588.202 764.544 588.39C764.356 588.577 764.102 588.683 763.837 588.683Z" fill="#CCCCCC"/>
<path d="M761.051 601.683C768.783 601.683 775.051 595.415 775.051 587.683C775.051 579.951 768.783 573.683 761.051 573.683C753.319 573.683 747.051 579.951 747.051 587.683C747.051 595.415 753.319 601.683 761.051 601.683Z" fill="#83BB62"/>
<path d="M758.837 320.683L547.695 320.766C547.43 320.766 547.176 320.66 546.988 320.473C546.801 320.285 546.695 320.031 546.695 319.766C546.695 319.5 546.801 319.246 546.988 319.058C547.176 318.871 547.43 318.766 547.695 318.766L758.837 318.683C759.102 318.683 759.356 318.788 759.544 318.975C759.731 319.163 759.837 319.417 759.837 319.683C759.837 319.948 759.731 320.202 759.544 320.39C759.356 320.577 759.102 320.683 758.837 320.683Z" fill="#CCCCCC"/>
<path d="M761.051 334.683C768.783 334.683 775.051 328.415 775.051 320.683C775.051 312.951 768.783 306.683 761.051 306.683C753.319 306.683 747.051 312.951 747.051 320.683C747.051 328.415 753.319 334.683 761.051 334.683Z" fill="#83BB62" fill-opacity="0.3"/>
<path d="M218.27 183.683L429.411 183.766C429.676 183.766 429.93 183.66 430.118 183.473C430.305 183.285 430.411 183.031 430.411 182.766C430.411 182.5 430.305 182.246 430.118 182.058C429.93 181.871 429.676 181.766 429.411 181.766L218.27 181.683C218.004 181.683 217.75 181.788 217.562 181.975C217.375 182.163 217.27 182.417 217.27 182.683C217.27 182.948 217.375 183.202 217.562 183.39C217.75 183.577 218.004 183.683 218.27 183.683Z" fill="#CCCCCC"/>
<path d="M216.051 197.683C223.783 197.683 230.051 191.415 230.051 183.683C230.051 175.951 223.783 169.683 216.051 169.683C208.319 169.683 202.051 175.951 202.051 183.683C202.051 191.415 208.319 197.683 216.051 197.683Z" fill="#83BB62"/>
<path d="M218.27 454.683L429.411 454.766C429.676 454.766 429.93 454.66 430.118 454.473C430.305 454.285 430.411 454.031 430.411 453.766C430.411 453.5 430.305 453.246 430.118 453.058C429.93 452.871 429.676 452.766 429.411 452.766L218.27 452.683C218.004 452.683 217.75 452.788 217.562 452.976C217.375 453.163 217.27 453.417 217.27 453.683C217.27 453.948 217.375 454.202 217.562 454.39C217.75 454.577 218.004 454.683 218.27 454.683Z" fill="#CCCCCC"/>
<path d="M216.051 468.683C223.783 468.683 230.051 462.415 230.051 454.683C230.051 446.951 223.783 440.683 216.051 440.683C208.319 440.683 202.051 446.951 202.051 454.683C202.051 462.415 208.319 468.683 216.051 468.683Z" fill="#83BB62"/>
<path d="M559.91 588.765C551.01 588.765 542.31 586.126 534.909 581.182C527.509 576.237 521.742 569.209 518.336 560.986C514.93 552.763 514.039 543.715 515.775 534.986C517.511 526.257 521.797 518.239 528.09 511.946C534.384 505.652 542.402 501.366 551.131 499.63C559.86 497.894 568.908 498.785 577.131 502.191C585.354 505.597 592.382 511.365 597.326 518.765C602.271 526.165 604.91 534.865 604.91 543.765C604.897 555.696 600.151 567.134 591.715 575.57C583.279 584.006 571.841 588.752 559.91 588.765ZM559.91 500.765C551.406 500.765 543.092 503.287 536.021 508.012C528.949 512.737 523.438 519.453 520.183 527.31C516.929 535.167 516.077 543.813 517.736 552.154C519.396 560.495 523.491 568.157 529.505 574.171C535.518 580.185 543.18 584.28 551.521 585.939C559.862 587.598 568.508 586.747 576.366 583.492C584.223 580.238 590.938 574.726 595.663 567.655C600.388 560.584 602.91 552.27 602.91 543.765C602.897 532.365 598.363 521.435 590.302 513.374C582.24 505.313 571.311 500.778 559.91 500.765Z" fill="#CCCCCC"/>
<path d="M429.91 454.765C421.01 454.765 412.31 452.126 404.909 447.182C397.509 442.237 391.742 435.209 388.336 426.986C384.93 418.763 384.039 409.715 385.775 400.986C387.511 392.257 391.797 384.239 398.09 377.946C404.384 371.652 412.402 367.366 421.131 365.63C429.86 363.894 438.908 364.785 447.131 368.191C455.354 371.597 462.382 377.365 467.326 384.765C472.271 392.165 474.91 400.865 474.91 409.765C474.897 421.696 470.151 433.134 461.715 441.57C453.279 450.006 441.841 454.752 429.91 454.765ZM429.91 366.765C421.406 366.765 413.092 369.287 406.021 374.012C398.949 378.737 393.438 385.453 390.183 393.31C386.929 401.167 386.077 409.813 387.736 418.154C389.396 426.495 393.491 434.157 399.505 440.171C405.518 446.185 413.18 450.28 421.521 451.939C429.862 453.598 438.508 452.747 446.366 449.492C454.223 446.238 460.938 440.726 465.663 433.655C470.388 426.584 472.91 418.27 472.91 409.765C472.897 398.365 468.363 387.435 460.302 379.374C452.24 371.313 441.311 366.778 429.91 366.765Z" fill="#CCCCCC"/>
<path d="M550.91 320.765C542.01 320.765 533.31 318.126 525.909 313.182C518.509 308.237 512.742 301.209 509.336 292.986C505.93 284.763 505.039 275.715 506.775 266.986C508.511 258.257 512.797 250.239 519.09 243.946C525.384 237.652 533.402 233.366 542.131 231.63C550.86 229.894 559.908 230.785 568.131 234.191C576.354 237.597 583.382 243.365 588.326 250.765C593.271 258.165 595.91 266.865 595.91 275.765C595.897 287.696 591.151 299.134 582.715 307.57C574.279 316.006 562.841 320.752 550.91 320.765ZM550.91 232.765C542.406 232.765 534.092 235.287 527.021 240.012C519.949 244.737 514.438 251.453 511.183 259.31C507.929 267.167 507.077 275.813 508.736 284.154C510.396 292.495 514.491 300.157 520.505 306.171C526.518 312.185 534.18 316.28 542.521 317.939C550.862 319.598 559.508 318.747 567.366 315.492C575.223 312.238 581.938 306.726 586.663 299.655C591.388 292.584 593.91 284.27 593.91 275.765C593.897 264.365 589.363 253.435 581.302 245.374C573.24 237.313 562.311 232.778 550.91 232.765Z" fill="#CCCCCC"/>
<path d="M430.91 183.683C422.01 183.683 413.31 181.043 405.909 176.099C398.509 171.154 392.742 164.126 389.336 155.903C385.93 147.681 385.039 138.633 386.775 129.904C388.511 121.174 392.797 113.156 399.09 106.863C405.384 100.569 413.402 96.2836 422.131 94.5473C430.86 92.811 439.908 93.7021 448.131 97.1081C456.354 100.514 463.382 106.282 468.326 113.682C473.271 121.082 475.91 129.782 475.91 138.683C475.897 150.613 471.151 162.051 462.715 170.488C454.279 178.924 442.841 183.669 430.91 183.683ZM430.91 95.6826C422.406 95.6826 414.092 98.2045 407.021 102.929C399.949 107.654 394.438 114.37 391.183 122.227C387.929 130.084 387.077 138.73 388.736 147.072C390.396 155.413 394.491 163.075 400.505 169.088C406.518 175.102 414.18 179.197 422.521 180.856C430.862 182.516 439.508 181.664 447.366 178.409C455.223 175.155 461.938 169.643 466.663 162.572C471.388 155.501 473.91 147.187 473.91 138.683C473.897 127.282 469.363 116.353 461.302 108.291C453.24 100.23 442.311 95.6955 430.91 95.6826Z" fill="#CCCCCC"/>
<path d="M148.504 488.58C147.274 487.641 146.255 486.455 145.514 485.097C144.773 483.739 144.326 482.241 144.202 480.699C144.175 480.339 144.166 479.979 144.177 479.619L97.6085 448.256C96.0844 447.219 94.9362 445.718 94.3349 443.975C93.7336 442.233 93.7115 440.342 94.2718 438.586L116.529 383.29C117.486 380.91 119.348 379.006 121.707 377.996C124.065 376.986 126.728 376.951 129.112 377.899C131.496 378.848 133.407 380.702 134.427 383.057C135.446 385.411 135.491 388.074 134.552 390.461L116.582 436.152L152.844 469.087C153.322 468.978 153.808 468.903 154.297 468.863C157.097 468.64 159.877 469.497 162.066 471.258C164.254 473.02 165.686 475.552 166.068 478.335C166.449 481.118 165.752 483.942 164.118 486.227C162.484 488.513 160.037 490.086 157.28 490.625C156.573 490.762 155.854 490.831 155.133 490.831C152.736 490.833 150.405 490.041 148.504 488.58Z" fill="#A0616A"/>
<path d="M97.6268 415.85C97.3543 415.214 97.2223 414.526 97.2398 413.834C97.2573 413.142 97.4239 412.462 97.7282 411.84L108.353 390.124C109.425 386.749 111.792 383.936 114.934 382.303C118.077 380.67 121.738 380.35 125.117 381.413C128.495 382.476 131.314 384.835 132.956 387.972C134.597 391.11 134.928 394.771 133.875 398.153L129.996 422.094C129.885 422.778 129.628 423.429 129.243 424.004C128.858 424.579 128.353 425.065 127.763 425.427C127.174 425.79 126.513 426.021 125.826 426.105C125.139 426.189 124.442 426.124 123.782 425.914L100.597 418.546C99.9368 418.337 99.3299 417.988 98.8173 417.522C98.3048 417.057 97.8987 416.487 97.6268 415.85Z" fill="#83BB62"/>
<path d="M170.908 683.95H183.168L189 636.662L170.906 636.663L170.908 683.95Z" fill="#A0616A"/>
<path d="M167.781 679.948L191.925 679.947H191.926C193.947 679.946 195.947 680.344 197.814 681.118C199.681 681.891 201.377 683.024 202.806 684.453C204.235 685.882 205.368 687.578 206.141 689.445C206.915 691.311 207.313 693.312 207.313 695.333V695.833L167.782 695.834L167.781 679.948Z" fill="#2F2E41"/>
<path d="M51.0234 675.264L62.8974 678.315L80.3174 633.967L62.7924 629.464L51.0234 675.264Z" fill="#A0616A"/>
<path d="M48.9931 670.608L72.3771 676.618L72.3781 676.618C74.335 677.121 76.1738 678.004 77.7893 679.218C79.4049 680.431 80.7656 681.951 81.7937 683.691C82.8218 685.43 83.4973 687.355 83.7815 689.356C84.0657 691.356 83.9531 693.393 83.45 695.35L83.3256 695.834L45.0391 685.995L48.9931 670.608Z" fill="#2F2E41"/>
<path d="M137.014 359.541C150.579 359.541 161.575 348.545 161.575 334.98C161.575 321.416 150.579 310.419 137.014 310.419C123.449 310.419 112.453 321.416 112.453 334.98C112.453 348.545 123.449 359.541 137.014 359.541Z" fill="#A0616A"/>
<path d="M124.591 437.141C118.748 431.126 113.786 424.314 109.855 416.907C107.764 412.845 106.547 408.391 106.282 403.831C106.017 399.271 106.709 394.706 108.315 390.43C109.955 386.059 112.491 382.079 115.762 378.747C119.033 375.415 122.965 372.805 127.306 371.085C134.917 367.996 143.41 367.868 151.111 370.727C158.813 373.586 165.165 379.224 168.918 386.532C175.064 398.559 177.472 410.318 176.077 421.484C173.408 442.829 171.846 453.863 171.434 454.275L171.297 454.412L125.607 456.443L124.591 437.141Z" fill="#83BB62"/>
<path d="M127.307 450.535L168.194 448.5C169.226 448.449 170.238 448.799 171.018 449.478C171.798 450.156 172.285 451.11 172.377 452.14L191.185 662.972C191.235 663.532 191.167 664.096 190.984 664.628C190.801 665.16 190.508 665.647 190.124 666.058C189.74 666.469 189.273 666.795 188.755 667.013C188.237 667.232 187.678 667.338 187.116 667.326L171.142 666.986C170.264 666.968 169.416 666.66 168.729 666.112C168.043 665.563 167.557 664.804 167.345 663.951L136.829 540.988C136.629 540.184 136.185 539.461 135.556 538.921C134.928 538.38 134.148 538.048 133.322 537.97C132.497 537.892 131.668 538.072 130.95 538.486C130.232 538.9 129.66 539.526 129.313 540.279L71.4834 665.878C71.0906 666.731 70.4102 667.419 69.5613 667.821C68.7124 668.222 67.7492 668.313 66.8404 668.076L50.7647 663.882C49.7697 663.624 48.9126 662.992 48.3715 662.118C47.8305 661.244 47.6472 660.195 47.8598 659.189C53.1491 634.221 84.8315 491.233 124.721 451.656C125.416 450.977 126.336 450.578 127.307 450.535Z" fill="#2F2E41"/>
<path d="M204.733 474.207C203.254 473.751 201.888 472.989 200.724 471.97C199.56 470.952 198.623 469.699 197.975 468.294C197.825 467.967 197.693 467.632 197.578 467.29L143.047 453.927C141.259 453.48 139.663 452.467 138.497 451.039C137.331 449.61 136.658 447.844 136.578 446.002L138.383 386.424C138.46 383.86 139.551 381.431 141.415 379.668C143.28 377.906 145.767 376.955 148.332 377.022C150.896 377.089 153.33 378.17 155.099 380.027C156.869 381.885 157.831 384.368 157.774 386.933L156.677 436.017L202.078 454.414C202.49 454.148 202.919 453.909 203.363 453.701C204.985 452.95 206.765 452.604 208.55 452.695C210.335 452.785 212.071 453.308 213.608 454.219C215.146 455.13 216.438 456.402 217.374 457.925C218.31 459.447 218.861 461.174 218.98 462.958C219.099 464.741 218.782 466.526 218.057 468.159C217.332 469.793 216.22 471.225 214.817 472.332C213.415 473.44 211.764 474.189 210.007 474.516C208.25 474.843 206.44 474.737 204.733 474.207Z" fill="#A0616A"/>
<path d="M132.568 416.111C132.098 415.604 131.742 415 131.526 414.343C131.31 413.685 131.238 412.989 131.315 412.301L134.018 388.277C133.893 384.738 135.176 381.293 137.586 378.698C139.996 376.104 143.337 374.571 146.876 374.436C150.415 374.3 153.863 375.574 156.464 377.977C159.066 380.38 160.608 383.716 160.753 387.255L165.152 411.107C165.277 411.787 165.255 412.487 165.085 413.158C164.916 413.829 164.604 414.456 164.171 414.996C163.737 415.536 163.192 415.975 162.574 416.286C161.955 416.596 161.277 416.769 160.585 416.794L136.272 417.652C135.58 417.677 134.891 417.552 134.252 417.286C133.613 417.02 133.038 416.619 132.568 416.111Z" fill="#83BB62"/>
<path d="M101.821 367.407L104.388 359.112L106.143 368.421L120.556 368.039L120.489 358.862L125.968 367.919L139.029 365.032C136.239 361.314 133.415 357.538 131.631 353.156C129.846 348.773 129.197 343.633 130.864 339.197C134.986 328.229 150.615 331.298 159.164 331.205C161.658 331.178 164.473 330.998 166.106 328.959C167.336 327.424 167.538 325.228 167.475 323.198C167.154 312.743 160.878 302.769 152.004 298.612C147.66 296.612 142.818 295.956 138.099 296.729C135.637 297.118 133.247 297.871 131.007 298.963C129.01 299.938 126.913 302.262 124.762 302.199C122.955 302.146 120.563 300.264 118.596 299.942C116.227 299.576 113.811 299.661 111.473 300.191C106.775 301.238 102.54 303.772 99.3966 307.417C92.7163 315.179 90.7314 326.618 91.8957 337.148C93.0601 347.678 96.9994 357.582 100.895 367.314" fill="#2F2E41"/>
<path d="M803 697.683H1C0.734784 697.683 0.480429 697.577 0.292892 697.39C0.105356 697.202 0 696.948 0 696.683C0 696.417 0.105356 696.163 0.292892 695.976C0.480429 695.788 0.734784 695.683 1 695.683H803C803.265 695.683 803.52 695.788 803.707 695.976C803.895 696.163 804 696.417 804 696.683C804 696.948 803.895 697.202 803.707 697.39C803.52 697.577 803.265 697.683 803 697.683Z" fill="#E6E6E6"/>
<path d="M789.47 685.289C792.522 682.814 794.746 679.466 795.845 675.693C796.659 671.874 795.032 667.391 791.396 665.914C787.311 664.336 782.945 667.175 779.641 670.031C776.337 672.887 772.535 676.157 768.201 675.543C770.421 673.52 772.079 670.956 773.013 668.102C773.947 665.248 774.125 662.2 773.531 659.256C773.352 658.031 772.834 656.881 772.037 655.935C769.779 653.511 765.661 654.557 762.938 656.467C754.305 662.543 751.898 674.265 751.864 684.824C750.984 681.006 751.715 677.038 751.698 673.202C751.682 669.367 750.603 664.901 747.315 662.875C745.277 661.78 742.987 661.236 740.674 661.298C736.789 661.165 732.472 661.547 729.816 664.386C726.495 667.906 727.375 673.833 730.247 677.668C733.12 681.504 737.47 683.977 741.471 686.667C744.694 688.578 747.441 691.195 749.507 694.321C749.752 694.753 749.952 695.21 750.104 695.682H774.428C779.889 692.914 784.949 689.418 789.47 685.289Z" fill="#F2F2F2"/>
<path d="M536.404 302.202C535.951 302.2 535.507 302.085 535.11 301.868C534.714 301.651 534.378 301.338 534.133 300.958C533.887 300.579 533.741 300.144 533.706 299.693C533.671 299.242 533.749 298.79 533.933 298.377L537.062 291.396C532.751 287.566 530.004 282.28 529.35 276.55C528.696 270.821 530.18 265.051 533.518 260.348C536.856 255.646 541.812 252.34 547.436 251.067C553.061 249.793 558.957 250.64 563.995 253.446C569.033 256.252 572.858 260.819 574.737 266.272C576.615 271.724 576.414 277.678 574.173 282.991C571.932 288.305 567.809 292.604 562.593 295.065C557.378 297.525 551.437 297.974 545.911 296.324L537.926 301.73C537.477 302.037 536.947 302.201 536.404 302.202ZM552.55 253.935C548.39 253.933 544.332 255.225 540.939 257.631C537.547 260.038 534.987 263.441 533.614 267.368C532.242 271.295 532.126 275.551 533.281 279.548C534.436 283.544 536.806 287.082 540.062 289.671L541.047 290.457L537.681 297.969L545.407 292.738L546.169 292.995C548.925 293.92 551.849 294.236 554.739 293.919C557.629 293.603 560.416 292.661 562.905 291.161C565.395 289.66 567.529 287.636 569.159 285.229C570.789 282.821 571.876 280.088 572.345 277.219C572.813 274.35 572.652 271.413 571.873 268.613C571.094 265.812 569.715 263.214 567.832 260.999C565.949 258.784 563.607 257.005 560.968 255.785C558.329 254.566 555.457 253.934 552.55 253.935Z" fill="#3F3D56"/>
<path d="M552.549 276.161C554.346 276.161 555.802 274.704 555.802 272.908C555.802 271.112 554.346 269.656 552.549 269.656C550.753 269.656 549.297 271.112 549.297 272.908C549.297 274.704 550.753 276.161 552.549 276.161Z" fill="#3F3D56"/>
<path d="M543.335 276.161C545.131 276.161 546.587 274.704 546.587 272.908C546.587 271.112 545.131 269.656 543.335 269.656C541.538 269.656 540.082 271.112 540.082 272.908C540.082 274.704 541.538 276.161 543.335 276.161Z" fill="#3F3D56"/>
<path d="M561.768 276.161C563.564 276.161 565.021 274.704 565.021 272.908C565.021 271.112 563.564 269.656 561.768 269.656C559.972 269.656 558.516 271.112 558.516 272.908C558.516 274.704 559.972 276.161 561.768 276.161Z" fill="#3F3D56"/>
</g>
<defs>
<clipPath id="clip0_695_2708">
<rect width="804" height="697.683" fill="white"/>
</clipPath>
</defs>
</svg>
