<svg width="495" height="300" viewBox="0 0 565 513" fill="none" xmlns="http://www.w3.org/2000/svg">
<g clip-path="url(#clip0_695_2651)">
<path d="M390.427 511.006H230.115C206.07 511.006 186.508 491.444 186.508 467.399V43.6069C186.508 19.5621 206.07 0 230.115 0H390.427C414.471 0 434.033 19.5621 434.033 43.6069C437.018 213.789 442.106 404.365 434.033 467.399C434.033 491.444 414.471 511.006 390.427 511.006Z" fill="#3F3D56"/>
<path d="M436.271 155.885C435.253 155.885 434.426 156.712 434.426 157.729V216.762C434.426 217.78 435.253 218.607 436.271 218.607C437.288 218.607 438.115 217.78 438.115 216.762V157.729C438.115 156.712 437.288 155.885 436.271 155.885Z" fill="#3F3D56"/>
<path d="M429.884 43.6073V467.391C429.884 488.32 413.595 505.44 392.998 506.768H392.988C392.684 506.787 392.38 506.805 392.066 506.814C391.522 506.842 390.978 506.851 390.424 506.851C390.424 506.851 388.395 506.704 384.687 506.427C380.942 506.15 375.491 505.735 368.693 505.191C366.654 505.034 364.505 504.859 362.236 504.675C357.716 504.306 352.754 503.9 347.432 503.439C345.31 503.263 343.115 503.07 340.873 502.876C329.417 501.889 316.587 500.736 303.055 499.426C300.768 499.214 298.462 498.993 296.137 498.762C295.529 498.697 190.66 472.335 190.66 467.391V43.6073C190.66 21.8112 208.324 4.14734 230.12 4.14734H253.678C257.441 4.14734 260.467 7.08054 260.79 10.8347C260.817 11.0837 260.845 11.3328 260.891 11.5818C261.574 15.3544 265.033 17.9832 268.87 17.9832H351.675C355.512 17.9832 358.971 15.3544 359.653 11.5818C359.699 11.3328 359.727 11.0838 359.755 10.8347C360.078 7.08055 363.103 4.14734 366.866 4.14734H390.424C412.22 4.14734 429.884 21.8112 429.884 43.6073Z" fill="white"/>
<path d="M185.587 111.61C184.57 111.61 183.742 112.437 183.742 113.454V128.213C183.742 129.23 184.57 130.057 185.587 130.057C186.604 130.057 187.432 129.23 187.432 128.213V113.454C187.432 112.437 186.604 111.61 185.587 111.61Z" fill="#3F3D56"/>
<path d="M185.587 155.885C184.57 155.885 183.742 156.712 183.742 157.729V186.323C183.742 187.341 184.57 188.168 185.587 188.168C186.604 188.168 187.432 187.341 187.432 186.323V157.729C187.432 156.712 186.604 155.885 185.587 155.885Z" fill="#3F3D56"/>
<path d="M185.587 196.47C184.57 196.47 183.742 197.297 183.742 198.315V226.909C183.742 227.926 184.57 228.753 185.587 228.753C186.604 228.753 187.432 227.926 187.432 226.909V198.315C187.432 197.297 186.604 196.47 185.587 196.47Z" fill="#3F3D56"/>
<path d="M253.073 10.6077H217.72C217.549 10.6077 217.41 10.7466 217.41 10.9179V14.9094C217.41 15.0807 217.549 15.2196 217.72 15.2196H253.073C253.245 15.2196 253.383 15.0807 253.383 14.9094V10.9179C253.383 10.7466 253.245 10.6077 253.073 10.6077Z" fill="#E6E6E6"/>
<path d="M372.697 15.2196C374.735 15.2196 376.387 13.5677 376.387 11.53C376.387 9.49233 374.735 7.84045 372.697 7.84045C370.66 7.84045 369.008 9.49233 369.008 11.53C369.008 13.5677 370.66 15.2196 372.697 15.2196Z" fill="#E6E6E6"/>
<path d="M382.842 15.2196C384.88 15.2196 386.531 13.5677 386.531 11.53C386.531 9.49233 384.88 7.84045 382.842 7.84045C380.804 7.84045 379.152 9.49233 379.152 11.53C379.152 13.5677 380.804 15.2196 382.842 15.2196Z" fill="#E6E6E6"/>
<path d="M392.99 15.2196C395.028 15.2196 396.68 13.5677 396.68 11.53C396.68 9.49233 395.028 7.84045 392.99 7.84045C390.953 7.84045 389.301 9.49233 389.301 11.53C389.301 13.5677 390.953 15.2196 392.99 15.2196Z" fill="#E6E6E6"/>
<path d="M14.3125 511.106C14.3125 511.766 14.8425 512.296 15.5026 512.296H563.793C564.453 512.296 564.983 511.766 564.983 511.106C564.983 510.446 564.453 509.916 563.793 509.916H15.5026C14.8425 509.916 14.3125 510.446 14.3125 511.106Z" fill="#CCCCCC"/>
<path d="M189.132 503.29L177.888 503.289L172.539 459.92L189.134 459.921L189.132 503.29Z" fill="#FFB6B6"/>
<path d="M150.609 503.035C150.259 503.625 150.074 505.528 150.074 506.213C150.074 508.321 151.783 510.03 153.89 510.03H188.711C190.149 510.03 191.314 508.864 191.314 507.426V505.976C191.314 505.976 193.037 501.619 189.49 496.249C189.49 496.249 185.083 500.454 178.497 493.868L176.554 490.349L162.495 500.631L154.703 501.591C152.998 501.8 151.486 501.558 150.609 503.035Z" fill="#2F2E41"/>
<path d="M126.955 443.052L115.711 443.015L110.5 399.629L127.095 399.683L126.955 443.052Z" fill="#FFB6B6"/>
<path d="M88.4316 442.675C88.0797 443.263 87.8889 445.166 87.8867 445.851C87.88 447.959 89.5831 449.673 91.6908 449.68L126.511 449.79C127.949 449.795 129.118 448.633 129.123 447.195L129.127 445.745C129.127 445.745 130.864 441.394 127.334 436.012C127.334 436.012 122.913 440.203 116.348 433.596L114.417 430.072L100.325 440.309L92.5297 441.243C90.8242 441.448 89.3133 441.201 88.4316 442.675Z" fill="#2F2E41"/>
<path d="M172.734 240L158.734 241C158.734 241 111.338 267.947 107.338 273.947C103.338 279.947 97.838 288.447 102.838 297.447C107.838 306.447 104.033 415.42 104.033 415.42L127.925 410.015L143.234 296L175.234 291.5C175.234 291.5 186.234 315.232 182.234 334.866C178.234 354.5 176.234 366.5 176.234 366.5L171.234 482.5L190.734 482L208.234 374.5L238.234 289.5L199.234 243.5L172.734 240Z" fill="#2F2E41"/>
<path d="M241.734 117L212.734 120L209.734 130L181.734 145L190.734 208L183.734 219L186.734 230C186.734 230 178.734 231 179.734 237L161.734 240C161.734 240 185.608 244.874 190.671 268.937C195.734 293 237.734 296 237.734 296L270.734 193L273.734 132L250.734 126L241.734 117Z" fill="#E6E6E6"/>
<path d="M226.45 113.205C238.901 113.205 248.994 103.112 248.994 90.6614C248.994 78.2107 238.901 68.1174 226.45 68.1174C214 68.1174 203.906 78.2107 203.906 90.6614C203.906 103.112 214 113.205 226.45 113.205Z" fill="#FFB6B6"/>
<path d="M214.733 111C214.733 111 194.733 110 196.733 94C191.783 76.9617 196.164 65.899 211.733 62C211.733 62 215.733 61 216.733 61C229.886 61 236.733 65 236.733 65C236.733 65 235.733 61.0394 236.733 62.0197C237.733 63 238.733 65 238.733 65C238.733 65 248.733 70 248.733 80C248.733 90 248.733 86 248.733 86C248.733 86 246.733 86 244.733 80C242.733 74 229.784 78 229.784 78L230.733 80L227.733 79L224.733 82L222.733 81C222.733 81 214.733 81 215.733 81C216.733 81 216.036 87.7959 216.036 87.7959L208.733 96L216.733 111H214.733Z" fill="#2F2E41"/>
<path d="M108.179 230.354C102.486 233.461 99.4734 238.917 101.451 242.54C103.428 246.163 109.646 246.581 115.34 243.474C117.832 242.114 119.81 240.304 121.081 238.394L145.041 224.925L138.481 213.816L115.558 228.273C113.264 228.309 110.671 228.994 108.179 230.354Z" fill="#FFB6B6"/>
<path d="M188.98 145.467C188.98 145.467 179.588 141.891 176.352 146.195C173.116 150.5 151.739 202.73 151.739 202.73L120.375 219.11L129.195 234.469L169.582 221.023L196.229 172.289L188.98 145.467Z" fill="#E6E6E6"/>
<path d="M485.148 316.998V422.998C485.148 432.372 477.522 439.998 468.148 439.998H206.148C196.774 439.998 189.148 432.372 189.148 422.998V316.998C189.148 307.624 196.774 299.998 206.148 299.998H468.148C477.522 299.998 485.148 307.624 485.148 316.998Z" fill="white"/>
<path d="M485.148 316.998V422.998C485.148 432.372 477.522 439.998 468.148 439.998H206.148C196.774 439.998 189.148 432.372 189.148 422.998V316.998C189.148 307.624 196.774 299.998 206.148 299.998H468.148C477.522 299.998 485.148 307.624 485.148 316.998ZM468.148 437.998C476.433 437.998 483.148 431.282 483.148 422.998V369.557C483.148 332.245 452.901 301.998 415.589 301.998H206.148C197.864 301.998 191.148 308.714 191.148 316.998V422.998C191.148 431.282 197.864 437.998 206.148 437.998H468.148Z" fill="#3F3D56"/>
<path d="M306.758 364.039H272.537C271.675 364.039 270.973 364.741 270.973 365.604C270.973 366.466 271.675 367.168 272.537 367.168H306.758C307.621 367.168 308.322 366.466 308.322 365.604C308.322 364.741 307.621 364.039 306.758 364.039Z" fill="#83BB62"/>
<path d="M358.758 364.039H324.537C323.675 364.039 322.973 364.741 322.973 365.604C322.973 366.466 323.675 367.168 324.537 367.168H358.758C359.621 367.168 360.322 366.466 360.322 365.604C360.322 364.741 359.621 364.039 358.758 364.039Z" fill="#83BB62"/>
<path d="M306.758 381.145H272.537C271.675 381.145 270.973 381.847 270.973 382.71C270.973 383.572 271.675 384.274 272.537 384.274H306.758C307.621 384.274 308.322 383.572 308.322 382.71C308.322 381.847 307.621 381.145 306.758 381.145Z" fill="#83BB62"/>
<path d="M358.758 381.145H324.537C323.675 381.145 322.973 381.847 322.973 382.71C322.973 383.572 323.675 384.274 324.537 384.274H358.758C359.621 384.274 360.322 383.572 360.322 382.71C360.322 381.847 359.621 381.145 358.758 381.145Z" fill="#83BB62"/>
<path d="M412.322 382.71C412.322 381.847 411.621 381.145 410.758 381.145H376.537C375.675 381.145 374.973 381.847 374.973 382.71C374.973 383.572 375.675 384.274 376.537 384.274H410.758C411.621 384.274 412.322 383.572 412.322 382.71Z" fill="#83BB62"/>
<path d="M286.758 350.381C287.621 350.381 288.322 349.679 288.322 348.816C288.322 347.953 287.621 347.251 286.758 347.251H252.537C251.675 347.251 250.973 347.953 250.973 348.816C250.973 349.679 251.675 350.381 252.537 350.381H286.758Z" fill="#83BB62"/>
<path d="M387.537 349.744H421.758C422.621 349.744 423.322 349.042 423.322 348.179C423.322 347.317 422.621 346.615 421.758 346.615H387.537C386.675 346.615 385.973 347.317 385.973 348.179C385.973 349.042 386.675 349.744 387.537 349.744Z" fill="#83BB62"/>
<path d="M301.174 350.073H372.121C372.984 350.073 373.685 349.371 373.685 348.508C373.685 347.646 372.984 346.944 372.121 346.944H301.174C300.311 346.944 299.609 347.646 299.609 348.508C299.609 349.371 300.311 350.073 301.174 350.073Z" fill="#83BB62"/>
<path d="M329.09 396.687H294.869C294.007 396.687 293.305 397.389 293.305 398.251C293.305 399.114 294.007 399.816 294.869 399.816H329.09C329.953 399.816 330.654 399.114 330.654 398.251C330.654 397.389 329.953 396.687 329.09 396.687Z" fill="#83BB62"/>
<path d="M439.609 316.199V422.199C439.609 431.573 431.983 439.199 422.609 439.199H316.609C307.235 439.199 299.609 431.573 299.609 422.199V316.199C299.609 306.825 307.235 299.199 316.609 299.199H422.609C431.983 299.199 439.609 306.825 439.609 316.199Z" fill="white"/>
<path d="M439.609 316.199V422.199C439.609 431.573 431.983 439.199 422.609 439.199H316.609C307.235 439.199 299.609 431.573 299.609 422.199V316.199C299.609 306.825 307.235 299.199 316.609 299.199H422.609C431.983 299.199 439.609 306.825 439.609 316.199ZM416.034 437.199C427.95 437.199 437.609 427.539 437.609 415.623V368.758C437.609 331.446 407.362 301.199 370.05 301.199H316.609C308.325 301.199 301.609 307.914 301.609 316.199V407.409C301.609 423.862 314.947 437.199 331.399 437.199L416.034 437.199Z" fill="#3F3D56"/>
<path d="M383.719 342.491H349.498C348.636 342.491 347.934 341.789 347.934 340.926C347.934 340.063 348.636 339.362 349.498 339.362H383.719C384.582 339.362 385.283 340.063 385.283 340.926C385.283 341.789 384.582 342.491 383.719 342.491Z" fill="#83BB62"/>
<path d="M383.719 375.855H349.498C348.636 375.855 347.934 375.153 347.934 374.29C347.934 373.427 348.636 372.726 349.498 372.726H383.719C384.582 372.726 385.283 373.427 385.283 374.29C385.283 375.153 384.582 375.855 383.719 375.855Z" fill="#83BB62"/>
<path d="M366.719 421.855H332.498C331.636 421.855 330.934 421.153 330.934 420.29C330.934 419.427 331.636 418.726 332.498 418.726H366.719C367.582 418.726 368.283 419.427 368.283 420.29C368.283 421.153 367.582 421.855 366.719 421.855Z" fill="#83BB62"/>
<path d="M402.082 359.184H331.135C330.272 359.184 329.57 358.482 329.57 357.619C329.57 356.756 330.272 356.055 331.135 356.055H402.082C402.945 356.055 403.646 356.756 403.646 357.619C403.646 358.482 402.945 359.184 402.082 359.184Z" fill="#83BB62"/>
<path d="M419.666 257.461C419.666 224.394 391.718 206.204 359.793 197.588C318.862 186.542 288.885 208.894 299.919 257.461C302.42 268.469 308.402 281.325 315.806 292.322H374.56C394.186 279.544 419.666 283.128 419.666 257.461Z" fill="#83BB62"/>
<path d="M358.915 319.971C362.257 313.6 366.494 309.003 371.163 305.504H316.133C330.296 325.736 349.08 338.721 358.915 319.971Z" fill="#83BB62"/>
<path d="M352.562 222.062C356.095 222.062 358.959 224.926 358.959 228.459V241.252H346.166V228.459C346.166 224.926 349.029 222.062 352.562 222.062ZM362.158 241.252V228.459C362.158 223.159 357.862 218.864 352.562 218.864C347.263 218.864 342.967 223.159 342.967 228.459V241.252C339.434 241.252 336.57 244.116 336.57 247.649V263.641C336.57 267.174 339.434 270.038 342.967 270.038H362.158C365.69 270.038 368.554 267.174 368.554 263.641V247.649C368.554 244.116 365.69 241.252 362.158 241.252ZM342.967 244.451H362.158C363.924 244.451 365.356 245.883 365.356 247.649V263.641C365.356 265.407 363.924 266.839 362.158 266.839H342.967C341.201 266.839 339.769 265.407 339.769 263.641V247.649C339.769 245.883 341.201 244.451 342.967 244.451Z" fill="white"/>
<path d="M261.151 296.543C260.38 302.983 263.077 308.602 267.175 309.093C271.273 309.584 275.221 304.761 275.992 298.321C276.33 295.502 276.003 292.84 275.185 290.697L278.11 263.368L265.256 262.268L263.736 289.326C262.435 291.215 261.489 293.724 261.151 296.543Z" fill="#FFB6B6"/>
<path d="M264.234 133.5C264.234 133.5 278.234 129.5 281.234 135.5C284.234 141.5 291.234 220.5 291.234 220.5L277.734 283.559L262.234 279.5L270.234 215.5L259.234 167.5L264.234 133.5Z" fill="#E6E6E6"/>
<path d="M58.5 325.34C90.8086 325.34 117 299.148 117 266.84C117 234.531 90.8086 208.34 58.5 208.34C26.1913 208.34 0 234.531 0 266.84C0 299.148 26.1913 325.34 58.5 325.34Z" fill="#83BB62"/>
<path d="M58.4994 240.65C62.6319 240.65 65.9819 244.001 65.9819 248.133V263.098H51.0168V248.133C51.0168 244.001 54.3669 240.65 58.4994 240.65ZM69.7232 263.098V248.133C69.7232 241.934 64.6981 236.909 58.4994 236.909C52.3006 236.909 47.2755 241.934 47.2755 248.133V263.098C43.143 263.098 39.793 266.448 39.793 270.581V289.287C39.793 293.42 43.143 296.77 47.2755 296.77H69.7232C73.8557 296.77 77.2058 293.42 77.2058 289.287V270.581C77.2058 266.448 73.8557 263.098 69.7232 263.098ZM47.2755 266.839H69.7232C71.7895 266.839 73.4645 268.514 73.4645 270.581V289.287C73.4645 291.353 71.7895 293.028 69.7232 293.028H47.2755C45.2093 293.028 43.5343 291.353 43.5343 289.287V270.581C43.5343 268.514 45.2093 266.839 47.2755 266.839Z" fill="white"/>
</g>
<defs>
<clipPath id="clip0_695_2651">
<rect width="564.984" height="512.296" fill="white"/>
</clipPath>
</defs>
</svg>
