<svg width="848" height="521" viewBox="0 0 848 521" fill="none" xmlns="http://www.w3.org/2000/svg">
<g clip-path="url(#clip0_639_1600)">
<path opacity="0.1" d="M848.001 334.626C848.015 348.742 846.306 362.807 842.911 376.509C841.768 381.126 840.441 385.647 838.929 390.072C837.079 395.534 834.935 400.892 832.507 406.124C831.283 408.77 829.989 411.364 828.626 413.905C828.649 428.38 825.665 442.703 819.864 455.968C809.378 479.767 790.68 499.011 767.177 510.191C752.482 517.194 736.422 520.878 720.141 520.978H160.98C136.102 521.031 111.653 514.503 90.1199 502.058L89.7887 501.871C86.7216 500.078 83.7313 498.179 80.8178 496.175C74.2626 491.652 68.1039 486.58 62.4081 481.015C54.6989 473.491 47.9058 465.083 42.1696 455.968C28.6974 434.6 21.5605 409.858 21.5856 384.607C7.94204 360.695 -0.0136719 332.051 -0.0136719 301.272C-0.0136719 262.438 12.6291 227.013 33.4003 200.196C37.7307 194.593 42.4742 189.322 47.591 184.425C52.6397 179.58 58.0663 175.143 63.8192 171.157C68.422 167.964 73.2325 165.081 78.2187 162.527C80.2995 161.47 82.3874 160.47 84.5113 159.543C86.376 158.716 88.2624 157.946 90.1703 157.22C92.4598 156.352 94.7781 155.554 97.1253 154.825C99.4724 154.096 101.788 153.459 104.073 152.912C107.433 152.092 110.85 151.426 114.325 150.913C117.205 150.489 120.085 150.194 122.965 149.971C125.255 149.798 127.566 149.705 129.891 149.676H131.151C133.714 149.676 136.263 149.777 138.79 149.949C139.057 149.417 139.345 148.878 139.611 148.353C140.619 146.433 141.663 144.52 142.714 142.65C142.712 142.633 142.712 142.616 142.714 142.6C142.894 142.269 143.074 141.945 143.261 141.629C144.111 140.097 144.996 138.579 145.904 137.076C146.321 136.357 146.731 135.681 147.156 135.005C147.246 134.837 147.345 134.674 147.451 134.516C147.883 133.797 148.323 133.078 148.769 132.359C150.991 128.811 153.302 125.326 155.702 121.902L156.314 121.025C156.689 120.493 157.034 119.975 157.452 119.443C158.445 118.055 159.468 116.66 160.497 115.294C161.217 114.315 161.937 113.345 162.715 112.417C164.587 110.02 166.507 107.623 168.475 105.225C170.443 102.828 172.487 100.462 174.609 98.1275C174.897 97.8039 175.185 97.4875 175.487 97.1711L178.562 93.8198C178.713 93.6616 178.842 93.5178 178.986 93.374C179.354 92.9784 179.706 92.5829 180.102 92.2018C181.751 90.4542 183.443 88.7426 185.142 87.0383C193.789 78.4355 203.001 70.4184 212.717 63.0404C213.099 62.7383 213.487 62.4507 213.869 62.163C215.698 60.7894 217.555 59.4302 219.413 58.0926C229.63 50.7713 240.31 44.1174 251.387 38.1723C252.15 37.7336 252.928 37.3237 253.712 36.921C263.643 31.6734 273.856 26.9775 284.304 22.8545C289.999 20.6035 295.824 18.4892 301.684 16.5547C305.587 15.2747 309.503 14.0593 313.47 12.9159C319.672 11.1324 325.916 9.53347 332.204 8.11915C350.728 3.96741 369.574 1.40273 388.535 0.453048C394.295 0.160595 400.119 0.0095765 406.009 -1.21208e-05C434.426 -0.0375903 462.733 3.53895 490.246 10.6434C490.53 11.0727 490.919 11.4228 491.376 11.6606C491.834 11.8984 492.344 12.016 492.859 12.0025H495.278C496.329 12.2902 497.373 12.5779 498.424 12.8799C504.295 14.5675 510.081 16.4109 515.783 18.4101L517.223 18.9279C531.297 23.9267 544.99 29.9352 558.197 36.9066C570.101 43.1758 581.564 50.2494 592.503 58.0783C594.188 59.2864 595.849 60.5042 597.486 61.7315C599.473 60.461 601.494 59.2433 603.548 58.0783C611.481 53.5652 619.907 49.9771 628.661 47.3845C646.961 41.9753 666.324 41.2188 684.991 45.184C708.931 50.2539 730.602 62.839 748.104 80.7386C755.231 88.0622 761.574 96.1073 767.032 104.744C767.428 105.362 767.824 105.988 768.206 106.621C772.897 114.264 776.929 122.293 780.258 130.619C780.381 130.928 780.503 131.215 780.611 131.517C783.685 139.314 786.164 147.331 788.027 155.501C788.113 155.918 788.214 156.328 788.301 156.745C790.043 164.652 791.227 172.671 791.843 180.743C791.843 181.031 791.843 181.326 791.9 181.628C792.203 185.803 792.356 190.022 792.361 194.285C792.361 198.096 792.232 201.879 791.994 205.633C791.994 206.043 791.936 206.467 791.9 206.891C791.836 207.977 791.742 209.049 791.648 210.142C797.147 214.572 802.294 219.422 807.042 224.647C809.139 226.934 811.169 229.307 813.132 231.767C819.112 239.252 824.367 247.287 828.828 255.764C841.003 278.72 848.001 305.724 848.001 334.626Z" fill="#83BB62"/>
<path opacity="0.1" d="M766.642 507.53C766.642 512.442 749.701 517.045 720.139 521H160.978C136.1 521.053 111.651 514.525 90.1183 502.079L89.7871 501.892C98.2828 498.8 113.618 495.916 134.49 493.313L135.426 493.198C144.786 492.054 155.247 490.968 166.68 489.94C166.968 489.94 167.264 489.897 167.552 489.861C176.623 489.056 186.273 488.3 196.502 487.596C196.826 487.596 197.142 487.538 197.466 487.524C201.412 487.241 205.439 486.972 209.548 486.718L211.132 486.618C241.046 484.762 275.051 483.281 311.928 482.303H311.971C317.136 482.159 322.356 482.032 327.631 481.922C333.496 481.783 339.433 481.66 345.443 481.555C350.029 481.454 354.673 481.382 359.331 481.31H359.439C380.455 480.994 402.17 480.836 424.374 480.836C479.279 480.836 531.175 481.835 577.159 483.633H577.289C584.359 483.906 591.3 484.208 598.067 484.518L603.827 484.791C611.464 485.155 618.903 485.546 626.146 485.963C711.319 490.803 766.642 498.663 766.642 507.53Z" fill="#83BB62"/>
<g opacity="0.2">
<path d="M489.782 477.535C489.759 478.31 489.67 479.083 489.516 479.843C484.505 479.047 479.465 478.328 474.396 477.686C474.396 477.484 474.396 477.276 474.396 477.067C474.443 474.911 475.065 472.806 476.196 470.969C477.68 468.625 479.933 467.157 482.417 467.237C484.901 467.316 487.054 468.919 488.386 471.343C489.393 473.246 489.875 475.384 489.782 477.535Z" fill="#3F3D56"/>
<path d="M490.197 465.246C490.373 459.684 487.068 455.067 482.816 454.933C478.563 454.798 474.973 459.198 474.797 464.76C474.621 470.321 477.926 474.939 482.178 475.073C486.431 475.207 490.021 470.807 490.197 465.246Z" fill="#3F3D56"/>
<path d="M490.589 452.934C490.765 447.372 487.461 442.755 483.208 442.62C478.956 442.486 475.366 446.886 475.19 452.448C475.014 458.009 478.318 462.627 482.571 462.761C486.824 462.895 490.413 458.495 490.589 452.934Z" fill="#3F3D56"/>
<path d="M490.974 440.622C491.15 435.06 487.845 430.443 483.593 430.308C479.34 430.174 475.75 434.574 475.574 440.136C475.398 445.697 478.703 450.315 482.956 450.449C487.208 450.583 490.798 446.183 490.974 440.622Z" fill="#3F3D56"/>
<path d="M491.361 428.309C491.537 422.748 488.232 418.13 483.98 417.996C479.727 417.862 476.137 422.262 475.961 427.823C475.785 433.385 479.09 438.002 483.342 438.137C487.595 438.271 491.185 433.871 491.361 428.309Z" fill="#3F3D56"/>
<path d="M457.456 342.882C456.442 341.511 455.528 340.069 454.72 338.567L475.067 335.885L453.165 335.36C451.211 330.729 450.222 325.749 450.261 320.724C450.299 315.698 451.363 310.734 453.388 306.133L482.274 322.278L455.815 301.538C458.484 297.226 462.014 293.51 466.186 290.622C470.358 287.734 475.081 285.736 480.06 284.753C485.039 283.771 490.168 283.824 495.126 284.91C500.083 285.996 504.764 288.091 508.874 291.065C512.985 294.039 516.438 297.827 519.017 302.194C521.596 306.56 523.246 311.411 523.863 316.443C524.481 321.475 524.053 326.58 522.607 331.44C521.161 336.3 518.727 340.809 515.457 344.687C517.034 346.82 518.374 349.118 519.453 351.54L492.749 364.341L521.066 355.834C522.849 361.711 523.137 367.94 521.902 373.956C520.667 379.972 517.95 385.585 513.996 390.288C518.107 395.859 520.565 402.474 521.09 409.375C521.615 416.277 520.184 423.186 516.963 429.314C513.741 435.442 508.858 440.54 502.872 444.026C496.885 447.512 490.038 449.245 483.112 449.027C476.186 448.809 469.462 446.649 463.708 442.793C457.953 438.937 453.401 433.541 450.572 427.223C447.744 420.905 446.752 413.919 447.711 407.065C448.67 400.21 451.54 393.763 455.995 388.461C451.083 381.803 448.555 373.689 448.816 365.423C449.077 357.156 452.112 349.218 457.435 342.882H457.456Z" fill="#83BB62"/>
<path opacity="0.1" d="M522.635 367.75C522.383 376.021 519.339 383.964 513.996 390.288C518.107 395.859 520.565 402.474 521.09 409.375C521.615 416.277 520.184 423.186 516.963 429.314C513.741 435.442 508.858 440.54 502.872 444.026C496.885 447.512 490.038 449.245 483.112 449.027C476.186 448.809 469.462 446.649 463.708 442.793C457.953 438.937 453.401 433.541 450.572 427.223C447.744 420.905 446.752 413.919 447.711 407.064C448.67 400.21 451.54 393.763 455.995 388.461C451.264 382.039 522.765 363.615 522.635 367.75Z" fill="black"/>
</g>
<g opacity="0.2">
<path d="M380.347 477.535C380.324 478.31 380.235 479.083 380.08 479.843C375.069 479.047 370.03 478.328 364.961 477.686C364.961 477.484 364.961 477.276 364.961 477.067C365.008 474.911 365.629 472.806 366.761 470.969C368.244 468.625 370.498 467.157 372.981 467.237C375.465 467.316 377.618 468.919 378.95 471.343C379.957 473.246 380.44 475.384 380.347 477.535Z" fill="#3F3D56"/>
<path d="M380.754 465.249C380.929 459.687 377.625 455.07 373.372 454.936C369.12 454.801 365.53 459.201 365.354 464.763C365.178 470.324 368.483 474.942 372.735 475.076C376.988 475.21 380.578 470.811 380.754 465.249Z" fill="#3F3D56"/>
<path d="M381.146 452.937C381.322 447.375 378.017 442.758 373.765 442.623C369.512 442.489 365.922 446.889 365.746 452.451C365.57 458.012 368.875 462.63 373.128 462.764C377.38 462.898 380.97 458.498 381.146 452.937Z" fill="#3F3D56"/>
<path d="M381.531 440.625C381.707 435.063 378.402 430.446 374.15 430.311C369.897 430.177 366.307 434.577 366.131 440.139C365.955 445.7 369.26 450.318 373.512 450.452C377.765 450.586 381.355 446.186 381.531 440.625Z" fill="#3F3D56"/>
<path d="M381.918 428.312C382.094 422.751 378.789 418.133 374.536 417.999C370.284 417.865 366.694 422.265 366.518 427.826C366.342 433.388 369.647 438.005 373.899 438.14C378.152 438.274 381.742 433.874 381.918 428.312Z" fill="#3F3D56"/>
<path d="M348.021 342.882C347.007 341.511 346.092 340.069 345.285 338.567L365.631 335.885L343.73 335.36C341.775 330.729 340.787 325.749 340.825 320.724C340.864 315.698 341.928 310.734 343.953 306.133L372.838 322.278L346.379 301.538C349.048 297.226 352.579 293.51 356.751 290.622C360.922 287.734 365.645 285.736 370.624 284.753C375.604 283.771 380.732 283.824 385.69 284.91C390.648 285.996 395.328 288.091 399.439 291.065C403.55 294.039 407.002 297.827 409.581 302.194C412.16 306.56 413.81 311.411 414.428 316.443C415.045 321.475 414.618 326.58 413.172 331.44C411.725 336.3 409.291 340.809 406.022 344.687C407.599 346.82 408.939 349.118 410.018 351.54L383.314 364.341L411.63 355.834C413.414 361.711 413.701 367.94 412.466 373.956C411.232 379.972 408.515 385.585 404.56 390.288C408.671 395.859 411.13 402.474 411.655 409.375C412.179 416.277 410.749 423.186 407.527 429.314C404.305 435.442 399.422 440.54 393.436 444.026C387.45 447.512 380.603 449.245 373.677 449.027C366.751 448.809 360.026 446.649 354.272 442.793C348.518 438.937 343.966 433.541 341.137 427.223C338.308 420.905 337.316 413.919 338.275 407.065C339.234 400.21 342.105 393.763 346.559 388.461C341.648 381.803 339.119 373.689 339.38 365.423C339.641 357.156 342.677 349.218 347.999 342.882H348.021Z" fill="#83BB62"/>
<path opacity="0.1" d="M413.2 367.75C412.948 376.021 409.903 383.964 404.56 390.288C408.671 395.859 411.13 402.474 411.655 409.375C412.179 416.277 410.749 423.186 407.527 429.314C404.305 435.442 399.422 440.54 393.436 444.026C387.45 447.512 380.603 449.245 373.677 449.027C366.751 448.809 360.026 446.649 354.272 442.793C348.518 438.937 343.966 433.541 341.137 427.223C338.308 420.905 337.316 413.919 338.275 407.064C339.234 400.21 342.105 393.763 346.559 388.461C341.829 382.039 413.33 363.615 413.2 367.75Z" fill="black"/>
</g>
<g opacity="0.2">
<path d="M679.281 485.402C679.226 486.872 679.05 488.334 678.755 489.775C669.108 488.236 659.39 486.86 649.604 485.647C649.604 485.258 649.604 484.863 649.604 484.46C649.695 480.307 650.893 476.253 653.074 472.716C655.954 468.207 660.274 465.381 665.047 465.525C669.82 465.669 673.975 468.768 676.567 473.436C678.521 477.112 679.458 481.243 679.281 485.402Z" fill="#3F3D56"/>
<path d="M680.065 461.726C680.404 451.015 674.038 442.123 665.847 441.865C657.656 441.606 650.741 450.079 650.403 460.789C650.064 471.5 656.429 480.392 664.62 480.65C672.811 480.909 679.726 472.436 680.065 461.726Z" fill="#3F3D56"/>
<path d="M680.813 438.022C681.152 427.312 674.787 418.42 666.595 418.161C658.404 417.902 651.489 426.375 651.151 437.086C650.812 447.796 657.177 456.688 665.368 456.947C673.559 457.205 680.474 448.732 680.813 438.022Z" fill="#3F3D56"/>
<path d="M681.569 414.319C681.908 403.608 675.542 394.716 667.351 394.458C659.16 394.199 652.245 402.672 651.907 413.382C651.568 424.093 657.933 432.985 666.124 433.244C674.315 433.502 681.23 425.029 681.569 414.319Z" fill="#3F3D56"/>
<path d="M681.473 389.537C681.795 378.821 675.412 369.935 667.217 369.69C659.022 369.444 652.117 377.932 651.796 388.647C651.474 399.363 657.856 408.249 666.052 408.495C674.247 408.74 681.151 400.253 681.473 389.537Z" fill="#3F3D56"/>
<path d="M617.04 226.179C615.097 223.539 613.339 220.768 611.777 217.887L650.943 212.724L608.789 211.71C605.024 202.796 603.119 193.208 603.19 183.534C603.262 173.859 605.309 164.301 609.207 155.444L664.825 186.518L613.894 146.591C619.043 138.309 625.845 131.176 633.876 125.635C641.907 120.094 650.994 116.265 660.572 114.386C670.149 112.507 680.011 112.618 689.543 114.713C699.076 116.807 708.074 120.841 715.977 126.561C723.881 132.282 730.52 139.567 735.481 147.963C740.442 156.359 743.619 165.685 744.813 175.361C746.007 185.037 745.194 194.855 742.423 204.203C739.652 213.551 734.983 222.229 728.708 229.695C731.741 233.805 734.321 238.229 736.404 242.892L684.991 267.551L739.5 251.155C742.936 262.456 743.495 274.434 741.128 286.005C738.761 297.576 733.542 308.375 725.943 317.424C733.856 328.15 738.588 340.884 739.597 354.169C740.606 367.455 737.851 380.756 731.649 392.551C725.446 404.347 716.046 414.161 704.522 420.871C692.998 427.582 679.817 430.918 666.485 430.498C653.152 430.078 640.207 425.919 629.13 418.497C618.052 411.075 609.289 400.689 603.843 388.526C598.397 376.364 596.487 362.916 598.332 349.721C600.176 336.525 605.701 324.114 614.275 313.907C604.825 301.09 599.96 285.472 600.461 269.562C600.963 253.651 606.801 238.37 617.04 226.172V226.179Z" fill="#83BB62"/>
<path opacity="0.1" d="M742.532 274.045C742.06 289.959 736.225 305.248 725.972 317.438C733.885 328.164 738.617 340.898 739.626 354.184C740.635 367.469 737.881 380.77 731.678 392.566C725.475 404.361 716.075 414.175 704.551 420.886C693.028 427.596 679.846 430.932 666.514 430.513C653.182 430.093 640.237 425.934 629.159 418.512C618.082 411.089 609.319 400.703 603.872 388.541C598.426 376.378 596.516 362.931 598.361 349.735C600.206 336.539 605.731 324.129 614.304 313.922C605.132 301.545 742.784 266.084 742.532 274.045Z" fill="black"/>
</g>
<path d="M113.627 486.668L121.179 486.646H131.828L145.291 268.184L278.623 45.9463L272.828 39.7328V23.9979L128.631 263.035L113.627 486.668Z" fill="#F1C0C0" fill-opacity="0.4"/>
<path opacity="0.1" d="M121.984 486.646H131.826L145.29 268.184L278.622 45.9463L272.826 39.7328L135.297 264.854L121.984 486.646Z" fill="black"/>
<path d="M91.3711 488.487L436.851 514.894L437.146 514.916L771.495 494.377L771.747 494.363V480.26L403.336 473.508L95.9717 473.213H93.7254L93.4806 474.795L91.3711 488.487Z" fill="#F1C0C0"/>
<path opacity="0.1" d="M91.3711 488.487L436.851 514.894L437.146 514.916L771.495 494.377L771.747 494.104V480.555H771.452L436.851 491.716L95.9717 473.213H95.9213L95.3165 473.608L93.4806 474.795L91.3711 488.487Z" fill="black"/>
<path opacity="0.1" d="M91.3711 488.487L436.851 514.894V491.716L95.3165 473.608L93.4806 474.795L91.3711 488.487Z" fill="black" fill-opacity="0.4"/>
<path d="M272.783 39.438L425.094 202.727L420.385 489.954L433.323 491.515L433.539 491.544H446.477L448.025 215.061L733.228 310.218L738.038 479.649L748.449 480.814L751.976 481.21L743.812 298.467L445.671 193.918L282.193 24.1633H272.783V39.438Z" fill="#F1C0C0"/>
<path opacity="0.1" d="M446.852 209.775L448.025 215.061L733.228 310.218L738.038 479.649L748.449 480.814L740.284 306.694L446.852 209.775Z" fill="black"/>
<path opacity="0.1" d="M272.783 39.438L425.094 202.727L420.385 489.954L433.323 491.515L436.851 193.328L272.783 24.1633V39.438Z" fill="black"/>
<path d="M447.406 325.047L552.011 345.622L552.047 345.629L735.259 381.68L743.647 378.321L743.618 377.732L743.071 366.046L447.514 306.392L447.406 325.047Z" fill="#F1C0C0"/>
<path opacity="0.1" d="M552.047 345.629L735.259 381.68L743.646 378.321L743.618 377.732L552.047 345.629Z" fill="black"/>
<path d="M559.053 252.104L561.882 407.684L563.344 487.502L576.224 487.071L584.331 486.797L581.811 254.355L576.224 252.5L575 252.104H559.053Z" fill="#F1C0C0"/>
<path opacity="0.1" d="M559.168 252.068V252.104L561.882 407.684L563.344 487.502L576.224 487.071V252.068H559.168Z" fill="black"/>
<path d="M357.294 291.837C358.05 292.247 358.772 292.716 359.454 293.239C360.261 293.944 360.985 294.738 361.614 295.605C364.703 299.596 367.554 304.235 367.252 309.269C367.258 310.001 367.12 310.728 366.844 311.407C366.569 312.085 366.161 312.703 365.646 313.224C364.372 314.31 362.543 314.36 360.873 314.36C359.058 314.36 357.15 314.36 355.581 313.426C354.011 312.491 352.701 310.671 350.843 310.714C350.581 310.758 350.314 310.758 350.051 310.714C349.411 310.506 349.281 309.664 348.863 309.132C348.144 308.176 346.624 308.413 345.494 308.83C344.364 309.247 343.111 309.873 341.995 309.391C341.347 309.05 340.818 308.521 340.476 307.874C337.805 303.559 337.236 298.374 336.732 293.361C336.422 290.312 334.061 279.913 340.577 282.279C343.456 283.315 346.149 285.386 348.77 286.903L357.294 291.837Z" fill="#3F3D56"/>
<path d="M350.858 292.865C351.44 293.283 352.146 293.495 352.862 293.466C353.578 293.437 354.264 293.17 354.811 292.707C355.883 291.739 356.566 290.415 356.733 288.982C357.453 288.759 357.82 289.701 358.281 290.276C359.088 291.254 360.729 291.24 361.464 292.283C361.975 293.002 361.86 294.001 362.219 294.814C362.687 295.864 363.847 296.41 364.639 297.259C365.386 298.186 365.927 299.263 366.223 300.416L367.403 303.954C367.968 305.426 368.332 306.967 368.483 308.535C368.558 309.319 368.475 310.111 368.24 310.863C368.005 311.614 367.623 312.312 367.115 312.915C365.531 314.619 362.932 314.799 360.636 314.749C359.869 314.765 359.103 314.675 358.36 314.483C356.323 313.85 355.02 311.8 354.48 309.736C353.94 307.672 353.997 305.508 353.681 303.393C353.338 301.317 352.734 299.292 351.881 297.367C351.247 295.871 349.505 293.642 349.534 292.052C350.052 292.052 350.426 292.527 350.858 292.865Z" fill="#3F3D56"/>
<path d="M353.442 285.58C353.106 284.559 352.909 283.497 352.859 282.423C352.859 280.266 353.845 278.238 354.839 276.31L346.61 277.425C345.616 277.562 344.507 277.763 343.946 278.59C343.732 279 343.621 279.455 343.621 279.917C343.621 280.379 343.732 280.834 343.946 281.244C344.358 282.064 344.686 282.924 344.925 283.811C344.944 284.587 345.033 285.36 345.191 286.12C345.447 286.678 345.806 287.183 346.25 287.608C348.604 290.212 350.368 293.282 352.125 296.324C352.074 296.238 357.085 292.362 356.884 291.096C356.768 290.377 355.321 289.514 354.861 288.824C354.224 287.821 353.746 286.728 353.442 285.58Z" fill="#BE6F72"/>
<path d="M423.999 257.483V264.567L302.561 288.227L296.261 292.038H274.525V288.047L393.84 259.252L423.999 257.483Z" fill="#F1C0C0"/>
<path opacity="0.1" d="M423.999 264.567L302.561 288.227L296.261 292.038H274.525L394.725 266.343L423.999 264.567Z" fill="black"/>
<path d="M326.5 458.571C325.147 456.934 323.279 455.803 321.201 455.362C319.122 454.92 316.955 455.195 315.053 456.14C314.646 456.332 314.286 456.612 314.002 456.96C313.282 457.967 313.742 459.355 313.807 460.599C313.973 463.634 311.554 466.1 309.379 468.222C308.213 469.358 307.025 470.573 306.499 472.12C305.974 473.666 306.363 475.629 307.774 476.434C308.39 476.743 309.06 476.928 309.747 476.981C312.048 477.429 314.408 477.495 316.73 477.175C319.027 476.737 321.281 475.435 322.274 473.321C322.466 472.747 322.783 472.224 323.203 471.789C324.47 470.789 326.414 471.961 327.854 471.249C329.042 470.66 329.092 469.732 329.107 468.509C329.15 465.129 328.646 461.304 326.5 458.571Z" fill="#83BB62"/>
<path d="M343.78 458.441C344.665 460.771 344.788 463.31 344.903 465.798C344.968 467.237 345.011 468.776 344.233 469.991C343.456 471.206 341.937 471.846 340.482 472.148C337.48 472.767 334.003 472.184 332.066 469.804C330.583 467.985 330.273 465.489 330.547 463.13C330.777 461.196 331.267 458.93 329.877 457.557C329.517 457.19 329.049 456.931 328.718 456.536C327.998 455.658 328.113 454.335 328.502 453.256C329.008 452.225 329.388 451.136 329.632 450.013C329.69 449.481 339.381 450.387 340.274 450.826C341.49 451.423 341.303 452.422 341.67 453.63C342.182 455.313 343.161 456.831 343.78 458.441Z" fill="#83BB62"/>
<path d="M345.558 355.129C347.459 356.359 348.193 358.775 348.489 361.019C349.302 367.167 347.877 373.381 347.769 379.587C347.668 388.282 350.188 397.134 348.035 405.556C346.746 410.59 347.841 416.343 346.631 421.427C346.271 422.937 345.609 424.361 345.263 425.871C344.543 429.144 345.299 432.567 346.314 435.767C346.638 436.629 346.844 437.532 346.926 438.449C346.878 439.862 346.519 441.246 345.875 442.505L341.555 452.71C341.073 453.853 339.172 454.04 337.955 454.191C335.666 454.465 333.11 454.659 331.288 453.242C329.467 451.825 329.028 449.452 328.747 447.237C328.208 442.985 327.968 438.701 328.027 434.415C328.106 433.296 328.006 432.172 327.732 431.085C327.336 429.855 326.465 428.791 326.227 427.489C325.925 425.807 326.781 424.153 327.098 422.455C327.315 420.905 327.291 419.331 327.026 417.788C326.745 415.487 326.421 413.186 326.054 410.899C325.536 407.699 326.277 404.542 326.774 401.334C327.242 398.321 326.645 395.25 326.054 392.259C326.105 394.687 325.802 397.109 325.154 399.45C324.773 400.593 324.226 401.687 323.894 402.852C322.418 408.08 325.565 413.567 325.118 418.982C324.91 421.513 323.916 424.016 324.197 426.511C324.391 428.338 325.241 430.014 325.824 431.754C326.407 433.494 326.709 435.486 325.824 437.112C323.484 441.527 325.234 447.532 327.329 452.063C327.754 452.866 328.124 453.698 328.437 454.551C329.057 456.593 328.538 458.787 328.704 460.915C328.101 461.014 327.483 460.974 326.898 460.798C326.313 460.622 325.776 460.316 325.327 459.901C325.01 459.571 324.751 459.182 324.442 458.837C323.577 458.014 322.552 457.375 321.432 456.96C320.774 456.592 320.025 456.42 319.272 456.464C318.481 456.685 317.769 457.126 317.22 457.737C316.508 458.362 315.753 458.937 314.959 459.456C314.622 459.715 314.227 459.89 313.808 459.966C313.597 459.999 313.381 459.964 313.191 459.867C313.001 459.77 312.846 459.616 312.749 459.427C312.704 459.307 312.677 459.181 312.67 459.053C312.403 456.881 312.261 454.696 312.245 452.509C312.245 448.747 307.738 446.159 307.169 442.441C306.716 439.442 307.558 436.385 307.277 433.365C307.141 431.812 306.709 430.287 306.737 428.734C306.737 427.727 306.968 426.742 307.047 425.742C307.113 424.632 307.096 423.519 306.997 422.412L306.773 418.939C306.557 415.508 306.32 412.006 304.966 408.871C303.361 405.21 302.411 401.296 302.158 397.307C302.014 394.79 302.108 392.273 301.82 389.749C301.561 387.469 300.985 385.204 301.15 382.917C301.287 381.148 301.87 379.436 302.007 377.667C302.288 374.265 300.992 370.957 299.977 367.7C298.962 364.442 298.213 360.832 299.545 357.689C299.735 357.173 300.052 356.713 300.466 356.352C300.977 356.014 301.558 355.798 302.166 355.719C314.518 353.127 327.18 352.32 339.763 353.324C341.814 353.44 343.805 354.06 345.558 355.129Z" fill="#3F3D56"/>
<path d="M304.686 278.748C311.056 278.748 316.22 273.59 316.22 267.228C316.22 260.865 311.056 255.707 304.686 255.707C298.316 255.707 293.152 260.865 293.152 267.228C293.152 273.59 298.316 278.748 304.686 278.748Z" fill="#BE6F72"/>
<path d="M302.453 281.618C302.619 282.276 302.619 282.966 302.453 283.624C302.272 284.084 302.017 284.512 301.697 284.89C300.581 286.328 299.345 287.671 298.004 288.903C298.687 290.427 299.918 291.641 301.453 292.304C302.977 292.952 304.575 293.409 306.212 293.663C307.028 293.878 307.879 293.937 308.717 293.836C309.49 293.642 310.222 293.311 310.877 292.858L317.285 289.025C318.252 288.502 319.147 287.856 319.949 287.105C321.124 285.898 321.789 284.286 321.806 282.603C321.836 282.301 321.754 282 321.576 281.754C321.33 281.541 321.022 281.412 320.697 281.388C318.444 280.891 316.666 279.065 315.658 276.994C314.746 274.871 314.157 272.624 313.908 270.327L307.076 273.923C306.06 274.462 305.052 275.002 304.001 275.469C303.332 275.771 301.978 276.023 301.503 276.634C300.596 277.763 302.216 280.259 302.453 281.618Z" fill="#BE6F72"/>
<path d="M298.049 286.81C297.076 287.607 296.316 288.632 295.838 289.794C295.392 291.233 295.838 292.75 296.242 294.174C298.131 300.243 299.575 306.442 300.561 312.721C301.166 317.036 301.389 321.415 301.685 325.781C302.289 334.684 303.168 348.88 304.341 357.725C308.661 357.919 312.873 356.661 317.157 356.2C325.163 355.352 333.407 357.294 341.247 355.481C339.346 347.981 337.446 335.173 335.545 327.679C334.704 324.727 334.121 321.707 333.803 318.654C333.637 316.46 333.738 314.26 333.767 312.052C333.831 307.737 333.594 303.422 333.356 299.107C333.083 294.073 332.809 289.039 331.614 284.113C331.531 283.485 331.236 282.905 330.779 282.466C330.059 281.941 329.123 282.128 328.266 282.243C325.643 282.576 322.987 281.948 320.793 280.474C319.842 279.827 318.568 279.036 317.682 279.755C317.304 280.189 317.055 280.719 316.962 281.287C316.571 282.304 315.966 283.226 315.189 283.992C314.411 284.757 313.479 285.347 312.455 285.724C310.404 286.466 308.255 286.907 306.076 287.033C305.41 287.176 304.715 287.098 304.096 286.81C303.074 286.184 303.002 283.933 301.713 283.782C300.583 283.653 298.812 286.084 298.049 286.81Z" fill="#3F3D56"/>
<path d="M315.082 304.372C312.425 301.833 311.259 298.151 309.322 295.023C308.003 292.919 306.318 291.068 304.347 289.557C303.356 288.903 302.447 288.133 301.64 287.263C300.956 286.422 300.437 285.3 299.401 284.976C298.972 284.883 298.527 284.895 298.105 285.012C297.682 285.128 297.294 285.346 296.974 285.645C296.34 286.249 295.739 286.888 295.174 287.558C292.122 290.715 286.758 291.154 284.339 294.807C283.686 295.581 283.242 296.51 283.05 297.504C282.353 302.821 283.73 308.202 286.895 312.534C287.507 313.538 288.448 314.3 289.558 314.691C289.408 316.032 289.586 317.39 290.077 318.647C291.41 323.198 293.048 327.655 294.98 331.987C294.518 333.681 294.195 335.411 294.015 337.157C293.511 341.551 293.979 346.01 293.504 350.411C293.115 354.007 292.064 357.509 292.028 361.112C292.028 361.688 292.078 362.371 292.575 362.666C292.839 362.801 293.135 362.863 293.432 362.845L302.288 363.111C307.428 363.262 312.619 363.413 317.681 362.464C318.355 362.365 319.008 362.158 319.617 361.853C321.331 360.896 321.9 358.739 322.173 356.819C322.531 354.328 322.673 351.812 322.598 349.297C323.671 352.684 324.945 356.186 328.185 357.653C329.899 358.43 331.857 358.372 333.736 358.322C337.786 358.142 341.823 357.726 345.824 357.078C346.071 357.108 346.321 357.081 346.556 356.997C346.79 356.914 347.001 356.777 347.172 356.597C347.344 356.418 347.471 356.2 347.543 355.963C347.615 355.725 347.631 355.474 347.588 355.23L347.632 351.303C347.718 343.328 345.738 335.705 344.968 327.765C344.723 325.263 344.745 322.731 344.133 320.279C343.881 319.251 343.513 318.244 343.29 317.208C343.098 316.194 342.978 315.168 342.93 314.138L342.369 306.227C342.102 302.566 341.721 299.035 341.44 295.382C341.286 291.825 340.769 288.292 339.899 284.84C339.273 282.682 337.97 280.237 335.716 279.971C334.514 279.834 333.347 280.359 332.203 280.726C329.389 281.611 326.369 281.598 323.563 280.69C322.696 280.348 321.792 280.107 320.87 279.971C320.406 279.908 319.933 279.969 319.501 280.149C319.068 280.328 318.691 280.619 318.408 280.992C318.128 281.554 317.997 282.178 318.026 282.804C317.688 289.989 317.062 297.389 315.082 304.372Z" fill="#83BB62" fill-opacity="0.4"/>
<path d="M303.498 304.587C300.179 301.092 296.773 297.532 292.497 295.31C290.812 294.433 288.897 293.771 287.032 294.102C285.167 294.433 283.432 296.051 283.519 297.942C283.576 299.115 284.289 300.15 284.512 301.301C284.771 302.595 284.397 303.976 284.8 305.227C285.128 306.052 285.618 306.803 286.24 307.435L291.338 313.469C293.498 315.986 295.657 318.539 298.437 320.279C301.216 322.019 304.816 322.832 307.868 321.595C310.04 320.587 311.846 318.931 313.038 316.856C314.305 314.842 315.198 312.642 316.386 310.563C318.234 307.243 320.674 304.286 323.585 301.84C322.088 301.452 320.209 300.905 319.265 299.683C318.997 299.294 318.768 298.88 318.581 298.446L317.415 295.929C317.018 295.908 316.622 295.97 316.25 296.109C315.878 296.249 315.54 296.464 315.255 296.741C314.755 297.319 314.219 297.864 313.65 298.374C312.634 299.136 311.259 299.345 310.338 300.215C309.981 300.588 309.658 300.993 309.373 301.423C308.676 302.338 307.791 303.094 306.778 303.64C305.765 304.185 304.646 304.508 303.498 304.587Z" fill="#3F3D56"/>
<path d="M323.853 289.55C326.351 284.998 326.236 279.539 326.948 274.398C327.026 273.036 327.504 271.727 328.324 270.636C329.764 269.011 332.305 268.99 334.479 269.198C335.12 269.27 335.919 269.572 335.883 270.212C335.833 270.441 335.721 270.653 335.559 270.823C333.452 273.54 332.212 276.828 332.003 280.259C333.133 281.042 334.883 279.432 335.97 280.259C336.69 280.863 336.359 282.056 335.927 282.919C334.923 284.919 333.889 286.903 332.823 288.874C331.973 290.611 330.863 292.209 329.533 293.613C328.619 294.49 327.546 295.181 326.617 296.044C324.457 298.065 323.154 300.92 320.922 302.89C320.734 303.094 320.478 303.224 320.202 303.257C319.918 303.237 319.651 303.117 319.446 302.919C318.331 302.013 317.406 300.896 316.725 299.632C315.875 298.065 316.005 297.604 317.344 296.497C319.849 294.519 322.29 292.398 323.853 289.55Z" fill="#BE6F72"/>
<path d="M299.322 301.495C299.754 301.761 300.287 302.063 300.762 301.84C300.957 301.723 301.122 301.563 301.245 301.373C302.068 300.276 302.754 299.083 303.29 297.82C303.382 297.642 303.433 297.445 303.441 297.245C303.441 296.785 303.03 296.447 302.649 296.18C300.604 294.879 298.406 293.835 296.104 293.074C294.203 292.355 292.216 291.729 290.2 291.909C289.443 291.96 288.704 292.163 288.027 292.506C287.35 292.85 286.75 293.327 286.262 293.908C284.822 295.756 287.234 296.317 288.746 296.986C292.245 298.575 296.032 299.496 299.322 301.495Z" fill="#83BB62"/>
<path opacity="0.1" d="M297.054 313.72C297.03 313.885 297.045 314.052 297.097 314.21C297.15 314.367 297.239 314.51 297.357 314.627C297.566 313.605 297.292 312.527 297.508 311.498C297.825 309.952 299.329 308.787 299.459 307.234C296.702 306.694 297.076 312.052 297.054 313.72Z" fill="black"/>
<path opacity="0.2" d="M424 257.483V264.567L394.725 266.343L393.84 259.252L424 257.483Z" fill="black"/>
<path d="M294.303 268.939C296.132 267.451 295.073 264.329 296.312 262.33C297.032 261.237 298.248 260.662 299.444 260.173C300.886 259.499 302.431 259.071 304.015 258.907C304.809 258.831 305.609 258.934 306.357 259.209C307.105 259.485 307.781 259.924 308.335 260.496C308.803 261.029 309.12 261.676 309.559 262.23C310.103 262.876 310.812 263.362 311.611 263.638C312.409 263.914 313.268 263.969 314.095 263.797C315.053 263.582 316.046 262.855 315.981 261.877C315.873 261.282 315.569 260.741 315.117 260.338L313.058 258.058C310.718 255.47 308.119 252.722 304.685 252.075C302.295 251.622 299.847 252.262 297.543 253.032C296.614 253.341 295.57 253.801 295.311 254.743C295.138 255.39 295.397 256.095 295.246 256.75C294.951 258.051 293.281 258.49 292.503 259.583C291.726 260.676 291.963 261.971 291.74 263.179C291.517 264.387 290.869 265.566 290.79 266.818C290.739 267.573 291.121 268.975 291.97 269.248C292.82 269.522 293.777 268.04 294.303 268.939Z" fill="#3F3D56"/>
<path d="M315.284 260.842C314.677 257.678 313.369 254.689 311.454 252.097C309.752 249.674 307.384 247.796 304.636 246.689C303.262 246.153 301.785 245.934 300.315 246.05C298.845 246.166 297.42 246.613 296.147 247.358C294.258 248.704 292.789 250.556 291.907 252.701C290.042 256.714 289.351 261.618 291.518 265.473C292.382 264.423 293.865 264.898 295.175 264.516C296.817 264.049 298.207 262.956 299.769 262.273C304.485 260.194 310.245 261.877 315.284 260.842Z" fill="#FED253" fill-opacity="0.4"/>
<path opacity="0.1" d="M292.62 260.619C292.454 259.324 292.346 257.821 293.268 256.901C293.313 256.844 293.372 256.799 293.438 256.769C293.504 256.739 293.576 256.725 293.649 256.728C293.713 256.749 293.773 256.783 293.823 256.827C293.874 256.872 293.915 256.926 293.944 256.987C294.476 257.826 294.929 258.711 295.298 259.633C294.761 259.51 294.2 259.55 293.686 259.749C293.173 259.948 292.731 260.296 292.418 260.748" fill="black"/>
<path opacity="0.1" d="M309.446 256.965L309.187 254.398C309.145 254.186 309.162 253.968 309.237 253.765C309.346 253.596 309.513 253.473 309.707 253.42C309.901 253.366 310.108 253.387 310.288 253.478C310.642 253.674 310.934 253.965 311.131 254.319C311.73 255.238 312.227 256.219 312.614 257.246C311.454 257.023 310.261 257.037 309.107 257.289" fill="black"/>
<path opacity="0.1" d="M315.888 361.162V367.031L310.928 367.362H284.836V361.162H315.888Z" fill="black"/>
<path d="M315.889 361.162V367.361H284.836L202.342 264.142V259.267H219.636L315.889 361.162Z" fill="#F1C0C0"/>
<path opacity="0.1" d="M315.889 361.162V367.361H284.836L202.342 264.142V259.267H219.636L315.889 361.162Z" fill="black"/>
<path opacity="0.1" d="M315.889 361.162V367.361H284.836L202.342 264.142V259.267L285.283 361.162H315.889Z" fill="black"/>
<path d="M213.156 464.619C213.211 464.911 213.204 465.21 213.137 465.499C213.07 465.788 212.944 466.061 212.767 466.299C212.59 466.537 212.366 466.736 212.108 466.884C211.851 467.032 211.565 467.125 211.27 467.157C209.268 467.833 207.144 468.502 205.726 470.034C204.308 471.566 204.027 474.406 205.726 475.651C206.595 476.174 207.592 476.445 208.606 476.434C211.867 476.657 215.266 476.614 218.225 475.233C220.342 474.255 222.336 472.587 224.661 472.738C225.864 472.81 227.145 473.371 228.218 472.824C229.291 472.278 229.593 470.753 229.6 469.48C229.628 466.823 229.227 464.179 228.413 461.649C228.305 461.304 223.725 461.038 223.178 460.93L217.627 460.21C216.576 460.074 214.308 459.283 213.48 460.16C212.652 461.038 213.156 463.576 213.156 464.619Z" fill="#83BB62"/>
<path d="M246.282 446.669C246.517 447.964 246.899 449.228 247.42 450.437C248.19 452.393 249.177 454.472 251.063 455.421C252.777 456.277 254.879 455.968 256.621 455.155C257.348 454.854 257.986 454.371 258.472 453.753C259.034 452.774 259.285 451.648 259.191 450.524C259.191 447.741 259.026 444.864 257.752 442.39C256.657 440.233 254.749 438.377 254.72 435.99L248.161 437.255C247.81 437.289 247.476 437.421 247.197 437.637C246.989 437.855 246.845 438.126 246.779 438.42C246.079 441.112 245.91 443.913 246.282 446.669Z" fill="#83BB62"/>
<path d="M167.955 378.35C167.681 380.666 167.797 383.147 169.006 385.146C170.216 387.145 172.764 388.468 174.967 387.67C175.08 387.641 175.186 387.59 175.279 387.52C175.372 387.449 175.449 387.361 175.507 387.26C175.566 387.017 175.533 386.761 175.414 386.541C174.441 383.948 174.521 381.079 175.637 378.544C175.781 378.213 176.091 377.825 176.429 377.955C176.571 378.026 176.684 378.142 176.753 378.285C177.102 378.888 177.276 379.575 177.257 380.27C177.155 380.9 177.136 381.541 177.199 382.176C177.336 382.794 177.999 383.377 178.575 383.111C178.741 383.009 178.885 382.874 178.998 382.714C179.11 382.555 179.189 382.374 179.23 382.183C180.835 377.545 180.108 372.475 179.374 367.62C179.38 367.509 179.361 367.397 179.32 367.294C179.278 367.19 179.214 367.097 179.132 367.021C179.051 366.945 178.953 366.888 178.847 366.853C178.74 366.819 178.628 366.808 178.517 366.822C175.119 366.484 173.261 365.672 171.317 368.829C169.647 371.489 167.955 375.15 167.955 378.35Z" fill="#83BB62"/>
<path d="M207.684 366.549C206.676 370.734 205.661 374.97 205.596 379.271C205.613 381.949 205.815 384.624 206.2 387.275L206.956 393.503C207.216 395.603 207.468 397.695 207.835 399.774C208.069 400.844 208.197 401.935 208.216 403.031C208.146 404.112 207.975 405.183 207.705 406.231C207.252 408.434 206.999 410.672 206.949 412.92C206.87 416.515 207.316 420.111 207.597 423.707C208.158 430.872 208.073 438.073 207.345 445.224C207.055 447.154 207.474 449.123 208.526 450.768C208.953 451.287 209.304 451.863 209.57 452.48C210.11 454.127 208.85 455.773 208.526 457.463C208.319 458.781 208.644 460.127 209.429 461.206C210.215 462.285 211.397 463.008 212.716 463.217C218.476 463.9 224.394 463.591 229.585 466.223C230.132 464.626 228.937 462.814 229.484 461.189C229.83 460.182 230.78 459.527 231.428 458.679C232.299 457.386 232.733 455.849 232.667 454.292C232.692 452.26 232.331 450.242 231.601 448.345C230.989 446.763 230.111 445.202 230.161 443.505C230.161 442.671 230.456 441.793 230.118 441.024C229.886 440.582 229.571 440.189 229.189 439.866C227.037 437.511 225.715 434.519 225.424 431.344C225.143 428.194 225.245 425.021 225.726 421.894C226.079 418.917 226.554 415.775 228.448 413.452C227.57 406.408 228.086 399.261 229.967 392.417C230.154 391.784 230.449 391.05 231.097 390.899C231.355 390.873 231.615 390.909 231.855 391.004C232.096 391.099 232.31 391.251 232.48 391.446C233.61 392.503 234.15 394.035 234.639 395.502C235.179 397.091 235.727 398.788 235.316 400.414C235.143 401.133 234.798 401.766 234.596 402.456C234.158 403.843 234.235 405.342 234.812 406.677C235.094 407.165 235.27 407.707 235.331 408.267C235.264 408.748 235.118 409.214 234.899 409.647C234.632 410.498 234.547 411.396 234.65 412.282C234.753 413.168 235.041 414.022 235.496 414.789C236.414 416.316 237.546 417.704 238.859 418.91C238.232 421.67 238.394 424.551 239.326 427.223C239.394 427.344 239.437 427.476 239.453 427.613C239.469 427.75 239.458 427.889 239.42 428.022C239.291 428.295 238.959 428.396 238.7 428.59C237.98 429.179 238.427 430.294 238.909 431.064C240.231 433.176 241.691 435.198 243.279 437.119C244.719 438.838 244.59 442.153 246.735 442.771C247.637 442.966 248.569 442.966 249.471 442.771C251.588 442.448 253.949 441.836 254.986 439.967C255.411 439.197 255.584 438.262 256.246 437.687C256.908 437.112 257.765 437.011 258.132 436.321C258.499 435.63 258.089 434.724 258.211 433.926C258.334 433.128 259.032 432.488 259.255 431.646C259.788 429.704 257.52 428.108 257.211 426.123C256.764 423.246 260.393 421.089 260.242 418.212C259.925 411.963 259.723 405.685 259.399 399.436C258.993 393.838 258.935 388.22 259.227 382.615C259.479 379.127 259.947 375.474 258.665 372.23C256.822 367.656 251.739 365.089 246.821 364.6C241.904 364.111 237.001 365.276 232.127 366.038C224.037 367.284 215.818 367.455 207.684 366.549Z" fill="#3F3D56"/>
<path d="M222.3 297.813C228.67 297.813 233.834 292.655 233.834 286.292C233.834 279.93 228.67 274.771 222.3 274.771C215.93 274.771 210.766 279.93 210.766 286.292C210.766 292.655 215.93 297.813 222.3 297.813Z" fill="#FBBEBE"/>
<path d="M217.605 299.963C217.213 300.874 216.554 301.646 215.715 302.176C214.876 302.706 213.896 302.97 212.903 302.933C212.486 304.659 213.487 306.399 214.631 307.759C217.008 310.522 220.08 312.601 223.53 313.783C226.98 314.965 230.683 315.207 234.258 314.483C235.649 314.234 236.968 313.684 238.124 312.872C239.682 311.572 240.728 309.763 241.076 307.766C241.407 305.782 241.502 303.767 241.357 301.761C241.397 301.365 241.284 300.968 241.04 300.653C240.752 300.431 240.396 300.314 240.032 300.323C237.599 300.107 235.057 300.013 232.919 298.82C230.78 297.626 229.261 294.929 230.291 292.714C230.125 293.059 225.921 293.225 225.366 293.297C223.631 293.541 221.896 293.814 220.168 294.131C219.338 294.176 218.517 294.331 217.727 294.591C216.683 295.13 217.072 294.864 217.317 295.842C217.684 297.338 218.224 298.41 217.605 299.963Z" fill="#FBBEBE"/>
<path d="M226.381 306.968C224.828 306.986 223.278 306.814 221.766 306.457C220.24 306.101 218.894 305.204 217.979 303.933C217.446 303.127 217.101 302.113 216.251 301.66C214.862 300.941 213.278 302.157 212.169 303.271C211.159 304.371 209.989 305.311 208.699 306.061C207.158 306.874 205.358 307.162 203.904 308.118C202.767 308.976 201.792 310.028 201.024 311.225L190.822 325.105C186.725 330.685 183.161 336.676 179.511 342.565C176.35 347.664 174.694 353.532 172.311 359.034C172.122 359.371 172.044 359.758 172.088 360.141C172.174 360.515 172.628 360.817 172.945 360.602C171.872 361.666 172.815 363.478 172.563 364.974C172.277 366.021 171.679 366.956 170.85 367.656C172.434 367.45 174.043 367.525 175.601 367.879C177.212 368.335 178.732 369.065 180.094 370.037C180.965 369.9 180.886 368.354 181.534 367.779C181.923 367.441 182.499 367.484 183.01 367.383C184.932 367.009 185.695 364.701 187.171 363.399C188.403 362.313 190.145 361.961 191.448 360.94C193.565 359.278 194.018 356.323 195.127 353.87C196.07 351.792 197.553 349.98 198.381 347.851C198.921 346.47 199.181 344.975 199.951 343.702C201.182 341.645 203.5 340.552 205.711 339.567C207.108 338.941 208.591 338.294 210.095 338.394C210.016 341.738 209.591 345.032 210.319 348.297C210.571 349.448 210.923 350.569 211.226 351.713C212.601 356.862 212.925 362.227 212.99 367.534C216.298 366.778 219.676 366.373 223.069 366.326C225.74 366.247 228.404 366.592 231.075 366.542C234.243 366.484 237.375 365.873 240.543 365.657C243.711 365.441 247.023 365.657 249.824 367.095C249.596 362.538 249.724 357.97 250.205 353.432L250.968 346.283C251.141 344.207 251.461 342.145 251.926 340.113C252.343 338.473 252.948 336.891 253.409 335.259C255.029 329.506 254.734 323.364 254.424 317.374C254.266 314.296 253.078 311.268 251.681 308.528C251.176 307.51 250.598 306.53 249.953 305.594C248.265 303.271 246.016 301.413 243.415 300.193C240.814 298.974 237.946 298.432 235.079 298.618C234.712 298.63 234.351 298.708 234.013 298.848C233.405 299.237 232.931 299.802 232.652 300.467C231.163 303.141 229.001 305.381 226.381 306.968Z" fill="#3F3D56"/>
<path d="M212.156 290.111C212.48 289.392 213.351 289.126 213.884 288.55C214.906 287.457 214.445 285.71 214.603 284.235C214.863 282.078 216.655 280.273 218.707 279.503C220.8 278.833 223.027 278.692 225.187 279.094C226.227 279.169 227.232 279.503 228.11 280.064C228.485 280.338 228.83 280.69 229.183 280.942C229.826 281.33 230.596 281.452 231.327 281.281C232.059 281.111 232.695 280.661 233.1 280.028C230.551 276.965 227.729 273.729 223.855 272.787C222.526 272.516 221.172 272.388 219.816 272.405C218.023 272.369 216.173 272.341 214.517 273.024C212.264 273.952 210.68 276.087 209.866 278.389C209.155 280.721 208.774 283.142 208.736 285.58C208.588 287.207 208.588 288.844 208.736 290.47C209.014 292.692 209.84 294.81 211.14 296.633C211.316 296.917 211.565 297.148 211.86 297.302C215.143 298.741 211.889 290.708 212.156 290.111Z" fill="#3F3D56"/>
<path d="M232.724 278.252C232.328 274.865 229.909 272.068 227.339 269.817C225.267 267.865 222.799 266.381 220.103 265.466C217.388 264.668 214.264 264.84 211.938 266.458C210.066 267.76 208.878 269.831 207.964 271.916C206.763 274.378 206.168 277.09 206.229 279.827C206.409 282.545 207.734 285.3 210.095 286.673C210.945 285.422 212.421 284.775 213.839 284.264C220.021 281.922 226.325 279.915 232.724 278.252Z" fill="#FED253" fill-opacity="0.4"/>
<path opacity="0.1" d="M210.889 276.843C211.119 276.843 211.27 277.08 211.385 277.274C211.971 278.186 212.475 279.149 212.89 280.151C212.048 280.331 210.601 280.532 210.183 279.791C209.96 279.417 210.226 276.807 210.889 276.843Z" fill="black"/>
<path opacity="0.1" d="M227.295 275.217C227.122 275.383 226.921 275.045 226.921 274.8V272.01C226.916 271.932 226.933 271.855 226.971 271.787C227.001 271.753 227.037 271.725 227.078 271.705C227.119 271.686 227.163 271.674 227.209 271.672C227.792 271.607 228.274 272.103 228.649 272.578C229.217 273.347 229.711 274.168 230.125 275.03L227.079 274.937" fill="black"/>
<path d="M265.303 321.422C265.966 320.794 266.673 320.215 267.42 319.689C269.414 318.359 271.826 317.834 274.065 316.985C276.304 316.137 278.58 314.763 279.451 312.534C279.887 311.14 280.029 309.671 279.868 308.219C279.889 307.611 279.781 307.006 279.552 306.443C279.277 305.945 278.887 305.521 278.414 305.206C275.376 302.962 271.301 302.782 267.528 303.012C259.21 303.528 251.058 305.56 243.474 309.01C243.073 309.142 242.721 309.393 242.466 309.729C242.318 310.041 242.251 310.385 242.271 310.729C242.137 312.85 242.413 314.976 243.085 316.993C244.078 319.553 246.123 321.617 246.98 324.227C247.369 325.399 247.498 326.643 247.837 327.823C248.114 329.041 248.835 330.112 249.86 330.829C252.704 332.526 255.389 330.246 257.362 328.477L265.303 321.422Z" fill="#3F3D56"/>
<path d="M228.06 331.383L224.41 323.429C223.874 322.327 223.413 321.19 223.027 320.027C222.61 318.639 222.408 317.201 222.019 315.806C220.738 311.16 217.505 307.291 215.928 302.739C215.829 302.328 215.625 301.949 215.338 301.639C215.108 301.476 214.845 301.366 214.567 301.316C214.29 301.267 214.005 301.279 213.732 301.351C211.529 301.732 209.808 303.408 207.793 304.357C206.857 304.789 205.849 305.076 204.913 305.573C204.445 305.794 204.03 306.113 203.697 306.509C203.364 306.905 203.121 307.368 202.983 307.867C202.76 308.967 203.307 310.024 203.768 311.096C205.726 315.511 206.173 320.445 206.259 325.277C206.324 328.528 206.158 332.016 204.236 334.626C200.542 339.66 202.904 347.053 204.286 353.144C204.452 353.863 204.646 354.64 204.761 355.402C204.883 356.356 204.939 357.317 204.927 358.279C204.927 361.508 204.747 364.837 203.393 367.764C204.73 368.475 206.203 368.891 207.713 368.987C211.894 369.519 216.091 369.893 220.306 370.109C221.626 370.233 222.957 370.165 224.258 369.907C225.803 369.49 227.165 368.571 228.129 367.295C229.092 366.019 229.602 364.458 229.579 362.86C229.809 364.852 230.234 367.016 231.681 368.397C233.128 369.778 235.238 369.987 237.203 370.094C242.751 370.388 248.313 370.232 253.835 369.627C254.187 369.611 254.534 369.531 254.857 369.39C255.923 368.857 255.98 367.39 255.894 366.211C255.736 364.003 255.57 361.795 255.304 359.602C255.078 358.204 254.962 356.79 254.958 355.373C255.068 353.916 255.309 352.472 255.678 351.059C256.643 346.571 257.406 341.99 257.082 337.395C256.954 336.275 256.908 335.148 256.945 334.022C257.132 331.483 258.472 329.067 258.22 326.543C257.5 319.121 256.916 311.505 254.843 304.343C254.468 303.063 253.993 301.689 252.877 300.956C251.437 299.992 249.414 300.495 247.766 299.884C246.992 299.524 246.256 299.088 245.57 298.582C244.078 297.65 242.367 297.125 240.609 297.058C239.284 297.008 237.808 297.302 237.009 298.367C236.639 298.966 236.394 299.634 236.289 300.33C235.245 304.717 234.021 309.053 232.797 313.39L231.624 317.546L228.477 328.708C228.168 329.894 228.377 330.261 228.06 331.383Z" fill="#83BB62" fill-opacity="0.4"/>
<path d="M246.469 287.838L316.112 360.94V367.139H285.06L232.725 298.913" fill="#F1C0C0"/>
<path opacity="0.1" d="M246.469 287.838L316.112 360.94V367.139H285.06L232.725 298.913" fill="black"/>
<path opacity="0.1" d="M233.833 297.95L234.057 298.029L285.506 360.94H316.112V367.139H285.06L232.725 298.913L233.833 297.95Z" fill="black"/>
<path d="M241.847 299.488C239.328 300.589 236.527 301.998 235.771 304.645C235.622 305.109 235.589 305.603 235.677 306.083C235.861 306.647 236.213 307.142 236.684 307.503C237.156 307.864 237.726 308.073 238.32 308.104C239.505 308.133 240.684 307.917 241.783 307.471L256.65 302.566C257.053 302.437 257.514 302.243 257.615 301.847C257.641 301.599 257.591 301.348 257.471 301.128C257.01 300.006 256.557 297.712 255.592 296.928C254.8 296.295 253.23 296.518 252.273 296.533C248.586 296.562 245.123 298.05 241.847 299.488Z" fill="#83BB62"/>
<path d="M255.101 303.149C257.606 303.142 260.096 303.528 262.481 304.292C264.876 305.069 266.998 306.517 268.593 308.463C269.058 309.008 269.388 309.653 269.558 310.348C269.702 311.067 272.049 311.498 271.531 311.987C273.107 311.736 272.733 312.476 274.331 312.462C275.93 312.448 277.658 312.038 278.615 310.765C279.281 309.719 279.577 308.481 279.458 307.248C279.479 306.394 279.317 305.546 278.982 304.76C278.262 303.25 276.607 302.437 275.08 301.739L262.221 295.864C261.475 295.468 260.675 295.184 259.845 295.023C259.148 294.957 258.444 294.974 257.75 295.073L251.926 295.742C253.2 296.565 254.237 297.706 254.935 299.051C255.633 300.397 255.968 301.901 255.907 303.415" fill="#3F3D56"/>
</g>
<defs>
<clipPath id="clip0_639_1600">
<rect width="848" height="521" fill="white"/>
</clipPath>
</defs>
</svg>
