<svg width="862" height="450" viewBox="0 0 862 450" fill="none" xmlns="http://www.w3.org/2000/svg">
<g clip-path="url(#clip0_687_847)">
<path d="M263.118 24.4757C266.37 14.11 273.766 4.60293 283.995 1.09876C294.225 -2.40541 309.204 2.93259 316.894 10.5969C330.961 24.6166 334.394 72.7791 324.73 87.9989C322.807 87.8972 316.174 87.822 314.228 87.7491L311.476 78.5756V87.6586C296.29 87.1893 280.479 87.4832 264.661 87.7871C263.243 77.0112 259.865 34.8414 263.118 24.4757Z" fill="#2F2E41"/>
<path d="M413.454 184.857C412.088 184.674 410.778 184.193 409.618 183.45C408.457 182.706 407.474 181.717 406.737 180.552C406 179.387 405.527 178.074 405.352 176.707C405.177 175.34 405.304 173.951 405.724 172.638L378.92 152.53L395.311 146.654L418.252 166.65C420.411 167.501 422.183 169.116 423.231 171.186C424.279 173.257 424.532 175.64 423.94 177.884C423.349 180.128 421.955 182.078 420.022 183.363C418.089 184.648 415.753 185.179 413.454 184.857Z" fill="#9E616A"/>
<path d="M306.973 79.4627L309.537 70.3895C309.537 70.3895 315.932 68.3043 326.845 76.2191C337.758 84.1339 405.122 154.783 405.122 154.783L385.067 157.588L323.771 113.799L306.973 79.4627Z" fill="#E6E6E6"/>
<path d="M726.64 426.012C767.664 405.063 800.325 363.06 799.424 317.006C761.071 349.228 712.556 366.845 662.464 366.741C643.146 366.63 621.671 364.496 606.657 376.653C597.315 384.218 592.418 396.2 590.968 408.133C589.519 420.066 591.146 432.134 592.77 444.044L591.762 446.871C637.717 450.024 685.616 446.96 726.64 426.012Z" fill="#F0F0F0" fill-opacity="0.3"/>
<path d="M729.262 389.427C732.835 394.803 738.203 398.734 744.407 400.518C750.612 402.302 757.248 401.823 763.131 399.166C764.32 398.624 763.534 396.751 762.344 397.294C756.87 399.778 750.688 400.224 744.914 398.551C739.14 396.878 734.154 393.196 730.857 388.17C730.139 387.079 728.548 388.341 729.262 389.427Z" fill="white"/>
<path d="M674.579 400.169C677.07 387.21 684.354 375.666 694.978 367.838C696.031 367.064 694.774 365.47 693.722 366.244C682.681 374.41 675.126 386.439 672.563 399.93C672.32 401.216 674.337 401.449 674.579 400.169Z" fill="white"/>
<path d="M627.703 361.541C621.89 349.694 620.755 336.091 624.525 323.445C624.9 322.192 622.936 321.677 622.562 322.928C618.663 336.096 619.873 350.249 625.95 362.564C626.53 363.737 628.28 362.708 627.703 361.541Z" fill="white"/>
<path d="M678.611 262.523C676.082 262.185 673.676 261.224 671.61 259.727C669.544 258.23 667.882 256.244 666.773 253.946C666.209 252.765 664.458 253.796 665.02 254.968C666.256 257.502 668.094 259.694 670.373 261.353C672.652 263.012 675.303 264.087 678.094 264.486C678.354 264.545 678.627 264.504 678.857 264.369C679.087 264.235 679.258 264.018 679.334 263.763C679.401 263.502 679.363 263.226 679.227 262.994C679.092 262.762 678.87 262.592 678.611 262.523Z" fill="white"/>
<path d="M233.219 92.902C198.077 63.1223 146.73 49.1744 104.582 67.7568C149.097 90.727 184.053 128.702 203.264 174.964C210.608 192.832 216.916 213.471 233.921 222.639C244.502 228.343 257.446 228.244 269.015 224.982C280.585 221.72 291.094 215.567 301.457 209.477L304.454 209.318C289.65 165.698 268.361 122.682 233.219 92.902Z" fill="#F0F0F0"/>
<path d="M104.849 68.6856C142.395 72.3679 179.007 88.0688 207.173 113.252C213.262 118.697 218.965 124.75 223.085 131.849C227.048 138.8 229.077 146.685 228.962 154.685C229.004 162.146 228.184 169.784 230.039 177.105C231.995 184.822 237.276 190.774 244.222 194.489C252.719 199.035 262.344 200.257 271.797 201.124C282.294 202.088 293.211 202.922 302.442 208.512C303.56 209.189 304.546 207.414 303.429 206.738C287.369 197.012 267.554 201.333 250.412 195.038C242.413 192.1 235.252 186.735 232.52 178.376C230.131 171.066 230.971 163.19 230.993 155.635C231.016 147.702 229.732 140.204 226.079 133.092C222.342 125.817 216.863 119.529 210.94 113.952C197.413 101.407 181.999 91.0671 165.26 83.3106C146.206 74.3522 125.76 68.7193 104.806 66.6556C103.509 66.5284 103.56 68.5593 104.849 68.6856Z" fill="white"/>
<path d="M198.451 104.583C202.034 99.214 203.593 92.7454 202.848 86.333C202.102 79.9206 199.102 73.9819 194.382 69.5774C193.424 68.6895 192 70.1365 192.959 71.0256C197.361 75.1189 200.156 80.6512 200.837 86.6238C201.519 92.5965 200.043 98.616 196.677 103.596C195.946 104.679 197.724 105.66 198.451 104.583Z" fill="white"/>
<path d="M229.439 150.899C216.521 153.596 203.061 151.324 191.744 144.538C190.623 143.865 189.637 145.639 190.757 146.312C202.547 153.352 216.559 155.687 229.996 152.851C231.276 152.58 230.713 150.629 229.439 150.899Z" fill="white"/>
<path d="M146.123 77.0428C145.169 79.4093 143.642 81.5019 141.68 83.1326C139.718 84.7633 137.381 85.8811 134.88 86.3856C133.597 86.6404 134.162 88.5912 135.436 88.338C138.197 87.7678 140.776 86.5302 142.948 84.7333C145.12 82.9364 146.819 80.635 147.897 78.03C148.019 77.793 148.046 77.5184 147.973 77.2619C147.9 77.0055 147.732 76.7865 147.503 76.6494C147.268 76.5199 146.991 76.4886 146.732 76.5622C146.474 76.6359 146.255 76.8086 146.123 77.0428Z" fill="white"/>
<path d="M62.1191 217.825C62.925 217.688 63.7308 217.552 64.5489 217.428C75.3925 215.651 86.3625 214.758 97.3507 214.758C98.2003 214.745 99.0614 214.744 99.9096 214.755C126.383 215.037 152.573 220.231 177.15 230.074C186.926 234 196.389 238.663 205.458 244.025C217.981 251.43 230.971 260.455 244.802 263.21C246.242 263.513 247.699 263.727 249.166 263.851L304.417 212.986C304.484 212.807 304.564 212.641 304.632 212.461L306.931 210.531C306.483 210.222 306.011 209.911 305.563 209.602C305.303 209.422 305.032 209.253 304.772 209.072C304.596 208.955 304.418 208.839 304.265 208.724C304.206 208.685 304.147 208.646 304.1 208.62C303.947 208.504 303.793 208.413 303.652 208.311C301.02 206.565 298.371 204.834 295.706 203.119C295.694 203.107 295.694 203.107 295.67 203.105C275.326 190.09 253.718 178.659 231.061 170.871C230.379 170.637 229.686 170.39 228.979 170.179C218.747 166.725 208.25 164.114 197.592 162.37C191.753 161.434 185.871 160.794 179.967 160.453C164.712 159.601 149.417 161.154 134.644 165.055C105.195 172.835 78.5626 189.947 63.2683 215.835C62.8775 216.498 62.4983 217.15 62.1191 217.825Z" fill="#F0F0F0"/>
<path d="M62.889 218.412C95.0842 198.747 133.77 189.24 171.421 192.389C179.561 193.07 187.759 194.47 195.323 197.657C202.672 200.821 209.039 205.895 213.764 212.352C218.29 218.284 222.233 224.877 228.122 229.605C234.33 234.589 242.13 236.162 249.913 234.947C259.435 233.46 267.855 228.641 275.925 223.642C284.886 218.092 294.105 212.185 304.841 211.09C306.142 210.958 305.86 208.947 304.561 209.079C285.883 210.984 272.662 226.363 255.186 231.658C247.031 234.128 238.082 234.156 230.868 229.126C224.56 224.728 220.488 217.934 215.957 211.888C211.2 205.54 205.66 200.327 198.461 196.848C191.098 193.289 182.937 191.566 174.85 190.68C156.497 188.808 137.964 189.832 119.929 193.717C99.322 198.036 79.6053 205.849 61.6324 216.817C60.5202 217.496 61.7841 219.087 62.889 218.412Z" fill="white"/>
<path d="M159.237 190.72C158.866 184.275 156.215 178.172 151.76 173.501C147.304 168.829 141.333 165.894 134.913 165.219C133.613 165.087 133.347 167.1 134.648 167.232C140.628 167.85 146.189 170.585 150.33 174.943C154.47 179.302 156.916 184.996 157.226 191C157.295 192.304 159.305 192.017 159.237 190.72Z" fill="white"/>
<path d="M211.863 209.042C203.173 218.973 191.058 225.264 177.936 226.659C176.636 226.796 176.917 228.807 178.216 228.67C191.869 227.192 204.462 220.62 213.483 210.266C214.342 209.279 212.718 208.06 211.863 209.042Z" fill="white"/>
<path d="M100.874 200.235C101.538 202.698 101.579 205.288 100.994 207.772C100.409 210.255 99.2159 212.554 97.5226 214.463C96.6514 215.439 98.2768 216.657 99.1424 215.687C101.003 213.57 102.317 211.029 102.97 208.286C103.622 205.544 103.593 202.683 102.885 199.955C102.84 199.692 102.696 199.456 102.484 199.296C102.271 199.135 102.005 199.061 101.74 199.089C101.474 199.128 101.234 199.27 101.072 199.484C100.909 199.698 100.839 199.968 100.874 200.235Z" fill="white"/>
<path d="M606.581 271.148C606.435 268.584 605.386 266.154 603.62 264.29C601.854 262.426 599.484 261.247 596.931 260.963L439.871 243.241C438.365 243.069 436.839 243.214 435.393 243.667L399.363 254.947L378.691 261.426L340.54 273.368C338.237 274.092 336.24 275.56 334.861 277.541C333.482 279.522 332.799 281.905 332.92 284.316L339.36 437.391C339.497 439.879 340.478 442.246 342.142 444.101C343.806 445.955 346.052 447.187 348.51 447.593L508.876 447.943C509.629 448.065 510.393 448.106 511.155 448.064C512.265 448.01 513.36 447.786 514.403 447.4L608.376 446.751C610.566 445.945 612.437 444.454 613.713 442.5C614.988 440.546 615.6 438.232 615.456 435.903L606.581 271.148Z" fill="white"/>
<path d="M350.022 438.18L510.387 438.527C510.621 438.566 510.862 438.544 511.085 438.462L605.046 437.817C605.322 437.718 605.558 437.532 605.718 437.287C605.878 437.041 605.954 436.751 605.934 436.458L597.07 271.7C597.048 271.381 596.916 271.079 596.696 270.847C596.477 270.615 596.183 270.466 595.866 270.426L594.809 270.302L438.799 252.717C438.727 252.707 438.655 252.705 438.583 252.711C438.466 252.714 438.349 252.733 438.237 252.766L350.359 280.286L343.385 282.464C343.099 282.557 342.852 282.741 342.681 282.987C342.51 283.234 342.424 283.53 342.437 283.83L348.879 436.9C348.895 437.212 349.017 437.509 349.225 437.742C349.433 437.975 349.714 438.129 350.022 438.18Z" fill="#83BB62"/>
<path d="M350.359 280.286L438.237 252.766C438.349 252.733 438.466 252.714 438.583 252.711C438.655 252.705 438.727 252.707 438.799 252.717L594.809 270.302L557.236 282.528L543.173 287.097L503.159 300.109C503.041 300.14 502.921 300.164 502.799 300.181C502.722 300.174 502.645 300.168 502.552 300.163L350.359 280.286Z" fill="#2F2E41"/>
<path d="M348.508 447.601L508.873 447.948C509.627 448.069 510.393 448.105 511.155 448.055C512.266 448.005 513.363 447.786 514.409 447.407L608.37 446.762C610.561 445.953 612.432 444.461 613.709 442.506C614.985 440.55 615.598 438.236 615.457 435.906L606.578 271.149C606.465 269.219 605.844 267.354 604.778 265.741C604.631 265.528 604.484 265.315 604.323 265.119C603.219 263.674 601.764 262.537 600.096 261.814C599.09 261.372 598.023 261.086 596.931 260.964L596.744 260.939L439.878 243.238C439.238 243.174 438.596 243.155 437.954 243.182C437.082 243.242 436.22 243.407 435.388 243.675L399.361 254.942L378.693 261.432L340.536 273.373C338.974 273.86 337.544 274.694 336.352 275.814C336.257 275.888 336.169 275.97 336.088 276.059C336.03 276.118 335.976 276.18 335.926 276.247C334.904 277.315 334.111 278.581 333.595 279.967C333.078 281.352 332.849 282.828 332.921 284.305L339.35 437.392C339.488 439.881 340.47 442.25 342.135 444.106C343.8 445.962 346.048 447.195 348.508 447.601ZM335.637 284.178C335.563 282.647 335.926 281.127 336.684 279.795C336.909 279.37 337.177 278.97 337.483 278.599C338.316 277.573 339.387 276.766 340.604 276.248C340.843 276.143 341.089 276.054 341.34 275.98L405.587 255.871L436.205 246.265C436.412 246.196 436.607 246.158 436.801 246.105C437.272 245.995 437.752 245.93 438.235 245.911C438.676 245.875 439.119 245.886 439.558 245.943L596.612 263.669C596.736 263.686 596.846 263.704 596.97 263.72C598.409 263.934 599.762 264.537 600.882 265.466C601.761 266.173 602.48 267.057 602.994 268.06C603.508 269.064 603.804 270.165 603.864 271.291L612.729 436.064C612.836 437.809 612.378 439.542 611.425 441.007C610.471 442.472 609.072 443.592 607.433 444.201L513.457 444.847C512.128 445.334 510.697 445.472 509.3 445.246L348.937 444.914C347.096 444.606 345.415 443.68 344.169 442.29C342.923 440.9 342.187 439.127 342.081 437.263L335.637 284.178Z" fill="#3F3D56"/>
<path d="M511.642 448.358C511.283 448.376 510.932 448.252 510.665 448.012C510.397 447.772 510.235 447.437 510.214 447.079L501.375 298.894C501.354 298.533 501.477 298.179 501.717 297.909C501.956 297.639 502.293 297.475 502.654 297.454L502.666 297.453C503.025 297.435 503.376 297.559 503.644 297.799C503.911 298.038 504.073 298.374 504.094 298.732L512.933 446.917C512.954 447.277 512.831 447.631 512.592 447.902C512.352 448.172 512.015 448.336 511.654 448.357L511.642 448.358Z" fill="#3F3D56"/>
<path d="M567.084 438.334L551.698 438.23L537.098 286.207C537.098 286.207 555.579 278.648 556.39 279.934C556.883 280.7 567.027 437.391 567.084 438.334Z" fill="#3F3D56"/>
<path d="M601.68 266.763L600.569 265.854C599.426 264.913 598.033 264.327 596.561 264.166L439.509 246.441C438.643 246.345 437.767 246.394 436.916 246.584L436.328 246.73L436.209 244.38L462.255 215.567C463.806 213.859 465.73 212.532 467.878 211.69C470.026 210.847 472.339 210.512 474.638 210.71L580.81 220.104C583.982 220.374 586.983 221.655 589.371 223.76C591.759 225.865 593.408 228.681 594.075 231.794L601.68 266.763Z" fill="#3F3D56"/>
<path d="M364.301 382.703C364.468 382.676 364.638 382.667 364.808 382.677L413.145 385.607C413.75 385.644 414.316 385.919 414.718 386.373C415.12 386.827 415.326 387.421 415.289 388.027C415.253 388.632 414.977 389.198 414.523 389.6C414.07 390.002 413.475 390.207 412.87 390.171L364.532 387.241C363.971 387.207 363.442 386.967 363.047 386.568C362.651 386.168 362.416 385.637 362.388 385.075C362.359 384.514 362.538 383.961 362.891 383.524C363.244 383.086 363.746 382.794 364.301 382.703Z" fill="white"/>
<path d="M365.111 399.684C365.279 399.656 365.449 399.648 365.618 399.658L413.956 402.588C414.561 402.624 415.127 402.9 415.529 403.354C415.931 403.807 416.136 404.402 416.1 405.007C416.063 405.612 415.788 406.178 415.334 406.58C414.88 406.982 414.285 407.188 413.68 407.151L365.343 404.222C364.782 404.188 364.253 403.948 363.857 403.548C363.461 403.149 363.227 402.618 363.198 402.056C363.17 401.495 363.349 400.942 363.702 400.505C364.055 400.067 364.557 399.775 365.111 399.684Z" fill="white"/>
<path d="M596.309 196.924L503.069 247.69L464.762 177.331L558.001 126.566L596.309 196.924Z" fill="white"/>
<path d="M596.309 196.924L503.069 247.69L464.762 177.331L558.001 126.566L596.309 196.924ZM503.851 245.041L593.66 196.143L557.22 129.215L467.41 178.113L503.851 245.041Z" fill="#E6E6E6"/>
<path d="M556.138 152.425L487.494 189.798L489.986 194.375L558.629 157.001L556.138 152.425Z" fill="#83BB62"/>
<path d="M563.612 166.153L494.969 203.526L497.46 208.103L566.104 170.729L563.612 166.153Z" fill="#83BB62"/>
<path d="M571.087 179.881L502.443 217.255L504.935 221.832L573.578 184.458L571.087 179.881Z" fill="#83BB62"/>
<path d="M383.837 134.922C382.874 133.843 382.545 133.733 382.203 133.969L329.143 170.578C328.805 170.811 328.785 171.156 329.442 172.425C331.176 175.109 333.296 178.279 335.616 181.641L403.884 280.588C410.283 289.862 415.843 297.164 416.276 296.865L469.336 260.256C469.769 259.957 464.916 252.168 458.517 242.893L390.249 143.947C387.934 140.592 385.728 137.493 383.837 134.922Z" fill="white"/>
<path d="M390.905 144.184C389.699 142.492 388.55 140.924 387.523 139.558C386.287 137.92 385.274 136.623 384.505 135.695C384.252 135.393 384.034 135.134 383.837 134.922C382.874 133.843 382.545 133.733 382.203 133.969L329.143 170.578C328.805 170.811 328.785 171.156 329.442 172.425C329.577 172.685 329.743 172.991 329.94 173.342C330.532 174.387 331.385 175.794 332.48 177.535C334.311 180.433 336.72 184.054 339.26 187.736L404.089 281.697C407.033 285.964 409.887 289.922 412.125 292.848C415.85 297.72 416.124 297.531 416.538 297.245L469.598 260.636C470.012 260.351 470.286 260.162 467.054 254.949C465.113 251.819 462.426 247.745 459.482 243.478L394.653 149.517C393.381 147.674 392.113 145.869 390.905 144.184ZM340.02 187.211C337.487 183.541 335.084 179.928 333.263 177.045C332.173 175.318 331.329 173.916 330.747 172.886C330.419 172.342 330.131 171.773 329.888 171.186L382.507 134.881C382.97 135.317 383.4 135.787 383.792 136.288C384.173 136.743 384.615 137.291 385.117 137.931C385.616 138.574 386.173 139.302 386.787 140.116C388.835 142.842 391.358 146.367 393.893 150.041L458.722 244.003C464.874 252.92 468.419 258.797 468.857 260.026L416.23 296.336C415.237 295.49 411.001 290.09 404.849 281.173L340.02 187.211Z" fill="#E4E4E4"/>
<path d="M372.492 165.356L362.446 172.287C361.943 172.635 361.598 173.169 361.487 173.771C361.377 174.373 361.51 174.994 361.857 175.498L367.86 184.199C368.209 184.702 368.742 185.046 369.344 185.157C369.946 185.267 370.567 185.134 371.071 184.788L381.117 177.857C381.619 177.508 381.963 176.974 382.073 176.373C382.184 175.771 382.052 175.15 381.706 174.646L375.703 165.945C375.354 165.442 374.821 165.098 374.219 164.987C373.617 164.877 372.996 165.01 372.492 165.356Z" fill="#83BB62"/>
<path d="M397.52 174.929L362.507 199.086C362.394 199.164 362.297 199.264 362.223 199.379C362.148 199.495 362.097 199.624 362.072 199.759C362.047 199.895 362.049 200.034 362.078 200.168C362.107 200.303 362.162 200.43 362.24 200.543C362.318 200.657 362.418 200.753 362.533 200.828C362.649 200.903 362.778 200.954 362.913 200.979C363.049 201.004 363.188 201.002 363.322 200.973C363.457 200.944 363.584 200.889 363.698 200.811L398.71 176.654C398.823 176.576 398.92 176.476 398.995 176.361C399.069 176.245 399.121 176.116 399.146 175.981C399.17 175.845 399.168 175.706 399.139 175.572C399.111 175.437 399.056 175.31 398.977 175.196C398.899 175.083 398.8 174.986 398.684 174.912C398.568 174.837 398.439 174.786 398.304 174.761C398.169 174.736 398.03 174.738 397.895 174.767C397.761 174.796 397.633 174.851 397.52 174.929Z" fill="#E4E4E4"/>
<path d="M378.595 193.953L365.297 203.129C365.183 203.207 365.087 203.306 365.012 203.422C364.937 203.537 364.886 203.667 364.861 203.802C364.836 203.937 364.838 204.076 364.867 204.211C364.896 204.345 364.951 204.473 365.029 204.586C365.107 204.699 365.207 204.796 365.322 204.871C365.438 204.946 365.567 204.997 365.703 205.022C365.838 205.047 365.977 205.044 366.111 205.016C366.246 204.987 366.373 204.932 366.487 204.854L379.785 195.678C380.014 195.521 380.17 195.278 380.221 195.005C380.271 194.732 380.21 194.45 380.052 194.221C379.895 193.992 379.652 193.835 379.379 193.785C379.106 193.735 378.824 193.796 378.595 193.953Z" fill="#E4E4E4"/>
<path d="M398.445 202.971L388.399 209.902C387.896 210.25 387.551 210.784 387.44 211.386C387.33 211.988 387.463 212.609 387.81 213.113L393.814 221.814C394.162 222.317 394.695 222.661 395.297 222.771C395.899 222.882 396.52 222.749 397.024 222.403L407.07 215.471C407.572 215.123 407.916 214.589 408.027 213.988C408.137 213.386 408.005 212.765 407.659 212.261L401.656 203.56C401.307 203.057 400.774 202.713 400.172 202.602C399.57 202.492 398.949 202.625 398.445 202.971Z" fill="#83BB62"/>
<path d="M423.473 212.544L388.461 236.701C388.232 236.859 388.075 237.101 388.025 237.374C387.975 237.648 388.035 237.93 388.193 238.158C388.351 238.387 388.593 238.544 388.867 238.594C389.14 238.644 389.422 238.584 389.651 238.426L424.663 214.269C424.776 214.191 424.873 214.091 424.948 213.976C425.023 213.86 425.074 213.731 425.099 213.596C425.123 213.46 425.121 213.321 425.093 213.187C425.064 213.052 425.009 212.925 424.93 212.811C424.852 212.698 424.753 212.601 424.637 212.527C424.522 212.452 424.392 212.401 424.257 212.376C424.122 212.351 423.983 212.353 423.848 212.382C423.714 212.411 423.586 212.466 423.473 212.544Z" fill="#E4E4E4"/>
<path d="M404.548 231.568L391.25 240.743C391.021 240.901 390.864 241.144 390.814 241.417C390.764 241.69 390.824 241.972 390.982 242.201C391.14 242.43 391.382 242.586 391.656 242.637C391.929 242.687 392.211 242.626 392.44 242.468L405.738 233.293C405.851 233.215 405.948 233.115 406.023 233C406.098 232.884 406.149 232.755 406.174 232.62C406.198 232.485 406.196 232.346 406.168 232.211C406.139 232.077 406.084 231.949 406.005 231.836C405.927 231.722 405.828 231.626 405.712 231.551C405.597 231.476 405.467 231.425 405.332 231.4C405.197 231.375 405.058 231.377 404.923 231.406C404.789 231.435 404.661 231.49 404.548 231.568Z" fill="#E4E4E4"/>
<path d="M424.398 240.586L414.352 247.517C413.849 247.865 413.504 248.399 413.393 249.001C413.283 249.603 413.416 250.224 413.763 250.728L419.767 259.429C420.115 259.932 420.648 260.276 421.25 260.386C421.852 260.497 422.473 260.364 422.977 260.018L433.023 253.086C433.525 252.738 433.869 252.204 433.98 251.603C434.09 251.001 433.958 250.38 433.612 249.876L427.609 241.175C427.26 240.672 426.727 240.328 426.125 240.217C425.523 240.107 424.902 240.239 424.398 240.586Z" fill="#83BB62"/>
<path d="M449.426 250.159L414.414 274.316C414.3 274.394 414.204 274.494 414.129 274.609C414.054 274.725 414.003 274.854 413.978 274.989C413.953 275.125 413.955 275.263 413.984 275.398C414.013 275.533 414.068 275.66 414.146 275.773C414.224 275.887 414.324 275.983 414.44 276.058C414.555 276.133 414.684 276.184 414.82 276.209C414.955 276.234 415.094 276.232 415.229 276.203C415.363 276.174 415.491 276.119 415.604 276.041L450.616 251.884C450.845 251.726 451.002 251.484 451.052 251.21C451.102 250.937 451.041 250.655 450.884 250.426C450.726 250.198 450.484 250.041 450.21 249.991C449.937 249.941 449.655 250.001 449.426 250.159Z" fill="#E4E4E4"/>
<path d="M430.501 269.183L417.203 278.358C417.09 278.437 416.993 278.536 416.918 278.652C416.843 278.767 416.792 278.897 416.767 279.032C416.742 279.167 416.744 279.306 416.773 279.441C416.802 279.575 416.857 279.703 416.935 279.816C417.013 279.929 417.113 280.026 417.229 280.101C417.344 280.176 417.473 280.227 417.609 280.252C417.744 280.276 417.883 280.274 418.018 280.246C418.152 280.217 418.28 280.162 418.393 280.083L431.691 270.908C431.92 270.75 432.077 270.508 432.127 270.235C432.177 269.962 432.116 269.679 431.959 269.451C431.801 269.222 431.559 269.065 431.285 269.015C431.012 268.965 430.73 269.025 430.501 269.183Z" fill="#E4E4E4"/>
<path d="M541.875 179.092C541.665 173.942 541.345 170.622 540.975 170.622H405.575C405.205 170.622 404.885 173.942 404.675 179.092C404.535 182.682 404.445 187.162 404.445 192.012V286.352L404.995 286.422L427.255 289.322L450.455 292.362L461.055 293.742L483.725 296.702L502.555 299.162C502.645 299.172 502.725 299.172 502.805 299.182C502.925 299.162 503.045 299.142 503.155 299.112L510.565 296.702L519.115 293.922L541.555 286.622L542.105 286.442V192.012C542.105 187.162 542.015 182.682 541.875 179.092Z" fill="white"/>
<path d="M542.325 176.862C542.255 175.522 542.185 174.442 542.105 173.582C542.049 172.684 541.922 171.791 541.725 170.912C541.505 170.072 541.255 170.072 540.975 170.072H405.575C405.295 170.072 405.045 170.072 404.825 170.912C404.631 171.835 404.504 172.771 404.445 173.712C404.375 174.552 404.305 175.592 404.235 176.862C404.015 180.912 403.895 186.292 403.895 192.012V286.272L404.445 286.352L404.995 286.422V192.012C404.995 187.032 405.085 182.812 405.215 179.482C405.239 176.697 405.463 173.916 405.885 171.162H540.675C541.097 173.913 541.321 176.69 541.345 179.472C541.465 182.802 541.555 187.022 541.555 192.012V286.622L542.655 286.262V192.012C542.655 186.292 542.535 180.912 542.325 176.862Z" fill="#E4E4E4"/>
<path d="M447.185 199.382H429.915C429.486 199.381 429.061 199.465 428.664 199.628C428.268 199.792 427.907 200.032 427.604 200.334C427.3 200.637 427.059 200.997 426.894 201.393C426.73 201.789 426.645 202.214 426.645 202.642V217.602C426.644 218.032 426.728 218.457 426.892 218.855C427.056 219.252 427.297 219.612 427.601 219.916C427.905 220.22 428.265 220.461 428.662 220.625C429.059 220.789 429.485 220.873 429.915 220.872H447.185C448.052 220.872 448.883 220.527 449.496 219.914C450.11 219.301 450.454 218.47 450.455 217.602V202.642C450.452 201.777 450.107 200.947 449.494 200.336C448.881 199.725 448.05 199.382 447.185 199.382Z" fill="#83BB62"/>
<path d="M518.424 205.172H458.224C457.832 205.172 457.455 205.328 457.178 205.606C456.9 205.883 456.744 206.26 456.744 206.652C456.744 207.045 456.9 207.421 457.178 207.699C457.455 207.976 457.832 208.132 458.224 208.132H518.424C518.817 208.132 519.193 207.976 519.471 207.699C519.748 207.421 519.904 207.045 519.904 206.652C519.904 206.26 519.748 205.883 519.471 205.606C519.193 205.328 518.817 205.172 518.424 205.172Z" fill="#E4E4E4"/>
<path d="M481.084 212.122H458.224C457.832 212.122 457.455 212.278 457.178 212.556C456.9 212.833 456.744 213.21 456.744 213.602C456.744 213.995 456.9 214.371 457.178 214.649C457.455 214.926 457.832 215.082 458.224 215.082H481.084C481.477 215.082 481.853 214.926 482.131 214.649C482.408 214.371 482.564 213.995 482.564 213.602C482.564 213.21 482.408 212.833 482.131 212.556C481.853 212.278 481.477 212.122 481.084 212.122Z" fill="#E4E4E4"/>
<path d="M447.185 243.662H429.915C429.047 243.663 428.216 244.007 427.603 244.62C426.989 245.234 426.645 246.065 426.645 246.932V261.892C426.645 262.759 426.989 263.591 427.603 264.204C428.216 264.817 429.047 265.162 429.915 265.162H447.185C448.051 265.16 448.882 264.815 449.495 264.202C450.107 263.59 450.453 262.759 450.455 261.892V246.932C450.453 246.066 450.107 245.235 449.495 244.622C448.882 244.01 448.051 243.664 447.185 243.662Z" fill="#83BB62"/>
<path d="M518.425 249.452H458.225C457.831 249.452 457.454 249.609 457.175 249.887C456.897 250.166 456.74 250.544 456.74 250.937C456.74 251.331 456.897 251.709 457.175 251.987C457.454 252.266 457.831 252.422 458.225 252.422H518.425C518.819 252.422 519.197 252.266 519.475 251.987C519.754 251.709 519.91 251.331 519.91 250.937C519.91 250.544 519.754 250.166 519.475 249.887C519.197 249.609 518.819 249.452 518.425 249.452Z" fill="#E4E4E4"/>
<path d="M481.085 256.402H458.225C457.831 256.402 457.454 256.559 457.175 256.837C456.897 257.116 456.74 257.493 456.74 257.887C456.74 258.281 456.897 258.659 457.175 258.937C457.454 259.216 457.831 259.372 458.225 259.372H481.085C481.479 259.372 481.857 259.216 482.135 258.937C482.414 258.659 482.57 258.281 482.57 257.887C482.57 257.493 482.414 257.116 482.135 256.837C481.857 256.559 481.479 256.402 481.085 256.402Z" fill="#E4E4E4"/>
<path d="M449.986 289.542C449.697 289.057 449.287 288.655 448.797 288.376C448.306 288.098 447.75 287.951 447.186 287.952H429.916C429.395 287.951 428.882 288.075 428.419 288.313C427.956 288.552 427.557 288.898 427.256 289.322L450.456 292.362V291.212C450.457 290.623 450.294 290.045 449.986 289.542Z" fill="#83BB62"/>
<path d="M518.425 293.742H461.055L483.725 296.702H510.565L519.115 293.922C518.905 293.801 518.667 293.739 518.425 293.742Z" fill="#E4E4E4"/>
<path d="M602.774 267.662C602.665 267.733 602.547 267.79 602.424 267.832L597.454 269.442L557.234 282.532L543.174 287.092L542.654 287.262L541.554 287.622L519.114 294.922L510.564 297.702L503.154 300.112C503.044 300.142 502.924 300.162 502.804 300.182C502.724 300.172 502.644 300.172 502.554 300.162L483.724 297.702L461.054 294.742L450.454 293.362L427.254 290.322L404.994 287.422L404.444 287.352L403.894 287.272L337.484 278.602L336.924 278.522C336.795 278.51 336.669 278.473 336.554 278.412C336.287 278.292 336.065 278.089 335.921 277.834C335.777 277.578 335.719 277.283 335.754 276.992C335.781 276.748 335.874 276.516 336.024 276.322C336.084 276.262 336.134 276.202 336.194 276.152C336.244 276.122 336.304 276.062 336.364 276.032C336.633 275.847 336.961 275.769 337.284 275.812L340.604 276.252L403.894 284.522L404.444 284.592L404.994 284.662L437.784 288.952L449.984 290.542L482.094 294.742L502.604 297.422L510.854 294.742L537.094 286.212L541.554 284.762L542.104 284.582L542.654 284.402L556.384 279.942L597.224 266.652L600.884 265.462L601.594 265.232C601.9 265.136 602.23 265.15 602.526 265.273C602.823 265.395 603.066 265.618 603.214 265.902C603.25 265.97 603.281 266.04 603.304 266.112C603.394 266.393 603.391 266.696 603.295 266.975C603.2 267.254 603.017 267.495 602.774 267.662Z" fill="#3F3D56"/>
<path d="M464.683 361.703C463.805 361.703 462.928 361.635 462.061 361.5L361.656 345.819C358.208 345.27 355.009 343.686 352.481 341.278C349.954 338.87 348.218 335.75 347.502 332.333L336.297 277.943L336.987 278.027L504.834 298.317L480.293 351.716C478.913 354.695 476.71 357.217 473.945 358.986C471.179 360.756 467.966 361.698 464.683 361.703Z" fill="#3F3D56"/>
<path d="M290.396 424.717L302.623 422.167L298.61 373.792L280.564 377.555L290.396 424.717Z" fill="#9E616A"/>
<path d="M284.994 419.547L288.649 449.245L288.657 449.305L288.942 449.245L297.335 447.493L297.177 438.98L302.848 446.35L308.278 445.222V445.214L319.242 442.928L320.13 442.747L323.514 442.041L325.861 441.552C326.739 441.367 327.556 440.961 328.235 440.373C328.913 439.785 329.431 439.034 329.739 438.191C330.048 437.348 330.136 436.44 329.997 435.553C329.858 434.666 329.495 433.83 328.944 433.121C328.521 432.585 328 432.134 327.41 431.79C327.334 431.753 327.259 431.708 327.184 431.67H327.177C327.063 431.61 326.951 431.557 326.831 431.504L326.628 431.414L323.04 429.903L323.025 429.895L313.557 425.909L305.811 422.645L304.089 414.365L302.021 414.929L289.085 418.434L284.994 419.547Z" fill="#2F2E41"/>
<path d="M206.363 385.222L215.859 393.337L251.675 360.573L237.661 348.597L206.363 385.222Z" fill="#9E616A"/>
<path d="M192.582 404.646L199.223 399.311L196.867 408.302L214.736 423.573C215.258 424.023 215.864 424.364 216.519 424.577C217.013 424.737 217.527 424.824 218.047 424.836C218.866 424.856 219.679 424.685 220.421 424.336C221.163 423.988 221.814 423.471 222.322 422.827C222.83 422.184 223.181 421.431 223.348 420.628C223.515 419.825 223.492 418.995 223.282 418.202L217.432 396.151L222.93 389.722L221.219 388.432L210.531 380.343L207.15 377.787L185.848 398.883L192.582 404.646Z" fill="#2F2E41"/>
<path d="M254.395 192.062L313.26 189.798L315.475 130.072L265.735 131.669L254.395 192.062Z" fill="#9E616A"/>
<path d="M298.408 58.8301C310.788 58.8301 320.825 48.7935 320.825 36.4127C320.825 24.0319 310.788 13.9953 298.408 13.9953C286.027 13.9953 275.99 24.0319 275.99 36.4127C275.99 48.7935 286.027 58.8301 298.408 58.8301Z" fill="#9E616A"/>
<path d="M279.061 16.7248L304.872 3.80042C310.149 6.17834 314.694 9.92472 318.035 14.651C321.376 19.3773 323.392 24.9115 323.873 30.6794L324.517 38.3857L313.708 35.6343L312.524 25.7803L310.689 34.8657L305.701 33.5966L305.748 18.2982L300.757 33.5856L282.942 29.4926L279.061 16.7248Z" fill="#2F2E41"/>
<path d="M314.393 176.214C314.393 176.214 334.005 210.302 315.07 262.022L288.295 330.297L241.772 377.378L216.77 362.598L263.255 323.185L242.524 252.911C237.751 236.985 236.279 220.251 238.2 203.736C239.694 191.378 250.846 181.735 258.475 170.072C283.95 186.504 313.293 183.86 314.393 176.214Z" fill="#2F2E41"/>
<path d="M288.327 313.032L305.783 394.118L280.532 398.879L266.152 330.714L288.327 313.032Z" fill="#2F2E41"/>
<path d="M281.979 66.3259L310.962 66.7122L320.395 78.6902C324.901 79.7527 328.994 82.1159 332.167 85.4861C335.34 88.8562 337.453 93.0847 338.242 97.6457L339.132 102.788C340.973 113.427 339.018 124.375 333.61 133.719L315.915 150.421L316.682 151.815C317.062 152.505 317.173 153.31 316.995 154.076C316.818 154.842 316.364 155.516 315.72 155.968C316.263 157.338 316.326 158.851 315.899 160.261L315.525 161.497C315.525 161.497 325.445 164.135 264.242 155.05C262.945 154.857 261.747 154.246 260.827 153.311C259.908 152.376 259.319 151.167 259.148 149.867C258.483 149.198 258.045 148.337 257.895 147.406C257.745 146.474 257.892 145.519 258.314 144.676L258.439 144.426L257.81 143.686C257.111 142.863 256.707 141.829 256.662 140.749C256.618 139.67 256.936 138.606 257.565 137.728L257.404 102.656C256.668 97.393 257.826 92.0399 260.672 87.5517C263.517 83.0635 267.864 79.7321 272.938 78.1519L281.979 66.3259Z" fill="#E6E6E6"/>
<path d="M364.422 216.262C364.407 214.883 364.091 213.525 363.494 212.282C362.898 211.039 362.036 209.943 360.97 209.069C359.903 208.195 358.659 207.566 357.323 207.225C355.987 206.885 354.593 206.841 353.238 207.098L336.554 178.039L328.721 193.59L345.766 218.801C346.347 221.048 347.733 223.003 349.66 224.296C351.587 225.589 353.922 226.131 356.222 225.818C358.521 225.505 360.626 224.359 362.138 222.598C363.649 220.837 364.462 218.582 364.422 216.262Z" fill="#9E616A"/>
<path d="M272.817 97.7098L263.499 99.1472C263.499 99.1472 260.648 105.24 267.172 117.038C273.695 128.835 335.591 204.321 335.591 204.321L340.823 184.758L304.846 118.575L272.817 97.7098Z" fill="#E6E6E6"/>
<path d="M860.485 449.488H1.19115C0.875955 449.487 0.573992 449.362 0.35144 449.138C0.128889 448.915 0.00390625 448.613 0.00390625 448.298C0.00390625 447.983 0.128889 447.68 0.35144 447.457C0.573992 447.234 0.875955 447.108 1.19115 447.107H860.485C860.801 447.107 861.104 447.232 861.327 447.456C861.55 447.679 861.676 447.982 861.676 448.298C861.676 448.614 861.55 448.916 861.327 449.14C861.104 449.363 860.801 449.488 860.485 449.488Z" fill="#CCCCCC"/>
</g>
<defs>
<clipPath id="clip0_687_847">
<rect width="861.675" height="449.488" fill="white"/>
</clipPath>
</defs>
</svg>
