<svg width="766" height="607" viewBox="0 0 766 607" fill="none" xmlns="http://www.w3.org/2000/svg">
<g clip-path="url(#clip0_691_1702)">
<path d="M676.254 456.606C676.91 456.636 677.559 456.464 678.113 456.113C678.668 455.762 679.101 455.249 679.354 454.643C679.607 454.037 679.668 453.369 679.529 452.727C679.389 452.086 679.056 451.503 678.574 451.057C678.493 450.736 678.435 450.506 678.355 450.185C678.383 450.115 678.412 450.045 678.442 449.976C679.102 448.415 680.209 447.085 681.623 446.152C683.037 445.218 684.695 444.724 686.389 444.73C688.083 444.737 689.738 445.243 691.145 446.187C692.552 447.131 693.649 448.469 694.298 450.035C696.891 456.282 700.193 462.539 701.006 469.144C701.364 472.064 701.213 475.024 700.559 477.891C706.65 464.603 709.813 450.159 709.834 435.54C709.835 431.872 709.631 428.206 709.223 424.561C708.886 421.572 708.419 418.604 707.82 415.658C704.556 399.673 697.546 384.69 687.368 371.94C682.441 369.252 678.457 365.118 675.953 360.095C675.045 358.289 674.404 356.362 674.049 354.373C674.604 354.446 675.169 354.491 675.725 354.528C675.898 354.537 676.08 354.546 676.253 354.555L676.319 354.558C676.929 354.585 677.535 354.436 678.063 354.127C678.59 353.818 679.017 353.363 679.293 352.817C679.568 352.271 679.679 351.657 679.614 351.049C679.548 350.441 679.308 349.865 678.923 349.39C678.683 349.095 678.443 348.8 678.203 348.505C677.838 348.049 677.465 347.603 677.101 347.147C677.059 347.104 677.019 347.058 676.982 347.01C676.563 346.491 676.144 345.981 675.725 345.461C676.49 344.274 677.519 343.279 678.731 342.555C682.931 340.095 688.725 341.799 691.759 345.598C694.802 349.398 695.376 354.728 694.319 359.475C693.28 363.515 691.561 367.348 689.235 370.81C689.463 371.102 689.7 371.384 689.928 371.676C694.091 377.03 697.72 382.78 700.762 388.843C700.022 382.051 700.905 375.181 703.338 368.797C705.804 362.847 710.426 357.837 714.496 352.693C719.385 346.515 729.41 349.211 730.271 357.043C730.279 357.119 730.287 357.195 730.295 357.27C729.691 357.611 729.099 357.973 728.52 358.356C727.793 358.843 727.229 359.537 726.903 360.349C726.577 361.161 726.504 362.052 726.693 362.907C726.882 363.761 727.325 364.538 727.964 365.136C728.602 365.734 729.406 366.126 730.271 366.259L730.359 366.273C730.144 368.452 729.763 370.612 729.22 372.733C727.648 378.655 724.869 384.189 721.058 388.987C717.247 393.785 712.486 397.743 707.073 400.615C706.718 400.797 706.372 400.979 706.017 401.152C709.073 409.815 710.99 418.839 711.72 427.996C712.133 433.398 712.108 438.825 711.647 444.224L711.674 444.032C712.84 438.029 716.042 432.613 720.739 428.697C727.715 422.966 737.57 420.855 745.096 416.249C745.896 415.735 746.826 415.461 747.776 415.459C748.726 415.456 749.658 415.726 750.46 416.235C751.262 416.745 751.902 417.474 752.304 418.335C752.706 419.197 752.853 420.155 752.728 421.097C752.718 421.164 752.708 421.231 752.698 421.299C751.576 421.755 750.483 422.282 749.427 422.875C748.822 423.216 748.231 423.578 747.652 423.961C746.924 424.447 746.361 425.141 746.035 425.953C745.709 426.765 745.635 427.657 745.825 428.511C746.014 429.365 746.457 430.142 747.095 430.741C747.733 431.339 748.538 431.73 749.402 431.864L749.491 431.877C749.555 431.886 749.609 431.895 749.673 431.905C747.756 436.482 745.066 440.696 741.72 444.36C737.586 448.796 732.59 452.341 727.038 454.778C721.487 457.214 715.496 458.491 709.433 458.529H709.424C707.778 465.682 705.393 472.644 702.309 479.304H676.891C676.8 479.021 676.718 478.73 676.636 478.447C678.989 478.595 681.351 478.454 683.669 478.028C681.783 475.714 679.897 473.381 678.012 471.067C677.97 471.023 677.93 470.978 677.893 470.93C676.937 469.746 675.971 468.57 675.014 467.386L675.014 467.384C674.963 463.753 675.379 460.131 676.253 456.606L676.254 456.606Z" fill="#F2F2F2"/>
<path d="M376.502 479.647C376.502 479.786 376.529 479.923 376.581 480.051C376.634 480.18 376.712 480.296 376.81 480.394C376.908 480.492 377.024 480.57 377.152 480.622C377.28 480.675 377.418 480.702 377.556 480.702H764.946C765.225 480.702 765.494 480.591 765.691 480.393C765.889 480.195 766 479.927 766 479.647C766 479.368 765.889 479.1 765.691 478.902C765.494 478.704 765.225 478.593 764.946 478.593H377.556C377.418 478.593 377.28 478.62 377.152 478.672C377.024 478.725 376.908 478.803 376.81 478.901C376.712 478.999 376.634 479.115 376.581 479.243C376.529 479.372 376.502 479.509 376.502 479.647Z" fill="#CCCCCC"/>
<path d="M563.148 344.208C564.607 343.859 566.124 343.834 567.594 344.135C569.064 344.436 570.449 345.055 571.654 345.95C572.858 346.844 573.852 347.992 574.565 349.312C575.277 350.633 575.692 352.093 575.78 353.591L597.926 361.299L596.525 375.902L565.403 364.577C562.877 364.557 560.447 363.611 558.572 361.919C556.696 360.227 555.507 357.905 555.229 355.394C554.951 352.884 555.604 350.358 557.063 348.296C558.523 346.235 560.688 344.78 563.148 344.208Z" fill="#FFB6B6"/>
<path d="M599.24 386.652C608.046 392.791 623.559 395.931 644.673 395.787C645.842 395.79 646.999 395.55 648.07 395.083C649.142 394.616 650.105 393.931 650.898 393.072C656.547 387.188 656.327 373.757 656.291 372.459L662.484 349.119C662.616 348.762 666.044 339.185 662.557 332.498C661.815 331.101 660.779 329.881 659.522 328.922C658.264 327.964 656.813 327.288 655.27 326.944C642.174 323.468 629.864 358.528 628.3 363.16L609.922 360.03L597.23 359.508L584.318 352.38L577.048 369.781L595.039 382.931C596.28 384.34 597.691 385.59 599.24 386.652Z" fill="#2F2E41"/>
<path d="M563.781 579.642L550.244 580.275L541.362 528.353L561.342 527.419L563.781 579.642Z" fill="#FFB6B6"/>
<path d="M566.824 572.806L545.365 572.53L545.794 581.699L526.106 596.704C525.134 597.445 524.423 598.478 524.079 599.651C523.735 600.824 523.775 602.077 524.193 603.226C524.61 604.375 525.385 605.36 526.402 606.038C527.42 606.716 528.627 607.051 529.848 606.994L555.325 605.802L559.293 596.526L561.431 605.516L571.037 605.067L566.824 572.806Z" fill="#2F2E41"/>
<path d="M422.443 468.159L417.512 455.534L463.853 430.501L487.264 445.218L422.443 468.159Z" fill="#FFB6B6"/>
<path d="M429.893 468.856L423.287 448.434L414.738 451.775L394.224 437.921C393.21 437.237 392.005 436.895 390.784 436.944C389.562 436.993 388.388 437.432 387.434 438.195C386.479 438.959 385.793 440.008 385.477 441.189C385.16 442.37 385.23 443.622 385.675 444.761L394.957 468.52L405.013 469.311L397.182 474.214L400.681 483.173L429.893 468.856Z" fill="#2F2E41"/>
<path d="M688.666 430.584C688.666 430.584 683.044 466.482 656.467 469.14C629.891 471.799 605.393 459.823 605.393 459.823L530.978 436.902C530.978 436.902 451.827 459.394 438.539 462.938C438.539 462.938 429.373 442.13 429.68 440.787C432.506 428.42 436.188 436.786 436.188 436.786L520.347 399.573C520.347 399.573 533.636 396.029 556.669 405.775C579.702 415.522 641.407 439.015 641.407 439.015L688.666 430.584Z" fill="#2F2E41"/>
<path d="M688.358 428.383C688.358 428.383 692.79 471.388 666.902 477.958C642.292 484.203 608.346 477.797 608.346 477.797L567.877 473.571C567.877 473.571 566.106 525.577 566.106 551.272C557.884 552.389 549.598 552.981 541.301 553.044C539.529 553.044 539.412 552.115 539.412 552.115L535.981 462.233C535.74 458.325 536.32 454.41 537.683 450.74C539.046 447.07 541.162 443.725 543.895 440.922C546.628 438.119 549.918 435.92 553.552 434.465C557.187 433.01 561.085 432.333 564.997 432.476C566.908 432.549 568.912 432.684 571.009 432.882C595.905 435.269 626.812 430.194 626.812 430.194L688.358 428.383Z" fill="#2F2E41"/>
<path d="M616.55 365.997C616.55 365.997 606.039 429.564 613.142 434.638C620.245 439.713 629.985 439.732 629.985 439.732L632.25 404.635L616.55 365.997Z" fill="#2F2E41"/>
<path d="M634.08 287.927L620.028 301.283C613.496 307.49 609.167 315.659 607.696 324.55C606.225 333.44 607.693 342.568 611.878 350.549L618.595 363.361L634.08 287.927Z" fill="#2F2E41"/>
<path d="M637.222 290.173L618.181 311.865C614.002 316.625 611.412 322.572 610.773 328.874C610.482 331.736 610.599 334.625 611.119 337.454L618.295 376.47L623.689 432.814C623.689 432.814 665.328 445.432 669.591 425.947C673.853 406.462 637.222 290.173 637.222 290.173Z" fill="#83BB62"/>
<path d="M655.094 438.109C682.467 433.547 689.172 432.641 689.589 432.481L690.008 432.321L687.264 415.855L675.679 387.383C674.926 378.069 670.047 365.45 672.838 355.314C680.954 325.847 667.769 284.207 661.739 281.017L645.023 270.057L639.155 275.438L628.982 289.682C620.611 326.976 614.829 361.737 615.11 363.862L620.277 400.372L626.365 414.377C644.833 423.289 632.414 441.889 655.094 438.109Z" fill="#2F2E41"/>
<path d="M605.539 411.324L562.561 399.823L558.777 398.926L556.078 398.285L552.934 397.541L552.909 397.535C552.452 397.431 551.972 397.511 551.574 397.758L535.616 416.894C535.471 416.983 535.344 417.097 535.24 417.231C535.197 417.266 535.159 417.306 535.127 417.35C534.95 417.591 534.835 417.872 534.793 418.168C534.75 418.463 534.781 418.765 534.882 419.046C534.984 419.327 535.153 419.579 535.374 419.779C535.596 419.979 535.863 420.122 536.153 420.195L600.268 434.952C600.6 435.027 600.947 435.007 601.268 434.893C601.589 434.78 601.872 434.578 602.083 434.31L602.733 433.467L606.281 416.38L606.534 414.161C606.695 413.955 606.808 413.717 606.867 413.463C606.97 413.003 606.888 412.522 606.64 412.122C606.392 411.722 605.996 411.435 605.539 411.324Z" fill="#E6E6E6"/>
<path opacity="0.17" d="M602.732 433.466L602.078 434.312C601.867 434.578 601.585 434.78 601.265 434.893C600.945 435.007 600.599 435.027 600.267 434.953L536.151 420.195C535.861 420.123 535.594 419.981 535.372 419.78C535.15 419.58 534.982 419.329 534.88 419.048C534.779 418.767 534.749 418.465 534.791 418.17C534.834 417.874 534.949 417.594 535.126 417.353C535.157 417.308 535.195 417.267 535.238 417.233L602.732 433.466Z" fill="black"/>
<path d="M553.253 397.416L554.413 315.667C554.461 315.175 554.313 314.683 553.999 314.301L545.784 297.199L544.93 296.162C544.613 295.783 544.16 295.543 543.668 295.495L541.879 295.328C541.387 295.279 540.895 295.429 540.513 295.743C540.13 296.057 539.888 296.51 539.839 297.003L538.229 383.5L538.228 383.507L537.43 391.835L536.484 401.725L536.482 401.737L535.006 417.124C534.978 417.388 535.008 417.654 535.093 417.904C535.178 418.154 535.317 418.383 535.499 418.575C535.677 418.769 535.894 418.923 536.136 419.027C536.378 419.131 536.64 419.181 536.903 419.176L538.067 419.153C538.513 419.141 538.941 418.972 539.275 418.676L539.926 418.091L540.227 417.817L552.636 398.631C552.988 398.319 553.209 397.885 553.253 397.416Z" fill="#E6E6E6"/>
<path opacity="0.17" d="M545.781 297.199L540.229 417.82L539.925 418.091L539.277 418.674C538.943 418.971 538.515 419.14 538.068 419.151L536.903 419.174C536.639 419.179 536.378 419.128 536.136 419.024C535.893 418.92 535.675 418.767 535.496 418.573C535.317 418.38 535.181 418.151 535.097 417.901C535.012 417.651 534.981 417.387 535.006 417.124L539.842 297.005C539.89 296.512 540.131 296.058 540.513 295.743C540.895 295.428 541.386 295.277 541.879 295.324L543.671 295.496C543.914 295.519 544.151 295.589 544.366 295.704C544.582 295.819 544.773 295.975 544.927 296.164L545.781 297.199Z" fill="black"/>
<path d="M545.315 302.073L552.828 320.622L551.899 376.112L543.765 387.877L545.315 302.073Z" fill="#83BB62"/>
<path d="M600.585 410.834C600.996 410.951 601.344 411.227 601.552 411.601C601.76 411.975 601.811 412.415 601.694 412.827L598.384 426.623L595.283 425.74L598.593 411.944C598.71 411.532 598.986 411.184 599.359 410.976C599.733 410.768 600.174 410.717 600.585 410.834Z" fill="#2F2E41"/>
<path d="M594.382 409.068C594.793 409.185 595.141 409.461 595.349 409.835C595.557 410.208 595.608 410.649 595.491 411.06L594.785 413.542L591.683 412.659L592.39 410.177C592.507 409.766 592.783 409.418 593.156 409.21C593.53 409.002 593.971 408.951 594.382 409.068Z" fill="#2F2E41"/>
<path d="M588.179 407.301C588.59 407.419 588.938 407.694 589.146 408.068C589.354 408.442 589.405 408.883 589.288 409.294L588.582 411.775L585.48 410.892L586.187 408.411C586.304 407.999 586.58 407.651 586.953 407.443C587.327 407.235 587.768 407.184 588.179 407.301Z" fill="#2F2E41"/>
<path d="M581.976 405.535C582.387 405.652 582.735 405.928 582.943 406.302C583.151 406.675 583.202 407.116 583.085 407.528L582.378 410.009L579.277 409.126L579.984 406.644C580.101 406.233 580.377 405.885 580.75 405.677C581.124 405.469 581.565 405.418 581.976 405.535Z" fill="#2F2E41"/>
<path d="M575.775 403.768C576.186 403.886 576.534 404.161 576.742 404.535C576.95 404.909 577.001 405.35 576.884 405.761L576.177 408.242L573.076 407.359L573.782 404.878C573.9 404.466 574.175 404.119 574.549 403.91C574.923 403.702 575.363 403.651 575.775 403.768Z" fill="#2F2E41"/>
<path d="M569.572 402.002C569.983 402.119 570.331 402.395 570.539 402.769C570.747 403.142 570.798 403.583 570.681 403.995L569.974 406.476L566.873 405.593L567.579 403.111C567.697 402.7 567.972 402.352 568.346 402.144C568.719 401.936 569.16 401.885 569.572 402.002Z" fill="#2F2E41"/>
<path d="M563.368 400.235C563.78 400.353 564.127 400.628 564.335 401.002C564.543 401.376 564.595 401.817 564.478 402.228L563.771 404.709L560.67 403.826L561.376 401.345C561.493 400.933 561.769 400.586 562.143 400.378C562.516 400.17 562.957 400.118 563.368 400.235Z" fill="#2F2E41"/>
<path d="M557.165 398.469C557.576 398.586 557.924 398.862 558.132 399.235C558.34 399.609 558.391 400.05 558.274 400.461L557.568 402.943L554.467 402.06L555.173 399.578C555.29 399.167 555.566 398.819 555.94 398.611C556.313 398.403 556.754 398.352 557.165 398.469Z" fill="#2F2E41"/>
<path d="M593.081 414.725C593.492 414.843 593.84 415.118 594.048 415.492C594.256 415.866 594.307 416.307 594.19 416.718L593.484 419.199L590.383 418.316L591.089 415.835C591.206 415.423 591.482 415.076 591.856 414.868C592.229 414.66 592.67 414.608 593.081 414.725Z" fill="#2F2E41"/>
<path d="M586.878 412.959C587.289 413.076 587.637 413.352 587.845 413.726C588.053 414.099 588.104 414.54 587.987 414.952L587.281 417.433L584.179 416.55L584.886 414.068C585.003 413.657 585.279 413.309 585.652 413.101C586.026 412.893 586.467 412.842 586.878 412.959Z" fill="#2F2E41"/>
<path d="M580.675 411.192C581.086 411.31 581.434 411.585 581.642 411.959C581.85 412.333 581.901 412.774 581.784 413.185L581.078 415.666L577.976 414.783L578.683 412.302C578.8 411.89 579.076 411.543 579.449 411.335C579.823 411.127 580.264 411.075 580.675 411.192Z" fill="#2F2E41"/>
<path d="M574.472 409.426C574.883 409.543 575.231 409.819 575.439 410.192C575.647 410.566 575.698 411.007 575.581 411.418L574.875 413.9L571.773 413.017L572.48 410.535C572.597 410.124 572.873 409.776 573.246 409.568C573.62 409.36 574.061 409.309 574.472 409.426Z" fill="#2F2E41"/>
<path d="M568.269 407.659C568.68 407.777 569.028 408.052 569.236 408.426C569.444 408.8 569.495 409.241 569.378 409.652L568.671 412.134L565.57 411.25L566.277 408.769C566.394 408.358 566.67 408.01 567.043 407.802C567.417 407.594 567.858 407.542 568.269 407.659Z" fill="#2F2E41"/>
<path d="M562.066 405.893C562.477 406.01 562.825 406.286 563.033 406.659C563.241 407.033 563.292 407.474 563.175 407.885L562.468 410.367L559.367 409.484L560.073 407.002C560.191 406.591 560.466 406.243 560.84 406.035C561.214 405.827 561.654 405.776 562.066 405.893Z" fill="#2F2E41"/>
<path d="M555.865 404.126C556.276 404.244 556.623 404.52 556.831 404.893C557.039 405.267 557.091 405.708 556.974 406.119L556.267 408.601L553.166 407.717L553.872 405.236C553.989 404.825 554.265 404.477 554.639 404.269C555.012 404.061 555.453 404.009 555.865 404.126Z" fill="#2F2E41"/>
<path d="M591.779 420.383C592.19 420.5 592.538 420.776 592.746 421.149C592.954 421.523 593.005 421.964 592.888 422.375L592.181 424.857L589.08 423.974L589.786 421.492C589.904 421.081 590.179 420.733 590.553 420.525C590.926 420.317 591.367 420.266 591.779 420.383Z" fill="#2F2E41"/>
<path d="M585.575 418.616C585.987 418.733 586.334 419.009 586.542 419.383C586.75 419.757 586.802 420.197 586.685 420.609L585.978 423.09L582.877 422.207L583.583 419.726C583.7 419.314 583.976 418.966 584.35 418.758C584.723 418.55 585.164 418.499 585.575 418.616Z" fill="#2F2E41"/>
<path d="M579.372 416.85C579.784 416.967 580.131 417.243 580.339 417.617C580.547 417.99 580.598 418.431 580.481 418.842L579.775 421.324L576.674 420.441L577.38 417.959C577.497 417.548 577.773 417.2 578.147 416.992C578.52 416.784 578.961 416.733 579.372 416.85Z" fill="#2F2E41"/>
<path d="M573.171 415.083C573.582 415.201 573.93 415.476 574.138 415.85C574.346 416.224 574.397 416.665 574.28 417.076L573.574 419.557L570.472 418.674L571.179 416.193C571.296 415.781 571.572 415.433 571.945 415.225C572.319 415.017 572.76 414.966 573.171 415.083Z" fill="#2F2E41"/>
<path d="M566.968 413.317C567.379 413.434 567.727 413.71 567.935 414.084C568.143 414.457 568.194 414.898 568.077 415.309L567.371 417.791L564.269 416.908L564.976 414.426C565.093 414.015 565.369 413.667 565.742 413.459C566.116 413.251 566.557 413.2 566.968 413.317Z" fill="#2F2E41"/>
<path d="M560.765 411.55C561.176 411.668 561.524 411.943 561.732 412.317C561.94 412.691 561.991 413.132 561.874 413.543L561.168 416.024L558.066 415.141L558.773 412.66C558.89 412.248 559.166 411.901 559.539 411.693C559.913 411.484 560.354 411.433 560.765 411.55Z" fill="#2F2E41"/>
<path d="M554.562 409.784C554.973 409.901 555.321 410.177 555.529 410.551C555.737 410.924 555.788 411.365 555.671 411.777L554.964 414.258L551.863 413.375L552.57 410.893C552.687 410.482 552.962 410.134 553.336 409.926C553.71 409.718 554.151 409.667 554.562 409.784Z" fill="#2F2E41"/>
<path d="M572.786 399.077C573.618 397.829 574.713 396.778 575.995 395.999C577.277 395.219 578.714 394.731 580.205 394.567C581.696 394.403 583.205 394.569 584.626 395.051C586.046 395.534 587.343 396.322 588.426 397.361L609.902 387.944L618.807 399.601L588.292 412.473C586.427 414.177 584.002 415.138 581.477 415.173C578.952 415.208 576.501 414.315 574.59 412.664C572.678 411.013 571.439 408.718 571.106 406.213C570.774 403.709 571.371 401.17 572.786 399.077Z" fill="#FFB6B6"/>
<path d="M628.109 405.633C638.738 404.142 652.246 395.889 667.624 381.419C668.483 380.626 669.168 379.663 669.635 378.591C670.103 377.52 670.343 376.363 670.34 375.194C670.479 367.037 661.183 357.342 660.275 356.415L648.939 335.094C648.794 334.742 644.793 325.39 637.688 322.861C636.195 322.342 634.606 322.152 633.032 322.305C631.458 322.458 629.935 322.95 628.569 323.747C616.607 330.109 631.428 364.183 633.432 368.643L617.833 378.852L608.175 387.104L593.862 390.663L600.368 408.365L622.499 405.763C624.367 405.952 626.251 405.908 628.109 405.633Z" fill="#2F2E41"/>
<path d="M607.149 244.359C605.357 229.403 615.762 215.858 630.39 214.105C645.017 212.352 658.328 223.055 660.119 238.011C661.911 252.967 651.505 266.512 636.878 268.265C622.251 270.018 608.94 259.314 607.149 244.359Z" fill="#FFB6B6"/>
<path d="M703.098 220.947C697.967 216.236 694.993 209.526 690.679 203.995C686.366 198.463 679.464 193.877 673.014 196.058C668.567 197.561 665.525 202.009 664.278 206.71C663.031 211.412 663.29 216.401 663.558 221.287C662.474 211.31 654.754 202.437 645.332 200.341C635.911 198.245 625.516 203.088 620.794 211.774C618.039 209.773 614.646 208.852 611.258 209.186C607.87 209.52 604.723 211.085 602.412 213.586C597.875 218.737 597.786 227.518 602.217 232.864C606.648 238.21 615 239.398 620.554 235.473L622.885 237.153C622.198 241.429 625.075 246.038 629.114 247.133C632.39 248.02 636.775 247.282 638.337 250.421C639.428 252.614 638.194 255.242 636.781 257.198C635.368 259.153 633.657 261.202 633.754 263.662C633.9 267.373 638.006 269.493 641.552 269.855C650.101 270.727 658.877 265.764 662.795 257.841C662.87 257.688 662.954 257.534 663.045 257.379C665.325 253.613 666.813 249.422 667.419 245.062C668.024 240.701 667.734 236.263 666.567 232.018C666.093 230.352 666.214 229.056 667.337 228.514C672.189 226.169 686.804 228.119 691.489 230.902C696.176 233.686 700.134 237.638 704.688 240.653C709.242 243.669 714.833 245.746 719.966 244.161C724.078 242.891 727.288 239.411 729.252 235.442C731.215 231.472 732.086 227.016 732.814 222.603C724.164 229.086 711.175 228.363 703.098 220.947Z" fill="#2F2E41"/>
<path d="M1.56503 30.5542H404.017C404.436 30.5453 404.834 30.3727 405.127 30.0735C405.42 29.7743 405.584 29.3722 405.584 28.9535C405.584 28.5348 405.42 28.1327 405.127 27.8335C404.834 27.5343 404.436 27.3617 404.017 27.3528H1.56503C1.14645 27.3617 0.748047 27.5343 0.45517 27.8335C0.162323 28.1327 -0.00170898 28.5348 -0.00170898 28.9535C-0.00170898 29.3722 0.162323 29.7743 0.45517 30.0735C0.748047 30.3727 1.14645 30.5453 1.56503 30.5542Z" fill="#CACACA"/>
<path d="M376.623 19.1798C371.443 19.1798 367.243 14.8863 367.243 9.5899C367.243 4.29355 371.443 0 376.623 0C381.803 0 386.002 4.29355 386.002 9.5899C386.002 14.8863 381.803 19.1798 376.623 19.1798Z" fill="#3F3D56"/>
<path d="M344.22 19.1798C339.04 19.1798 334.841 14.8863 334.841 9.5899C334.841 4.29355 339.04 0 344.22 0C349.4 0 353.6 4.29355 353.6 9.5899C353.6 14.8863 349.4 19.1798 344.22 19.1798Z" fill="#3F3D56"/>
<path d="M311.82 19.1798C306.64 19.1798 302.441 14.8863 302.441 9.5899C302.441 4.29355 306.64 0 311.82 0C317 0 321.199 4.29355 321.199 9.5899C321.199 14.8863 317 19.1798 311.82 19.1798Z" fill="#3F3D56"/>
<path d="M21.0742 2.37695H44.0904C44.5466 2.38604 44.981 2.57367 45.3005 2.89957C45.6199 3.22546 45.7988 3.66362 45.7988 4.11998C45.7988 4.57634 45.6199 5.0145 45.3005 5.34039C44.981 5.66628 44.5466 5.85392 44.0904 5.86301H21.0742C20.618 5.85392 20.1836 5.66628 19.8641 5.34039C19.5447 5.0145 19.3658 4.57634 19.3658 4.11998C19.3658 3.66362 19.5447 3.22546 19.8641 2.89957C20.1836 2.57367 20.618 2.38604 21.0742 2.37695Z" fill="#3F3D56"/>
<path d="M21.0742 8.91968H44.0904C44.5466 8.92876 44.981 9.1164 45.3005 9.44229C45.6199 9.76818 45.7988 10.2063 45.7988 10.6627C45.7988 11.1191 45.6199 11.5572 45.3005 11.8831C44.981 12.209 44.5466 12.3966 44.0904 12.4057H21.0742C20.618 12.3966 20.1836 12.209 19.8641 11.8831C19.5447 11.5572 19.3658 11.1191 19.3658 10.6627C19.3658 10.2063 19.5447 9.76818 19.8641 9.44229C20.1836 9.1164 20.618 8.92876 21.0742 8.91968Z" fill="#3F3D56"/>
<path d="M21.074 15.4539H44.0902C44.5464 15.4629 44.9809 15.6505 45.3004 15.9764C45.6199 16.3023 45.7988 16.7405 45.7988 17.1969C45.7988 17.6533 45.6199 18.0915 45.3004 18.4174C44.9809 18.7433 44.5464 18.9309 44.0902 18.9399H21.074C20.6177 18.9309 20.1832 18.7433 19.8638 18.4174C19.5443 18.0915 19.3654 17.6533 19.3654 17.1969C19.3654 16.7405 19.5443 16.3023 19.8638 15.9764C20.1832 15.6505 20.6177 15.4629 21.074 15.4539Z" fill="#3F3D56"/>
<path d="M707.133 398.453L707.119 398.435L707.133 398.472V398.453Z" fill="#2F2E41"/>
<path d="M154.275 92.931C147.871 92.931 142.68 87.7386 142.68 81.3334C142.68 74.9283 147.871 69.7358 154.275 69.7358C160.68 69.7358 165.871 74.9283 165.871 81.3334C165.871 87.7386 160.68 92.931 154.275 92.931Z" fill="#E6E7E8"/>
<path d="M56.5405 107.014H162.417C162.87 107.015 163.32 106.926 163.74 106.753C164.159 106.58 164.54 106.326 164.862 106.005C165.183 105.684 165.438 105.303 165.612 104.884C165.785 104.464 165.875 104.015 165.875 103.561C165.875 103.107 165.785 102.657 165.612 102.238C165.438 101.819 165.183 101.438 164.862 101.117C164.54 100.796 164.159 100.542 163.74 100.369C163.32 100.195 162.87 100.107 162.417 100.107H56.5405C56.0866 100.107 55.637 100.195 55.2174 100.369C54.7978 100.542 54.4165 100.796 54.0953 101.117C53.7741 101.438 53.5193 101.819 53.3454 102.238C53.1715 102.657 53.082 103.107 53.082 103.561C53.082 104.015 53.1715 104.464 53.3454 104.884C53.5193 105.303 53.7741 105.684 54.0953 106.005C54.4165 106.326 54.7978 106.58 55.2174 106.753C55.637 106.926 56.0866 107.015 56.5405 107.014Z" fill="#E6E7E8"/>
<path d="M136.122 120.661H162.418C163.334 120.661 164.212 120.297 164.86 119.649C165.507 119.002 165.871 118.123 165.871 117.207C165.871 116.291 165.507 115.413 164.86 114.765C164.212 114.118 163.334 113.754 162.418 113.754H136.122C135.206 113.754 134.327 114.118 133.68 114.765C133.032 115.413 132.668 116.291 132.668 117.207C132.668 118.123 133.032 119.002 133.68 119.649C134.327 120.297 135.206 120.661 136.122 120.661Z" fill="#E6E7E8"/>
<path d="M154.275 273.951C147.871 273.951 142.68 268.759 142.68 262.353C142.68 255.948 147.871 250.756 154.275 250.756C160.68 250.756 165.871 255.948 165.871 262.353C165.871 268.759 160.68 273.951 154.275 273.951Z" fill="#E6E7E8"/>
<path d="M56.5421 288.034H162.418C163.334 288.034 164.212 287.671 164.86 287.023C165.507 286.375 165.871 285.497 165.871 284.581C165.871 283.665 165.507 282.787 164.86 282.139C164.212 281.491 163.334 281.127 162.418 281.127H56.5421C55.6263 281.127 54.7481 281.491 54.1005 282.139C53.453 282.787 53.0891 283.665 53.0891 284.581C53.0891 285.497 53.453 286.375 54.1005 287.023C54.7481 287.671 55.6263 288.034 56.5421 288.034Z" fill="#E6E7E8"/>
<path d="M136.122 301.681H162.418C163.334 301.681 164.212 301.317 164.86 300.67C165.507 300.022 165.871 299.143 165.871 298.227C165.871 297.311 165.507 296.433 164.86 295.785C164.212 295.138 163.334 294.774 162.418 294.774H136.122C135.206 294.774 134.327 295.138 133.68 295.785C133.032 296.433 132.668 297.311 132.668 298.227C132.668 299.143 133.032 300.022 133.68 300.67C134.327 301.317 135.206 301.681 136.122 301.681Z" fill="#E6E7E8"/>
<path d="M340.9 246.481C334.496 246.481 329.305 241.289 329.305 234.883C329.305 228.478 334.496 223.286 340.9 223.286C347.305 223.286 352.496 228.478 352.496 234.883C352.496 241.289 347.305 246.481 340.9 246.481Z" fill="#E6E7E8"/>
<path d="M243.165 260.564H349.041C349.957 260.564 350.835 260.2 351.483 259.553C352.13 258.905 352.494 258.027 352.494 257.111C352.494 256.195 352.13 255.316 351.483 254.669C350.835 254.021 349.957 253.657 349.041 253.657H243.165C242.249 253.657 241.371 254.021 240.724 254.669C240.076 255.316 239.712 256.195 239.712 257.111C239.712 258.027 240.076 258.905 240.724 259.553C241.371 260.2 242.249 260.564 243.165 260.564Z" fill="#E6E7E8"/>
<path d="M322.747 274.211H349.043C349.959 274.211 350.837 273.847 351.485 273.2C352.132 272.552 352.496 271.673 352.496 270.757C352.496 269.841 352.132 268.963 351.485 268.315C350.837 267.668 349.959 267.304 349.043 267.304H322.747C321.831 267.304 320.952 267.668 320.305 268.315C319.657 268.963 319.293 269.841 319.293 270.757C319.293 271.673 319.657 272.552 320.305 273.2C320.952 273.847 321.831 274.211 322.747 274.211Z" fill="#E6E7E8"/>
<path d="M154.275 176.618C147.871 176.618 142.68 171.425 142.68 165.02C142.68 158.615 147.871 153.422 154.275 153.422C160.68 153.422 165.871 158.615 165.871 165.02C165.871 171.425 160.68 176.618 154.275 176.618Z" fill="#E6E7E8"/>
<path d="M56.5421 190.701H162.418C163.334 190.701 164.212 190.337 164.86 189.689C165.507 189.042 165.871 188.163 165.871 187.247C165.871 186.332 165.507 185.453 164.86 184.805C164.212 184.158 163.334 183.794 162.418 183.794H56.5421C55.6263 183.794 54.7481 184.158 54.1005 184.805C53.453 185.453 53.0891 186.332 53.0891 187.247C53.0891 188.163 53.453 189.042 54.1005 189.689C54.7481 190.337 55.6263 190.701 56.5421 190.701Z" fill="#E6E7E8"/>
<path d="M98.7966 204.348H162.418C163.334 204.348 164.212 203.984 164.86 203.336C165.507 202.688 165.871 201.81 165.871 200.894C165.871 199.978 165.507 199.099 164.86 198.452C164.212 197.804 163.334 197.44 162.418 197.44H98.7966C97.8808 197.44 97.0024 197.804 96.3549 198.452C95.7073 199.099 95.3435 199.978 95.3435 200.894C95.3435 201.81 95.7073 202.688 96.3549 203.336C97.0024 203.984 97.8808 204.348 98.7966 204.348Z" fill="#E6E7E8"/>
<path d="M116.523 217.994H162.418C163.334 217.994 164.212 217.63 164.86 216.983C165.507 216.335 165.871 215.457 165.871 214.541C165.871 213.625 165.507 212.746 164.86 212.098C164.212 211.451 163.334 211.087 162.418 211.087H116.523C115.607 211.087 114.729 211.451 114.082 212.098C113.434 212.746 113.07 213.625 113.07 214.541C113.07 215.457 113.434 216.335 114.082 216.983C114.729 217.63 115.607 217.994 116.523 217.994Z" fill="#E6E7E8"/>
<path d="M259.998 89.6556V211.421C259.999 212.27 260.337 213.085 260.937 213.686C261.537 214.288 262.351 214.626 263.201 214.628H327.349C334.446 208.046 340.268 200.211 344.523 191.517C344.804 190.956 345.07 190.392 345.324 189.819C349.202 181.404 351.549 172.365 352.255 163.127C352.304 162.558 352.343 161.993 352.369 161.42C352.457 159.954 352.496 158.466 352.496 156.974C352.509 147.04 350.634 137.195 346.97 127.962C346.751 127.389 346.519 126.82 346.278 126.256C341.454 114.911 334.037 104.856 324.623 96.8986C324.063 96.4215 323.497 95.9576 322.925 95.5069L322.794 95.4017C315.427 89.5683 306.299 86.4084 296.903 86.4389H263.201C262.35 86.4416 261.535 86.7817 260.934 87.3848C260.334 87.9878 259.997 88.8045 259.998 89.6556Z" fill="#83BB62"/>
<path opacity="0.2" d="M259.827 127.962V126.256H288.436V86.439H290.138V126.256H322.925V95.5069C323.498 95.9577 324.064 96.4216 324.623 96.8986V126.256H346.278C346.519 126.82 346.751 127.389 346.97 127.962H324.623V161.42H352.369C352.343 161.993 352.304 162.558 352.255 163.127H324.623V189.819H345.324C345.07 190.392 344.804 190.956 344.523 191.517H324.623V213.954H322.925V191.517H290.138V213.954H288.436V191.517H259.827V189.819H288.436C288.436 186.313 287.747 182.842 286.406 179.603C285.065 176.365 283.099 173.422 280.621 170.943C278.142 168.464 275.2 166.498 271.962 165.157C268.724 163.816 265.253 163.126 261.748 163.127H259.827V161.42H288.436V127.962H259.827ZM290.138 189.819H322.925V163.127H290.138V189.819ZM290.138 161.42H322.925V160.75C322.925 156.444 322.076 152.181 320.429 148.202C318.781 144.224 316.366 140.61 313.321 137.565C310.276 134.52 306.662 132.105 302.684 130.458C298.706 128.81 294.443 127.962 290.138 127.962V161.42Z" fill="black"/>
<path d="M263.053 190.249C263.739 190.28 264.418 190.1 264.998 189.733C265.578 189.366 266.031 188.829 266.296 188.195C266.561 187.562 266.625 186.862 266.479 186.191C266.333 185.52 265.984 184.91 265.48 184.444C265.396 184.108 265.335 183.867 265.251 183.532C265.281 183.459 265.311 183.386 265.342 183.313C268.424 175.961 288.096 196.456 288.946 203.365C289.321 206.419 289.163 209.515 288.479 212.516C294.851 198.614 298.16 183.505 298.181 168.212C298.182 164.374 297.969 160.54 297.543 156.726C297.19 153.599 296.701 150.495 296.075 147.413C292.66 130.691 285.327 115.017 274.679 101.679C268.59 102.019 263.253 101.092 262.738 89.288C262.646 87.1884 261.089 85.3704 260.746 83.302C261.327 83.3783 261.918 83.4259 262.5 83.464C262.681 83.4735 262.871 83.4831 263.052 83.4926L263.121 83.4957C263.76 83.5244 264.393 83.3677 264.945 83.0446C265.497 82.7215 265.944 82.2458 266.232 81.6746C266.52 81.1034 266.636 80.4611 266.568 79.8251C266.499 79.1892 266.248 78.5866 265.845 78.0899C265.594 77.781 265.343 77.4722 265.092 77.1635C264.711 76.6869 264.32 76.2198 263.939 75.7433C263.895 75.698 263.853 75.6502 263.815 75.6002C263.376 75.0569 262.938 74.5231 262.5 73.9798C263.3 72.7376 264.376 71.697 265.645 70.9392C270.038 68.3656 276.099 70.1481 279.273 74.1228C282.456 78.0976 283.056 83.6738 281.951 88.6398C280.864 92.8655 279.066 96.8753 276.633 100.497C276.871 100.802 277.119 101.098 277.357 101.403C281.713 107.004 285.509 113.019 288.691 119.361C287.791 112.327 298.8 86.9254 303.058 81.5449C308.172 75.0821 318.66 77.9026 319.561 86.0952C319.569 86.1745 319.578 86.2538 319.586 86.3331C318.954 86.69 318.335 87.0687 317.729 87.4693C316.968 87.9778 316.378 88.7043 316.037 89.5537C315.696 90.403 315.62 91.3356 315.818 92.2292C316.016 93.1228 316.479 93.9357 317.147 94.5616C317.815 95.1874 318.656 95.5968 319.56 95.7363L319.653 95.7506C328.118 107.839 300.981 139.303 294.188 132.238C297.385 141.301 299.39 150.74 300.154 160.319C300.586 165.971 300.56 171.648 300.078 177.295L300.106 177.095C301.615 164.795 327.508 146.507 335.069 148.031C339.425 148.908 343.715 148.709 343.053 153.103C343.043 153.173 343.032 153.243 343.021 153.313C341.848 153.791 340.705 154.342 339.6 154.962C338.967 155.319 338.348 155.698 337.743 156.099C336.982 156.607 336.392 157.334 336.051 158.183C335.71 159.032 335.634 159.965 335.831 160.858C336.029 161.752 336.493 162.565 337.16 163.191C337.828 163.817 338.669 164.226 339.574 164.366L339.667 164.38C339.733 164.389 339.79 164.399 339.857 164.409C343.71 177.669 315.134 199.07 297.762 192.26H297.752C296.031 199.743 293.536 207.026 290.309 213.993H263.72C263.624 213.698 263.538 213.393 263.453 213.097C265.914 213.252 268.385 213.105 270.81 212.659C268.837 210.238 266.865 207.797 264.892 205.376C264.848 205.331 264.806 205.283 264.768 205.233C263.767 203.994 262.757 202.765 261.756 201.525L261.756 201.524C261.702 197.726 262.138 193.936 263.052 190.249L263.053 190.249ZM293.502 130.342L293.488 130.323L293.502 130.361V130.342ZM299.391 183.443L299.62 182.929C299.611 182.557 299.611 182.185 299.62 181.804C299.62 181.699 299.639 181.594 299.639 181.489C299.553 182.147 299.477 182.805 299.382 183.463L299.391 183.443Z" fill="#2F2E41"/>
</g>
<defs>
<clipPath id="clip0_691_1702">
<rect width="766" height="607" fill="white" transform="matrix(-1 0 0 1 766 0)"/>
</clipPath>
</defs>
</svg>
