<svg width="621" height="435" viewBox="0 0 621 435" fill="none" xmlns="http://www.w3.org/2000/svg">
<g clip-path="url(#clip0_687_795)">
<path d="M586.759 374.858C584.316 355.22 572.141 335.872 553.405 329.481C560.794 349.694 560.793 371.867 553.401 392.079C550.522 399.863 546.509 408.221 549.217 416.067C550.902 420.949 555.024 424.684 559.631 427.019C564.239 429.354 569.353 430.467 574.402 431.558L575.396 432.38C583.412 414.286 589.202 394.495 586.759 374.858Z" fill="#F0F0F0"/>
<path d="M553.219 329.853C564.129 342.073 570.911 357.419 572.599 373.711C573.025 377.212 572.896 380.758 572.218 384.219C571.447 387.569 569.794 390.652 567.429 393.147C565.27 395.517 562.788 397.692 561.243 400.546C560.474 402.019 560.025 403.637 559.926 405.295C559.827 406.953 560.079 408.614 560.667 410.167C562.031 414.077 564.718 417.263 567.455 420.288C570.493 423.647 573.702 427.087 574.994 431.539C575.15 432.079 575.979 431.805 575.822 431.266C573.575 423.519 566.052 419.119 562.465 412.142C560.791 408.886 560.088 405.106 561.657 401.67C563.03 398.664 565.588 396.419 567.794 394.038C570.137 391.638 571.857 388.701 572.802 385.483C573.655 382.068 573.92 378.533 573.587 375.029C572.962 367.128 571.097 359.375 568.063 352.053C564.646 343.677 559.821 335.948 553.796 329.198C553.423 328.781 552.848 329.438 553.219 329.853Z" fill="white"/>
<path d="M572.364 368.433C575.06 367.779 577.436 366.188 579.066 363.944C580.697 361.701 581.477 358.951 581.267 356.186C581.223 355.626 580.351 355.669 580.396 356.229C580.596 358.804 579.869 361.365 578.346 363.451C576.823 365.538 574.604 367.011 572.09 367.605C571.544 367.735 571.821 368.562 572.364 368.433Z" fill="white"/>
<path d="M568.681 392.089C563.811 389.182 560.216 384.548 558.613 379.11C558.455 378.571 557.627 378.845 557.785 379.383C559.464 385.039 563.214 389.854 568.288 392.868C568.772 393.155 569.162 392.374 568.681 392.089Z" fill="white"/>
<path d="M563.837 344.503C562.846 344.974 561.755 345.191 560.659 345.135C559.564 345.08 558.5 344.753 557.563 344.185C557.083 343.892 556.693 344.673 557.17 344.964C558.209 345.587 559.385 345.946 560.595 346.01C561.804 346.074 563.011 345.841 564.11 345.332C564.218 345.292 564.307 345.213 564.358 345.111C564.41 345.009 564.42 344.891 564.388 344.781C564.351 344.671 564.273 344.581 564.169 344.529C564.066 344.477 563.947 344.468 563.837 344.503Z" fill="white"/>
<path d="M496.295 364.556C496.59 364.748 496.884 364.939 497.179 365.138C501.125 367.731 504.853 370.641 508.328 373.838C508.6 374.081 508.873 374.331 509.138 374.582C517.426 382.374 524.195 391.636 529.101 401.898C531.049 405.983 532.684 410.211 533.991 414.544C535.795 420.528 537.275 427.161 540.846 432.056C541.213 432.57 541.612 433.062 542.039 433.528H574.315C574.388 433.491 574.462 433.462 574.536 433.425L575.824 433.484C575.772 433.255 575.714 433.02 575.662 432.792C575.633 432.659 575.596 432.527 575.566 432.394C575.544 432.306 575.522 432.218 575.507 432.137C575.5 432.107 575.493 432.078 575.486 432.056C575.471 431.975 575.448 431.901 575.434 431.827C575.11 430.51 574.776 429.192 574.432 427.875C574.432 427.867 574.432 427.867 574.425 427.86C571.781 417.827 568.276 407.927 563.38 398.873C563.232 398.6 563.085 398.321 562.923 398.048C560.693 393.979 558.134 390.1 555.272 386.447C553.698 384.453 552.024 382.539 550.257 380.713C545.681 376.005 540.394 372.046 534.587 368.98C523.011 362.87 509.609 360.53 497.238 364.262C496.921 364.357 496.612 364.453 496.295 364.556Z" fill="#F0F0F0"/>
<path d="M496.368 364.966C512.44 368.157 527.097 376.328 538.258 388.32C540.707 390.859 542.74 393.768 544.282 396.94C545.685 400.078 546.221 403.535 545.836 406.95C545.54 410.142 544.868 413.373 545.354 416.581C545.627 418.22 546.243 419.782 547.163 421.166C548.082 422.549 549.284 423.723 550.689 424.61C554.132 426.911 558.197 427.837 562.204 428.606C566.653 429.459 571.287 430.274 575 433.052C575.45 433.389 575.946 432.671 575.497 432.335C569.037 427.502 560.38 428.516 553.313 425.105C550.016 423.513 547.178 420.918 546.361 417.229C545.647 414.003 546.337 410.671 546.664 407.442C547.089 404.116 546.693 400.736 545.51 397.598C544.134 394.358 542.217 391.375 539.84 388.778C534.582 382.846 528.424 377.777 521.591 373.758C513.818 369.127 505.31 365.859 496.435 364.096C495.885 363.987 495.822 364.858 496.368 364.966Z" fill="white"/>
<path d="M534.893 384.248C536.652 382.103 537.59 379.402 537.541 376.63C537.492 373.857 536.458 371.192 534.625 369.11C534.253 368.69 533.582 369.249 533.955 369.669C535.666 371.605 536.629 374.087 536.669 376.669C536.71 379.252 535.825 381.763 534.176 383.751C533.818 384.183 534.537 384.677 534.893 384.248Z" fill="white"/>
<path d="M546.199 405.352C540.56 405.962 534.899 404.425 530.344 401.048C529.892 400.713 529.396 401.43 529.847 401.765C534.594 405.27 540.488 406.858 546.355 406.21C546.914 406.148 546.755 405.29 546.199 405.352Z" fill="white"/>
<path d="M513.67 370.274C513.162 371.245 512.421 372.076 511.513 372.69C510.605 373.305 509.559 373.685 508.468 373.795C507.909 373.85 508.068 374.708 508.624 374.654C509.829 374.526 510.984 374.105 511.988 373.428C512.993 372.751 513.816 371.839 514.387 370.77C514.449 370.674 514.472 370.558 514.452 370.445C514.431 370.332 514.369 370.232 514.277 370.163C514.181 370.098 514.064 370.073 513.95 370.094C513.837 370.114 513.736 370.179 513.67 370.274Z" fill="white"/>
<path d="M22.9773 226.687H126.807V225.215H24.4501V156.758H22.9773V226.687Z" fill="#E4E4E4"/>
<path d="M359.502 255.394H360.975V185.466H257.145V186.938H359.502V255.394Z" fill="#E4E4E4"/>
<path d="M207.807 99.3434H311.637V29.4149H310.164V97.8712H207.807V99.3434Z" fill="#E4E4E4"/>
<path d="M332.298 0C332.855 0.00104188 333.389 0.222927 333.782 0.616954C334.175 1.01098 334.396 1.54495 334.396 2.10167C334.396 2.65839 334.175 3.19236 333.782 3.58638C333.389 3.98041 332.855 4.20229 332.298 4.20334H289.648C289.091 4.20229 288.557 3.98041 288.164 3.58638C287.77 3.19236 287.549 2.65839 287.549 2.10167C287.549 1.54495 287.77 1.01098 288.164 0.616954C288.557 0.222927 289.091 0.00104188 289.648 0H332.298Z" fill="#3F3D56"/>
<path d="M332.298 12.3824C332.856 12.3824 333.39 12.6038 333.785 12.9979C334.179 13.3921 334.4 13.9267 334.4 14.4841C334.4 15.0415 334.179 15.576 333.785 15.9702C333.39 16.3643 332.856 16.5857 332.298 16.5857H289.648C289.091 16.5847 288.557 16.3628 288.164 15.9688C287.77 15.5748 287.549 15.0408 287.549 14.4841C287.549 13.9273 287.77 13.3934 288.164 12.9993C288.557 12.6053 289.091 12.3834 289.648 12.3824H332.298Z" fill="#3F3D56"/>
<path d="M2.1023 147.346C1.54537 147.345 1.01157 147.123 0.61813 146.729C0.224686 146.335 0.00373077 145.801 0.00373077 145.244C0.00373077 144.688 0.224686 144.154 0.61813 143.76C1.01157 143.366 1.54537 143.144 2.1023 143.143H44.7568C45.0333 143.142 45.3071 143.196 45.5627 143.301C45.8182 143.407 46.0504 143.562 46.2461 143.757C46.4417 143.952 46.597 144.184 46.7029 144.439C46.8088 144.694 46.8633 144.968 46.8633 145.244C46.8633 145.521 46.8088 145.794 46.7029 146.049C46.597 146.305 46.4417 146.537 46.2461 146.732C46.0504 146.927 45.8182 147.082 45.5627 147.187C45.3071 147.292 45.0333 147.346 44.7568 147.346H2.1023Z" fill="#2F2E41"/>
<path d="M2.1023 134.962C1.54537 134.961 1.01157 134.739 0.61813 134.345C0.224686 133.951 0.00373077 133.417 0.00373077 132.861C0.00373077 132.304 0.224686 131.77 0.61813 131.376C1.01157 130.982 1.54537 130.76 2.1023 130.759H44.7568C45.0333 130.758 45.3071 130.812 45.5627 130.918C45.8182 131.023 46.0504 131.178 46.2461 131.373C46.4417 131.568 46.597 131.8 46.7029 132.055C46.8088 132.311 46.8633 132.584 46.8633 132.861C46.8633 133.137 46.8088 133.411 46.7029 133.666C46.597 133.921 46.4417 134.153 46.2461 134.348C46.0504 134.543 45.8182 134.698 45.5627 134.803C45.3071 134.909 45.0333 134.963 44.7568 134.962H2.1023Z" fill="#2F2E41"/>
<path d="M182.772 247.297C198.356 247.297 213.589 242.678 226.547 234.023C239.504 225.369 249.603 213.068 255.567 198.676C261.53 184.284 263.091 168.448 260.05 153.17C257.01 137.892 249.506 123.858 238.487 112.843C227.467 101.828 213.428 94.3263 198.144 91.2873C182.859 88.2482 167.017 89.808 152.619 95.7693C138.222 101.731 125.916 111.826 117.258 124.778C108.601 137.73 103.98 152.958 103.98 168.536C104.003 189.417 112.312 209.437 127.083 224.202C141.855 238.968 161.882 247.274 182.772 247.297ZM182.772 91.2461C198.064 91.2461 213.013 95.779 225.729 104.272C238.444 112.764 248.354 124.835 254.206 138.958C260.058 153.081 261.589 168.621 258.606 183.614C255.623 198.607 248.259 212.378 237.445 223.187C226.632 233.997 212.855 241.358 197.856 244.34C182.858 247.322 167.311 245.791 153.183 239.942C139.055 234.092 126.979 224.185 118.483 211.475C109.987 198.765 105.452 183.822 105.452 168.536C105.475 148.044 113.629 128.399 128.124 113.909C142.62 99.4197 162.273 91.2693 182.772 91.2461Z" fill="#E4E4E4"/>
<path d="M214.435 108.176C209.555 108.176 205.598 104.221 205.598 99.3431C205.598 94.4647 209.555 90.51 214.435 90.51C219.315 90.51 223.271 94.4647 223.271 99.3431C223.271 104.221 219.315 108.176 214.435 108.176Z" fill="#83BB62"/>
<path d="M259.355 195.771C254.475 195.771 250.518 191.816 250.518 186.938C250.518 182.059 254.475 178.105 259.355 178.105C264.235 178.105 268.191 182.059 268.191 186.938C268.191 191.816 264.235 195.771 259.355 195.771Z" fill="#83BB62"/>
<path d="M129.751 235.52C124.871 235.52 120.915 231.565 120.915 226.687C120.915 221.808 124.871 217.854 129.751 217.854C134.632 217.854 138.588 221.808 138.588 226.687C138.588 231.565 134.632 235.52 129.751 235.52Z" fill="#83BB62"/>
<path d="M381.849 264.806C382.406 264.806 382.941 265.028 383.335 265.422C383.73 265.816 383.951 266.35 383.951 266.908C383.951 267.465 383.73 268 383.335 268.394C382.941 268.788 382.406 269.01 381.849 269.01H339.194C338.637 269.009 338.103 268.787 337.71 268.393C337.317 267.999 337.096 267.465 337.096 266.908C337.096 266.351 337.317 265.817 337.71 265.423C338.103 265.029 338.637 264.807 339.194 264.806H381.849Z" fill="#2F2E41"/>
<path d="M381.849 277.19C382.125 277.189 382.399 277.243 382.654 277.349C382.91 277.454 383.142 277.609 383.338 277.804C383.534 277.999 383.689 278.231 383.795 278.486C383.901 278.742 383.955 279.015 383.955 279.291C383.955 279.568 383.901 279.841 383.795 280.097C383.689 280.352 383.534 280.584 383.338 280.779C383.142 280.974 382.91 281.129 382.654 281.234C382.399 281.34 382.125 281.394 381.849 281.393H339.194C338.637 281.392 338.103 281.17 337.71 280.776C337.316 280.382 337.095 279.848 337.095 279.291C337.095 278.735 337.316 278.201 337.71 277.807C338.103 277.413 338.637 277.191 339.194 277.19H381.849Z" fill="#2F2E41"/>
<path d="M487.058 434.582H497.776C499.124 434.581 500.416 434.045 501.369 433.092C502.322 432.14 502.858 430.848 502.859 429.501V340.207C502.858 338.86 502.322 337.569 501.369 336.616C500.416 335.663 499.124 335.128 497.776 335.126H487.058C485.711 335.128 484.419 335.663 483.466 336.616C482.513 337.569 481.977 338.86 481.975 340.207V429.501C481.977 430.848 482.513 432.14 483.466 433.092C484.419 434.045 485.711 434.581 487.058 434.582Z" fill="#83BB62"/>
<path d="M458.599 434.582H469.317C470.665 434.581 471.957 434.045 472.91 433.092C473.863 432.14 474.399 430.848 474.4 429.501V340.207C474.399 338.86 473.863 337.569 472.91 336.616C471.957 335.663 470.665 335.128 469.317 335.126H458.599C457.252 335.128 455.959 335.663 455.007 336.616C454.054 337.569 453.518 338.86 453.516 340.207V429.501C453.518 430.848 454.054 432.14 455.007 433.092C455.959 434.045 457.252 434.581 458.599 434.582Z" fill="#83BB62"/>
<path d="M477.141 242.301C456.688 242.301 440.107 225.727 440.107 205.281C440.107 184.836 456.688 168.261 477.141 168.261C497.595 168.261 514.176 184.836 514.176 205.281C514.176 225.727 497.595 242.301 477.141 242.301Z" fill="#83BB62"/>
<path d="M464.57 366.79H491.213C496.749 366.811 502.193 365.369 506.993 362.611C511.793 359.853 515.779 355.876 518.547 351.083C521.316 346.29 522.768 340.851 522.758 335.317C522.747 329.782 521.274 324.349 518.488 319.566L481.229 255.057C480.815 254.34 480.219 253.744 479.501 253.33C478.784 252.916 477.97 252.698 477.141 252.698C476.313 252.698 475.499 252.916 474.781 253.33C474.064 253.744 473.468 254.34 473.054 255.057L436.545 318.267C433.705 323.185 432.209 328.763 432.209 334.442C432.209 340.12 433.705 345.698 436.545 350.616C439.385 355.533 443.47 359.617 448.39 362.456C453.309 365.295 458.89 366.79 464.57 366.79Z" fill="#2F2E41"/>
<path d="M468.401 220.822C466 220.755 463.013 220.672 460.711 218.991C460.025 218.47 459.462 217.805 459.061 217.044C458.66 216.283 458.43 215.443 458.387 214.583C458.345 213.972 458.446 213.36 458.68 212.794C458.914 212.228 459.277 211.724 459.738 211.321C460.94 210.306 462.696 210.068 464.588 210.624L462.627 196.305L464.066 196.108L466.371 212.941L465.169 212.39C463.776 211.751 461.864 211.426 460.676 212.43C460.384 212.692 460.156 213.019 460.011 213.383C459.866 213.748 459.807 214.141 459.838 214.532C459.874 215.172 460.046 215.796 460.345 216.364C460.643 216.931 461.06 217.427 461.568 217.819C463.359 219.126 465.74 219.295 468.441 219.371L468.401 220.822Z" fill="#2F2E41"/>
<path d="M447.69 197.54H455.512V198.992H447.69V197.54Z" fill="#2F2E41"/>
<path d="M472.379 197.54H480.201V198.992H472.379V197.54Z" fill="#2F2E41"/>
<path d="M485.853 358.51C486.16 357.863 486.327 357.157 486.34 356.441L488.166 289.945C488.225 287.178 487.183 284.5 485.267 282.501C483.352 280.502 480.721 279.345 477.953 279.285C475.185 279.225 472.506 280.266 470.506 282.18C468.505 284.094 467.347 286.724 467.287 289.491L465.461 355.987C465.433 357.334 465.941 358.637 466.873 359.61C467.805 360.583 469.085 361.147 470.432 361.178L481.147 361.41C482.128 361.431 483.093 361.168 483.928 360.654C484.762 360.139 485.431 359.395 485.853 358.51Z" fill="#83BB62"/>
<path d="M480.577 177.916C476.077 183.798 468.934 187.744 461.385 186.81C454.196 185.92 448.265 180.911 446.777 173.74C446.127 170.349 446.302 166.852 447.288 163.544C448.273 160.235 450.039 157.212 452.438 154.729C457.527 149.379 464.809 146.501 472.018 145.514C485.673 143.644 499.697 148.453 510.022 157.42C515.207 161.878 519.345 167.423 522.143 173.662C524.839 179.854 526.122 186.568 525.901 193.317C525.505 206.655 519.66 219.967 509.575 228.813C508.323 229.908 507.012 230.934 505.648 231.888C504.498 232.694 503.408 230.807 504.549 230.007C514.876 222.765 521.464 210.981 523.272 198.6C524.218 192.361 523.796 185.991 522.034 179.932C520.272 173.873 517.212 168.27 513.067 163.511C504.728 154.032 492.5 147.871 479.836 147.319C467.092 146.764 451.167 152.451 448.783 166.631C447.714 172.987 450.09 179.667 455.917 182.849C462.155 186.256 469.804 184.854 475.165 180.454C476.478 179.381 477.662 178.161 478.696 176.817C479.536 175.718 481.429 176.802 480.577 177.916Z" fill="#2F2E41"/>
<path d="M339.704 435H620.264C620.459 435 620.646 434.922 620.784 434.784C620.922 434.646 621 434.459 621 434.264C621 434.069 620.922 433.881 620.784 433.743C620.646 433.605 620.459 433.528 620.264 433.528H339.704C339.508 433.528 339.321 433.605 339.183 433.743C339.045 433.881 338.967 434.069 338.967 434.264C338.967 434.459 339.045 434.646 339.183 434.784C339.321 434.922 339.508 435 339.704 435Z" fill="#3F3D56"/>
</g>
<defs>
<clipPath id="clip0_687_795">
<rect width="621" height="435" fill="white" transform="matrix(-1 0 0 1 621 0)"/>
</clipPath>
</defs>
</svg>
