<svg width="558" height="391" viewBox="0 0 558 391" fill="none" xmlns="http://www.w3.org/2000/svg">
<g clip-path="url(#clip0_687_938)">
<path d="M552.774 254.62H166.249C164.864 254.619 163.535 254.068 162.556 253.088C161.576 252.109 161.025 250.781 161.023 249.396V10.0583H557.999V249.396C557.998 250.781 557.447 252.109 556.467 253.088C555.488 254.068 554.159 254.619 552.774 254.62Z" fill="#E6E6E6"/>
<path d="M541.44 239.663H177.583C176.183 239.662 174.84 239.105 173.85 238.115C172.859 237.125 172.302 235.783 172.301 234.382V37.2791C172.302 35.879 172.859 34.5367 173.85 33.5466C174.84 32.5566 176.183 31.9997 177.583 31.998H541.44C542.841 31.9996 544.184 32.5565 545.174 33.5465C546.164 34.5366 546.721 35.879 546.723 37.2791V234.382C546.721 235.783 546.164 237.125 545.174 238.115C544.184 239.105 542.841 239.662 541.44 239.663Z" fill="white"/>
<path d="M557.831 17.449H160.855V5.22424C160.857 3.83916 161.408 2.51125 162.388 1.53185C163.367 0.552446 164.696 0.00154241 166.081 0H552.606C553.991 0.00154241 555.32 0.552446 556.299 1.53185C557.279 2.51125 557.83 3.83916 557.831 5.22424L557.831 17.449Z" fill="#83BB62"/>
<path d="M173.676 12.034C175.399 12.034 176.797 10.637 176.797 8.91384C176.797 7.19063 175.399 5.7937 173.676 5.7937C171.952 5.7937 170.555 7.19063 170.555 8.91384C170.555 10.637 171.952 12.034 173.676 12.034Z" fill="white"/>
<path d="M185.521 12.034C187.245 12.034 188.642 10.637 188.642 8.91384C188.642 7.19063 187.245 5.7937 185.521 5.7937C183.798 5.7937 182.4 7.19063 182.4 8.91384C182.4 10.637 183.798 12.034 185.521 12.034Z" fill="white"/>
<path d="M197.369 12.034C199.093 12.034 200.49 10.637 200.49 8.91384C200.49 7.19063 199.093 5.7937 197.369 5.7937C195.645 5.7937 194.248 7.19063 194.248 8.91384C194.248 10.637 195.645 12.034 197.369 12.034Z" fill="white"/>
<path d="M247.199 67.3419H209.697V83.9365H247.199V67.3419Z" fill="#E6E6E6"/>
<path d="M322.201 101.76H284.699V118.355H322.201V101.76Z" fill="#E6E6E6"/>
<path d="M247.199 153.388H209.697V169.983H247.199V153.388Z" fill="#83BB62"/>
<path d="M322.201 187.807H284.699V204.401H322.201V187.807Z" fill="#83BB62"/>
<path d="M509.093 205.016H471.592V221.61H509.093V205.016Z" fill="#83BB62"/>
<path d="M471.591 136.179H434.09V152.773H471.591V136.179Z" fill="#E6E6E6"/>
<path d="M397.204 136.179H322.201V152.773H397.204V136.179Z" fill="#83BB62"/>
<path d="M397.204 49.5181H322.201V66.1127H397.204V49.5181Z" fill="#83BB62"/>
<path d="M172.195 31.6942V240.049H547.209V31.6942L172.195 31.6942ZM545.979 48.9548H509.83V32.9235H545.979V48.9548ZM322.938 169.778V153.747H396.465V169.778H322.938ZM396.465 171.007V187.038H322.938V171.007H396.465ZM396.465 101.965V117.996H322.938V101.965H396.465ZM322.938 100.736V84.7048H396.465V100.736H322.938ZM322.938 135.257V119.226H396.465V135.257H322.938ZM396.465 136.486V152.517H322.938V136.486H396.465ZM321.709 117.996H285.56V101.965H321.709V117.996ZM321.709 119.226V135.257H285.56V119.226H321.709ZM321.709 136.486V152.517H285.56V136.486H321.709ZM321.709 153.747V169.778H285.56V153.747H321.709ZM397.695 153.747H433.844V169.778H397.695L397.695 153.747ZM397.695 152.517V136.486H433.844V152.517H397.695ZM397.695 135.257V119.226H433.844V135.257H397.695ZM397.695 117.996V101.965H433.844V117.996H397.695ZM397.695 100.736V84.7048H433.844V100.736H397.695ZM397.695 83.4755V67.4442H433.844V83.4755H397.695ZM396.465 83.4755H322.938V67.4442H396.465L396.465 83.4755ZM321.709 83.4755H285.56V67.4442H321.709V83.4755ZM321.709 84.7048V100.736H285.56V84.7048H321.709ZM284.331 100.736H248.181V84.7048H284.331L284.331 100.736ZM284.331 101.965V117.996H248.181V101.965H284.331ZM284.331 119.226V135.257H248.181V119.226H284.331ZM284.331 136.486V152.517H248.181V136.486H284.331ZM284.331 153.747V169.778H248.181V153.747H284.331ZM284.331 171.007V187.038H248.181V171.007H284.331ZM285.56 171.007H321.709V187.038H285.56V171.007ZM321.709 188.267V204.298H285.56V188.267H321.709ZM322.938 188.267H396.465V204.298H322.938V188.267ZM397.695 188.267H433.844V204.298H397.695L397.695 188.267ZM397.695 187.038V171.007H433.844V187.038H397.695ZM435.073 171.007H471.223V187.038H435.073L435.073 171.007ZM435.073 169.778V153.747H471.223V169.778H435.073ZM435.073 152.517V136.486H471.223V152.517H435.073ZM435.073 135.257V119.226H471.223V135.257H435.073ZM435.073 117.996V101.965H471.223V117.996H435.073ZM435.073 100.736V84.7048H471.223V100.736H435.073ZM435.073 83.4755V67.4442H471.223V83.4755H435.073ZM435.073 66.215V50.184H471.223V66.215H435.073ZM433.844 66.215H397.695V50.184H433.844L433.844 66.215ZM396.465 66.215H322.938V50.184H396.465L396.465 66.215ZM321.709 66.215H285.56V50.184H321.709V66.215ZM284.331 66.215H248.181V50.184H284.331L284.331 66.215ZM284.331 67.4442V83.4755H248.181V67.4442H284.331ZM246.952 83.4755H210.803V67.4442H246.952V83.4755ZM246.952 84.7048V100.736H210.803V84.7048H246.952ZM246.952 101.965V117.996H210.803V101.965H246.952ZM246.952 119.226V135.257H210.803V119.226H246.952ZM246.952 136.486V152.517H210.803V136.486H246.952ZM246.952 153.747V169.778H210.803V153.747H246.952ZM246.952 171.007V187.038H210.803V171.007H246.952ZM246.952 188.267V204.298H210.803V188.267H246.952ZM248.181 188.267H284.331V204.298H248.181L248.181 188.267ZM284.331 205.528V221.559H248.181V205.528H284.331ZM285.56 205.528H321.709V221.559H285.56V205.528ZM322.938 205.528H396.465V221.559H322.938V205.528ZM397.695 205.528H433.844V221.559H397.695L397.695 205.528ZM435.073 205.528H471.223V221.559H435.073L435.073 205.528ZM435.073 204.298V188.267H471.223V204.298H435.073ZM472.452 188.267H508.601V204.298H472.452V188.267ZM472.452 187.038V171.007H508.601V187.038H472.452ZM472.452 169.778V153.747H508.601V169.778H472.452ZM472.452 152.517V136.486H508.601V152.517H472.452ZM472.452 135.257V119.226H508.601V135.257H472.452ZM472.452 117.996V101.965H508.601V117.996H472.452ZM472.452 100.736V84.7048H508.601V100.736H472.452ZM472.452 83.4755V67.4442H508.601V83.4755H472.452ZM472.452 66.215V50.184H508.601V66.215H472.452ZM472.452 48.9548V32.9235H508.601V48.9548L472.452 48.9548ZM471.223 48.9548H435.073V32.9235H471.223L471.223 48.9548ZM433.844 48.9548H397.695V32.9235H433.844L433.844 48.9548ZM396.465 48.9548H322.938V32.9235H396.465L396.465 48.9548ZM321.709 48.9548H285.56V32.9235H321.709V48.9548ZM284.331 48.9548H248.181V32.9235H284.331L284.331 48.9548ZM246.952 48.9548H210.803V32.9235H246.952V48.9548ZM246.952 50.184V66.215H210.803V50.184H246.952ZM209.574 66.215H173.425V50.184H209.574L209.574 66.215ZM209.574 67.4442V83.4755H173.425V67.4442H209.574ZM209.574 84.7048V100.736H173.425V84.7048H209.574ZM209.574 101.965V117.996H173.425V101.965H209.574ZM209.574 119.226V135.257H173.425V119.226H209.574ZM209.574 136.486V152.517H173.425V136.486H209.574ZM209.574 153.747V169.778H173.425V153.747H209.574ZM209.574 171.007V187.038H173.425V171.007H209.574ZM209.574 188.267V204.298H173.425V188.267H209.574ZM209.574 205.528V221.559H173.425V205.528H209.574ZM210.803 205.528H246.952V221.559H210.803L210.803 205.528ZM246.952 222.789V238.82H210.803V222.789H246.952ZM248.181 222.789H284.331V238.82H248.181L248.181 222.789ZM285.56 222.789H321.709V238.82H285.56L285.56 222.789ZM322.939 222.789H396.465V238.82H322.938L322.939 222.789ZM397.695 222.789H433.844V238.82H397.695V222.789ZM435.073 222.789H471.223V238.82H435.073L435.073 222.789ZM472.452 222.789H508.601V238.82H472.452V222.789ZM472.452 221.559V205.528H508.601V221.559H472.452ZM509.83 205.528H545.979V221.559H509.83V205.528ZM509.83 204.298V188.267H545.979V204.298H509.83ZM509.83 187.038V171.007H545.979V187.038H509.83ZM509.83 169.778V153.747H545.979V169.778H509.83ZM509.83 152.517V136.486H545.979V152.517H509.83ZM509.83 135.257V119.226H545.979V135.257H509.83ZM509.83 117.996V101.965H545.979V117.996H509.83ZM509.83 100.736V84.7048H545.979V100.736H509.83ZM509.83 83.4755V67.4442H545.979V83.4755H509.83ZM509.83 66.215V50.184H545.979V66.215H509.83ZM209.574 32.9235V48.9548H173.425V32.9235H209.574ZM173.425 222.789H209.574V238.82H173.425V222.789ZM509.83 238.82V222.789H545.979V238.82H509.83Z" fill="#E6E6E6"/>
<path d="M70.1117 144.586C70.1117 144.586 51.14 140.216 40.7055 148.228C30.2711 156.241 53.9857 174.451 53.9857 174.451L70.1117 144.586Z" fill="#2F2E41"/>
<path d="M89.7307 249.102C89.3506 248.101 89.1947 247.029 89.274 245.961C89.3533 244.893 89.6658 243.855 90.1896 242.921C90.7134 241.987 91.4356 241.179 92.3055 240.555C93.1754 239.93 94.1717 239.503 95.2243 239.305L99.0584 213.559L109.134 222.587L103.948 245.652C104.164 247.442 103.716 249.249 102.688 250.73C101.66 252.212 100.125 253.265 98.3723 253.69C96.6199 254.116 94.7722 253.884 93.1795 253.038C91.5868 252.192 90.3597 250.792 89.7307 249.102Z" fill="#FFB8B8"/>
<path d="M50.0176 382.76L58.9307 382.168L60.8907 347.517L47.7363 348.39L50.0176 382.76Z" fill="#FFB8B8"/>
<path d="M76.3418 390.243H48.2678V379.4H65.495C68.3718 379.4 71.1307 380.542 73.1649 382.576C75.199 384.609 76.3418 387.367 76.3418 390.243Z" fill="#2F2E41"/>
<path d="M65.4219 370.424L73.8016 373.517L89.7211 342.674L77.3529 338.11L65.4219 370.424Z" fill="#FFB8B8"/>
<path d="M87.0898 387.26L60.7529 377.541L64.509 367.368L80.6703 373.332C83.3691 374.328 85.5616 376.355 86.7654 378.967C87.9693 381.579 88.086 384.562 87.0898 387.26Z" fill="#2F2E41"/>
<path d="M89.7879 237.305C89.7879 237.305 98.8144 242.164 96.037 261.601L93.2596 335.182L77.9155 368.726L64.7229 365.255L73.1236 337.959L62.0141 290.061L60.5568 377.055L48.0587 379.138L30.0742 234.528L52.9876 224.116L89.7879 237.305Z" fill="#2F2E41"/>
<path d="M57.5244 136.328C67.4078 136.328 75.4198 128.318 75.4198 118.437C75.4198 108.557 67.4078 100.547 57.5244 100.547C47.641 100.547 39.6289 108.557 39.6289 118.437C39.6289 128.318 47.641 136.328 57.5244 136.328Z" fill="#FFB8B8"/>
<path d="M67.916 141.163L58.8895 155.741L45.697 142.552L21.0337 159.811C20.1684 160.415 19.5335 161.295 19.2326 162.306C18.9318 163.317 18.9828 164.401 19.3773 165.379C23.1711 174.758 32.8862 202.48 30.0742 234.528C30.0742 234.528 48.8215 229.669 68.2632 235.222C87.7049 240.776 92.5653 238.693 92.5653 238.693C92.5653 238.693 87.7049 203.291 90.4823 195.655C92.786 189.321 97.4786 168.181 99.0119 161.156C99.1566 160.493 99.084 159.8 98.8049 159.181C98.5259 158.562 98.055 158.049 97.462 157.718L67.916 141.163Z" fill="#83BB62"/>
<path d="M96.7469 157.802C97.5104 157.693 98.2875 157.866 98.9329 158.288C99.5782 158.71 100.048 159.353 100.254 160.096L112.007 202.528L109.23 228.212L96.0372 226.13L97.4259 208.082L87.7051 185.174L94.1221 160.154C94.2779 159.547 94.6104 158.999 95.0777 158.58C95.5449 158.162 96.1258 157.891 96.7469 157.802Z" fill="#83BB62"/>
<path d="M43.6856 93.323C44.8789 91.298 46.6088 89.6421 48.6842 88.5382C50.7596 87.4343 53.0997 86.9252 55.4463 87.0673C57.9009 87.375 60.2961 88.0453 62.5538 89.0563L74.2524 93.6185C77.2796 94.7991 80.595 96.2451 81.9086 99.2163C83.1278 101.974 82.2182 105.159 81.2974 108.03L76.9205 121.677C76.4357 118.589 75.6036 115.564 74.4402 112.662C73.1688 109.809 71.158 107.178 68.3779 105.752C65.3391 104.193 61.7576 104.226 58.3463 104.39C53.515 104.622 48.262 105.237 44.8293 108.644C43.0071 110.578 41.7717 112.99 41.2668 115.599C40.7698 118.195 40.5196 120.831 40.5197 123.473C38.5385 120.068 36.8696 116.492 35.5335 112.786C34.4344 110.027 33.8081 107.102 33.6808 104.135C33.566 101.143 34.5591 98.2131 36.4702 95.9069C38.4466 93.6986 41.667 92.5064 44.4991 93.3806" fill="#2F2E41"/>
<path d="M33.733 259.3C34.1131 258.299 34.2689 257.227 34.1897 256.159C34.1104 255.091 33.7979 254.053 33.2741 253.119C32.7503 252.185 32.0281 251.377 31.1582 250.752C30.2883 250.128 29.292 249.701 28.2394 249.503L24.4053 223.756L14.3301 232.785L19.5156 255.85C19.2997 257.64 19.748 259.447 20.7757 260.928C21.8033 262.41 23.3389 263.463 25.0914 263.888C26.8438 264.314 28.6915 264.081 30.2842 263.236C31.8769 262.39 33.104 260.99 33.733 259.3Z" fill="#FFB8B8"/>
<path d="M21.287 159.566C20.2355 159.741 19.2756 160.27 18.5664 161.066C17.8573 161.862 17.4416 162.876 17.3884 163.94L13.4102 243.484H27.9914L32.8518 201.14L26.6663 163.418C26.5669 162.812 26.3487 162.231 26.0244 161.709C25.7001 161.187 25.2759 160.734 24.7762 160.376C24.2765 160.018 23.7111 159.762 23.1123 159.623C22.5136 159.484 21.8933 159.465 21.287 159.566Z" fill="#83BB62"/>
<path d="M125.13 391H0V389.466H125.409L125.13 391Z" fill="#CCCCCC"/>
</g>
<defs>
<clipPath id="clip0_687_938">
<rect width="558" height="391" fill="white"/>
</clipPath>
</defs>
</svg>
