<svg width="710" height="507" viewBox="0 0 710 507" fill="none" xmlns="http://www.w3.org/2000/svg">
<g clip-path="url(#clip0_687_968)">
<path d="M32.8154 103.228C39.0636 103.228 44.1288 98.1622 44.1288 91.9133C44.1288 85.6644 39.0636 80.5986 32.8154 80.5986C26.5671 80.5986 21.502 85.6644 21.502 91.9133C21.502 98.1622 26.5671 103.228 32.8154 103.228Z" fill="#E6E6E6"/>
<path d="M66.7548 103.228C73.003 103.228 78.0682 98.1622 78.0682 91.9133C78.0682 85.6644 73.003 80.5986 66.7548 80.5986C60.5066 80.5986 55.4414 85.6644 55.4414 91.9133C55.4414 98.1622 60.5066 103.228 66.7548 103.228Z" fill="#E6E6E6"/>
<path d="M100.696 103.228C106.944 103.228 112.01 98.1622 112.01 91.9133C112.01 85.6644 106.944 80.5986 100.696 80.5986C94.448 80.5986 89.3828 85.6644 89.3828 91.9133C89.3828 98.1622 94.448 103.228 100.696 103.228Z" fill="#E6E6E6"/>
<path d="M134.636 103.228C140.884 103.228 145.949 98.1622 145.949 91.9133C145.949 85.6644 140.884 80.5986 134.636 80.5986C128.387 80.5986 123.322 85.6644 123.322 91.9133C123.322 98.1622 128.387 103.228 134.636 103.228Z" fill="#E6E6E6"/>
<path d="M168.575 103.228C174.823 103.228 179.889 98.1622 179.889 91.9133C179.889 85.6644 174.823 80.5986 168.575 80.5986C162.327 80.5986 157.262 85.6644 157.262 91.9133C157.262 98.1622 162.327 103.228 168.575 103.228Z" fill="#E6E6E6"/>
<path d="M202.517 103.228C208.765 103.228 213.83 98.1622 213.83 91.9133C213.83 85.6644 208.765 80.5986 202.517 80.5986C196.268 80.5986 191.203 85.6644 191.203 91.9133C191.203 98.1622 196.268 103.228 202.517 103.228Z" fill="#E6E6E6"/>
<path d="M236.456 103.228C242.704 103.228 247.769 98.1622 247.769 91.9133C247.769 85.6644 242.704 80.5986 236.456 80.5986C230.208 80.5986 225.143 85.6644 225.143 91.9133C225.143 98.1622 230.208 103.228 236.456 103.228Z" fill="#E6E6E6"/>
<path d="M262.6 105.692H6.67232C5.45171 105.691 4.28151 105.205 3.41841 104.342C2.55531 103.479 2.06979 102.308 2.06836 101.088V82.7394C2.06979 81.5186 2.5553 80.3483 3.41841 79.4851C4.28151 78.6219 5.45171 78.1363 6.67232 78.1349H262.6C263.821 78.1363 264.991 78.6219 265.854 79.4851C266.717 80.3483 267.203 81.5186 267.204 82.7394V101.088C267.203 102.308 266.717 103.479 265.854 104.342C264.991 105.205 263.821 105.691 262.6 105.692ZM6.67232 79.9767C5.93994 79.9775 5.23778 80.2688 4.71991 80.7867C4.20203 81.3047 3.91074 82.0069 3.90994 82.7394V101.088C3.91074 101.82 4.20204 102.522 4.71991 103.04C5.23778 103.558 5.93994 103.849 6.67232 103.85H262.6C263.332 103.849 264.035 103.558 264.552 103.04C265.07 102.522 265.362 101.82 265.362 101.088V82.7394C265.362 82.0069 265.07 81.3047 264.552 80.7867C264.035 80.2688 263.332 79.9775 262.6 79.9767L6.67232 79.9767Z" fill="#E6E6E6"/>
<path d="M61.4419 2.64554C62.1432 2.64634 62.8156 2.92533 63.3115 3.42128C63.8074 3.91724 64.0863 4.58966 64.0871 5.29104V62.6194C64.0863 63.3208 63.8074 63.9932 63.3115 64.4892C62.8156 64.9851 62.1432 65.2641 61.4419 65.2649H5.29054C4.58923 65.2641 3.91687 64.9851 3.42096 64.4892C2.92506 63.9932 2.64611 63.3208 2.64531 62.6194V5.29109C2.64611 4.58971 2.92506 3.91727 3.42096 3.42132C3.91687 2.92536 4.58923 2.64638 5.29054 2.64558L61.4419 2.64554ZM61.4419 3.79986e-05H5.29054C3.8874 3.79986e-05 2.54173 0.557489 1.54957 1.54976C0.557403 2.54203 0 3.88785 0 5.29113V62.6194C0 64.0227 0.557403 65.3685 1.54957 66.3608C2.54173 67.3531 3.8874 67.9105 5.29054 67.9105H61.4419C62.845 67.9105 64.1907 67.3531 65.1829 66.3608C66.175 65.3685 66.7324 64.0227 66.7324 62.6194V5.29109C66.7324 3.88781 66.175 2.54199 65.1829 1.54972C64.1907 0.557451 62.845 4.02002e-05 61.4419 3.79986e-05Z" fill="#E6E6E6"/>
<path d="M52.6832 17.7146H15.2194C15.045 17.7157 14.8722 17.6823 14.7108 17.6163C14.5494 17.5503 14.4026 17.453 14.2789 17.3301C14.1553 17.2071 14.0571 17.061 13.9901 16.9C13.9232 16.7389 13.8887 16.5663 13.8887 16.3919C13.8887 16.2175 13.9232 16.0448 13.9901 15.8838C14.0571 15.7228 14.1553 15.5766 14.2789 15.4537C14.4026 15.3307 14.5494 15.2335 14.7108 15.1675C14.8722 15.1015 15.045 15.068 15.2194 15.0691H52.6832C52.8576 15.068 53.0304 15.1015 53.1918 15.1675C53.3532 15.2335 53.5 15.3307 53.6237 15.4537C53.7474 15.5766 53.8455 15.7228 53.9125 15.8838C53.9795 16.0448 54.014 16.2175 54.014 16.3919C54.014 16.5663 53.9795 16.7389 53.9125 16.9C53.8455 17.061 53.7474 17.2071 53.6237 17.3301C53.5 17.453 53.3532 17.5503 53.1918 17.6163C53.0304 17.6823 52.8576 17.7157 52.6832 17.7146Z" fill="#83BB62"/>
<path d="M52.6832 27.0819H15.2194C15.045 27.083 14.8722 27.0496 14.7108 26.9836C14.5494 26.9176 14.4026 26.8203 14.2789 26.6974C14.1553 26.5744 14.0571 26.4283 13.9901 26.2673C13.9232 26.1062 13.8887 25.9336 13.8887 25.7592C13.8887 25.5848 13.9232 25.4121 13.9901 25.2511C14.0571 25.0901 14.1553 24.9439 14.2789 24.821C14.4026 24.698 14.5494 24.6008 14.7108 24.5348C14.8722 24.4688 15.045 24.4354 15.2194 24.4364H52.6832C52.8576 24.4354 53.0304 24.4688 53.1918 24.5348C53.3532 24.6008 53.5 24.698 53.6237 24.821C53.7474 24.9439 53.8455 25.0901 53.9125 25.2511C53.9795 25.4121 54.014 25.5848 54.014 25.7592C54.014 25.9336 53.9795 26.1062 53.9125 26.2673C53.8455 26.4283 53.7474 26.5744 53.6237 26.6974C53.5 26.8203 53.3532 26.9176 53.1918 26.9836C53.0304 27.0496 52.8576 27.083 52.6832 27.0819Z" fill="#83BB62"/>
<path d="M52.6832 36.4486H15.2194C15.045 36.4497 14.8722 36.4163 14.7108 36.3503C14.5494 36.2843 14.4026 36.187 14.2789 36.0641C14.1553 35.9411 14.0571 35.795 13.9901 35.6339C13.9232 35.4729 13.8887 35.3003 13.8887 35.1259C13.8887 34.9515 13.9232 34.7788 13.9901 34.6178C14.0571 34.4568 14.1553 34.3106 14.2789 34.1877C14.4026 34.0647 14.5494 33.9675 14.7108 33.9015C14.8722 33.8355 15.045 33.8021 15.2194 33.8031H52.6832C52.8576 33.8021 53.0304 33.8355 53.1918 33.9015C53.3532 33.9675 53.5 34.0647 53.6237 34.1877C53.7474 34.3106 53.8455 34.4568 53.9125 34.6178C53.9795 34.7788 54.014 34.9515 54.014 35.1259C54.014 35.3003 53.9795 35.4729 53.9125 35.6339C53.8455 35.795 53.7474 35.9411 53.6237 36.0641C53.5 36.187 53.3532 36.2843 53.1918 36.3503C53.0304 36.4163 52.8576 36.4497 52.6832 36.4486Z" fill="#83BB62"/>
<path d="M52.6832 45.8158H15.2194C15.045 45.8169 14.8722 45.7835 14.7108 45.7175C14.5494 45.6515 14.4026 45.5542 14.2789 45.4313C14.1553 45.3083 14.0571 45.1622 13.9901 45.0011C13.9232 44.8401 13.8887 44.6675 13.8887 44.4931C13.8887 44.3187 13.9232 44.146 13.9901 43.985C14.0571 43.824 14.1553 43.6778 14.2789 43.5548C14.4026 43.4319 14.5494 43.3346 14.7108 43.2687C14.8722 43.2027 15.045 43.1692 15.2194 43.1703H52.6832C52.8576 43.1692 53.0304 43.2027 53.1918 43.2687C53.3532 43.3346 53.5 43.4319 53.6237 43.5548C53.7474 43.6778 53.8455 43.824 53.9125 43.985C53.9795 44.146 54.014 44.3187 54.014 44.4931C54.014 44.6675 53.9795 44.8401 53.9125 45.0011C53.8455 45.1622 53.7474 45.3083 53.6237 45.4313C53.5 45.5542 53.3532 45.6515 53.1918 45.7175C53.0304 45.7835 52.8576 45.8169 52.6832 45.8158Z" fill="#83BB62"/>
<path d="M52.6829 55.1832H15.2191C14.8683 55.1832 14.5319 55.0438 14.2839 54.7957C14.0358 54.5477 13.8965 54.2112 13.8965 53.8604C13.8965 53.5096 14.0358 53.1731 14.2839 52.925C14.5319 52.677 14.8683 52.5376 15.2191 52.5376H52.6829C53.0337 52.5376 53.3701 52.677 53.6181 52.925C53.8662 53.1731 54.0055 53.5096 54.0055 53.8604C54.0055 54.2112 53.8662 54.5477 53.6181 54.7957C53.3701 55.0438 53.0337 55.1832 52.6829 55.1832Z" fill="#83BB62"/>
<path d="M253.223 2.64554C253.924 2.64634 254.597 2.92533 255.093 3.42128C255.589 3.91724 255.868 4.58966 255.868 5.29104V62.6194C255.868 63.3208 255.589 63.9932 255.093 64.4892C254.597 64.9851 253.924 65.2641 253.223 65.2649H197.072C196.37 65.2641 195.698 64.9851 195.202 64.4892C194.706 63.9932 194.427 63.3208 194.427 62.6194V5.29109C194.427 4.58971 194.706 3.91727 195.202 3.42132C195.698 2.92536 196.37 2.64638 197.072 2.64558L253.223 2.64554ZM253.223 3.79986e-05H197.072C195.669 3.79986e-05 194.323 0.557489 193.331 1.54976C192.339 2.54203 191.781 3.88785 191.781 5.29113V62.6194C191.781 64.0227 192.339 65.3685 193.331 66.3608C194.323 67.3531 195.669 67.9105 197.072 67.9105H253.223C254.626 67.9105 255.972 67.3531 256.964 66.3608C257.956 65.3685 258.514 64.0227 258.514 62.6194V5.29109C258.514 3.88781 257.956 2.542 256.964 1.54972C255.972 0.557451 254.626 3.79986e-05 253.223 3.79986e-05Z" fill="#E6E6E6"/>
<path d="M244.464 17.7146H207.001C206.826 17.7157 206.653 17.6823 206.492 17.6163C206.331 17.5503 206.184 17.453 206.06 17.3301C205.936 17.2071 205.838 17.061 205.771 16.9C205.704 16.7389 205.67 16.5663 205.67 16.3919C205.67 16.2175 205.704 16.0448 205.771 15.8838C205.838 15.7228 205.936 15.5766 206.06 15.4537C206.184 15.3307 206.331 15.2335 206.492 15.1675C206.653 15.1015 206.826 15.068 207.001 15.0691H244.464C244.814 15.0713 245.148 15.2116 245.394 15.4594C245.641 15.7072 245.779 16.0425 245.779 16.3919C245.779 16.7413 245.641 17.0765 245.394 17.3243C245.148 17.5722 244.814 17.7125 244.464 17.7146Z" fill="#83BB62"/>
<path d="M244.464 27.0819H207.001C206.826 27.083 206.653 27.0496 206.492 26.9836C206.331 26.9176 206.184 26.8203 206.06 26.6974C205.936 26.5744 205.838 26.4283 205.771 26.2673C205.704 26.1062 205.67 25.9336 205.67 25.7592C205.67 25.5848 205.704 25.4121 205.771 25.2511C205.838 25.0901 205.936 24.9439 206.06 24.821C206.184 24.698 206.331 24.6008 206.492 24.5348C206.653 24.4688 206.826 24.4354 207.001 24.4364H244.464C244.814 24.4386 245.148 24.5789 245.394 24.8267C245.641 25.0745 245.779 25.4098 245.779 25.7592C245.779 26.1086 245.641 26.4438 245.394 26.6916C245.148 26.9395 244.814 27.0798 244.464 27.0819Z" fill="#83BB62"/>
<path d="M244.464 36.4486H207.001C206.826 36.4497 206.653 36.4163 206.492 36.3503C206.331 36.2843 206.184 36.187 206.06 36.0641C205.936 35.9411 205.838 35.795 205.771 35.6339C205.704 35.4729 205.67 35.3003 205.67 35.1259C205.67 34.9515 205.704 34.7788 205.771 34.6178C205.838 34.4568 205.936 34.3106 206.06 34.1877C206.184 34.0647 206.331 33.9675 206.492 33.9015C206.653 33.8355 206.826 33.8021 207.001 33.8031H244.464C244.814 33.8053 245.148 33.9456 245.394 34.1934C245.641 34.4412 245.779 34.7765 245.779 35.1259C245.779 35.4753 245.641 35.8105 245.394 36.0583C245.148 36.3062 244.814 36.4465 244.464 36.4486Z" fill="#83BB62"/>
<path d="M244.464 45.8158H207.001C206.826 45.8169 206.653 45.7835 206.492 45.7175C206.331 45.6515 206.184 45.5542 206.06 45.4313C205.936 45.3083 205.838 45.1622 205.771 45.0011C205.704 44.8401 205.67 44.6675 205.67 44.4931C205.67 44.3187 205.704 44.146 205.771 43.985C205.838 43.824 205.936 43.6778 206.06 43.5548C206.184 43.4319 206.331 43.3346 206.492 43.2687C206.653 43.2027 206.826 43.1692 207.001 43.1703H244.464C244.814 43.1725 245.148 43.3128 245.394 43.5606C245.641 43.8084 245.779 44.1436 245.779 44.4931C245.779 44.8425 245.641 45.1777 245.394 45.4255C245.148 45.6734 244.814 45.8137 244.464 45.8158Z" fill="#83BB62"/>
<path d="M244.464 55.1832H207C206.65 55.1832 206.313 55.0438 206.065 54.7957C205.817 54.5477 205.678 54.2112 205.678 53.8604C205.678 53.5096 205.817 53.1731 206.065 52.925C206.313 52.677 206.65 52.5376 207 52.5376H244.464C244.815 52.5376 245.151 52.677 245.399 52.925C245.647 53.1731 245.787 53.5096 245.787 53.8604C245.787 54.2112 245.647 54.5477 245.399 54.7957C245.151 55.0438 244.815 55.1832 244.464 55.1832Z" fill="#83BB62"/>
<path d="M444.073 112.875C444.774 112.875 445.446 113.154 445.942 113.65C446.438 114.146 446.717 114.819 446.718 115.52V172.848C446.717 173.55 446.438 174.222 445.942 174.718C445.446 175.214 444.774 175.493 444.073 175.494H387.921C387.22 175.493 386.548 175.214 386.052 174.718C385.556 174.222 385.277 173.55 385.276 172.848V115.52C385.277 114.819 385.556 114.146 386.052 113.65C386.548 113.154 387.22 112.876 387.921 112.875L444.073 112.875ZM444.073 110.229H387.921C386.518 110.229 385.173 110.787 384.18 111.779C383.188 112.771 382.631 114.117 382.631 115.52V172.849C382.631 174.252 383.188 175.598 384.18 176.59C385.173 177.582 386.518 178.14 387.921 178.14H444.073C445.476 178.14 446.822 177.582 447.814 176.59C448.806 175.598 449.363 174.252 449.363 172.849V115.52C449.363 114.117 448.806 112.771 447.814 111.779C446.822 110.787 445.476 110.229 444.073 110.229Z" fill="#83BB62"/>
<path d="M435.316 127.944H397.852C397.678 127.945 397.505 127.911 397.344 127.845C397.182 127.779 397.035 127.682 396.912 127.559C396.788 127.436 396.69 127.29 396.623 127.129C396.556 126.968 396.521 126.795 396.521 126.621C396.521 126.447 396.556 126.274 396.623 126.113C396.69 125.952 396.788 125.806 396.912 125.683C397.035 125.56 397.182 125.463 397.344 125.397C397.505 125.331 397.678 125.297 397.852 125.298H435.316C435.665 125.3 436 125.441 436.246 125.689C436.492 125.936 436.631 126.272 436.631 126.621C436.631 126.97 436.492 127.306 436.246 127.553C436 127.801 435.665 127.942 435.316 127.944Z" fill="#83BB62"/>
<path d="M435.316 137.311H397.852C397.501 137.311 397.165 137.172 396.917 136.924C396.669 136.676 396.529 136.339 396.529 135.988C396.529 135.637 396.669 135.301 396.917 135.053C397.165 134.805 397.501 134.666 397.852 134.666H435.316C435.667 134.666 436.003 134.805 436.251 135.053C436.499 135.301 436.638 135.637 436.638 135.988C436.638 136.339 436.499 136.676 436.251 136.924C436.003 137.172 435.667 137.311 435.316 137.311Z" fill="#83BB62"/>
<path d="M435.315 146.678H397.851C397.677 146.679 397.504 146.645 397.343 146.579C397.181 146.513 397.035 146.416 396.911 146.293C396.788 146.17 396.69 146.024 396.623 145.863C396.556 145.702 396.521 145.529 396.521 145.355C396.521 145.181 396.556 145.008 396.623 144.847C396.69 144.686 396.788 144.54 396.911 144.417C397.035 144.294 397.181 144.197 397.343 144.131C397.504 144.065 397.677 144.031 397.851 144.032H435.315C435.664 144.034 435.998 144.175 436.245 144.423C436.491 144.67 436.629 145.006 436.629 145.355C436.629 145.704 436.491 146.04 436.245 146.287C435.998 146.535 435.664 146.676 435.315 146.678Z" fill="#83BB62"/>
<path d="M435.316 156.045H397.852C397.678 156.046 397.505 156.013 397.344 155.947C397.182 155.881 397.035 155.783 396.912 155.66C396.788 155.537 396.69 155.391 396.623 155.23C396.556 155.069 396.521 154.897 396.521 154.722C396.521 154.548 396.556 154.375 396.623 154.214C396.69 154.053 396.788 153.907 396.912 153.784C397.035 153.661 397.182 153.564 397.344 153.498C397.505 153.432 397.678 153.398 397.852 153.399H435.316C435.665 153.402 436 153.542 436.246 153.79C436.492 154.038 436.631 154.373 436.631 154.722C436.631 155.072 436.492 155.407 436.246 155.655C436 155.902 435.665 156.043 435.316 156.045Z" fill="#83BB62"/>
<path d="M435.316 165.412H397.852C397.678 165.413 397.505 165.38 397.344 165.314C397.182 165.248 397.035 165.151 396.912 165.028C396.788 164.905 396.69 164.759 396.623 164.598C396.556 164.437 396.521 164.264 396.521 164.09C396.521 163.915 396.556 163.742 396.623 163.581C396.69 163.42 396.788 163.274 396.912 163.151C397.035 163.028 397.182 162.931 397.344 162.865C397.505 162.799 397.678 162.766 397.852 162.767H435.316C435.665 162.769 436 162.909 436.246 163.157C436.492 163.405 436.631 163.74 436.631 164.09C436.631 164.439 436.492 164.774 436.246 165.022C436 165.27 435.665 165.41 435.316 165.412Z" fill="#83BB62"/>
<path d="M158.068 67.9104H100.446C98.8877 67.9086 97.3938 67.2887 96.2919 66.1867C95.19 65.0848 94.5702 63.5907 94.5684 62.0322V20.7963C94.5701 19.2378 95.1898 17.7436 96.2917 16.6415C97.3936 15.5393 98.8876 14.9193 100.446 14.9175H158.068C159.626 14.9192 161.12 15.5391 162.222 16.6412C163.324 17.7434 163.944 19.2377 163.946 20.7963V62.0322C163.944 63.5908 163.324 65.0849 162.222 66.1869C161.12 67.2889 159.626 67.9087 158.068 67.9104ZM100.446 17.563C99.5889 17.5641 98.7673 17.9051 98.1613 18.5113C97.5553 19.1174 97.2145 19.9392 97.2136 20.7963V62.0322C97.2146 62.8893 97.5554 63.711 98.1614 64.3171C98.7674 64.9231 99.589 65.264 100.446 65.2649H158.068C158.925 65.264 159.746 64.9232 160.352 64.3171C160.959 63.7111 161.299 62.8894 161.301 62.0322V20.7963C161.299 19.9391 160.959 19.1173 160.352 18.5112C159.746 17.9051 158.925 17.5641 158.068 17.563H100.446Z" fill="#E6E6E6"/>
<path d="M147.989 33.3698H110.525C110.176 33.3676 109.842 33.2273 109.595 32.9795C109.349 32.7317 109.211 32.3964 109.211 32.047C109.211 31.6976 109.349 31.3624 109.595 31.1146C109.842 30.8667 110.176 30.7264 110.525 30.7243H147.989C148.164 30.7232 148.337 30.7566 148.498 30.8226C148.659 30.8886 148.806 30.9859 148.93 31.1088C149.053 31.2317 149.152 31.3779 149.219 31.5389C149.286 31.7 149.32 31.8726 149.32 32.047C149.32 32.2214 149.286 32.3941 149.219 32.5551C149.152 32.7161 149.053 32.8623 148.93 32.9852C148.806 33.1082 148.659 33.2054 148.498 33.2714C148.337 33.3374 148.164 33.3708 147.989 33.3698Z" fill="#83BB62"/>
<path d="M147.989 42.7371H110.525C110.176 42.7349 109.842 42.5946 109.595 42.3468C109.349 42.099 109.211 41.7638 109.211 41.4143C109.211 41.0649 109.349 40.7297 109.595 40.4819C109.842 40.234 110.176 40.0937 110.525 40.0916H147.989C148.164 40.0905 148.337 40.1239 148.498 40.1899C148.659 40.2559 148.806 40.3532 148.93 40.4761C149.053 40.5991 149.152 40.7452 149.219 40.9063C149.286 41.0673 149.32 41.2399 149.32 41.4143C149.32 41.5887 149.286 41.7614 149.219 41.9224C149.152 42.0834 149.053 42.2296 148.93 42.3525C148.806 42.4755 148.659 42.5727 148.498 42.6387C148.337 42.7047 148.164 42.7381 147.989 42.7371Z" fill="#83BB62"/>
<path d="M147.989 52.1038H110.525C110.176 52.1016 109.842 51.9613 109.595 51.7135C109.349 51.4657 109.211 51.1304 109.211 50.781C109.211 50.4316 109.349 50.0964 109.595 49.8486C109.842 49.6007 110.176 49.4604 110.525 49.4583H147.989C148.164 49.4572 148.337 49.4906 148.498 49.5566C148.659 49.6226 148.806 49.7199 148.93 49.8428C149.053 49.9657 149.152 50.1119 149.219 50.2729C149.286 50.434 149.32 50.6066 149.32 50.781C149.32 50.9554 149.286 51.1281 149.219 51.2891C149.152 51.4501 149.053 51.5963 148.93 51.7192C148.806 51.8422 148.659 51.9394 148.498 52.0054C148.337 52.0714 148.164 52.1048 147.989 52.1038Z" fill="#83BB62"/>
<path d="M349.266 90.7606L293.924 74.7098C292.428 74.274 291.166 73.2625 290.415 71.8972C289.663 70.5319 289.484 68.9243 289.917 67.427L301.4 27.8228C301.836 26.3264 302.848 25.064 304.213 24.3124C305.578 23.5608 307.185 23.3815 308.683 23.8138L364.024 39.8646C365.521 40.3004 366.783 41.312 367.534 42.6775C368.286 44.0429 368.465 45.6508 368.033 47.1482L356.549 86.7524C356.113 88.2487 355.101 89.5111 353.736 90.2625C352.371 91.0139 350.763 91.1931 349.266 90.7606ZM307.946 26.3547C307.122 26.117 306.238 26.2156 305.488 26.629C304.737 27.0424 304.181 27.7367 303.941 28.5597L292.457 68.1638C292.219 68.9872 292.318 69.8714 292.731 70.6222C293.144 71.3731 293.838 71.9294 294.661 72.169L350.003 88.2197C350.826 88.4576 351.71 88.3591 352.461 87.9459C353.212 87.5327 353.768 86.8385 354.008 86.0155L365.492 46.4114C365.73 45.5878 365.631 44.7036 365.218 43.9526C364.805 43.2016 364.11 42.6452 363.287 42.4055L307.946 26.3547Z" fill="#E6E6E6"/>
<path d="M349.205 54.7793L313.223 44.3436C312.887 44.2453 312.603 44.0177 312.435 43.7106C312.266 43.4034 312.226 43.042 312.324 42.7055C312.421 42.3689 312.648 42.0849 312.955 41.9157C313.262 41.7464 313.623 41.7058 313.96 41.8027L349.941 52.2384C350.278 52.3362 350.562 52.5637 350.732 52.8711C350.901 53.1784 350.941 53.5404 350.843 53.8773C350.745 54.2142 350.518 54.4986 350.211 54.6677C349.903 54.8369 349.541 54.877 349.205 54.7793Z" fill="#83BB62"/>
<path d="M346.596 63.7759L310.614 53.3402C310.448 53.2918 310.292 53.211 310.156 53.1024C310.021 52.9939 309.908 52.8597 309.824 52.7075C309.74 52.5553 309.687 52.3882 309.668 52.2155C309.649 52.0429 309.664 51.8681 309.712 51.7013C309.761 51.5345 309.842 51.3788 309.95 51.2432C310.059 51.1076 310.193 50.9946 310.345 50.9109C310.497 50.8271 310.664 50.7742 310.837 50.755C311.01 50.7359 311.184 50.7509 311.351 50.7993L347.332 61.235C347.669 61.3333 347.952 61.5609 348.121 61.868C348.29 62.1752 348.329 62.5366 348.232 62.8731C348.134 63.2096 347.907 63.4937 347.6 63.6629C347.294 63.8322 346.932 63.8728 346.596 63.7759Z" fill="#83BB62"/>
<path d="M343.988 72.7718L308.006 62.3361C307.67 62.2379 307.387 62.0102 307.218 61.7031C307.049 61.396 307.009 61.0345 307.107 60.698C307.205 60.3615 307.432 60.0775 307.738 59.9082C308.045 59.739 308.407 59.6984 308.743 59.7953L344.725 70.231C345.061 70.3287 345.346 70.5563 345.515 70.8636C345.684 71.171 345.724 71.5329 345.626 71.8699C345.529 72.2068 345.301 72.4911 344.994 72.6603C344.687 72.8294 344.325 72.8696 343.988 72.7718Z" fill="#83BB62"/>
<path d="M710 504.51H129.568V507H710V504.51Z" fill="#E6E6E6"/>
<path d="M466.579 500.616H372.191L375.391 459.019H463.379L466.579 500.616Z" fill="#E6E6E6"/>
<path d="M472.976 495.817H367.391V505.417H472.976V495.817Z" fill="#E6E6E6"/>
<path d="M600.158 191.027H239.409C236.863 191.027 234.422 192.039 232.622 193.839C230.822 195.639 229.811 198.081 229.811 200.627V420.62H609.757V200.627C609.757 199.366 609.509 198.118 609.026 196.953C608.544 195.789 607.837 194.73 606.945 193.839C606.054 192.948 604.996 192.241 603.831 191.758C602.667 191.276 601.419 191.027 600.158 191.027Z" fill="#3F3D56"/>
<path d="M229.811 420.62V456.618C229.811 457.879 230.059 459.127 230.541 460.292C231.024 461.457 231.731 462.515 232.622 463.406C233.513 464.298 234.571 465.005 235.736 465.487C236.901 465.97 238.149 466.218 239.409 466.218H600.158C602.704 466.218 605.145 465.207 606.945 463.406C608.746 461.606 609.757 459.164 609.757 456.618V420.62H229.811Z" fill="#E6E6E6"/>
<path d="M591.359 211.027H249.008V403.02H591.359V211.027Z" fill="#E6E6E6"/>
<path d="M420.185 452.619C425.486 452.619 429.783 448.321 429.783 443.019C429.783 437.717 425.486 433.419 420.185 433.419C414.883 433.419 410.586 437.717 410.586 443.019C410.586 448.321 414.883 452.619 420.185 452.619Z" fill="#3F3D56"/>
<path d="M259.683 219.136C260.689 219.136 261.504 218.32 261.504 217.314C261.504 216.308 260.689 215.493 259.683 215.493C258.677 215.493 257.861 216.308 257.861 217.314C257.861 218.32 258.677 219.136 259.683 219.136Z" fill="white"/>
<path d="M266.597 219.136C267.603 219.136 268.419 218.32 268.419 217.314C268.419 216.308 267.603 215.493 266.597 215.493C265.591 215.493 264.775 216.308 264.775 217.314C264.775 218.32 265.591 219.136 266.597 219.136Z" fill="white"/>
<path d="M273.511 219.136C274.517 219.136 275.333 218.32 275.333 217.314C275.333 216.308 274.517 215.493 273.511 215.493C272.505 215.493 271.689 216.308 271.689 217.314C271.689 218.32 272.505 219.136 273.511 219.136Z" fill="white"/>
<path d="M581.493 223.505H257.861V384.748H581.493V223.505Z" fill="white"/>
<path d="M279.375 248.031C279.071 248.031 278.78 248.151 278.566 248.366C278.351 248.58 278.231 248.871 278.23 249.175V307.012C278.231 307.315 278.351 307.606 278.566 307.821C278.78 308.035 279.071 308.156 279.375 308.156H346.16C346.464 308.156 346.754 308.035 346.969 307.821C347.183 307.606 347.304 307.315 347.304 307.012V249.175C347.304 248.871 347.183 248.58 346.969 248.366C346.754 248.151 346.464 248.031 346.16 248.031H279.375Z" fill="#E6E6E6"/>
<path d="M386.607 248.217C386.304 248.217 386.013 248.337 385.798 248.552C385.584 248.766 385.463 249.057 385.463 249.361V307.012C385.463 307.316 385.584 307.606 385.798 307.821C386.013 308.035 386.304 308.156 386.607 308.156H453.18C453.484 308.156 453.774 308.035 453.989 307.821C454.203 307.606 454.324 307.315 454.324 307.012V249.361C454.324 249.057 454.203 248.767 453.989 248.552C453.774 248.338 453.484 248.217 453.18 248.217H386.607Z" fill="#E6E6E6"/>
<path d="M492.716 247.612C492.413 247.613 492.122 247.733 491.908 247.948C491.693 248.162 491.573 248.453 491.572 248.757V307.012C491.573 307.315 491.693 307.606 491.908 307.821C492.122 308.035 492.413 308.156 492.716 308.156H559.981C560.284 308.156 560.575 308.035 560.789 307.821C561.004 307.606 561.124 307.315 561.125 307.012V248.757C561.124 248.453 561.004 248.162 560.789 247.948C560.575 247.733 560.284 247.613 559.981 247.612H492.716Z" fill="#E6E6E6"/>
<path d="M280.595 336.786C279.969 336.787 279.368 337.037 278.926 337.48C278.483 337.924 278.234 338.525 278.234 339.151C278.234 339.778 278.483 340.379 278.926 340.822C279.368 341.266 279.969 341.516 280.595 341.517H343.387C344.014 341.516 344.614 341.266 345.057 340.822C345.499 340.379 345.748 339.778 345.748 339.151C345.748 338.525 345.499 337.924 345.057 337.48C344.614 337.037 344.014 336.787 343.387 336.786H280.595Z" fill="#E6E6E6"/>
<path d="M280.596 348.038C279.969 348.039 279.368 348.289 278.926 348.733C278.483 349.176 278.234 349.777 278.234 350.404C278.234 351.031 278.483 351.632 278.926 352.075C279.368 352.519 279.969 352.769 280.596 352.77H308.867C309.494 352.769 310.094 352.519 310.537 352.075C310.98 351.632 311.228 351.031 311.228 350.404C311.228 349.777 310.98 349.176 310.537 348.733C310.094 348.289 309.494 348.039 308.867 348.038H280.596Z" fill="#83BB62"/>
<path d="M388.98 336.786C388.354 336.787 387.753 337.037 387.31 337.48C386.868 337.924 386.619 338.525 386.619 339.151C386.619 339.778 386.868 340.379 387.31 340.822C387.753 341.266 388.354 341.516 388.98 341.517H451.772C452.398 341.516 452.999 341.266 453.442 340.822C453.884 340.379 454.133 339.778 454.133 339.151C454.133 338.525 453.884 337.924 453.442 337.48C452.999 337.037 452.398 336.787 451.772 336.786H388.98Z" fill="#E6E6E6"/>
<path d="M388.98 348.038C388.354 348.039 387.753 348.289 387.31 348.733C386.868 349.176 386.619 349.777 386.619 350.404C386.619 351.031 386.868 351.632 387.31 352.075C387.753 352.519 388.354 352.769 388.98 352.77H417.252C417.879 352.769 418.479 352.519 418.922 352.075C419.365 351.632 419.613 351.031 419.613 350.404C419.613 349.777 419.365 349.176 418.922 348.733C418.479 348.289 417.879 348.039 417.252 348.038H388.98Z" fill="#83BB62"/>
<path d="M494.656 336.786C494.029 336.787 493.429 337.037 492.986 337.48C492.544 337.924 492.295 338.525 492.295 339.151C492.295 339.778 492.544 340.379 492.986 340.822C493.429 341.266 494.029 341.516 494.656 341.517H557.448C558.074 341.516 558.675 341.266 559.117 340.822C559.56 340.379 559.809 339.778 559.809 339.151C559.809 338.525 559.56 337.924 559.117 337.48C558.675 337.037 558.074 336.787 557.448 336.786H494.656Z" fill="#E6E6E6"/>
<path d="M280.595 325.164C279.969 325.165 279.368 325.415 278.926 325.859C278.483 326.302 278.234 326.903 278.234 327.53C278.234 328.157 278.483 328.758 278.926 329.201C279.368 329.645 279.969 329.894 280.595 329.896H343.387C344.014 329.894 344.614 329.645 345.057 329.201C345.499 328.758 345.748 328.157 345.748 327.53C345.748 326.903 345.499 326.302 345.057 325.859C344.614 325.415 344.014 325.165 343.387 325.164H280.595Z" fill="#E6E6E6"/>
<path d="M388.98 325.164C388.354 325.165 387.753 325.415 387.31 325.859C386.868 326.302 386.619 326.903 386.619 327.53C386.619 328.157 386.868 328.758 387.31 329.201C387.753 329.645 388.354 329.894 388.98 329.896H451.772C452.398 329.894 452.999 329.645 453.442 329.201C453.884 328.758 454.133 328.157 454.133 327.53C454.133 326.903 453.884 326.302 453.442 325.859C452.999 325.415 452.398 325.165 451.772 325.164H388.98Z" fill="#E6E6E6"/>
<path d="M494.656 325.164C494.029 325.165 493.429 325.415 492.986 325.859C492.544 326.302 492.295 326.903 492.295 327.53C492.295 328.157 492.544 328.758 492.986 329.201C493.429 329.645 494.029 329.894 494.656 329.896H557.448C558.074 329.894 558.675 329.645 559.117 329.201C559.56 328.758 559.809 328.157 559.809 327.53C559.809 326.903 559.56 326.302 559.117 325.859C558.675 325.415 558.074 325.165 557.448 325.164H494.656Z" fill="#E6E6E6"/>
<path d="M494.656 348.038C494.029 348.039 493.429 348.289 492.986 348.733C492.544 349.176 492.295 349.777 492.295 350.404C492.295 351.031 492.544 351.632 492.986 352.075C493.429 352.519 494.029 352.769 494.656 352.77H522.927C523.554 352.769 524.154 352.519 524.597 352.075C525.04 351.632 525.288 351.031 525.288 350.404C525.288 349.777 525.04 349.176 524.597 348.733C524.154 348.289 523.554 348.039 522.927 348.038H494.656Z" fill="#83BB62"/>
</g>
<defs>
<clipPath id="clip0_687_968">
<rect width="710" height="507" fill="white"/>
</clipPath>
</defs>
</svg>
