<svg width="593" height="341" viewBox="0 0 593 341" fill="none" xmlns="http://www.w3.org/2000/svg">
<g clip-path="url(#clip0_687_1026)">
<path d="M296.5 341C460.252 341 593 333.372 593 323.962C593 314.552 460.252 306.924 296.5 306.924C132.748 306.924 0 314.552 0 323.962C0 333.372 132.748 341 296.5 341Z" fill="#F2F2F2"/>
<path d="M539.859 0H94.4316V14.1588H539.859V0Z" fill="#F2F2F2"/>
<path d="M106.351 10.5351C108.377 10.5351 110.019 8.89448 110.019 6.87069C110.019 4.8469 108.377 3.2063 106.351 3.2063C104.326 3.2063 102.684 4.8469 102.684 6.87069C102.684 8.89448 104.326 10.5351 106.351 10.5351Z" fill="#83BB62"/>
<path d="M118.269 10.5351C120.295 10.5351 121.937 8.89448 121.937 6.87069C121.937 4.8469 120.295 3.2063 118.269 3.2063C116.244 3.2063 114.602 4.8469 114.602 6.87069C114.602 8.89448 116.244 10.5351 118.269 10.5351Z" fill="#83BB62"/>
<path d="M130.189 10.5351C132.215 10.5351 133.857 8.89448 133.857 6.87069C133.857 4.8469 132.215 3.2063 130.189 3.2063C128.164 3.2063 126.521 4.8469 126.521 6.87069C126.521 8.89448 128.164 10.5351 130.189 10.5351Z" fill="#83BB62"/>
<path d="M94.7454 223.934L94.4297 224.205V319.718H539.857V151.947L534.549 152.349L94.7454 223.934Z" fill="#3F3D56"/>
<path d="M250.962 94.7126H126.576V99.7239H250.962V94.7126Z" fill="#3F3D56"/>
<path d="M250.962 105.737H126.576V110.749H250.962V105.737Z" fill="#3F3D56"/>
<path d="M168.707 116.762H126.576V121.773H168.707V116.762Z" fill="#3F3D56"/>
<path d="M504.622 233.837H380.236V238.848H504.622V233.837Z" fill="white"/>
<path d="M504.622 244.862H380.236V249.873H504.622V244.862Z" fill="white"/>
<path d="M422.367 255.886H380.236V260.897H422.367V255.886Z" fill="white"/>
<path d="M302.955 315.097C305.658 315.097 307.848 312.909 307.848 310.209C307.848 307.509 305.658 305.32 302.955 305.32C300.253 305.32 298.062 307.509 298.062 310.209C298.062 312.909 300.253 315.097 302.955 315.097Z" fill="#F2F2F2"/>
<path d="M317.145 315.586C319.847 315.586 322.038 313.397 322.038 310.697C322.038 307.998 319.847 305.809 317.145 305.809C314.443 305.809 312.252 307.998 312.252 310.697C312.252 313.397 314.443 315.586 317.145 315.586Z" fill="#F2F2F2"/>
<path d="M331.334 316.075C334.037 316.075 336.227 313.886 336.227 311.187C336.227 308.487 334.037 306.298 331.334 306.298C328.632 306.298 326.441 308.487 326.441 311.187C326.441 313.886 328.632 316.075 331.334 316.075Z" fill="#F2F2F2"/>
<path d="M317.19 314.608C319.351 314.608 321.104 312.857 321.104 310.698C321.104 308.538 319.351 306.787 317.19 306.787C315.028 306.787 313.275 308.538 313.275 310.698C313.275 312.857 315.028 314.608 317.19 314.608Z" fill="#3F3D56"/>
<path d="M209.724 152.073H167.594V161.677H209.724V152.073Z" fill="#3F3D56"/>
<path d="M460.146 282.03H418.016V291.634H460.146V282.03Z" fill="white"/>
<path opacity="0.3" d="M188.896 186.045C204.992 186.045 218.04 173.008 218.04 156.926C218.04 140.844 204.992 127.807 188.896 127.807C172.8 127.807 159.752 140.844 159.752 156.926C159.752 173.008 172.8 186.045 188.896 186.045Z" fill="#83BB62"/>
<path opacity="0.3" d="M188.896 176.339C199.627 176.339 208.326 167.648 208.326 156.927C208.326 146.205 199.627 137.514 188.896 137.514C178.166 137.514 169.467 146.205 169.467 156.927C169.467 167.648 178.166 176.339 188.896 176.339Z" fill="#83BB62"/>
<path d="M188.897 170.408C196.349 170.408 202.39 164.372 202.39 156.927C202.39 149.481 196.349 143.446 188.897 143.446C181.445 143.446 175.404 149.481 175.404 156.927C175.404 164.372 181.445 170.408 188.897 170.408Z" fill="#83BB62"/>
<path opacity="0.3" d="M434.124 113.88C450.22 113.88 463.269 100.843 463.269 84.7606C463.269 68.6786 450.22 55.6416 434.124 55.6416C418.029 55.6416 404.98 68.6786 404.98 84.7606C404.98 100.843 418.029 113.88 434.124 113.88Z" fill="#83BB62"/>
<path opacity="0.3" d="M434.125 104.173C444.855 104.173 453.554 95.4821 453.554 84.7608C453.554 74.0395 444.855 65.3481 434.125 65.3481C423.394 65.3481 414.695 74.0395 414.695 84.7608C414.695 95.4821 423.394 104.173 434.125 104.173Z" fill="#83BB62"/>
<path d="M434.125 98.2418C441.577 98.2418 447.618 92.2062 447.618 84.7608C447.618 77.3154 441.577 71.2798 434.125 71.2798C426.674 71.2798 420.633 77.3154 420.633 84.7608C420.633 92.2062 426.674 98.2418 434.125 98.2418Z" fill="#83BB62"/>
<path opacity="0.3" d="M439.32 316.003C455.416 316.003 468.464 302.966 468.464 286.884C468.464 270.802 455.416 257.765 439.32 257.765C423.224 257.765 410.176 270.802 410.176 286.884C410.176 302.966 423.224 316.003 439.32 316.003Z" fill="#83BB62"/>
<path opacity="0.3" d="M439.32 306.296C450.051 306.296 458.749 297.605 458.749 286.884C458.749 276.162 450.051 267.471 439.32 267.471C428.589 267.471 419.891 276.162 419.891 286.884C419.891 297.605 428.589 306.296 439.32 306.296Z" fill="#83BB62"/>
<path d="M439.319 300.365C446.771 300.365 452.811 294.329 452.811 286.884C452.811 279.438 446.771 273.403 439.319 273.403C431.867 273.403 425.826 279.438 425.826 286.884C425.826 294.329 431.867 300.365 439.319 300.365Z" fill="#83BB62"/>
<path d="M48.5321 58.972L60.5273 59.4368L61.1254 44.0275L49.1301 43.5628L48.5321 58.972Z" fill="#83BB62"/>
<path d="M103.241 97.5295C103.241 97.5295 119.852 89.5995 119.586 96.4481C119.32 103.297 102.842 107.802 102.842 107.802L103.241 97.5295Z" fill="#FFB9B9"/>
<path d="M94.1268 155.477C94.1268 155.477 101.964 174.642 104.86 188.472C107.755 202.302 112.165 221.335 106.493 234.832C100.82 248.33 84.6929 288.001 84.5268 292.282C84.3607 296.562 85.9081 300.909 82.4809 300.776C79.0537 300.643 60.4034 294.776 59.6462 292.175C58.8891 289.574 66.0094 282.991 66.0094 282.991L83.5915 227.944L65.2472 192.081L52.0156 245.582L49.424 312.355C49.424 312.355 36.7048 308.433 34.8583 311.791C34.8583 311.791 29.1597 303.854 28.4358 300.397C27.7119 296.939 31.1271 231.055 31.1271 231.055C31.1271 231.055 19.452 156.013 28.8768 156.378C38.3017 156.743 75.2178 134.167 94.1268 155.477Z" fill="#2F2E41"/>
<path d="M82.6134 297.352C82.6134 297.352 91.3073 316.55 92.1309 317.44C92.9545 318.329 98.6199 327.122 94.3358 326.956C90.0518 326.79 79.9363 322.111 72.4909 314.964C65.0454 307.817 55.2289 295.433 56.119 294.61C57.009 293.787 63.1063 291.452 63.1063 291.452L82.6134 297.352Z" fill="#2F2E41"/>
<path d="M47.8755 308.008C47.8755 308.008 48.4001 316.602 49.9808 320.093C51.5615 323.584 51.3621 328.72 47.0781 328.554C42.7941 328.388 31.7221 326.244 31.7221 326.244C31.7221 326.244 31.0646 321.075 31.9547 320.252C32.8447 319.429 36.6374 310.145 35.0235 307.51C33.4095 304.876 47.8755 308.008 47.8755 308.008Z" fill="#2F2E41"/>
<path d="M41.5384 29.1223C41.5384 29.1223 32.4055 43.3435 28.8454 46.635C25.2853 49.9265 35.3011 57.1734 35.3011 57.1734L53.2276 59.5827C53.2276 59.5827 53.002 43.2842 53.9253 41.6052C54.8486 39.9263 41.5384 29.1223 41.5384 29.1223Z" fill="#FFB9B9"/>
<path d="M57.1203 47.7305C57.1203 47.7305 53.4273 54.4463 50 54.3135C46.5728 54.1807 28.8457 46.635 28.0886 44.0336C27.3314 41.4322 22.2168 62.668 22.2168 62.668L65.5937 138.939L76.1743 131.632L71.0476 86.8511L66.8371 62.682L57.1203 47.7305Z" fill="#83BB62"/>
<path d="M26.4871 115.99C28.2174 119.606 29.2981 123.377 29.1483 127.238C29.1416 127.41 29.135 127.581 29.1198 127.752C28.7093 135.675 25.7879 144.838 24.7399 151.502C23.9794 156.282 24.1958 159.772 26.9957 160.592C33.7837 162.57 26.006 163.983 52.2679 172.717C78.5298 181.45 83.1128 173.912 83.1793 172.2C83.2457 170.487 79.4601 157.48 80.3501 156.658C81.2401 155.835 92.8035 167.428 96.2971 165.849C99.7908 164.27 96.6958 155.576 96.6958 155.576C96.6958 155.576 88.8255 137.267 88.9916 132.986C89.1578 128.706 77.0699 108.519 77.0699 108.519L68.8482 55.0439C68.8482 55.0439 65.6868 48.0625 61.436 47.0405C57.1852 46.0184 53.6583 48.4538 53.6583 48.4538L60.7715 64.1619L68.2764 91.888L67.0208 102.128C67.0208 102.128 58.2937 83.7851 52.5619 76.7041C46.8301 69.6232 34.6093 52.86 34.6093 52.86C34.6093 52.86 31.7562 43.2413 33.91 40.3669C36.0641 37.4839 24.9257 37.0523 20.1765 48.8713C17.6594 55.1354 13.5728 64.4766 11.0128 73.1738C8.73154 80.8788 7.65396 88.0817 9.914 92.1989C13.3682 98.4885 22.0574 106.756 26.4871 115.99Z" fill="#575A89"/>
<path opacity="0.1" d="M9.914 92.1988C13.3683 98.4885 22.0574 106.756 26.4872 115.99C27.6442 111.825 29.0557 107.516 29.0557 107.516C29.0557 107.516 34.4693 78.5752 18.4559 71.0959C15.8025 70.8395 13.1488 71.5804 11.0128 73.1738C8.73153 80.8788 7.65396 88.0817 9.914 92.1988Z" fill="black"/>
<path d="M73.4835 90.375L87.0595 94.3304L105.909 95.0607L107.848 111.426L76.8704 113.655C76.8704 113.655 69.1331 91.9212 73.4835 90.375Z" fill="#575A89"/>
<path d="M51.3468 145.399C51.3468 145.399 69.5087 148.41 65.3635 153.87C61.2182 159.331 45.1289 153.59 45.1289 153.59L51.3468 145.399Z" fill="#FFB9B9"/>
<path opacity="0.1" d="M29.1201 127.751C28.7096 135.675 25.7883 144.838 24.7402 151.502C30.5259 156.973 36.0278 161.799 38.1013 161.879C42.3853 162.045 49.2729 161.455 51.8101 162.41C54.3473 163.366 55.8354 147.134 55.8354 147.134C55.8354 147.134 54.3211 141.931 47.5664 139.097C43.0071 137.18 34.2676 131.98 29.1201 127.751Z" fill="black"/>
<path d="M18.6567 65.9593C18.6567 65.9593 4.15749 63.6829 4.94079 87.7192C5.72409 111.756 3.41243 127.098 9.24393 131.611C15.0754 136.124 34.0177 156.577 38.3018 156.743C42.5858 156.909 49.4735 156.318 52.0106 157.274C54.5478 158.23 56.0359 141.998 56.0359 141.998C56.0359 141.998 54.5216 136.795 47.7669 133.961C41.0121 131.127 25.0983 121.08 25.2312 117.655C25.3641 114.231 29.2565 102.379 29.2565 102.379C29.2565 102.379 34.6702 73.4386 18.6567 65.9593Z" fill="#575A89"/>
<path d="M54.3228 50.18C64.7411 50.18 73.1867 41.7416 73.1867 31.3323C73.1867 20.923 64.7411 12.4846 54.3228 12.4846C43.9046 12.4846 35.459 20.923 35.459 31.3323C35.459 41.7416 43.9046 50.18 54.3228 50.18Z" fill="#FFB9B9"/>
<path d="M67.0243 4.31816C67.4793 4.70984 68.0242 4.98303 68.6104 5.11342C68.9047 5.16584 69.2078 5.0998 69.4535 4.92973C69.6993 4.75965 69.8677 4.49934 69.922 4.20563C70.3536 5.09992 70.8406 6.05304 71.7217 6.51191C72.6029 6.97079 73.9655 6.58601 74.0925 5.60133C74.2211 6.34897 74.5522 7.04716 75.0497 7.6202C75.5964 8.14102 76.5879 8.27248 77.0652 7.68751C76.6793 9.79457 76.9175 11.9615 76.7963 14.1001C76.6751 16.2387 76.1043 18.5059 74.4872 19.9122C72.1287 21.9632 68.5822 21.457 65.4799 21.0684C65.0107 20.97 64.524 20.9967 64.0684 21.1456C62.9067 21.64 62.9594 23.2557 62.9438 24.5171C62.849 26.7305 61.9723 28.8387 60.4692 30.4674C58.9661 32.096 56.934 33.1398 54.7337 33.4133C53.5023 33.6032 52.2458 33.2968 51.2405 32.5615C50.3596 31.8155 49.9097 30.5997 48.9004 30.0393C47.2586 29.1278 45.2674 30.4571 44.067 31.9005C42.8666 33.3439 41.6835 35.1194 39.824 35.3837C37.3646 35.7331 35.4914 33.2288 34.5724 30.923C33.3045 27.6911 32.697 24.2382 32.7859 20.7681C32.8747 17.2979 33.658 13.8806 35.0896 10.7177C40.2249 -0.466712 57.767 -2.23575 67.0243 4.31816Z" fill="#2F2E41"/>
<path d="M519.855 304.008C526.498 315.328 539.897 319.809 539.897 319.809C539.897 319.809 542.525 305.938 535.881 294.618C529.238 283.298 515.839 278.816 515.839 278.816C515.839 278.816 513.211 292.688 519.855 304.008Z" fill="#F2F2F2"/>
<path d="M524.001 300.057C535.491 306.415 540.304 319.688 540.304 319.688C540.304 319.688 526.489 322.653 515 316.295C503.511 309.938 498.697 296.664 498.697 296.664C498.697 296.664 512.512 293.699 524.001 300.057Z" fill="#83BB62"/>
</g>
<defs>
<clipPath id="clip0_687_1026">
<rect width="593" height="341" fill="white"/>
</clipPath>
</defs>
</svg>
