<svg width="536" height="385" viewBox="0 0 536 385" fill="none" xmlns="http://www.w3.org/2000/svg">
<g clip-path="url(#clip0_687_1071)">
<path d="M282.277 380.795H536V381.9H282.277V380.795Z" fill="#3F3D56"/>
<path d="M471.503 376.947H464.289L460.857 349.093H471.504L471.503 376.947Z" fill="#FFB8B8"/>
<path d="M450.377 383.651L473.05 383.652L473.05 374.884L459.137 374.883C456.814 374.883 454.586 375.807 452.943 377.451C451.3 379.095 450.377 381.326 450.377 383.651Z" fill="#2F2E41"/>
<path d="M509.887 375.558L502.735 376.512L495.655 349.357L506.209 347.948L509.887 375.558Z" fill="#FFB8B8"/>
<path d="M489.83 385L512.304 382.001L511.146 373.309L497.355 375.149C495.053 375.457 492.966 376.667 491.555 378.514C490.143 380.362 489.523 382.695 489.83 385Z" fill="#2F2E41"/>
<path d="M499.637 261.907L459.035 263.675L460.8 366.755L471.392 365.577L479.63 295.482L499.049 370.289L509.641 368.522L499.637 261.907Z" fill="#2F2E41"/>
<path d="M472.569 200.648L486.691 197.76L495.518 262.496C495.518 262.496 469.626 279.578 461.388 261.907L472.569 200.648Z" fill="#83BB62"/>
<path d="M478.729 193.045C470.747 193.045 464.276 186.568 464.276 178.578C464.276 170.588 470.747 164.11 478.729 164.11C486.711 164.11 493.182 170.588 493.182 178.578C493.182 186.568 486.711 193.045 478.729 193.045Z" fill="#FFB8B8"/>
<path d="M486.692 197.114L507.287 203.593C507.287 203.593 497.284 253.661 513.76 279.578C513.76 279.578 493.164 301.372 484.338 252.483C484.338 252.483 477.277 213.017 486.692 197.114Z" fill="#2F2E41"/>
<path d="M472.568 200.648L457.269 210.072C457.269 210.072 449.031 278.989 457.269 285.468C465.507 291.948 472.568 200.648 472.568 200.648Z" fill="#2F2E41"/>
<path d="M450.908 295.463C451.535 294.866 452.024 294.139 452.34 293.333C452.656 292.527 452.792 291.661 452.737 290.797C452.683 289.933 452.44 289.091 452.026 288.331C451.611 287.571 451.035 286.911 450.338 286.398L456.559 266.291L446.065 269.342L441.767 287.968C440.984 289.197 440.678 290.671 440.907 292.111C441.136 293.55 441.886 294.856 443.012 295.78C444.139 296.703 445.565 297.181 447.02 297.123C448.476 297.064 449.859 296.474 450.908 295.463Z" fill="#FFB8B8"/>
<path d="M503.765 289.647C504.463 289.136 505.041 288.478 505.457 287.719C505.874 286.96 506.119 286.119 506.176 285.255C506.233 284.391 506.099 283.525 505.785 282.718C505.471 281.911 504.985 281.183 504.359 280.584L513.1 261.44L502.302 263.121L495.658 281.043C494.723 282.162 494.231 283.584 494.275 285.042C494.318 286.499 494.894 287.89 495.894 288.95C496.893 290.011 498.246 290.667 499.697 290.796C501.148 290.924 502.595 290.516 503.765 289.647Z" fill="#FFB8B8"/>
<path d="M501.99 204.182L507.286 203.593L520.82 247.771L507.286 278.4L496.694 271.921L508.463 246.593L499.048 219.497L501.99 204.182Z" fill="#2F2E41"/>
<path d="M460.212 209.483L457.269 210.072L443.147 278.989L452.562 281.934L463.742 241.291L460.212 209.483Z" fill="#2F2E41"/>
<path d="M488.66 184.518C488.466 183.097 487.905 181.75 487.034 180.61C486.163 179.471 485.011 178.577 483.692 178.017C480.91 176.875 477.771 177.358 474.773 177.576C471.774 177.794 468.435 177.605 466.271 175.515C464.294 173.606 463.85 170.439 464.804 167.861C465.759 165.283 467.921 163.281 470.376 162.049C472.879 160.9 475.56 160.191 478.303 159.952C482.311 159.468 486.426 159.406 490.333 160.426C494.239 161.446 493.232 163.633 495.521 166.961C497.81 170.29 498.496 174.825 496.75 178.469C495.583 180.907 493.49 182.752 491.452 184.527" fill="#2F2E41"/>
<path d="M165.38 344.175L165.38 343.071C163.187 343.07 160.96 343.025 158.762 342.937L158.718 344.04C160.931 344.129 163.172 344.174 165.38 344.175ZM172.04 344.047C174.245 343.961 176.483 343.829 178.69 343.655L178.604 342.554C176.41 342.727 174.188 342.858 171.997 342.944L172.04 344.047ZM152.067 343.64L152.155 342.539C149.966 342.364 147.751 342.141 145.571 341.878L145.438 342.974C147.633 343.239 149.863 343.463 152.067 343.64ZM185.32 342.996C187.52 342.733 189.739 342.422 191.918 342.072L191.743 340.981C189.579 341.329 187.374 341.638 185.189 341.9L185.32 342.996ZM138.842 342.042L139.018 340.952C136.854 340.602 134.664 340.201 132.508 339.762L132.288 340.844C134.459 341.286 136.664 341.689 138.842 342.042ZM198.474 340.881C200.645 340.441 202.832 339.951 204.976 339.426L204.714 338.353C202.584 338.875 200.411 339.362 198.255 339.798L198.474 340.881ZM125.787 339.381L126.051 338.309C123.915 337.783 121.764 337.206 119.658 336.596L119.351 337.657C121.472 338.271 123.637 338.852 125.787 339.381ZM211.414 337.708C213.541 337.093 215.682 336.428 217.777 335.73L217.428 334.682C215.347 335.375 213.221 336.036 211.108 336.647L211.414 337.708ZM112.991 335.671L113.34 334.624C111.258 333.927 109.161 333.178 107.107 332.397L106.715 333.429C108.783 334.216 110.894 334.97 112.991 335.671ZM224.072 333.489C226.141 332.704 228.226 331.865 230.268 330.994L229.836 329.978C227.807 330.843 225.737 331.677 223.681 332.456L224.072 333.489ZM100.553 330.942L100.986 329.926C98.9692 329.064 96.9444 328.15 94.9681 327.209L94.4941 328.207C96.4839 329.154 98.5226 330.074 100.553 330.942ZM236.356 328.251C238.36 327.298 240.369 326.293 242.327 325.263L241.814 324.286C239.869 325.309 237.874 326.307 235.884 327.253L236.356 328.251ZM88.548 325.228L89.0618 324.251C87.1189 323.227 85.1728 322.152 83.2779 321.054L82.7252 322.01C84.6331 323.115 86.5922 324.197 88.548 325.228ZM248.17 322.037C250.093 320.924 252.013 319.761 253.877 318.579L253.287 317.646C251.435 318.82 249.528 319.976 247.618 321.081L248.17 322.037ZM77.0345 318.559L77.6248 317.626C75.7756 316.454 73.9211 315.225 72.1128 313.973L71.4858 314.881C73.3059 316.141 75.1729 317.379 77.0345 318.559ZM259.439 314.894C261.263 313.632 263.083 312.319 264.847 310.99L264.184 310.108C262.431 311.428 260.624 312.733 258.812 313.986L259.439 314.894ZM66.0871 310.983L66.7506 310.101C65.0017 308.784 63.2505 307.41 61.5457 306.015L60.8476 306.871C62.5638 308.274 64.3268 309.658 66.0871 310.983ZM270.094 306.872C271.806 305.471 273.514 304.016 275.17 302.547L274.438 301.721C272.793 303.18 271.097 304.625 269.396 306.016L270.094 306.872ZM55.7758 302.55L56.5073 301.724C54.8638 300.266 53.2275 298.755 51.6439 297.233L50.88 298.029C52.4738 299.561 54.1211 301.082 55.7758 302.55ZM280.068 298.025C281.659 296.494 283.244 294.908 284.78 293.31L283.985 292.544C282.459 294.132 280.884 295.708 279.303 297.228L280.068 298.025ZM46.1674 293.314L46.9625 292.549C45.4419 290.966 43.931 289.328 42.4713 287.681L41.6461 288.414C43.1155 290.072 44.6366 291.72 46.1674 293.314ZM289.299 288.412C290.77 286.752 292.223 285.045 293.618 283.337L292.764 282.638C291.378 284.335 289.935 286.031 288.474 287.679L289.299 288.412ZM37.3234 283.335L38.1777 282.637C36.7837 280.931 35.408 279.176 34.0883 277.422L33.2071 278.086C34.5354 279.852 35.9208 281.618 37.3234 283.335ZM297.73 278.095C299.059 276.328 300.37 274.511 301.627 272.693L300.72 272.064C299.472 273.87 298.169 275.675 296.848 277.43L297.73 278.095ZM29.3035 272.675L30.2106 272.047C28.9577 270.233 27.7264 268.373 26.5516 266.518L25.6197 267.109C26.8026 268.976 28.042 270.849 29.3035 272.675ZM305.304 267.14C306.486 265.275 307.647 263.359 308.754 261.446L307.8 260.893C306.7 262.793 305.547 264.696 304.373 266.549L305.304 267.14ZM22.161 261.398L23.1155 260.845C22.0113 258.935 20.9335 256.98 19.9117 255.037L18.9356 255.551C19.9639 257.508 21.0492 259.475 22.161 261.398ZM311.972 255.618C312.999 253.664 314.002 251.662 314.951 249.667L313.955 249.193C313.012 251.174 312.016 253.163 310.996 255.103L311.972 255.618ZM15.9478 249.576L16.9443 249.102C16.0001 247.113 15.0828 245.077 14.2188 243.05L13.204 243.483C14.0739 245.524 14.9971 247.574 15.9478 249.576ZM317.687 243.605C318.556 241.571 319.393 239.496 320.175 237.437L319.144 237.045C318.367 239.089 317.536 241.15 316.673 243.17L317.687 243.605ZM10.7079 237.282L11.7395 236.89C10.9574 234.824 10.2075 232.719 9.51215 230.633L8.46606 230.982C9.16574 233.083 9.92038 235.202 10.7079 237.282ZM322.418 231.157C323.121 229.058 323.789 226.916 324.405 224.791L323.345 224.483C322.734 226.594 322.07 228.721 321.372 230.806L322.418 231.157ZM6.48599 224.613L7.54599 224.306C6.93735 222.199 6.36261 220.046 5.83743 217.906L4.76663 218.169C5.29507 220.324 5.87354 222.492 6.48599 224.613ZM326.132 218.349C326.662 216.199 327.155 214.01 327.597 211.843L326.516 211.622C326.077 213.775 325.587 215.949 325.061 218.085L326.132 218.349ZM3.30905 211.662L4.39069 211.442C3.95438 209.292 3.55576 207.099 3.20563 204.925L2.11652 205.101C2.46881 207.289 2.87006 209.497 3.30905 211.662ZM328.797 205.283C329.151 203.103 329.465 200.881 329.732 198.68L328.637 198.547C328.372 200.734 328.059 202.941 327.708 205.106L328.797 205.283ZM1.18896 198.495L2.28455 198.364C2.02222 196.178 1.80087 193.96 1.62744 191.773L0.527496 191.86C0.702576 194.062 0.925079 196.295 1.18896 198.495ZM330.401 192.045C330.579 189.84 330.714 187.6 330.804 185.388L329.702 185.343C329.613 187.54 329.478 189.765 329.301 191.956L330.401 192.045ZM0.131134 185.204L1.23315 185.16C1.14694 182.959 1.10284 180.731 1.10284 178.536L1.10336 178.17H0.000244141L-0.000335693 178.534C-0.000366211 180.745 0.0438538 182.988 0.131134 185.204ZM329.84 178.719H330.943L330.943 178.534C330.943 176.38 330.901 174.198 330.819 172.052L329.717 172.095C329.798 174.227 329.84 176.394 329.84 178.536L329.84 178.719ZM1.24881 171.548C1.33984 169.356 1.47662 167.131 1.65652 164.936L0.556641 164.846C0.376221 167.056 0.238281 169.295 0.146698 171.502L1.24881 171.548ZM329.33 165.482L330.43 165.395C330.257 163.184 330.036 160.951 329.776 158.758L328.68 158.889C328.939 161.067 329.158 163.286 329.33 165.482ZM2.32764 158.345C2.59372 156.167 2.90829 153.961 3.26379 151.788L2.17471 151.609C1.8176 153.797 1.50034 156.019 1.23315 158.211L2.32764 158.345ZM327.766 152.328L328.856 152.153C328.506 149.967 328.107 147.759 327.669 145.591L326.588 145.809C327.023 147.963 327.419 150.156 327.766 152.328ZM4.46396 145.273C4.90671 143.115 5.3985 140.941 5.92584 138.812L4.85501 138.546C4.32388 140.69 3.82886 142.878 3.38339 145.05L4.46396 145.273ZM325.148 139.343L326.22 139.081C325.695 136.932 325.119 134.763 324.507 132.635L323.447 132.941C324.055 135.055 324.627 137.209 325.148 139.343ZM7.64786 132.415C8.2619 130.306 8.92764 128.179 9.62787 126.094L8.58185 125.743C7.87732 127.842 7.20663 129.983 6.58884 132.106L7.64786 132.415ZM321.488 126.613L322.535 126.265C321.837 124.162 321.085 122.042 320.3 119.963L319.268 120.353C320.048 122.418 320.795 124.524 321.488 126.613ZM11.8633 119.858C12.647 117.804 13.4809 115.744 14.3416 113.735L13.3279 113.3C12.4612 115.323 11.6214 117.396 10.8322 119.464L11.8633 119.858ZM316.796 114.19L317.811 113.758C316.944 111.718 316.023 109.667 315.073 107.662L314.077 108.135C315.02 110.126 315.935 112.164 316.796 114.19ZM17.0661 107.715C18.0103 105.736 19.0078 103.748 20.0312 101.808L19.0563 101.292C18.0253 103.246 17.0208 105.247 16.0706 107.24L17.0661 107.715ZM311.115 102.197L312.092 101.684C311.064 99.7223 309.981 97.7537 308.873 95.8328L307.918 96.3849C309.018 98.2929 310.094 100.249 311.115 102.197ZM23.2341 96.0237C24.3372 94.1228 25.4921 92.221 26.6674 90.3708L25.7366 89.7782C24.5532 91.6409 23.3908 93.5555 22.2801 95.4689L23.2341 96.0237ZM304.489 90.7086L305.421 90.1182C304.238 88.2453 303 86.3714 301.743 84.5487L300.836 85.176C302.084 86.9866 303.313 88.8479 304.489 90.7086ZM30.3264 84.8589C31.5777 83.054 32.8823 81.2499 34.2036 79.4975L33.3235 78.8322C31.993 80.5964 30.6798 82.4124 29.4204 84.2297L30.3264 84.8589ZM296.964 79.796L297.846 79.1328C296.516 77.3615 295.133 75.5941 293.735 73.8789L292.881 74.5771C294.269 76.2807 295.643 78.0366 296.964 79.796ZM38.2935 74.2943C39.6848 72.5951 41.1306 70.9007 42.5892 69.2583L41.7651 68.5245C40.2962 70.1779 38.8413 71.8836 37.4403 73.5945L38.2935 74.2943ZM288.592 69.5271L289.418 68.7954C287.953 67.139 286.434 65.4886 284.902 63.8899L284.106 64.6544C285.628 66.2423 287.137 67.882 288.592 69.5271ZM47.0836 64.3967C48.6101 62.8112 50.1867 61.2373 51.7704 59.7184L51.0071 58.921C49.4132 60.4501 47.8258 62.0345 46.2896 63.6305L47.0836 64.3967ZM279.43 59.9659L280.195 59.1701C278.603 57.6369 276.957 56.1142 275.304 54.6438L274.571 55.4693C276.214 56.93 277.849 58.443 279.43 59.9659ZM56.6403 55.2305C58.2885 53.7717 59.9868 52.3283 61.6873 50.9407L60.9904 50.0847C59.2786 51.4818 57.5689 52.9346 55.9099 54.4034L56.6403 55.2305ZM269.537 51.172L270.237 50.3179C268.525 48.9147 266.764 47.5292 265.002 46.1996L264.338 47.0812C266.088 48.4019 267.838 49.7785 269.537 51.172ZM66.9041 46.856C68.6639 45.534 70.4732 44.231 72.2803 42.9833L71.6544 42.0742C69.8349 43.3303 68.0137 44.6419 66.2416 45.9729L66.9041 46.856ZM258.979 43.202L259.607 42.2945C257.789 41.0331 255.923 39.7937 254.062 38.6107L253.471 39.543C255.319 40.7179 257.173 41.9489 258.979 43.202ZM77.8095 39.329C79.6694 38.153 81.5779 36.9994 83.4825 35.9002L82.9309 34.9437C81.0144 36.0501 79.0931 37.2116 77.2202 38.3953L77.8095 39.329ZM247.822 36.1097L248.375 35.1543C246.468 34.047 244.51 32.9622 242.557 31.9305L242.042 32.9069C243.983 33.9319 245.927 35.0095 247.822 36.1097ZM89.2897 32.7023C91.2379 31.6805 93.2342 30.6844 95.2234 29.7416L94.7515 28.7436C92.7488 29.6926 90.7386 30.6954 88.7779 31.7242L89.2897 32.7023ZM236.139 29.9416L236.614 28.9447C234.625 27.9954 232.587 27.0729 230.558 26.2026L230.124 27.2176C232.139 28.0819 234.163 28.9983 236.139 29.9416ZM101.274 27.0233C103.301 26.1614 105.373 25.3302 107.432 24.5522L107.042 23.5191C104.97 24.3022 102.883 25.1393 100.843 26.0069L101.274 27.0233ZM224.005 24.7401L224.398 23.7081C222.334 22.9203 220.224 22.1638 218.126 21.4594L217.775 22.5065C219.859 23.206 221.955 23.9577 224.005 24.7401ZM113.687 22.3329C115.772 21.6408 117.899 20.9822 120.01 20.3753L119.705 19.3142C117.58 19.9251 115.439 20.588 113.34 21.2847L113.687 22.3329ZM211.459 20.5271L211.767 19.467C209.645 18.8491 207.481 18.2663 205.333 17.7344L205.068 18.8063C207.201 19.3346 209.351 19.9138 211.459 20.5271ZM126.406 18.6763C128.536 18.1563 130.71 17.6724 132.867 17.238L132.649 16.1553C130.478 16.5926 128.289 17.0801 126.145 17.6033L126.406 18.6763ZM198.613 17.3469L198.834 16.2653C196.672 15.8221 194.467 15.4166 192.281 15.06L192.104 16.1497C194.275 16.5042 196.465 16.9069 198.613 17.3469ZM139.379 16.0626C141.549 15.7164 143.754 15.4096 145.935 15.1513L145.805 14.0546C143.61 14.3148 141.39 14.6235 139.206 14.9723L139.379 16.0626ZM185.552 15.2163L185.686 14.1201C183.491 13.8527 181.261 13.6259 179.058 13.4469L178.968 14.5474C181.157 14.7256 183.372 14.9505 185.552 15.2163ZM152.521 14.5043C154.708 14.3337 156.931 14.2048 159.128 14.1215L159.086 13.0178C156.874 13.1019 154.637 13.2316 152.435 13.4033L152.521 14.5043ZM172.362 14.1428L172.407 13.0396C170.202 12.9485 167.96 12.9005 165.746 12.8967L165.745 14.001C167.944 14.0048 170.171 14.0525 172.362 14.1428Z" fill="#CCCCCC"/>
<path d="M223.902 281.908C165.109 281.908 117.449 234.199 117.449 175.346C117.449 116.494 165.109 68.7852 223.902 68.7852C282.695 68.7852 330.355 116.494 330.355 175.346C330.355 234.199 282.695 281.908 223.902 281.908Z" fill="#3F3D56"/>
<path d="M261.686 253.197C230.462 253.197 205.15 218.342 205.15 175.346C205.15 132.351 230.462 97.4958 261.686 97.4958C292.911 97.4958 318.223 132.351 318.223 175.346C318.223 218.342 292.911 253.197 261.686 253.197Z" fill="white"/>
<path d="M280.427 216.685C271.712 216.685 264.648 205.561 264.648 191.839C264.648 178.117 271.712 166.993 280.427 166.993C289.141 166.993 296.205 178.117 296.205 191.839C296.205 205.561 289.141 216.685 280.427 216.685Z" fill="#3F3D56"/>
<path d="M14.7525 126.326C8.96467 126.326 4.27267 121.63 4.27267 115.836C4.27267 110.042 8.96467 105.345 14.7525 105.345C20.5404 105.345 25.2324 110.042 25.2324 115.836C25.2324 121.63 20.5404 126.326 14.7525 126.326Z" fill="#83BB62"/>
<path d="M135.808 30.9193C127.278 30.9193 120.364 23.9978 120.364 15.4597C120.364 6.92153 127.278 0 135.808 0C144.337 0 151.252 6.92153 151.252 15.4597C151.252 23.9978 144.337 30.9193 135.808 30.9193Z" fill="#83BB62"/>
<path d="M146.04 352.925C140.252 352.925 135.56 348.228 135.56 342.435C135.56 336.641 140.252 331.944 146.04 331.944C151.828 331.944 156.52 336.641 156.52 342.435C156.52 348.228 151.828 352.925 146.04 352.925Z" fill="#83BB62"/>
</g>
<defs>
<clipPath id="clip0_687_1071">
<rect width="536" height="385" fill="white" transform="matrix(-1 0 0 1 536 0)"/>
</clipPath>
</defs>
</svg>
