<svg width="645" height="439" viewBox="0 0 645 439" fill="none" xmlns="http://www.w3.org/2000/svg">
<g clip-path="url(#clip0_691_1515)">
<path opacity="0.1" d="M640.458 168.383H585.365V235.083H636.431C636.563 235.771 636.694 236.459 636.838 237.148H585.365V290.925L585.623 290.841C587.079 290.332 588.523 289.794 589.955 289.213L590.884 288.842C592.346 288.232 593.79 287.587 595.216 286.909C595.72 286.675 596.223 286.43 596.72 286.179C604.642 282.281 611.945 277.24 618.394 271.216C618.58 271.06 618.754 270.886 618.928 270.725C619.802 269.881 620.665 269.019 621.504 268.139C621.816 267.816 622.103 267.493 622.427 267.158C623.416 266.086 624.368 264.979 625.297 263.866C625.435 263.698 625.567 263.53 625.705 263.375C629.444 258.793 632.581 253.752 635.041 248.376C635.118 248.22 635.184 248.047 635.256 247.885C636.011 246.197 636.688 244.485 637.276 242.744C637.521 242.014 637.761 241.277 637.971 240.541C638.049 240.32 638.109 240.098 638.174 239.883C641.224 229.205 641.578 218.096 641.578 207.054C641.578 205.765 641.578 204.478 641.578 203.193C641.578 198.734 641.512 194.245 641.434 189.762C641.434 188.601 641.374 187.44 641.35 186.273C641.272 183.316 641.171 180.348 641.027 177.391C640.991 176.571 640.949 175.745 640.901 174.931C640.901 174.458 640.853 173.985 640.817 173.512C640.709 171.793 640.589 170.083 640.458 168.383Z" fill="#83BB62"/>
<path opacity="0.1" d="M585.365 94.118H615.59C610.641 87.2416 605.272 80.6772 599.513 74.4625C595.025 69.5665 590.303 64.7903 585.365 60.1936V94.118Z" fill="#83BB62"/>
<path opacity="0.1" d="M585.365 96.1829V166.318H640.284C640.284 166.115 640.284 165.905 640.23 165.72C640.182 165.163 640.134 164.612 640.08 164.062C640.026 163.415 639.954 162.763 639.888 162.116C639.822 161.47 639.738 160.71 639.655 160.01C639.571 159.309 639.499 158.603 639.409 157.903C639.319 157.203 639.235 156.502 639.139 155.808C639.043 155.114 638.953 154.413 638.852 153.719C638.768 153.121 638.684 152.564 638.594 151.989C638.468 151.169 638.336 150.355 638.198 149.541C638.198 149.422 638.157 149.296 638.139 149.182C637.142 143.238 635.792 137.358 634.094 131.574C632.3 125.448 630.022 119.474 627.281 113.708C624.333 107.604 620.906 101.742 617.034 96.1769L585.365 96.1829Z" fill="#83BB62"/>
<path opacity="0.1" d="M454.533 168.383V235.083H572.208V168.383H454.533ZM454.533 237.142V282.312C468.231 277.937 483.895 279.709 498.096 283.3C509.092 286.083 519.806 289.884 530.784 292.607C535.686 293.861 540.664 294.8 545.686 295.42L546.921 295.558L548.718 295.719L550.516 295.851C550.578 295.845 550.64 295.845 550.702 295.851C550.965 295.851 551.235 295.851 551.505 295.887H551.78C552.104 295.887 552.427 295.923 552.751 295.923C553.212 295.923 553.68 295.923 554.147 295.965H554.746C555.208 295.965 555.675 295.965 556.143 295.965H557.167H557.994C558.348 295.965 558.695 295.965 559.043 295.929C559.606 295.929 560.169 295.881 560.739 295.845L561.787 295.773C562.219 295.773 562.656 295.713 563.081 295.671C563.998 295.599 564.879 295.51 565.808 295.396C566.167 295.354 566.533 295.312 566.893 295.258L567.426 295.192C568.331 295.073 569.224 294.935 570.128 294.78C570.793 294.678 571.459 294.558 572.13 294.432V237.142H454.533ZM542.055 94.0941V96.153H454.533V166.318H572.208V96.177H566.305V94.118H572.208V48.7917C549.317 30.3692 522.562 15.9447 492.763 9.28911C480.212 6.51534 467.386 5.17799 454.533 5.30293V94.118L542.055 94.0941ZM273.005 93.6991L273.419 94.0941H441.368V5.91941C411.467 8.40329 382.309 18.4346 358.802 35.0556C347.506 43.0339 337.361 52.4966 324.688 58.6135C318.038 61.9097 310.772 63.785 303.356 64.12L273.005 93.6991ZM271.849 57.5242V77.485L288.076 61.666C282.041 59.5832 277.284 58.1646 271.825 57.5482L271.849 57.5242ZM271.309 308.641H271.849V352.399C277.973 351.941 284.073 351.314 290.149 350.52C317.314 347.016 343.933 340.128 369.384 330.015C372.116 328.913 374.829 327.782 377.521 326.621C379.315 325.823 381.098 325.025 382.872 324.227C385.533 323.006 388.173 321.751 390.794 320.462C402.396 314.776 413.586 308.288 424.284 301.046C424.949 300.591 425.621 300.136 426.28 299.675C427.602 298.758 428.918 297.832 430.228 296.898C430.882 296.425 431.535 295.959 432.182 295.48L433.53 294.486C434.872 293.487 436.209 292.487 437.563 291.494C438.815 290.596 440.08 289.698 441.362 288.86V237.148H306.43C306.526 236.848 306.615 236.549 306.717 236.232C306.609 236.537 306.514 236.83 306.424 237.148H271.825V308.629L271.309 308.641ZM271.849 96.165V166.318H441.368V96.177L271.849 96.165ZM271.849 168.371V235.083H441.368V168.383L271.849 168.371ZM237.957 59.5772L258.666 79.7654V57.4464C251.727 57.8774 244.824 58.5876 237.957 59.5772ZM93.7427 168.383V235.083H258.666V168.383H93.7427ZM133.603 333.121C158.599 342.626 184.733 348.819 211.34 351.544H211.453C216.479 352.074 221.522 352.485 226.584 352.777H226.769C237.37 353.375 248.012 353.513 258.636 353.118V237.142H93.7427L94.3419 313.944M48.0762 235.083H80.6018V168.383H67.7366C66.4003 170.723 65.106 173.087 63.8776 175.476C63.2185 176.75 62.5773 178.043 61.9541 179.336C53.4871 196.903 48.1061 216.187 48.0762 235.083ZM48.0762 237.142C48.3398 250.692 51.3959 263.997 58.1011 276.285C63.6739 286.46 71.4158 295.438 80.5778 303.219V237.142H48.0762ZM68.941 166.318H80.6018V148.961C76.3921 154.524 72.499 160.319 68.941 166.318ZM141.98 94.118H254.777L255.184 93.723L254.585 93.1245L222.869 62.2346C213.45 64.1901 204.15 66.6739 195.011 69.6743C194.148 69.9556 193.285 70.2728 192.428 70.5421C174.794 76.5214 157.876 84.4279 141.98 94.118ZM93.7427 133.244V166.318H238.382H258.654V98.0863L256.341 96.2069H138.684C122.17 106.569 107.065 119.017 93.7427 133.244Z" fill="#83BB62"/>
<path opacity="0.1" d="M585.365 131.562V166.318H640.284C640.284 166.115 640.284 165.905 640.23 165.72C640.182 165.163 640.134 164.612 640.08 164.062C640.026 163.415 639.954 162.763 639.888 162.116C639.822 161.47 639.738 160.71 639.655 160.01C639.571 159.309 639.499 158.603 639.409 157.903C639.319 157.203 639.235 156.502 639.139 155.808C639.043 155.114 638.953 154.413 638.852 153.719C638.768 153.121 638.684 152.564 638.594 151.989C638.468 151.169 638.336 150.355 638.198 149.541C638.198 149.422 638.157 149.296 638.139 149.182C637.142 143.238 635.792 137.358 634.094 131.574L585.365 131.562Z" fill="#83BB62"/>
<path opacity="0.1" d="M640.458 168.383H585.365V235.083H636.431C636.563 235.771 636.694 236.459 636.838 237.148H585.365V290.925L585.623 290.841C587.079 290.332 588.523 289.794 589.955 289.213L590.884 288.842C592.346 288.232 593.79 287.587 595.216 286.909C595.72 286.675 596.223 286.43 596.72 286.179C604.642 282.281 611.945 277.24 618.394 271.216C618.58 271.06 618.754 270.886 618.928 270.725C619.802 269.881 620.665 269.019 621.504 268.139C621.816 267.816 622.103 267.493 622.427 267.158C623.416 266.086 624.368 264.979 625.297 263.866C625.435 263.698 625.567 263.53 625.705 263.375C629.444 258.793 632.581 253.752 635.041 248.376C635.118 248.22 635.184 248.047 635.256 247.885C636.011 246.197 636.688 244.485 637.276 242.744C637.521 242.014 637.761 241.277 637.971 240.541C638.049 240.32 638.109 240.098 638.174 239.883C641.224 229.205 641.578 218.096 641.578 207.054C641.578 205.765 641.578 204.478 641.578 203.193C641.578 198.734 641.512 194.245 641.434 189.762C641.434 188.601 641.374 187.44 641.35 186.273C641.272 183.316 641.171 180.348 641.027 177.391C640.991 176.571 640.949 175.745 640.901 174.931C640.901 174.458 640.853 173.985 640.817 173.512C640.709 171.793 640.589 170.083 640.458 168.383Z" fill="#83BB62"/>
<path opacity="0.1" d="M530.789 106.226V166.324H572.213V106.226H566.311V85.8763H542.06V106.226H530.789Z" fill="#83BB62"/>
<path opacity="0.1" d="M572.213 168.383H530.789V235.083H572.213V168.383Z" fill="#83BB62"/>
<path opacity="0.1" d="M572.213 237.148H530.789V292.607C535.69 293.858 540.666 294.797 545.686 295.42L546.926 295.558L548.724 295.719C549.323 295.767 549.922 295.815 550.521 295.851H550.707C550.971 295.851 551.24 295.851 551.51 295.887H551.786C552.109 295.887 552.439 295.917 552.762 295.923C553.23 295.923 553.691 295.923 554.159 295.959H554.758C555.219 295.959 555.681 295.959 556.154 295.959H557.173C557.448 295.959 557.73 295.959 558.006 295.959L559.054 295.923C559.612 295.923 560.181 295.875 560.744 295.839L561.787 295.767L563.087 295.665C563.998 295.593 564.885 295.498 565.807 295.39L566.892 295.252L567.425 295.186C568.33 295.067 569.223 294.929 570.128 294.774C570.799 294.672 571.464 294.546 572.135 294.426L572.213 237.148Z" fill="#83BB62"/>
<path opacity="0.1" d="M305.992 99.1277H271.83V166.318H305.992V99.1277Z" fill="#83BB62"/>
<path opacity="0.1" d="M271.83 168.383V235.083H441.373V206.318H351.065V223.286H305.986V168.383H271.83Z" fill="#83BB62"/>
<path opacity="0.1" d="M271.285 308.665H271.824V352.399C277.948 351.941 284.049 351.314 290.125 350.52C317.311 347.022 343.95 340.131 369.419 330.009C376.702 327.096 383.839 323.916 390.829 320.468C402.419 314.774 413.599 308.284 424.29 301.046C426.958 299.238 429.589 297.385 432.182 295.486C433.979 294.169 435.777 292.816 437.575 291.512C438.827 290.608 440.091 289.716 441.38 288.872V237.148H306.465C306.561 236.836 306.651 236.549 306.747 236.226C306.645 236.531 306.549 236.824 306.459 237.148H271.824V308.635L271.285 308.665Z" fill="#83BB62"/>
<path opacity="0.1" d="M182.738 94.118H204.993V87.9712H195.01V69.6743C194.147 69.9616 193.279 70.2728 192.422 70.5422V87.9712H182.738V94.118Z" fill="#83BB62"/>
<path opacity="0.1" d="M129.096 166.318H238.387H238.351H238.399H258.665V99.1277H252.924V148.805H226.679V119.4H204.993V96.1829H182.738V119.4H161.064V148.793H129.096V166.318Z" fill="#83BB62"/>
<path opacity="0.1" d="M129.096 168.383V235.083H258.665V168.383H129.096ZM133.62 333.121C158.616 342.626 184.751 348.819 211.357 351.544H211.471C216.496 352.074 221.54 352.485 226.601 352.777H226.787C237.387 353.375 248.029 353.513 258.653 353.118V237.142H129.096V260.789H93.7422L93.9279 313.591" fill="#83BB62"/>
<path opacity="0.1" d="M78.3183 237.148H48.0996C48.3633 250.692 51.4253 263.991 58.1305 276.279C63.6973 286.49 71.4452 295.432 80.6013 303.213V260.789H78.3183V237.148Z" fill="#83BB62"/>
<path opacity="0.1" d="M48.082 235.083H78.3186V179.336H61.9839C53.493 196.903 48.106 216.193 48.082 235.083Z" fill="#83BB62"/>
<path opacity="0.1" d="M290.13 117.808H271.83V138.876H290.13V117.808Z" fill="#83BB62"/>
<path opacity="0.1" d="M290.13 161.47H271.83V166.318H290.13V161.47Z" fill="#83BB62"/>
<path opacity="0.1" d="M290.13 168.383H271.83V182.538H290.13V168.383Z" fill="#83BB62"/>
<path opacity="0.1" d="M290.13 205.138H271.83V226.206H290.13V205.138Z" fill="#83BB62"/>
<path opacity="0.1" d="M290.13 248.807H271.83V269.875H290.13V248.807Z" fill="#83BB62"/>
<path opacity="0.1" d="M271.824 308.635L271.285 308.665H271.824V313.555H290.125V292.469H271.824V308.635Z" fill="#83BB62"/>
<path opacity="0.1" d="M271.824 336.126V352.399C277.948 351.941 284.048 351.314 290.124 350.52V336.155L271.824 336.126Z" fill="#83BB62"/>
<path opacity="0.1" d="M441.373 233.538H362.947V235.083H441.373V233.538Z" fill="#83BB62"/>
<path opacity="0.1" d="M441.373 237.148H362.947V243.079H441.373V237.148Z" fill="#83BB62"/>
<path opacity="0.1" d="M441.373 262.519H362.947V272.059H441.373V262.519Z" fill="#83BB62"/>
<path opacity="0.1" d="M362.941 291.47V301.046H424.29C426.958 299.238 429.589 297.385 432.181 295.486C433.979 294.169 435.777 292.822 437.574 291.512L362.941 291.47Z" fill="#83BB62"/>
<path opacity="0.1" d="M362.941 320.468V330.009H369.419C376.705 327.096 383.842 323.916 390.829 320.468H362.941Z" fill="#83BB62"/>
<path opacity="0.1" d="M211.363 188.559H226.799V174.847H211.363V188.559Z" fill="#83BB62"/>
<path opacity="0.1" d="M545.656 124.667H561.092V110.955H545.656V124.667Z" fill="#83BB62"/>
<path opacity="0.1" d="M545.656 156.52H561.092V142.808H545.656V156.52Z" fill="#83BB62"/>
<path opacity="0.1" d="M545.656 188.368H561.092V174.656H545.656V188.368Z" fill="#83BB62"/>
<path opacity="0.1" d="M545.656 220.221H561.092V206.509H545.656V220.221Z" fill="#83BB62"/>
<path opacity="0.1" d="M545.656 252.075H561.092V238.363H545.656V252.075Z" fill="#83BB62"/>
<path opacity="0.1" d="M545.656 283.922H561.092V270.21H545.656V283.922Z" fill="#83BB62"/>
<path opacity="0.1" d="M152.423 188.559H167.859V174.847H152.423V188.559Z" fill="#83BB62"/>
<path opacity="0.1" d="M211.363 222.382H226.799V208.67H211.363V222.382Z" fill="#83BB62"/>
<path opacity="0.1" d="M152.423 222.382H167.859V208.67H152.423V222.382Z" fill="#83BB62"/>
<path opacity="0.1" d="M211.363 256.205H226.799V242.492H211.363V256.205Z" fill="#83BB62"/>
<path opacity="0.1" d="M152.423 256.205H167.859V242.492H152.423V256.205Z" fill="#83BB62"/>
<path opacity="0.1" d="M211.363 290.033H226.799V276.321H211.363V290.033Z" fill="#83BB62"/>
<path opacity="0.1" d="M152.423 290.033H167.859V276.321H152.423V290.033Z" fill="#83BB62"/>
<path opacity="0.1" d="M211.363 323.856H226.799V310.144H211.363V323.856Z" fill="#83BB62"/>
<path opacity="0.1" d="M152.423 323.856H167.859V310.144H152.423V323.856Z" fill="#83BB62"/>
<path opacity="0.1" d="M226.805 352.806V343.96H211.369V351.55L226.805 352.806Z" fill="#83BB62"/>
<path opacity="0.1" d="M585.365 149.164V157.011H638.198V149.164H585.365ZM632.937 149.661H637.27V156.52H632.937V149.661ZM627.676 149.661H632.009V156.52H627.676V149.661ZM622.427 149.661H626.759V156.52H622.427V149.661ZM617.166 149.661H621.498V156.52H617.166V149.661ZM611.911 149.661H616.261V156.52H611.929L611.911 149.661ZM606.65 149.661H610.982V156.52H606.674L606.65 149.661ZM601.388 149.661H605.721V156.52H601.388V149.661ZM596.133 149.661H600.466V156.52H596.133V149.661ZM590.878 149.661H595.21V156.52H590.878V149.661ZM585.623 149.661H589.955V156.52H585.623V149.661Z" fill="#83BB62"/>
<path opacity="0.1" d="M585.365 172.004V179.851H638.198V172.004H585.365ZM632.937 172.501H637.27V179.354H632.937V172.501ZM627.676 172.501H632.009V179.354H627.676V172.501ZM622.427 172.501H626.759V179.354H622.427V172.501ZM617.166 172.501H621.498V179.354H617.166V172.501ZM611.911 172.501H616.261V179.354H611.929L611.911 172.501ZM606.65 172.501H610.982V179.354H606.674L606.65 172.501ZM601.388 172.501H605.721V179.354H601.388V172.501ZM596.133 172.501H600.466V179.354H596.133V172.501ZM590.878 172.501H595.21V179.354H590.878V172.501ZM585.623 172.501H589.955V179.354H585.623V172.501Z" fill="#83BB62"/>
<path opacity="0.1" d="M585.365 194.844V202.684H638.198V194.844H585.365ZM632.937 195.335H637.27V202.188H632.937V195.335ZM627.676 195.335H632.009V202.188H627.676V195.335ZM622.427 195.335H626.759V202.188H622.427V195.335ZM617.166 195.335H621.498V202.188H617.166V195.335ZM611.911 195.335H616.261V202.188H611.929L611.911 195.335ZM606.65 195.335H610.982V202.188H606.674L606.65 195.335ZM601.388 195.335H605.721V202.188H601.388V195.335ZM596.133 195.335H600.466V202.188H596.133V195.335ZM590.878 195.335H595.21V202.188H590.878V195.335ZM585.623 195.335H589.955V202.188H585.623V195.335Z" fill="#83BB62"/>
<path opacity="0.1" d="M585.365 217.677V225.512H638.198V217.677H585.365ZM632.937 218.162H637.27V225.033H632.937V218.162ZM627.676 218.162H632.009V225.033H627.676V218.162ZM622.427 218.162H626.759V225.033H622.427V218.162ZM617.166 218.162H621.498V225.033H617.166V218.162ZM611.911 218.162H616.261V225.033H611.929L611.911 218.162ZM606.65 218.162H610.982V225.033H606.674L606.65 218.162ZM601.388 218.162H605.721V225.033H601.388V218.162ZM596.133 218.162H600.466V225.033H596.133V218.162ZM590.878 218.162H595.21V225.033H590.878V218.162ZM585.623 218.162H589.955V225.033H585.623V218.162Z" fill="#83BB62"/>
<path opacity="0.1" d="M585.365 240.505V248.376H635.041C635.112 248.22 635.184 248.047 635.25 247.885H632.937V241.002H637.27V242.714C637.521 241.984 637.761 241.247 637.971 240.505H585.365ZM627.676 241.002H632.009V247.855H627.676V241.002ZM622.427 241.002H626.759V247.855H622.427V241.002ZM617.166 241.002H621.498V247.855H617.166V241.002ZM611.911 241.002H616.261V247.855H611.929L611.911 241.002ZM606.65 241.002H610.982V247.855H606.674L606.65 241.002ZM601.388 241.002H605.721V247.855H601.388V241.002ZM596.133 241.002H600.466V247.855H596.133V241.002ZM590.878 241.002H595.21V247.855H590.878V241.002ZM585.623 241.002H589.955V247.855H585.623V241.002Z" fill="#83BB62"/>
<path opacity="0.1" d="M585.365 263.339V271.18H618.388C618.58 271.018 618.748 270.85 618.922 270.689H617.166V263.836H621.498V268.127L622.427 267.14V263.848H625.297C625.435 263.68 625.567 263.513 625.705 263.357L585.365 263.339ZM611.911 263.83H616.261V270.689H611.929L611.911 263.83ZM606.65 263.83H610.982V270.689H606.674L606.65 263.83ZM601.388 263.83H605.721V270.689H601.388V263.83ZM596.133 263.83H600.466V270.689H596.133V263.83ZM590.878 263.83H595.21V270.689H590.878V263.83ZM585.623 263.83H589.955V270.689H585.623V263.83Z" fill="#83BB62"/>
<path opacity="0.1" d="M585.365 286.179V290.925L585.623 290.841V286.652H589.955V289.201L590.878 288.818V286.681H595.21V286.921C595.72 286.687 596.223 286.442 596.72 286.191L585.365 286.179Z" fill="#83BB62"/>
<path opacity="0.1" d="M306.423 237.142C306.519 236.842 306.609 236.543 306.711 236.226C306.609 236.531 306.513 236.842 306.423 237.142ZM542.055 94.118V96.177H566.305V94.118H542.055ZM306.423 237.142C306.519 236.842 306.609 236.543 306.711 236.226C306.609 236.531 306.513 236.842 306.423 237.142ZM306.423 237.142C306.519 236.842 306.609 236.543 306.711 236.226C306.609 236.531 306.513 236.842 306.423 237.142Z" fill="#83BB62"/>
<path opacity="0.1" d="M645 417.794H44.6602V438.994H645V417.794Z" fill="#83BB62"/>
<path d="M65.8115 283.012H62.7734V351.256H65.8115V283.012Z" fill="#535461"/>
<path d="M84.8798 351.047L84.688 354.123L84.4244 358.463L84.3105 360.258L84.0409 364.597L83.927 366.393L83.6574 370.726L80.5953 420.075C80.463 422.198 79.5267 424.192 77.9766 425.652C76.4264 427.111 74.3784 427.927 72.2482 427.933H56.3389C54.2116 427.927 52.1661 427.114 50.6164 425.658C49.0667 424.202 48.1285 422.213 47.9918 420.093L44.9238 370.744L44.6601 366.411L44.5463 364.615L44.2706 360.276L44.1628 358.48L43.8931 354.141L43.7014 351.065C43.6654 350.475 43.7506 349.885 43.9518 349.329C44.153 348.774 44.4658 348.265 44.8711 347.835C45.2764 347.405 45.7656 347.063 46.3085 346.829C46.8513 346.594 47.4364 346.474 48.0278 346.474H80.5594C81.1491 346.473 81.7328 346.593 82.2745 346.825C82.8162 347.058 83.3044 347.399 83.7092 347.828C84.1139 348.256 84.4266 348.763 84.6279 349.316C84.8292 349.87 84.9149 350.459 84.8798 351.047Z" fill="#3F3D56"/>
<path d="M84.6933 354.123L84.4237 358.462H44.1621L43.8984 354.123H84.6933Z" fill="#9D9CB5"/>
<path d="M84.3153 360.27L84.0456 364.615H44.545L44.2754 360.27H84.3153Z" fill="#9D9CB5"/>
<path d="M83.927 366.423L83.6634 370.762H44.9298L44.6602 366.423H83.927Z" fill="#9D9CB5"/>
<path d="M39.2609 308.593C56.9319 321.36 64.2903 341.339 64.2903 341.339C64.2903 341.339 42.994 340.609 25.341 327.836C7.688 315.063 0.263672 295.091 0.263672 295.091C0.263672 295.091 21.5839 295.821 39.2609 308.593Z" fill="#83BB62"/>
<path d="M0.263672 295.091C0.263672 295.091 22.3689 307.348 29.4577 317.493C36.5464 327.638 64.2663 341.339 64.2663 341.339" stroke="#535461" stroke-width="2" stroke-miterlimit="10"/>
<path d="M50.6634 282.863C60.2869 289.812 64.2897 300.687 64.2897 300.687C64.2897 300.687 52.7008 300.286 43.0773 293.337C33.4538 286.388 29.457 275.513 29.457 275.513C29.457 275.513 41.0459 275.908 50.6634 282.863Z" fill="#83BB62"/>
<path d="M29.457 275.513C29.457 275.513 41.4834 282.187 45.3483 287.705C49.2133 293.223 64.2897 300.687 64.2897 300.687" stroke="#535461" stroke-width="2" stroke-miterlimit="10"/>
<path d="M78.2694 300.13C67.2198 312.262 64.8828 328.111 64.8828 328.111C64.8828 328.111 80.4625 324.293 91.5121 312.161C102.562 300.029 104.899 284.186 104.899 284.186C104.899 284.186 89.319 287.998 78.2694 300.13Z" fill="#83BB62"/>
<path d="M104.899 284.186C104.899 284.186 90.5174 296.617 86.8442 305.188C83.171 313.759 64.8828 328.111 64.8828 328.111" stroke="#535461" stroke-width="2" stroke-miterlimit="10"/>
<path opacity="0.2" d="M243.462 45.8949C250.011 45.8949 255.321 40.5918 255.321 34.0501C255.321 27.5084 250.011 22.2053 243.462 22.2053C236.913 22.2053 231.604 27.5084 231.604 34.0501C231.604 40.5918 236.913 45.8949 243.462 45.8949Z" stroke="#6C63FF" stroke-miterlimit="10"/>
<path opacity="0.2" d="M243.463 55.4593C255.301 55.4593 264.897 45.8741 264.897 34.0501C264.897 22.2261 255.301 12.6408 243.463 12.6408C231.626 12.6408 222.029 22.2261 222.029 34.0501C222.029 45.8741 231.626 55.4593 243.463 55.4593Z" stroke="#6C63FF" stroke-miterlimit="10"/>
<path opacity="0.2" d="M243.464 67.8009C262.126 67.8009 277.254 52.6901 277.254 34.0501C277.254 15.41 262.126 0.299255 243.464 0.299255C224.802 0.299255 209.674 15.41 209.674 34.0501C209.674 52.6901 224.802 67.8009 243.464 67.8009Z" stroke="#6C63FF" stroke-miterlimit="10"/>
<path d="M325.388 434.062C325.07 431.704 323.446 428.675 323.446 428.675L314.775 416.017H314.853C314.853 416.017 313.481 409.654 314.853 406.542C316.225 403.43 309.976 395.733 309.976 395.733C309.976 395.733 309.215 393.805 311.174 391.435C313.133 389.065 309.976 382.11 309.976 382.11C309.976 382.11 308.448 367.596 308.298 365.352C308.148 363.107 306.926 350.843 306.926 350.843L304.025 324.778L298.872 255.708L298.776 254.415C299.417 254.11 299.753 253.918 299.753 253.918L298.674 215.75L299.567 214.966C307.357 208.101 325.28 192.222 325.106 191.857C324.872 191.414 322.931 165.313 322.709 158.759C322.514 154.096 321.476 149.508 319.647 145.214C319.198 144.34 317.903 138.63 317.364 136.188L317.13 135.105C317.13 135.105 311.869 125.331 312.337 120.89C312.804 116.449 313.709 113.109 302.497 111.559C302.497 111.559 293.042 110.188 287.475 106.448C284.151 104.21 280.533 102.442 276.725 101.193C276.725 101.193 274.664 97.6014 272.656 98.2957V90.6705C274.198 90.0674 275.523 89.0183 276.464 87.6576C277.405 86.2969 277.917 84.6867 277.935 83.0333V55.567C277.904 53.3362 276.987 51.2091 275.385 49.6535C273.784 48.0979 271.63 47.2411 269.396 47.2715H245.554C245.208 47.2801 244.864 47.3101 244.523 47.3613V34.7922C244.523 34.6106 244.485 34.431 244.413 34.2642C244.341 34.0975 244.236 33.9472 244.103 33.8226C243.836 33.5611 243.477 33.415 243.103 33.4156C242.732 33.4108 242.374 33.553 242.108 33.811C241.842 34.069 241.689 34.4218 241.683 34.7922V48.2531C240.353 48.946 239.238 49.9872 238.455 51.2651C237.673 52.543 237.254 54.0094 237.242 55.5072V82.9735C237.26 84.6262 237.772 86.2359 238.711 87.5965C239.651 88.9571 240.975 90.0066 242.515 90.6107V97.8588C241.551 97.7451 240.119 98.4094 238.489 101.725C238.489 101.725 230.327 106.316 227.505 106.837C224.683 107.357 214.694 110.757 214.694 110.757C213.175 111.821 211.365 112.389 209.51 112.385C206.383 112.385 203.788 119.053 204.171 122.68C204.555 126.307 203.938 128.97 201.043 129.12C198.149 129.269 199.731 135.063 199.743 135.105C199.707 135.267 199.611 135.704 199.474 136.338C198.91 138.87 197.676 144.298 197.244 145.148C195.402 149.439 194.354 154.028 194.152 158.693C193.925 165.277 191.977 191.348 191.756 191.791C191.612 192.085 203.896 203.044 212.543 210.699L213.789 211.8L209.816 248.029C209.816 248.029 209.816 252.087 213.903 255.127C213.903 255.54 213.903 255.977 213.855 256.42C213.681 260.61 213.333 265.787 212.656 267.134C211.458 269.528 211.74 282.234 211.74 282.234C211.74 282.234 210.541 308.156 208.995 310.964C207.449 313.771 207.162 319.702 207.623 320.887C208.084 322.072 206.095 353.172 206.095 353.172L204.567 367.087C204.567 367.087 205.028 380.416 203.656 380.716C202.284 381.015 201.517 390.19 201.517 390.19C201.517 390.19 196.639 396.708 198.772 399.078C200.906 401.449 198.455 402.484 198.233 403.077C198.011 403.669 193.583 405.89 196.789 414.179C196.819 414.263 196.861 414.335 196.897 414.413C193.901 418.465 184.391 431.584 184.966 433.565C185.402 434.849 186.31 435.919 187.507 436.558C189.742 437.863 193.583 438.467 199.683 436.558C209.828 433.374 209.067 431.076 209.067 431.076C209.067 431.076 209.145 427.377 213.339 427.077C217.534 426.778 220.662 423.007 220.662 423.007L220.171 421.212L219.493 418.74C219.577 418.004 220.093 416.795 222.412 416.106C225.923 415.071 225.006 408.559 225.006 408.559C225.006 408.559 224.701 401.742 226.205 400.856C227.709 399.97 227.116 388.712 227.116 388.712C227.116 388.712 228.799 380.566 231.238 375.084C233.677 369.601 236.577 337.029 236.577 337.029C236.577 337.029 238.555 321.037 240.388 316.446C242.222 311.855 243.9 298.969 243.9 298.969C243.9 298.969 255.189 277.644 255.339 272.903C255.339 272.903 256.801 268.462 258.209 273.352C259.617 278.242 263.728 289.937 263.728 289.937L267.695 304.302L272.423 325.771L275.473 343.841C275.473 343.841 275.023 350.724 276.24 353.118C277.456 355.512 279.14 360.964 278.223 362.006C277.306 363.047 280.057 367.925 280.818 368.961C281.579 369.996 280.818 391.92 280.818 391.92C280.818 391.92 284.323 410.576 289.356 413.832C289.709 414.054 290.083 414.242 290.471 414.395C290.399 416.418 290.327 419.123 290.423 420.536C290.413 420.852 290.466 421.167 290.579 421.463C291.034 422.062 296.224 426.048 297.29 426.048C298.357 426.048 302.168 428.646 302.324 429.902C302.479 431.159 313.475 436.486 315.027 436.642C316.579 436.797 324.135 438.12 325.214 436.043C325.471 435.416 325.532 434.725 325.388 434.062ZM298.375 167.21L299.16 167.868C299.16 167.868 299.957 173.979 300.532 175.805C301.107 177.63 300.418 181.191 300.418 181.191C300.418 181.191 300.532 183.747 301.215 185.076C301.898 186.405 299.873 189.301 299.873 189.301H298.015L297.416 166.426L298.375 167.21ZM215.778 186.961C215.493 186.373 215.45 185.696 215.658 185.076C215.823 184.743 215.953 184.394 216.048 184.034C216.273 183.102 216.412 182.15 216.461 181.191C216.463 181.181 216.463 181.171 216.461 181.161C216.401 180.814 215.814 177.57 216.354 175.775C216.893 173.979 217.726 167.838 217.726 167.838L218.247 167.401L219.446 166.396C219.446 166.396 219.481 166.013 219.529 165.384C219.787 170.771 219.991 176.661 219.661 176.984C219.062 177.582 216.839 183.352 217.372 183.568C217.546 183.639 217.306 185.962 216.905 189.062C216.455 188.406 216.077 187.704 215.778 186.967V186.961Z" fill="url(#paint0_linear_691_1515)"/>
<path d="M244.835 35.4207V53.574C244.835 53.9391 244.689 54.2892 244.431 54.5474C244.172 54.8055 243.822 54.9506 243.456 54.9506C243.091 54.9506 242.74 54.8055 242.482 54.5474C242.223 54.2892 242.078 53.9391 242.078 53.574V35.4207C242.078 35.2399 242.114 35.0609 242.183 34.8939C242.252 34.7269 242.354 34.5751 242.482 34.4473C242.61 34.3195 242.762 34.2181 242.929 34.1489C243.096 34.0797 243.275 34.0441 243.456 34.0441C243.821 34.0472 244.17 34.1933 244.427 34.4508C244.685 34.7082 244.831 35.0566 244.835 35.4207Z" fill="#6F758D"/>
<path d="M272.123 83.9491V112.158C272.116 114.411 271.217 116.571 269.622 118.165C268.026 119.758 265.864 120.656 263.608 120.663H251.408C249.15 120.658 246.987 119.76 245.39 118.167C243.793 116.573 242.893 114.412 242.887 112.158V83.9491C242.895 81.6948 243.795 79.5352 245.392 77.9417C246.988 76.3483 249.151 75.4504 251.408 75.4441H263.608C265.864 75.4504 268.026 76.3485 269.622 77.9421C271.217 79.5357 272.116 81.6954 272.123 83.9491Z" fill="#6F758D"/>
<path d="M224.151 189.655L221.82 218.384C221.82 218.384 218.32 215.218 213.79 211.088C205.401 203.445 193.477 192.498 193.614 192.21C193.836 191.767 195.724 165.702 195.945 159.16C196.141 154.508 197.156 149.927 198.942 145.627C199.361 144.783 200.559 139.367 201.105 136.835C201.278 136.045 201.38 135.536 201.38 135.536L205.269 133.98C205.269 133.98 221.592 152.169 221.592 152.504C221.592 152.839 220.483 166.809 220.483 166.809L219.321 167.82L218.818 168.251C218.818 168.251 218.039 174.356 217.481 176.182C216.96 177.918 217.529 181.191 217.589 181.533V181.563C217.54 182.519 217.403 183.468 217.182 184.4C217.092 184.76 216.967 185.11 216.81 185.447C216.609 186.065 216.65 186.737 216.924 187.326C217.232 188.148 217.635 188.931 218.123 189.661L224.151 189.655Z" fill="#3F3D56"/>
<path d="M323.075 192.204C323.249 192.551 305.836 208.424 298.292 215.277L294.87 218.378L292.539 189.649H298.531C298.531 189.649 300.533 186.764 299.868 185.459C299.202 184.154 299.089 181.574 299.089 181.574C299.089 181.574 299.754 178.025 299.202 176.188C298.651 174.35 297.866 168.257 297.866 168.257L297.105 167.575L296.2 166.785C296.2 166.785 295.08 152.833 295.08 152.498C295.08 152.163 311.402 133.974 311.402 133.974L315.285 135.53C315.285 135.53 315.375 135.949 315.513 136.613C316.04 139.007 317.311 144.753 317.73 145.621C319.518 149.921 320.532 154.502 320.726 159.154C320.966 165.696 322.854 191.761 323.075 192.204Z" fill="#3F3D56"/>
<path d="M323.148 436.019C322.111 438.09 314.759 436.762 313.273 436.618C311.787 436.474 301.091 431.141 300.941 429.891C300.791 428.64 297.088 426.042 296.057 426.042C295.027 426.042 289.987 422.05 289.538 421.457C289.431 421.162 289.38 420.849 289.388 420.536C289.232 418.106 289.538 411.845 289.538 411.845L311.008 413.042L321.446 428.699C321.446 428.699 323.016 431.692 323.328 434.086C323.454 434.735 323.391 435.405 323.148 436.019Z" fill="#3F3D56"/>
<path opacity="0.1" d="M323.148 436.019C322.111 438.09 314.759 436.762 313.273 436.618C311.787 436.474 301.091 431.141 300.941 429.891C300.791 428.64 297.088 426.042 296.057 426.042C295.027 426.042 289.987 422.05 289.538 421.457C289.431 421.162 289.38 420.849 289.388 420.536C289.232 418.106 289.538 411.845 289.538 411.845L311.008 413.042L321.446 428.699C321.446 428.699 323.016 431.692 323.328 434.086C323.454 434.735 323.391 435.405 323.148 436.019Z" fill="black"/>
<path opacity="0.1" d="M323.148 436.019C322.111 438.09 314.759 436.762 313.272 436.618C311.786 436.474 301.09 431.141 300.941 429.89C300.791 428.64 297.088 426.042 296.057 426.042C295.026 426.042 289.987 422.05 289.537 421.457C289.43 421.162 289.379 420.849 289.388 420.536L296.351 424.941C296.351 424.941 300.791 427.754 301.977 429.454C303.164 431.153 312.499 434.631 313.272 434.697C313.872 434.756 319.984 433.583 323.327 434.098C323.451 434.743 323.388 435.409 323.148 436.019Z" fill="black"/>
<path d="M221.658 423.079C221.658 423.079 218.62 426.85 214.551 427.143C213.48 427.154 212.454 427.574 211.683 428.316C210.912 429.058 210.455 430.067 210.404 431.135C210.404 431.135 211.147 433.434 201.302 436.612C195.376 438.527 191.649 437.923 189.473 436.612C188.303 435.963 187.424 434.893 187.017 433.619C186.352 431.255 199.45 413.269 199.45 413.269L211.369 412.527L219.884 416.376L221.184 421.242L221.658 423.079Z" fill="#3F3D56"/>
<path opacity="0.1" d="M221.658 423.079C221.658 423.079 218.62 426.85 214.551 427.143C213.48 427.154 212.454 427.574 211.683 428.316C210.912 429.058 210.455 430.067 210.404 431.135C210.404 431.135 211.147 433.434 201.302 436.612C195.376 438.527 191.649 437.923 189.473 436.612C188.303 435.963 187.424 434.893 187.017 433.619C186.352 431.255 199.45 413.269 199.45 413.269L211.369 412.527L219.884 416.376L221.184 421.242L221.658 423.079Z" fill="black"/>
<path opacity="0.1" d="M221.657 423.079C221.657 423.079 218.619 426.85 214.55 427.143C213.479 427.154 212.453 427.574 211.682 428.316C210.911 429.058 210.454 430.067 210.403 431.135C210.403 431.135 211.146 433.434 201.301 436.612C195.375 438.527 191.648 437.923 189.473 436.612C195.063 436.013 207.407 432.506 208.648 431.285C210.128 429.801 211.979 425.737 213.238 425.665C214.107 425.611 218.541 422.942 221.201 421.29L221.657 423.079Z" fill="black"/>
<path d="M313.057 406.59C311.726 409.696 313.057 416.053 313.057 416.053C313.057 416.053 293.217 417.094 288.333 413.838C283.449 410.582 280.04 391.95 280.04 391.95C280.04 391.95 280.777 370.068 280.04 369.026C279.303 367.985 276.636 363.113 277.523 362.084C278.41 361.054 276.78 355.572 275.6 353.207C274.419 350.843 274.857 344.038 274.857 344.038L271.896 325.999L267.306 304.553L263.459 290.189C263.459 290.189 259.463 278.506 258.102 273.622C256.742 268.738 255.316 273.179 255.316 273.179C255.172 277.913 244.212 299.209 244.212 299.209C244.212 299.209 242.583 312.071 240.803 316.656C239.023 321.24 237.106 337.215 237.106 337.215C237.106 337.215 234.295 369.745 231.922 375.215C229.55 380.686 227.968 388.844 227.968 388.844C227.968 388.844 228.567 400.084 227.081 400.97C225.595 401.856 225.882 408.661 225.882 408.661C225.882 408.661 226.769 415.167 223.36 416.208C219.95 417.25 220.549 419.458 220.549 419.458C220.549 419.458 201.602 422.547 198.486 414.281C195.37 406.015 199.684 403.783 199.888 403.19C200.092 402.598 202.489 401.568 200.409 399.198C198.33 396.828 203.076 390.322 203.076 390.322C203.076 390.322 203.819 381.159 205.149 380.859C206.48 380.56 206.036 367.255 206.036 367.255L207.516 353.357C207.516 353.357 209.446 322.3 209.002 321.115C208.559 319.93 208.852 314.016 210.333 311.209C211.813 308.402 212.987 282.522 212.987 282.522C212.987 282.522 212.687 269.803 213.874 267.439C214.545 266.098 214.881 260.945 215.072 256.737C215.192 253.535 215.228 250.878 215.228 250.878L231.803 244.665L253.135 237.866L271.051 246.437L297.255 251.464L297.585 255.983L302.564 324.987L305.381 351.017C305.381 351.017 306.579 363.287 306.717 365.501C306.855 367.716 308.341 382.218 308.341 382.218C308.341 382.218 311.451 389.167 309.539 391.531C307.628 393.895 308.341 395.822 308.341 395.822C308.341 395.822 314.411 403.484 313.057 406.59Z" fill="#3F3D56"/>
<path opacity="0.1" d="M281.993 108.764L275.186 229.953L238.166 222.19L230.838 173.608L238.094 108.393L243.559 109.093L253.201 110.32L262.746 110.913L273.089 109.757L281.993 108.764Z" fill="black"/>
<path d="M281.993 109.656L275.186 230.839L238.166 223.076L230.838 174.494L238.094 109.285L243.559 109.979L253.201 111.206L262.746 111.798L273.089 110.643L281.993 109.656Z" fill="#83BB62"/>
<path d="M251.564 112.906L264.891 113.349L261.146 118.586C261.146 118.586 261.41 129.168 263.189 132.202C264.969 135.237 264.448 182.113 264.448 182.113L260.924 188.841L254.854 181.299L254.926 119.412L251.564 112.906Z" fill="#3F3D56"/>
<path opacity="0.1" d="M251.564 112.906L264.891 113.349L261.146 118.586C261.146 118.586 261.41 129.168 263.189 132.202C264.969 135.237 264.448 182.113 264.448 182.113L260.924 188.841L254.854 181.299L254.926 119.412L251.564 112.906Z" fill="black"/>
<path opacity="0.1" d="M272.442 99.1516L260.008 112.906L267.115 120.297L278.883 108.842L272.442 99.1516Z" fill="black"/>
<path d="M271.621 99.1696L260.002 112.014L267.109 119.412L278.901 107.95L273.143 99.2833C273.064 99.1575 272.957 99.0519 272.83 98.9751C272.702 98.8984 272.559 98.8526 272.411 98.8416C272.262 98.8305 272.114 98.8544 271.977 98.9114C271.839 98.9684 271.717 99.0568 271.621 99.1696Z" fill="#83BB62"/>
<path opacity="0.1" d="M254.752 112.241L242.169 99.6723L240.982 106.25L246.759 120.669L254.752 112.241Z" fill="black"/>
<path d="M255.196 111.356L242.612 98.7805L241.426 105.364L247.202 119.783L255.196 111.356Z" fill="#83BB62"/>
<path opacity="0.1" d="M297.567 255.983C291.535 258.866 285.072 260.744 278.434 261.543C266.222 263.1 258.228 247.574 258.228 247.574L253.566 253.637C252.086 260.071 229.502 261.693 220.328 259.251C218.424 258.784 216.634 257.937 215.066 256.761C215.186 253.559 215.222 250.902 215.222 250.902L231.803 244.665L253.135 237.866L271.052 246.437L297.255 251.464L297.567 255.983Z" fill="black"/>
<path opacity="0.1" d="M281.987 109.65L275.18 230.833L238.166 223.052L230.838 174.476L238.094 109.237L243.559 109.931C243.419 112.3 243.151 114.66 242.756 117C241.87 121.141 247.346 150.571 247.346 150.571C247.346 150.571 257.755 183.568 262.447 178.815C267.139 174.063 273.772 148.943 273.772 148.943C278.29 139.624 273.85 113.528 273.514 112.972C273.281 112.193 273.138 111.389 273.089 110.577L281.987 109.65Z" fill="black"/>
<path opacity="0.1" d="M297.98 203.403L298.292 215.277L294.87 218.378L292.539 189.649H297.644L297.98 203.403Z" fill="black"/>
<path opacity="0.1" d="M217.594 181.527V181.557C217.544 182.513 217.408 183.462 217.186 184.394C217.186 184.13 217.186 183.981 217.139 183.963C216.923 183.867 217.18 182.784 217.594 181.527Z" fill="black"/>
<path opacity="0.1" d="M224.15 189.655L221.819 218.384C221.819 218.384 218.319 215.218 213.789 211.088L214.328 206C214.328 206 216.24 193.491 216.935 187.326C217.243 188.148 217.645 188.931 218.133 189.661L224.15 189.655Z" fill="black"/>
<path d="M244.229 99.2234C244.229 99.2234 242.012 95.9735 238.98 102.258C238.98 102.258 231.059 106.843 228.32 107.357C225.582 107.872 215.886 111.278 215.886 111.278C214.421 112.338 212.657 112.908 210.847 112.906C207.815 112.906 205.298 119.555 205.67 123.182C206.041 126.809 205.448 129.467 202.632 129.617C199.815 129.766 201.373 135.602 201.373 135.602L220.105 157.047C220.105 157.047 221.303 176.798 220.704 177.397C220.105 177.995 217.96 183.753 218.481 183.981C219.002 184.208 215.665 206.018 215.665 206.018L211.146 248.376C211.146 248.376 211.146 255.468 220.327 257.91C229.507 260.352 252.085 258.724 253.565 252.29L258.227 246.227C258.227 246.227 266.221 261.789 278.433 260.203C290.645 258.617 298.423 254.217 298.423 254.217L297.087 203.421L296.2 166.821L315.297 135.548C315.297 135.548 310.191 125.786 310.635 121.351C311.078 116.916 311.971 113.57 301.089 112.032C301.089 112.032 291.909 110.667 286.504 106.932C283.29 104.701 279.775 102.933 276.066 101.683C276.066 101.683 273.609 97.2543 271.488 99.1696C271.488 99.1696 273.034 105.969 272.848 107.19C272.662 108.411 273.178 113.809 273.513 114.372C273.849 114.935 278.307 141.024 273.771 150.343C273.771 150.343 267.138 175.481 262.446 180.21C257.754 184.938 247.345 151.965 247.345 151.965C247.345 151.965 241.868 122.542 242.755 118.4C243.642 114.258 244.229 99.2234 244.229 99.2234Z" fill="#3F3D56"/>
<path d="M260.08 196.167C261.88 196.167 263.34 194.709 263.34 192.911C263.34 191.112 261.88 189.655 260.08 189.655C258.28 189.655 256.82 191.112 256.82 192.911C256.82 194.709 258.28 196.167 260.08 196.167Z" fill="#3F3D56"/>
<path d="M260.08 211.507C261.88 211.507 263.34 210.049 263.34 208.251C263.34 206.453 261.88 204.995 260.08 204.995C258.28 204.995 256.82 206.453 256.82 208.251C256.82 210.049 258.28 211.507 260.08 211.507Z" fill="#3F3D56"/>
<path opacity="0.1" d="M260.08 196.167C261.88 196.167 263.34 194.709 263.34 192.911C263.34 191.112 261.88 189.655 260.08 189.655C258.28 189.655 256.82 191.112 256.82 192.911C256.82 194.709 258.28 196.167 260.08 196.167Z" fill="black"/>
<path opacity="0.1" d="M260.08 211.507C261.88 211.507 263.34 210.049 263.34 208.251C263.34 206.453 261.88 204.995 260.08 204.995C258.28 204.995 256.82 206.453 256.82 208.251C256.82 210.049 258.28 211.507 260.08 211.507Z" fill="black"/>
<path opacity="0.1" d="M289.346 402.155C289.346 402.155 302.714 403.19 304.051 404.226C305.387 405.261 289.346 402.155 289.346 402.155Z" fill="black"/>
<path opacity="0.1" d="M209.738 391.657C209.738 391.657 212.555 395.206 211.368 396.834C210.182 398.462 209.738 391.657 209.738 391.657Z" fill="black"/>
<path opacity="0.1" d="M213.143 404.435C213.143 404.435 218.326 401.036 220.399 403.298C222.472 405.56 213.143 404.435 213.143 404.435Z" fill="black"/>
<path opacity="0.1" d="M272.123 83.9491V92.49C271.054 92.959 269.899 93.2015 268.731 93.2023H246.29C245.118 93.203 243.959 92.9584 242.887 92.4841V83.9491C242.895 81.6948 243.795 79.5352 245.392 77.9417C246.988 76.3483 249.151 75.4504 251.408 75.4441H263.608C265.864 75.4519 268.025 76.3505 269.62 77.9438C271.215 79.5371 272.115 81.6958 272.123 83.9491Z" fill="black"/>
<path opacity="0.1" d="M244.835 47.2715V53.5799C244.835 53.945 244.689 54.2952 244.431 54.5533C244.172 54.8115 243.822 54.9565 243.456 54.9565C243.091 54.9565 242.74 54.8115 242.482 54.5533C242.223 54.2952 242.078 53.945 242.078 53.5799V48.271C242.929 47.7737 243.863 47.4351 244.835 47.2715Z" fill="black"/>
<path d="M270.055 47.8461H244.96C240.989 47.8461 237.77 51.0617 237.77 55.0284V84.6015C237.77 88.5682 240.989 91.7838 244.96 91.7838H270.055C274.027 91.7838 277.246 88.5682 277.246 84.6015V55.0284C277.246 51.0617 274.027 47.8461 270.055 47.8461Z" fill="#DCDFED"/>
<path opacity="0.1" d="M268.714 77.1977V95.1116H246.291V77.1618C247.763 76.0465 249.561 75.4431 251.408 75.4441H263.608C265.456 75.4587 267.248 76.0743 268.714 77.1977Z" fill="black"/>
<path opacity="0.1" d="M268.978 47.8461H245.842V93.6631H268.978V47.8461Z" fill="black"/>
<path d="M268.732 47.8461H246.291V93.6631H268.732V47.8461Z" fill="#6F758D"/>
<path d="M255.196 63.6531H247.939V64.9938H255.196V63.6531Z" fill="#DCDFED"/>
<path d="M267.264 63.6531H260.008V64.9938H267.264V63.6531Z" fill="#DCDFED"/>
<path d="M263.633 78.4606H251.385V79.2627H263.633V78.4606Z" fill="#DCDFED"/>
<path d="M411.52 127.749L420.197 170.568C420.297 171.042 420.546 171.472 420.908 171.795C421.271 172.119 421.727 172.317 422.21 172.363L427.993 172.926C428.419 173.673 428.805 174.442 429.149 175.23C430.18 177.624 430.851 180.497 433.074 181.916C434.272 183.113 436.975 182.903 438.521 182.909C440.145 182.849 441.768 183.074 443.315 183.574C443.136 183.553 442.955 183.553 442.775 183.574C443.782 183.976 444.756 184.456 445.688 185.01C445.76 185.106 445.837 185.202 445.897 185.297C446.143 185.674 446.341 186.129 446.754 186.315C446.634 186.554 447.204 186.56 448.114 186.435C448.204 186.451 448.29 186.479 448.372 186.518C448.616 186.681 448.82 186.896 448.971 187.147C450.475 189.146 453.268 189.643 455.785 189.708C458.301 189.774 460.962 189.601 463.179 190.792C463.706 191.073 464.198 191.426 464.749 191.666C464.72 191.927 464.73 192.191 464.779 192.45C465.038 193.278 465.375 194.079 465.785 194.844C465.988 195.232 466.099 195.662 466.109 196.1C466.119 196.538 466.029 196.972 465.845 197.37C465.66 197.693 465.36 197.968 465.168 198.267C464.91 198.79 464.78 199.367 464.791 199.949C464.617 202.672 464.449 205.45 465.192 208.071C465.624 209.597 466.355 211.184 465.875 212.692C465.588 213.602 464.875 214.374 464.773 215.319C464.671 216.265 465.27 217.259 465.624 218.21C466.457 220.467 466.001 223.172 465.426 225.5C465.463 225.521 465.501 225.539 465.54 225.554C465.117 226.051 464.766 226.605 464.497 227.2C463.58 229.169 463.64 231.438 463.706 233.604C463.832 237.68 463.97 241.804 465.102 245.718C465.296 246.275 465.428 246.851 465.498 247.436C465.516 247.989 465.468 248.541 465.354 249.082C465.084 250.65 464.755 252.212 464.365 253.757C464.147 254.418 464.06 255.115 464.108 255.81C464.222 256.713 464.791 257.497 465.168 258.335C466.672 261.675 465.054 265.787 466.517 269.145C466.864 269.941 467.373 270.659 467.673 271.473C468.332 273.269 467.961 275.208 468.182 277.075C468.422 278.395 468.746 279.699 469.153 280.977C470.214 285.131 468.458 289.56 469.483 293.726C470.358 297.317 471.244 300.908 471.28 304.565C471.334 307.121 470.981 309.677 471.28 312.214C471.58 314.752 472.635 317.368 474.81 318.72C475.967 319.379 477.261 319.76 478.591 319.834C481.167 333.223 481.018 347.025 483.259 360.486C483.708 363.203 484.259 365.872 484.535 368.643C485.811 381.452 481.024 393.883 478.321 406.542L477.89 406.805C474.564 408.876 471.023 411.211 469.704 414.873C469.297 416.005 469.201 417.447 470.112 418.243C470.451 418.464 470.772 418.712 471.071 418.985C471.796 419.859 471.16 421.427 472.035 422.146C472.608 422.242 473.187 422.301 473.767 422.325C473.368 423.275 472.968 424.226 472.569 425.18C472.203 426.024 471.832 426.946 472.059 427.838C472.268 428.403 472.548 428.94 472.892 429.436C473.521 430.782 473.812 432.261 473.743 433.745C473.69 434.237 473.825 434.731 474.121 435.128C474.285 435.279 474.476 435.398 474.684 435.481C477.35 436.649 480.275 437.098 483.169 436.783C486.063 436.467 488.823 435.399 491.174 433.685C491.4 433.54 491.593 433.348 491.738 433.122C491.81 432.968 491.865 432.805 491.899 432.638C492.277 431.088 492.66 429.537 493.038 427.987C493.086 427.808 493.128 427.622 493.176 427.443C493.619 425.611 494.069 423.786 494.518 421.954C495.117 419.38 495.77 416.801 496.208 414.173C496.208 415.634 496.208 417.088 496.208 418.548V423.66C496.195 424.413 496.221 425.166 496.286 425.916C496.915 425.916 497.544 425.916 498.173 425.916C498.219 425.923 498.265 425.917 498.307 425.899C498.35 425.881 498.386 425.852 498.413 425.815C498.498 425.627 498.539 425.422 498.533 425.216C498.625 423.349 498.691 421.477 498.731 419.602C498.808 416.322 498.82 413.018 498.761 409.75C498.761 409.008 498.832 407.482 498.713 406.458C499.022 405.733 499.278 404.987 499.48 404.226C499.785 403.196 500.079 402.155 500.33 401.107C500.728 401.052 501.131 401.052 501.529 401.107C501.541 407.152 500.953 413.183 499.773 419.111C500.936 420.194 502.991 419.566 503.926 418.273C504.861 416.98 504.98 415.28 505.124 413.724C505.562 408.529 506.401 403.376 507.245 398.229C507.334 397.341 507.588 396.479 507.994 395.685C508.396 395.002 509.025 394.488 509.379 393.758C509.751 392.848 509.863 391.854 509.702 390.885C509.487 388.616 508.923 386.306 507.533 384.486C506.227 382.781 504.058 381.619 501.93 381.871L501.799 381.631C500.564 379.16 500.69 376.245 500.846 373.515C501.018 370.411 501.193 367.307 501.373 364.202C501.882 360.779 502.284 357.355 502.524 353.926C503.123 351.723 503.932 349.58 504.471 347.342C504.471 345.169 505.244 342.907 505.268 340.674C505.277 338.352 505.103 336.032 504.747 333.737C504.064 329.021 502.829 324.406 501.805 319.762C501.637 318.978 501.529 318.146 501.415 317.326C502.109 316.921 502.75 316.431 503.321 315.866C502.272 307.726 501.319 298.987 505.178 291.733C506.323 289.59 507.887 287.543 508.288 285.149C508.39 284.551 508.42 283.916 508.546 283.312C508.723 282.597 508.974 281.903 509.295 281.241L516.929 263.973L518.163 261.196C519.488 258.204 520.812 255.211 521.944 252.117C523.275 248.525 524.341 244.797 525.342 241.092C525.941 238.871 526.54 236.609 526.498 234.311C526.388 232.27 525.907 230.266 525.078 228.397C524.898 227.972 524.707 227.553 524.479 227.134C524.713 227.062 524.94 227.008 525.168 226.937C525.677 223.316 526.109 219.323 524.066 216.295C523.666 215.813 523.345 215.272 523.113 214.691C522.747 213.452 523.538 212.189 523.79 210.92C524.305 208.329 522.556 205.893 521.057 203.708C520.829 203.416 520.65 203.089 520.53 202.738C520.255 201.745 520.86 200.637 520.872 199.632C520.873 199.365 520.814 199.101 520.698 198.86C526.48 199.195 532.185 200.703 537.985 200.925C541.659 201.068 545.775 200.494 548.106 197.693C549.598 195.897 550.132 193.533 550.275 191.223C550.539 186.967 549.676 182.73 548.957 178.522C548.49 175.667 548.118 172.794 547.825 169.909C548.424 169.963 549.023 169.993 549.622 169.993C553.056 169.993 556.627 169.49 559.467 167.599C562.308 165.708 564.207 162.098 563.314 158.813C562.811 156.957 561.517 155.425 560.57 153.755C557.226 147.86 558.173 140.36 561.049 134.213C562.398 131.304 564.183 128.288 563.644 125.128C562.877 120.699 558.101 118.394 554.518 115.641C551.402 113.197 548.942 110.019 547.357 106.393C545.771 102.767 545.111 98.8041 545.434 94.8602C545.709 91.9454 546.506 88.875 545.338 86.1876C544.08 83.3087 540.97 81.7944 538.351 80.0467C534.284 77.3188 531.005 73.5731 528.841 69.1835C527.505 66.4542 526.403 63.9524 523.251 63.0187C520.716 62.3545 518.06 62.3052 515.503 62.875L516.03 62.6236C515.79 62.6655 515.551 62.7134 515.323 62.7673L514.951 62.869C512.537 62.3443 510.037 62.3587 507.629 62.9109C502.757 64.0781 497.442 67.5735 493.451 70.4524C492.257 71.2827 491.159 72.2443 490.18 73.3193C490.078 73.433 489.964 73.5348 489.862 73.6485C489.382 74.178 488.978 74.7724 488.664 75.4141C488.456 75.8823 488.301 76.3722 488.202 76.8745C487.789 78.2552 487.621 79.6974 487.705 81.136C487.489 81.4353 487.279 81.7346 487.106 82.0518C484.559 86.0875 483.653 90.9427 484.574 95.6237C485.494 100.305 488.17 104.457 492.055 107.232C491.338 108.865 490.49 110.438 489.521 111.936C488.49 113.6 487.399 115.234 486.285 116.844L474.3 120.555C473.545 120.794 472.79 121.028 472.065 121.333C471.187 121.706 470.365 122.197 469.62 122.793C468.42 123.738 467.486 124.979 466.91 126.393C466.334 127.808 466.137 129.348 466.337 130.861C466.391 131.173 466.463 131.46 466.535 131.783C466.175 133.615 465.899 135.476 465.624 137.326C465.264 139.821 464.905 142.317 464.575 144.819C463.345 147.298 462.807 150.063 463.017 152.821C463.058 154.489 463.204 156.152 463.455 157.801C463.413 159.267 463.395 160.734 463.455 162.2C463.568 164.06 463.568 165.925 463.455 167.784C463.249 169.483 462.917 171.163 462.46 172.812C462.443 172.963 462.395 173.108 462.319 173.239C462.242 173.37 462.139 173.484 462.016 173.572L461.879 173.608L461.076 173.53L460.189 173.429C460.187 173.302 460.177 173.176 460.159 173.051L450.709 126.875C450.599 126.364 450.316 125.907 449.908 125.58C449.5 125.253 448.991 125.076 448.468 125.08H413.755C413.423 125.08 413.095 125.153 412.794 125.293C412.493 125.434 412.226 125.638 412.013 125.893C411.8 126.147 411.646 126.446 411.56 126.766C411.475 127.087 411.461 127.423 411.52 127.749ZM521.489 182.879C521.563 182.688 521.649 182.502 521.747 182.323C522.1 181.724 522.615 181.233 522.945 180.629C523.114 180.288 523.201 179.913 523.201 179.534C523.201 179.154 523.114 178.779 522.945 178.438C522.603 177.84 523.544 177.271 523.82 176.643C523.949 176.137 523.98 175.61 523.91 175.092C524.015 174.221 524.352 173.395 524.887 172.698C525.546 171.657 526.211 170.627 526.888 169.598C527.086 169.287 527.295 168.999 527.487 168.676C527.598 168.882 527.72 169.082 527.853 169.275C528.344 169.829 528.719 170.476 528.955 171.178C528.997 171.67 528.997 172.165 528.955 172.656C528.955 174.189 529.926 175.535 530.663 176.888C531.4 178.241 531.939 179.935 531.172 181.269C530.903 181.736 530.573 182.466 531.035 182.682C531.292 182.801 531.634 182.682 531.855 182.849C532.167 183.131 531.742 183.603 531.352 183.777C530.067 184.331 528.683 184.616 527.283 184.616C525.884 184.616 524.499 184.331 523.215 183.777C522.675 183.496 522.088 183.173 521.489 182.879ZM447.785 174.871L457.372 175.811C456.578 176.2 455.698 176.381 454.814 176.337L452.489 175.643C452.489 175.643 452.489 175.799 452.411 176.062C451.973 175.948 451.53 175.841 451.093 175.739C449.972 175.476 448.87 175.182 447.773 174.871H447.785Z" fill="url(#paint1_linear_691_1515)"/>
<path d="M521.638 71.2125C523.775 75.561 527.014 79.2752 531.034 81.9859C533.628 83.7276 536.696 85.2359 537.943 88.0969C539.105 90.7663 538.314 93.8248 538.045 96.7276C537.72 100.646 538.371 104.583 539.939 108.189C541.507 111.795 543.944 114.958 547.033 117.395C550.574 120.13 555.302 122.428 556.057 126.833C556.596 129.976 554.859 132.98 553.493 135.871C550.676 141.988 549.711 149.446 553.019 155.305C553.96 156.975 555.23 158.495 555.734 160.339C556.62 163.613 554.739 167.18 551.929 169.083C549.118 170.987 545.589 171.477 542.197 171.477C539.728 171.477 537.056 171.106 535.306 169.377C534.108 168.215 533.544 166.599 532.993 165.049L528.703 152.935C527.924 150.756 527.109 148.494 525.485 146.842C522.045 143.335 516.425 143.706 511.511 143.766C504.27 143.851 497.066 142.716 490.203 140.408C486.188 139.055 481.814 136.751 480.885 132.627C479.968 128.593 482.731 124.751 485.163 121.405C486.985 118.911 488.707 116.347 490.329 113.714C491.911 111.152 493.427 108.459 493.858 105.484C494.583 100.54 492.264 95.74 490.467 91.0775C488.669 86.415 487.417 80.9026 490.029 76.6411C491.156 74.983 492.595 73.56 494.266 72.4514C498.191 69.5845 503.464 66.1131 508.281 64.9459C510.864 64.3437 513.554 64.3807 516.119 65.0537C519.223 65.9934 520.314 68.4772 521.638 71.2125Z" fill="#3F3D56"/>
<path d="M468.746 128.946C467.783 132.226 467.1 135.582 466.703 138.977C465.505 147.183 464.306 155.437 464.534 163.72C464.645 165.572 464.645 167.429 464.534 169.281C464.33 170.968 464.001 172.639 463.551 174.278C463.535 174.428 463.487 174.573 463.411 174.703C463.335 174.833 463.231 174.946 463.108 175.033C462.826 175.17 462.509 175.033 462.179 174.997C461.112 174.865 460.327 175.894 459.5 176.589C458.696 177.238 457.713 177.626 456.682 177.702C455.651 177.778 454.621 177.538 453.73 177.014C454.004 178.231 453.916 179.502 453.479 180.672C453.042 181.841 452.273 182.857 451.267 183.597C450.247 184.319 449.083 184.812 447.854 185.042C446.625 185.273 445.361 185.235 444.148 184.932C445.377 184.741 446.545 185.603 447.24 186.65C447.48 187.027 447.672 187.476 448.079 187.661C448.487 187.847 449.2 187.614 449.679 187.865C449.919 188.02 450.123 188.224 450.278 188.463C451.765 190.457 454.527 190.947 457.014 191.013C459.5 191.079 462.131 190.911 464.324 192.091C464.846 192.418 465.384 192.72 465.936 192.994C467.662 193.707 469.723 192.994 471.065 191.719C472.408 190.445 473.151 188.643 473.702 186.865C475.919 179.683 475.5 171.956 475.032 164.439C474.301 152.48 472.779 140.24 468.746 128.946Z" fill="#454B69"/>
<path opacity="0.1" d="M468.746 128.946C467.783 132.226 467.1 135.582 466.703 138.977C465.505 147.183 464.306 155.437 464.534 163.72C464.645 165.572 464.645 167.429 464.534 169.281C464.33 170.968 464.001 172.639 463.551 174.278C463.535 174.428 463.487 174.573 463.411 174.703C463.335 174.833 463.231 174.946 463.108 175.033C462.826 175.17 462.509 175.033 462.179 174.997C461.112 174.865 460.327 175.894 459.5 176.589C458.696 177.238 457.713 177.626 456.682 177.702C455.651 177.778 454.621 177.538 453.73 177.014C454.004 178.231 453.916 179.502 453.479 180.672C453.042 181.841 452.273 182.857 451.267 183.597C450.247 184.319 449.083 184.812 447.854 185.042C446.625 185.273 445.361 185.235 444.148 184.932C445.377 184.741 446.545 185.603 447.24 186.65C447.48 187.027 447.672 187.476 448.079 187.661C448.487 187.847 449.2 187.614 449.679 187.865C449.919 188.02 450.123 188.224 450.278 188.463C451.765 190.457 454.527 190.947 457.014 191.013C459.5 191.079 462.131 190.911 464.324 192.091C464.846 192.418 465.384 192.72 465.936 192.994C467.662 193.707 469.723 192.994 471.065 191.719C472.408 190.445 473.151 188.643 473.702 186.865C475.919 179.683 475.5 171.956 475.032 164.439C474.301 152.48 472.779 140.24 468.746 128.946Z" fill="black"/>
<path d="M505.125 347.887C504.526 350.478 503.477 352.968 502.92 355.578C502.505 357.818 502.261 360.087 502.189 362.365L501.547 373.904C501.392 376.64 501.266 379.519 502.482 381.973C503.327 383.672 504.789 385.097 505.209 386.952C505.856 389.855 503.777 392.59 501.835 394.847L492.248 405.926C489.251 409.397 485.974 413.048 481.533 414.227C480.872 414.449 480.16 414.474 479.484 414.299C478.244 413.892 477.645 412.396 477.824 411.103C478.107 409.827 478.69 408.636 479.526 407.631C482.031 404.118 484.721 400.659 486.351 396.66C488.419 391.579 488.628 385.947 488.502 380.458C488.029 358.085 482.378 335.97 483.02 313.615C487.909 313.244 492.991 312.418 497.886 312.478C502.255 312.526 501.733 316.973 502.494 320.468C503.507 325.095 504.723 329.679 505.406 334.372C505.756 336.655 505.926 338.963 505.916 341.273C505.892 343.475 505.125 345.726 505.125 347.887Z" fill="#FBBEBE"/>
<path opacity="0.05" d="M505.125 347.887C504.526 350.478 503.477 352.968 502.92 355.578C502.505 357.818 502.261 360.087 502.189 362.365L501.547 373.904C501.392 376.64 501.266 379.519 502.482 381.973C503.327 383.672 504.789 385.097 505.209 386.952C505.856 389.855 503.777 392.59 501.835 394.847L492.248 405.926C489.251 409.397 485.974 413.048 481.533 414.227C480.872 414.449 480.16 414.474 479.484 414.299C478.244 413.892 477.645 412.396 477.824 411.103C478.107 409.827 478.69 408.636 479.526 407.631C482.031 404.118 484.721 400.659 486.351 396.66C488.419 391.579 488.628 385.947 488.502 380.458C488.029 358.085 482.378 335.97 483.02 313.615C487.909 313.244 492.991 312.418 497.886 312.478C502.255 312.526 501.733 316.973 502.494 320.468C503.507 325.095 504.723 329.679 505.406 334.372C505.756 336.655 505.926 338.963 505.916 341.273C505.892 343.475 505.125 345.726 505.125 347.887Z" fill="black"/>
<path d="M502.229 382.26C504.453 381.805 506.784 383.008 508.156 384.816C509.528 386.623 510.085 388.921 510.301 391.184C510.459 392.147 510.35 393.134 509.983 394.039C509.63 394.739 509.013 395.278 508.611 395.954C508.209 396.745 507.957 397.603 507.868 398.486C507.041 403.603 506.208 408.733 505.771 413.898C505.639 415.472 505.513 417.142 504.572 418.423C503.632 419.704 501.624 420.338 500.474 419.255C501.637 413.358 502.217 407.362 502.205 401.353C499.593 400.994 497.322 403.047 495.614 405.052C493.868 407.101 492.266 409.269 490.82 411.54C489.502 413.629 488.298 415.813 486.626 417.627C484.913 419.441 482.782 420.812 480.42 421.619C478.057 422.426 475.533 422.646 473.065 422.259C472.203 421.547 472.832 419.985 472.113 419.117C471.827 418.838 471.518 418.584 471.19 418.357C470.291 417.567 470.381 416.136 470.788 415.011C472.095 411.36 475.582 409.026 478.878 406.985C484.834 403.25 490.862 399.569 496.854 395.948C499.146 394.546 500.893 392.408 501.81 389.885C502.026 389.263 502.961 382.014 502.229 382.26Z" fill="#3F3D56"/>
<path opacity="0.05" d="M502.229 382.26C504.453 381.805 506.784 383.008 508.156 384.816C509.528 386.623 510.085 388.921 510.301 391.184C510.459 392.147 510.35 393.134 509.983 394.039C509.63 394.739 509.013 395.278 508.611 395.954C508.209 396.745 507.957 397.603 507.868 398.486C507.041 403.603 506.208 408.733 505.771 413.898C505.639 415.472 505.513 417.142 504.572 418.423C503.632 419.704 501.624 420.338 500.474 419.255C501.637 413.358 502.217 407.362 502.205 401.353C499.593 400.994 497.322 403.047 495.614 405.052C493.868 407.101 492.266 409.269 490.82 411.54C489.502 413.629 488.298 415.813 486.626 417.627C484.913 419.441 482.782 420.812 480.42 421.619C478.057 422.426 475.533 422.646 473.065 422.259C472.203 421.547 472.832 419.985 472.113 419.117C471.827 418.838 471.518 418.584 471.19 418.357C470.291 417.567 470.381 416.136 470.788 415.011C472.095 411.36 475.582 409.026 478.878 406.985C484.834 403.25 490.862 399.569 496.854 395.948C499.146 394.546 500.893 392.408 501.81 389.885C502.026 389.263 502.961 382.014 502.229 382.26Z" fill="black"/>
<path d="M503.2 341.393C504.398 356.356 501.043 371.223 498.059 385.917C497.776 387.094 497.623 388.298 497.603 389.508C497.721 391.004 497.963 392.487 498.328 393.943C499.455 400.006 498.011 406.225 496.579 412.228C495.578 416.382 494.182 421.074 490.299 422.888C487.56 424.169 484.361 423.612 481.394 423.025C480.415 422.923 479.483 422.55 478.704 421.948C477.637 420.942 477.595 419.285 477.685 417.824C478.716 401.323 487.081 385.504 485.475 369.044C485.205 366.321 484.66 363.628 484.211 360.928C481.898 346.929 482.173 332.558 479.243 318.679C479.1 318.198 479.1 317.686 479.243 317.206C479.497 316.731 479.899 316.35 480.388 316.123C483.096 314.507 485.99 313.064 489.112 312.627C491.551 312.286 494.625 312.55 496.675 314.064C498.826 315.65 498.97 319.062 499.599 321.551C501.211 328.063 502.661 334.671 503.2 341.393Z" fill="#FBBEBE"/>
<path d="M499.282 425.342C499.289 425.548 499.248 425.753 499.162 425.94C499.136 425.977 499.101 426.007 499.06 426.026C499.019 426.045 498.973 426.053 498.928 426.048C498.329 426.048 497.682 426.048 497.065 426.048C496.998 425.3 496.97 424.549 496.981 423.797V418.716C496.981 414.682 496.981 410.642 497.161 406.632C497.159 406.485 497.182 406.34 497.227 406.201C497.268 406.112 497.341 406.042 497.43 406.003C497.874 405.794 498.91 405.147 499.294 405.896C499.677 406.644 499.504 408.978 499.522 409.954C499.582 413.216 499.576 416.489 499.522 419.751C499.45 421.615 499.37 423.478 499.282 425.342Z" fill="#3F3D56"/>
<path d="M466.613 248.466C466.631 249.016 466.583 249.567 466.469 250.106C466.2 251.662 465.87 253.212 465.493 254.75C465.277 255.41 465.19 256.105 465.235 256.797C465.349 257.695 465.912 258.473 466.284 259.305C467.77 262.627 466.17 266.721 467.62 270.078C467.961 270.868 468.465 271.587 468.764 272.395C469.418 274.154 469.046 276.105 469.268 277.967C469.502 279.281 469.822 280.579 470.226 281.851C471.275 285.981 469.537 290.386 470.55 294.534C471.419 298.083 472.288 301.662 472.348 305.307C472.396 307.845 472.048 310.389 472.348 312.915C472.647 315.441 473.69 318.038 475.841 319.385C477.543 320.444 479.64 320.582 481.654 320.582C485.519 320.654 489.402 320.54 493.26 320.241C497.119 319.941 501.272 319.313 503.993 316.572C502.956 308.474 502.015 299.783 505.832 292.565C506.959 290.434 508.505 288.429 508.906 286.047C509.002 285.448 509.032 284.82 509.158 284.215C509.333 283.507 509.582 282.819 509.901 282.163L517.451 264.985C517.85 264.063 518.25 263.141 518.649 262.22C519.956 259.227 521.268 256.234 522.395 253.188C523.707 249.597 524.75 245.91 525.75 242.223C526.349 240.008 526.949 237.764 526.889 235.472C526.785 233.441 526.309 231.447 525.487 229.588C525.037 228.505 524.522 227.439 523.988 226.398C509.021 222.876 493.617 221.559 478.268 222.49C475.826 222.54 473.404 222.943 471.077 223.687C469.482 224.245 468.044 225.177 466.883 226.404C466.357 226.975 465.924 227.626 465.601 228.331C464.702 230.294 464.756 232.551 464.822 234.706C464.947 238.758 465.085 242.863 466.206 246.754C466.4 247.309 466.536 247.883 466.613 248.466Z" fill="#3F3D56"/>
<path d="M477.105 417.04C479.375 418.758 482.041 419.878 484.859 420.296C487.34 420.661 490.066 420.398 492.049 418.842C494.302 417.046 495.046 414.054 495.717 411.252L496.574 407.524C496.885 406.183 497.173 404.842 497.43 403.49C498.085 399.92 498.286 396.282 498.03 392.662C500.061 393.452 501.283 395.87 501.415 398.049C501.547 400.228 500.876 402.358 500.259 404.453C500.013 405.468 499.638 406.448 499.144 407.368C498.779 407.967 498.305 408.517 497.994 409.164C497.604 410.116 497.381 411.128 497.335 412.156C496.871 415.516 496.203 418.844 495.333 422.122L494.003 427.58L493.871 428.125L492.703 432.721C492.672 432.888 492.618 433.049 492.541 433.2C492.401 433.426 492.213 433.618 491.989 433.763C489.666 435.464 486.935 436.522 484.071 436.831C481.207 437.14 478.312 436.689 475.679 435.523C475.475 435.439 475.287 435.321 475.121 435.175C474.831 434.779 474.7 434.287 474.756 433.799C474.822 432.323 474.532 430.854 473.911 429.513C473.571 429.02 473.295 428.485 473.09 427.921C472.862 427.035 473.228 426.126 473.587 425.282L476.338 418.848C476.643 418.088 476.608 417.699 477.105 417.04Z" fill="#3F3D56"/>
<path d="M483.565 149.176C483.667 150.602 483.946 152.01 484.398 153.366C484.736 154.343 485.325 155.214 486.105 155.892C487.388 154.162 489.701 153.57 491.403 152.301C492.907 151.193 493.967 149.607 495.088 148.111C497.293 145.166 499.882 142.497 502.278 139.684C502.638 139.259 502.991 138.834 503.339 138.397C504.558 136.915 505.662 135.342 506.641 133.692C508.63 130.275 509.99 126.343 512.98 123.751C514.61 122.344 516.654 121.411 518.104 119.813C517.121 118.37 516.756 116.623 516.408 114.911C516.04 113.258 515.756 111.588 515.557 109.907C515.503 109.464 515.473 109.015 515.455 108.566C515.455 108.375 515.455 108.183 515.425 107.968C515.425 106.597 516.312 104.239 514.91 103.467C513.616 102.755 511.5 102.749 509.99 102.767H509.745C506.218 102.802 502.779 103.867 499.852 105.831C499.187 106.239 498.606 106.769 498.138 107.393C497.353 108.59 497.311 110.027 497.371 111.457C497.371 111.786 497.401 112.11 497.425 112.427C497.425 112.583 497.425 112.744 497.425 112.906C497.479 114.498 497.323 116.204 496.226 117.305C495.028 118.502 493.122 118.556 491.498 119.065C491.229 119.148 490.971 119.244 490.719 119.346C488.931 120.152 487.405 121.444 486.315 123.075C485.092 124.945 484.227 127.025 483.763 129.21C483.305 131.176 483.021 133.179 482.912 135.195C482.6 139.821 483.079 144.538 483.565 149.176Z" fill="#FBBEBE"/>
<path opacity="0.1" d="M497.394 112.427C497.394 112.583 497.394 112.744 497.394 112.906C499.384 113.63 504.225 111.595 506.466 111.595C510.913 111.595 512.285 112.475 515.503 109.883C515.431 109.249 515.389 108.608 515.371 107.968C515.371 106.597 516.258 104.239 514.855 103.467C513.453 102.695 511.206 102.749 509.69 102.767C506.164 102.802 502.725 103.867 499.797 105.831C499.132 106.239 498.551 106.769 498.083 107.393C497.142 108.83 497.292 110.715 497.394 112.427Z" fill="black"/>
<path d="M485.08 93.9145C485.079 96.3691 485.563 98.7998 486.503 101.068C487.443 103.335 488.822 105.396 490.56 107.131C492.298 108.867 494.361 110.243 496.632 111.181C498.903 112.12 501.336 112.602 503.794 112.6C508.754 112.597 513.511 110.628 517.018 107.124C520.526 103.62 522.498 98.8694 522.501 93.9145C522.414 89.0158 520.404 84.3474 516.904 80.9141C513.405 77.4808 508.696 75.5571 503.791 75.5571C498.886 75.5571 494.176 77.4808 490.677 80.9141C487.178 84.3474 485.168 89.0158 485.08 93.9145Z" fill="#FBBEBE"/>
<path d="M516.558 116C517.147 115.508 517.868 115.2 518.631 115.114C519.734 115.114 520.639 116.018 521.094 117.018C521.549 118.017 521.693 119.13 522.083 120.16C522.616 121.551 523.588 122.732 524.851 123.524C525.732 124.074 526.781 124.457 527.386 125.319C528.339 126.666 527.757 128.545 526.954 129.988C523.958 135.374 518.565 138.882 513.346 142.186L507.474 145.908C505.119 147.464 502.683 148.893 500.175 150.188C496.101 152.193 491.696 153.48 487.646 155.527C485.782 156.466 483.954 157.586 481.893 157.921C481.459 156.536 481.186 155.106 481.078 153.659C480.077 144.735 479.089 135.62 481.078 126.863C481.45 125.193 481.971 123.488 483.145 122.249C483.915 121.518 484.795 120.912 485.752 120.453C488.129 119.178 490.573 118.033 493.075 117.024C494.246 116.455 495.535 116.17 496.838 116.192C496.729 117.168 496.438 118.116 495.981 118.987L486.543 139.971C485.944 141.288 485.345 142.664 485.393 144.113C485.464 146.172 486.855 148.177 486.285 150.158C491.764 142.171 498.053 134.77 505.053 128.072C505.362 127.816 505.617 127.501 505.802 127.145C505.973 126.584 506.01 125.992 505.91 125.415C505.844 124.314 506.072 122.841 506.994 122.105C507.636 121.59 508.582 121.441 509.289 120.992C511.77 119.43 514.143 117.664 516.558 116Z" fill="#83BB62"/>
<path opacity="0.1" d="M466.541 228.062C471.197 230.54 476.446 231.749 481.701 232.252C486.956 232.754 492.242 232.545 497.515 232.341C501.517 232.198 505.514 232.036 509.499 231.892C514.94 231.677 520.285 231.24 525.486 229.6C525.037 228.517 524.522 227.451 523.988 226.41C509.02 222.888 493.617 221.571 478.268 222.502C475.826 222.552 473.404 222.955 471.077 223.699C469.482 224.257 468.044 225.189 466.883 226.416C466.799 226.973 466.667 227.523 466.541 228.062Z" fill="black"/>
<path d="M467.386 169.652C469.459 176.649 468.039 184.304 466.745 191.48C465.972 191.869 465.732 192.905 465.9 193.754C466.158 194.581 466.491 195.382 466.894 196.149C467.095 196.534 467.205 196.961 467.216 197.396C467.226 197.83 467.137 198.262 466.954 198.656C466.769 198.986 466.475 199.255 466.283 199.554C466.03 200.074 465.903 200.646 465.912 201.224C465.738 203.935 465.576 206.695 466.307 209.304C466.733 210.824 467.458 212.405 466.978 213.901C466.697 214.805 465.996 215.571 465.894 216.516C465.792 217.462 466.385 218.444 466.733 219.395C467.554 221.634 467.11 224.327 466.541 226.643C471.197 229.121 476.446 230.33 481.701 230.833C486.956 231.336 492.241 231.126 497.515 230.929L509.499 230.474C514.982 230.259 520.375 229.816 525.606 228.146C526.109 224.555 526.535 220.574 524.515 217.564C524.121 217.083 523.803 216.544 523.575 215.966C523.215 214.733 523.994 213.482 524.246 212.219C524.755 209.639 523.047 207.215 521.537 205.037C521.314 204.745 521.14 204.42 521.022 204.073C520.746 203.079 521.346 201.984 521.357 200.985C521.362 200.694 521.297 200.406 521.166 200.147C520.944 199.728 520.531 199.44 520.303 199.021C520.07 198.479 519.999 197.88 520.099 197.298C520.375 193.559 520.826 189.838 521.453 186.135C521.513 185.8 521.573 185.459 521.651 185.124C521.765 184.611 521.95 184.118 522.202 183.657C522.55 183.059 523.059 182.574 523.401 181.97C523.569 181.632 523.657 181.26 523.657 180.883C523.657 180.506 523.569 180.134 523.401 179.797C523.059 179.168 524 178.63 524.27 178.001C524.398 177.499 524.426 176.976 524.354 176.463C524.459 175.594 524.791 174.768 525.318 174.069C525.971 173.034 526.631 172.01 527.302 170.987C530.286 166.37 533.388 161.835 536.608 157.382C538.178 155.239 539.762 153.117 541.359 151.014C542.648 149.32 543.972 147.596 544.619 145.567C544.733 145.215 544.823 144.855 544.889 144.49C545.246 142.542 544.964 140.531 544.086 138.756C543.319 137.224 542.15 135.949 541.126 134.566C539.987 133.034 539.011 131.358 537.704 129.97C536.398 128.581 534.636 127.468 532.725 127.468C531.616 127.468 530.328 127.779 529.555 126.989C529.273 126.702 529.123 126.319 528.836 126.049C528.021 125.277 526.691 125.804 525.714 126.355L506.976 136.931L503.938 138.654C503.387 138.983 502.824 139.307 502.272 139.642C499.654 141.16 497.145 142.86 494.764 144.729C491.289 147.506 487.448 150.068 484.422 153.324C484.14 153.623 483.858 153.923 483.589 154.252C483.041 150.445 482.496 146.633 481.953 142.814C481.752 141.717 481.68 140.6 481.737 139.486C481.883 138.39 482.152 137.314 482.54 136.278C482.66 135.913 482.792 135.536 482.912 135.165L484.931 129.114C485.92 126.151 486.974 123.069 489.209 120.884C489.751 120.422 490.248 119.911 490.695 119.358V119.328C490.905 119.051 491.048 118.728 491.111 118.386C491.174 118.045 491.157 117.693 491.061 117.359L475.277 122.279C474.534 122.512 473.785 122.745 473.072 123.051C472.212 123.426 471.405 123.915 470.675 124.505C469.487 125.449 468.563 126.685 467.995 128.091C467.427 129.498 467.233 131.028 467.434 132.531C467.59 133.513 467.937 134.459 468.141 135.428C468.5 137.188 469.07 139.223 468.303 140.851C467.536 142.479 466.847 143.933 466.127 145.471C465.533 146.644 465.04 147.866 464.653 149.122C464.226 150.84 464.055 152.61 464.144 154.378C464.236 158.323 464.919 162.233 466.169 165.977C466.547 167.21 467.014 168.419 467.386 169.652Z" fill="#454B69"/>
<path d="M499.6 178.516L462.172 174.997L455.635 174.26L461.645 176.385L499.6 178.516Z" fill="#3F3D56"/>
<path d="M500.438 180.324V177.51L460.763 175.553L458.834 177.211L500.438 180.324Z" fill="#3F3D56"/>
<path d="M500.313 174.961C499.48 174.739 498.587 174.781 497.742 174.584C496.651 174.32 495.669 173.65 494.554 173.512C493.865 173.463 493.173 173.514 492.499 173.662L487.364 174.56C486.968 174.626 486.501 174.751 486.363 175.128C486.326 175.3 486.337 175.478 486.392 175.645C486.448 175.811 486.548 175.959 486.68 176.074C487.597 177.05 489.077 177.187 490.408 177.271L494.003 177.487C494.699 177.469 495.389 177.626 496.01 177.941C496.321 178.109 496.561 178.383 496.686 178.713C496.81 179.043 496.811 179.407 496.687 179.737C496.493 180.059 496.207 180.315 495.867 180.473C494.438 181.258 492.797 181.568 491.181 181.359C489.878 181.111 488.601 180.746 487.364 180.27C484.211 179.263 480.884 178.912 477.59 179.24C476.739 179.324 475.739 179.569 475.433 180.371C475.352 180.653 475.341 180.951 475.402 181.238C475.463 181.525 475.593 181.792 475.781 182.017C477.057 183.813 479.604 183.861 481.773 184.34C483.806 184.805 485.686 185.779 487.238 187.171C486.764 188.146 487.16 189.301 487.633 190.277C488.175 191.393 488.819 192.457 489.557 193.455C489.953 194.075 490.51 194.575 491.169 194.904C491.604 195.057 492.062 195.135 492.523 195.137C496.968 195.411 501.43 195.168 505.82 194.413C506.292 194.38 506.741 194.193 507.096 193.88C507.322 193.575 507.464 193.216 507.509 192.839C507.965 190.604 508.364 188.358 508.708 186.099C508.924 184.675 509.013 183.179 508.312 181.868C507.767 180.838 506.904 180.503 506.023 179.809C504.058 178.265 502.835 175.631 500.313 174.961Z" fill="#FBBEBE"/>
<path d="M451.973 128.479L461.267 174.518C461.336 174.864 461.323 175.221 461.229 175.561C461.135 175.901 460.963 176.214 460.726 176.475C460.488 176.737 460.193 176.939 459.864 177.066C459.534 177.192 459.18 177.24 458.828 177.205L423.798 173.752C423.317 173.706 422.864 173.506 422.506 173.183C422.147 172.859 421.903 172.429 421.808 171.956L413.222 129.365C413.156 129.038 413.164 128.701 413.245 128.377C413.325 128.053 413.477 127.752 413.688 127.493C413.9 127.235 414.166 127.027 414.468 126.884C414.769 126.741 415.099 126.666 415.433 126.666H449.762C450.283 126.668 450.788 126.849 451.191 127.18C451.593 127.51 451.87 127.969 451.973 128.479Z" fill="#3F3D56"/>
<path d="M434.542 183.256C432.337 181.844 431.678 179.013 430.653 176.607C429.839 174.835 428.9 173.123 427.843 171.483C426.95 170.011 426.045 168.221 426.764 166.653C427.325 165.653 428.247 164.904 429.341 164.558C430.332 164.091 431.448 163.954 432.523 164.169C433.721 164.499 434.614 165.492 435.429 166.438L438.317 169.784C439.636 171.316 440.99 172.872 442.728 173.907C443.782 174.496 444.897 174.967 446.053 175.314C448.127 176 450.224 176.599 452.345 177.109C453.564 177.343 454.754 177.711 455.892 178.205C456.122 178.288 456.333 178.417 456.512 178.584C456.691 178.75 456.835 178.951 456.935 179.174C456.984 179.45 456.977 179.732 456.914 180.005C456.851 180.277 456.734 180.534 456.57 180.76C455.838 182.125 455.006 184.896 453.472 185.381C452.031 185.74 450.561 185.971 449.079 186.069C447.617 186.225 446.467 185.626 445.148 185.076C443.493 184.444 441.724 184.161 439.953 184.244C438.395 184.238 435.747 184.459 434.542 183.256Z" fill="#FBBEBE"/>
<path d="M453.722 177.014C453.722 177.014 452.428 185.872 444.135 184.92C444.135 184.92 448.527 186.674 448.066 187.65C447.604 188.625 458.252 185.746 458.252 185.746L458.804 181.126C458.804 181.126 459.157 178.582 458.804 178.51C458.45 178.438 453.722 177.014 453.722 177.014Z" fill="#454B69"/>
<path opacity="0.1" d="M453.722 177.014C453.722 177.014 452.428 185.872 444.135 184.92C444.135 184.92 448.527 186.674 448.066 187.65C447.604 188.625 458.252 185.746 458.252 185.746L458.804 181.126C458.804 181.126 459.157 178.582 458.804 178.51C458.45 178.438 453.722 177.014 453.722 177.014Z" fill="black"/>
<path opacity="0.1" d="M491.898 140.043C491.085 140.455 490.416 141.104 489.981 141.904C489.289 143.006 488.764 144.204 488.423 145.459C488.016 146.986 487.824 148.692 486.697 149.793" fill="black"/>
<path opacity="0.1" d="M526.636 164.54C526.03 166.693 526.281 168.997 527.337 170.969C530.321 166.352 533.423 161.817 536.643 157.364C538.189 155.233 539.761 153.117 541.359 151.014C542.647 149.32 543.972 147.596 544.619 145.567C544.732 145.214 544.823 144.855 544.888 144.49C544.089 143.32 542.9 142.472 541.533 142.096C539.358 148.392 533.845 152.905 529.908 158.286C528.423 160.14 527.312 162.264 526.636 164.54Z" fill="black"/>
<path opacity="0.1" d="M498.893 196.753L511.926 197.196C513.04 197.232 514.412 197.453 514.76 198.507C514.868 198.842 514.844 199.207 514.952 199.536C515.317 200.733 516.905 200.865 518.146 200.859C519.224 200.859 520.303 200.901 521.375 200.985C521.38 200.694 521.314 200.406 521.184 200.147C520.962 199.728 520.548 199.44 520.321 199.021C520.088 198.479 520.017 197.88 520.117 197.298C520.393 193.559 520.844 189.838 521.471 186.135C521.531 185.8 521.591 185.459 521.669 185.124C520.572 184.567 519.464 184.04 518.271 184.166C517.199 184.28 516.216 184.914 515.143 184.854C513.28 184.765 511.998 182.688 510.14 182.568C509.735 182.6 509.328 182.551 508.942 182.424C508.342 182.125 508.258 181.347 507.959 180.766C507.509 179.911 506.251 179.701 505.31 179.923C505.334 181.89 505.208 183.857 504.933 185.806C504.84 186.662 504.638 187.503 504.334 188.308C503.979 189.123 503.535 189.896 503.009 190.612C501.631 192.677 500.289 194.694 498.893 196.753Z" fill="black"/>
<path d="M542.216 141.366C544.535 141.964 546.177 144.119 546.854 146.411C547.531 148.703 547.411 151.139 547.351 153.522C547.119 162.379 547.721 171.238 549.149 179.982C549.832 184.172 550.707 188.362 550.449 192.617C550.306 194.916 549.784 197.286 548.304 199.051C545.979 201.841 541.928 202.409 538.297 202.271C531.778 202.014 525.378 200.111 518.853 200.147C517.612 200.147 516.03 200.009 515.659 198.83C515.551 198.495 515.575 198.136 515.467 197.8C515.125 196.747 513.753 196.526 512.639 196.484L499.6 196.047C500.996 193.988 502.338 191.965 503.734 189.906C504.259 189.187 504.705 188.415 505.064 187.602C505.367 186.793 505.568 185.951 505.664 185.094C505.94 183.147 506.064 181.182 506.035 179.216C506.976 178.995 508.234 179.216 508.684 180.06C508.989 180.659 509.085 181.419 509.672 181.718C510.058 181.846 510.466 181.893 510.871 181.856C512.729 181.975 514.017 184.058 515.874 184.148C516.947 184.208 517.936 183.55 519.002 183.46C520.692 183.286 522.202 184.4 523.754 185.082C525.023 185.635 526.393 185.921 527.778 185.921C529.163 185.921 530.533 185.635 531.802 185.082C532.185 184.914 532.605 184.441 532.293 184.16C532.083 183.975 531.736 184.118 531.484 183.993C531.005 183.759 531.352 183.053 531.622 182.592C532.377 181.263 531.844 179.599 531.113 178.235C530.382 176.87 529.447 175.547 529.429 174.045C529.471 173.557 529.471 173.067 529.429 172.579C529.195 171.88 528.824 171.235 528.338 170.681C527.002 168.73 526.81 166.15 527.391 163.852C528.04 161.57 529.12 159.432 530.573 157.556C534.528 152.181 540.041 147.668 542.216 141.366Z" fill="#454B69"/>
<path opacity="0.1" d="M506.952 136.948L503.914 138.672C504.846 139.102 505.8 139.482 506.772 139.809C513.615 142.108 511.177 145.292 518.397 145.196C523.317 145.142 528.931 144.765 532.371 148.273C534.001 149.924 534.816 152.187 535.589 154.372C535.942 155.359 536.296 156.359 536.643 157.364C538.189 155.233 539.761 153.117 541.359 151.014C542.648 149.32 543.972 147.596 544.619 145.567C545.323 143.313 545.132 140.874 544.086 138.756C543.319 137.224 542.15 135.949 541.126 134.566C539.987 133.034 539.01 131.358 537.704 129.97C536.398 128.581 534.636 127.468 532.725 127.468C531.616 127.468 530.328 127.779 529.555 126.989C529.273 126.702 529.123 126.319 528.836 126.049C528.021 125.277 526.69 125.804 525.714 126.355L506.952 136.948Z" fill="black"/>
<path d="M488.838 80.1305C488.936 79.239 489.156 78.365 489.491 77.5329C489.804 76.8935 490.207 76.3028 490.689 75.7792C492.268 73.9985 494.204 72.5702 496.373 71.5874C498.541 70.6045 500.892 70.0893 503.273 70.0753C503.682 70.0534 504.09 70.1187 504.472 70.2668C504.567 70.3113 504.657 70.3655 504.741 70.4284C508.169 68.1241 512.154 65.8497 515.869 64.9519C518.451 64.3497 521.142 64.3867 523.706 65.0597C526.822 65.9934 527.901 68.4772 529.237 71.1886C531.374 75.5472 534.618 79.2701 538.645 81.9859C541.24 83.7276 544.308 85.2359 545.554 88.0969C546.717 90.7663 545.926 93.8248 545.656 96.7276C545.331 100.646 545.982 104.583 547.55 108.189C549.119 111.795 551.556 114.958 554.644 117.395C558.186 120.13 562.913 122.428 563.668 126.833C564.208 129.976 562.44 132.98 561.104 135.871C558.287 141.988 557.323 149.446 560.63 155.305C561.571 156.975 562.842 158.495 563.345 160.339C564.226 163.613 562.35 167.18 559.54 169.083C556.73 170.987 553.2 171.477 549.808 171.477C547.34 171.477 544.667 171.106 542.917 169.377C541.719 168.215 541.156 166.599 540.604 165.049C539.17 161.011 537.74 156.973 536.314 152.935C535.535 150.756 534.72 148.494 533.096 146.842C529.657 143.335 524.036 143.706 519.122 143.766C511.896 143.855 514.329 140.671 507.498 138.379C503.477 137.026 499.109 134.722 498.174 130.598C497.257 126.564 500.019 122.722 502.452 119.376C504.274 116.882 505.998 114.318 507.623 111.685C509.199 109.123 510.715 106.43 511.153 103.455C511.878 98.5112 499.876 95.752 498.078 91.0895C497.563 89.7729 497.131 88.4256 496.784 87.0554C495.921 86.9956 495.118 86.9118 494.56 86.8879C492.265 86.7861 489.677 85.8883 488.892 83.7276C488.466 82.5845 488.628 81.3276 488.838 80.1305Z" fill="#3F3D56"/>
<g opacity="0.1">
<path d="M509.042 68.6268C508.661 68.4788 508.252 68.4135 507.844 68.4353H507.676C510.226 66.8333 512.995 65.6095 515.897 64.8023C516.119 64.7484 516.358 64.7065 516.592 64.6646C514.049 65.8341 511.612 67.2241 509.312 68.8184C509.227 68.7472 509.137 68.6832 509.042 68.6268Z" fill="black"/>
<path d="M488.837 79.9869C488.936 79.0974 489.155 78.2255 489.49 77.3952C489.802 76.754 490.206 76.1613 490.688 75.6356C493.231 72.7716 496.669 70.8518 500.444 70.189C498.466 71.1478 496.7 72.4908 495.248 74.1393C494.766 74.665 494.362 75.2577 494.05 75.8989C493.716 76.7292 493.496 77.6011 493.397 78.4905C493.11 79.6722 493.124 80.907 493.439 82.0817C494.224 84.2364 496.812 85.1401 499.107 85.2359C499.665 85.2359 500.468 85.3436 501.33 85.4095C501.679 86.7775 502.111 88.1227 502.625 89.4376C504.422 94.1001 516.407 96.8593 515.7 101.803C515.262 104.796 513.746 107.477 512.17 110.033C510.594 112.588 508.821 115.228 506.999 117.724C504.566 121.07 501.804 124.906 502.721 128.952C503.637 132.998 508.024 135.386 512.045 136.733C518.888 139.037 516.443 142.221 523.669 142.12C528.583 142.06 534.204 141.689 537.643 145.196C539.267 146.854 540.082 149.11 540.861 151.295C542.287 155.329 543.717 159.365 545.151 163.403C545.703 164.959 546.29 166.569 547.464 167.731C549.214 169.46 551.887 169.819 554.355 169.831C555.76 169.845 557.163 169.739 558.55 169.514C555.925 170.933 552.809 171.31 549.801 171.31C547.333 171.31 544.66 170.939 542.91 169.209C541.712 168.048 541.149 166.438 540.597 164.882C539.163 160.844 537.733 156.808 536.307 152.773C535.528 150.589 534.713 148.332 533.089 146.674C529.65 143.167 524.029 143.538 519.115 143.598C511.889 143.688 514.322 140.504 507.49 138.211C503.47 136.859 499.101 134.554 498.167 130.431C497.25 126.396 500.012 122.548 502.445 119.202C504.267 116.708 505.99 114.145 507.616 111.511C509.192 108.955 510.708 106.256 511.146 103.281C511.871 98.3376 499.868 95.5784 498.071 90.9159C497.557 89.6011 497.125 88.2558 496.776 86.8878C495.914 86.822 495.111 86.7382 494.553 86.7143C492.258 86.6185 489.67 85.7147 488.885 83.56C488.571 82.3915 488.555 81.1633 488.837 79.9869Z" fill="black"/>
</g>
</g>
<defs>
<linearGradient id="paint0_linear_691_1515" x1="255.183" y1="437.833" x2="255.183" y2="33.4755" gradientUnits="userSpaceOnUse">
<stop stop-color="#808080" stop-opacity="0.25"/>
<stop offset="0.54" stop-color="#808080" stop-opacity="0.12"/>
<stop offset="1" stop-color="#808080" stop-opacity="0.1"/>
</linearGradient>
<linearGradient id="paint1_linear_691_1515" x1="487.615" y1="436.929" x2="487.615" y2="62.5698" gradientUnits="userSpaceOnUse">
<stop stop-color="#808080" stop-opacity="0.25"/>
<stop offset="0.54" stop-color="#808080" stop-opacity="0.12"/>
<stop offset="1" stop-color="#808080" stop-opacity="0.1"/>
</linearGradient>
<clipPath id="clip0_691_1515">
<rect width="645" height="439" fill="white"/>
</clipPath>
</defs>
</svg>
