<svg width="745" height="340" viewBox="0 0 745 340" fill="none" xmlns="http://www.w3.org/2000/svg">
<g clip-path="url(#clip0_691_1446)">
<path d="M60.0771 192.15C41.6312 192.15 26.6777 177.176 26.6777 158.704C26.6777 140.232 41.6312 125.257 60.0771 125.257C78.5231 125.257 93.4766 140.232 93.4766 158.704C93.4766 177.176 78.5231 192.15 60.0771 192.15Z" fill="#F2F2F2"/>
<path d="M60.0779 167.506C55.2237 167.506 51.2885 163.565 51.2885 158.704C51.2885 153.843 55.2237 149.902 60.0779 149.902C64.9321 149.902 68.8672 153.843 68.8672 158.704C68.8672 163.565 64.9321 167.506 60.0779 167.506Z" fill="#E6E6E6"/>
<path d="M61.683 158.892C57.9806 161.916 56.8524 166.684 57.5413 171.287C58.3876 176.335 61.0034 180.917 64.919 184.208C69.3218 188.127 74.692 190.775 79.8736 193.487C84.6348 195.92 89.2104 198.701 93.5632 201.808C110.228 213.938 122.819 231.209 130.024 250.482C137.218 269.722 139.148 291.561 133.682 311.502C130.977 321.368 125.506 332.013 115.314 335.725C107.189 338.684 96.0967 336.778 91.9599 328.393C87.5161 319.385 93.716 309.26 101.702 304.789C112.055 298.992 124.42 303.228 133.732 309.095C143.983 315.555 152.223 324.824 162.926 330.614C167.743 333.302 173.104 334.868 178.609 335.195C183.665 335.395 188.711 334.614 193.471 332.896C203.346 329.293 211.848 322.685 217.783 313.998C224.581 304.102 227.624 291.972 228.179 280.089C229.421 253.502 218.933 228.63 210.518 203.974C205.996 191.135 202.608 177.923 200.394 164.49C198.288 150.989 197.538 137.311 198.156 123.66C198.713 111.59 199.902 98.9677 205.222 87.9436C209.9 78.25 218.449 70.3163 229.258 68.3161C234.13 67.3585 239.179 67.9393 243.707 69.9782C245.249 70.6825 243.91 72.959 242.376 72.2582C232.811 67.8885 221.505 72.1401 214.44 79.1955C206.19 87.4345 203.161 99.6013 201.815 110.828C198.792 137.434 201.175 164.377 208.819 190.037C216.155 214.992 227.695 238.905 230.358 265.051C231.573 276.981 230.948 289.314 227.14 300.754C223.873 310.945 217.747 319.979 209.493 326.777C201.721 333.069 192.161 337.356 182.096 337.833C170.798 338.369 160.89 333.325 152.125 326.616C142.737 319.429 134.099 310.563 122.727 306.533C117.543 304.696 111.638 303.839 106.314 305.607C101.748 307.17 97.8742 310.289 95.3697 314.419C93.0577 318.269 92.2049 323.083 94.3147 327.218C96.2983 331.106 100.17 333.356 104.362 334.125C108.8 334.911 113.373 334.133 117.303 331.923C121.894 329.297 125.254 324.89 127.608 320.234C132.302 310.948 133.879 299.895 134.118 289.589C134.328 279.522 133.04 269.48 130.296 259.792C124.838 240.196 113.819 222.607 98.5765 209.157C94.7365 205.807 90.6286 202.778 86.2941 200.101C81.5654 197.182 76.518 194.85 71.6974 192.096C66.954 189.386 62.2793 186.149 59.0128 181.689C56.2285 177.868 54.7247 173.261 54.7173 168.53C54.6677 166.354 55.0993 164.195 55.9813 162.205C56.8632 160.216 58.1735 158.447 59.8185 157.025C61.1226 155.959 62.999 157.817 61.683 158.892Z" fill="#CCCCCC"/>
<path d="M373.488 312.734C361.81 320.293 348.3 324.534 334.402 325.003C334.65 325.593 334.929 326.169 335.237 326.729C336.855 329.719 339.141 332.295 341.917 334.254C345.204 336.571 349.063 337.939 353.073 338.209C357.084 338.48 361.091 337.642 364.659 335.788C368.226 333.933 371.216 331.134 373.303 327.694C375.391 324.254 376.494 320.306 376.494 316.281V312.734H373.488Z" fill="#3F3D56"/>
<path d="M291.509 313.773V316.281C291.508 321.165 293.131 325.91 296.122 329.767C299.114 333.623 303.303 336.372 308.029 337.578C312.755 338.785 317.747 338.38 322.217 336.428C326.687 334.476 330.381 331.088 332.714 326.799C333.035 326.226 333.326 325.635 333.584 325.03C332.942 325.048 332.309 325.056 331.668 325.056C317.499 325.073 303.601 321.168 291.509 313.773Z" fill="#3F3D56"/>
<path d="M261.942 48.5062C262.602 48.4093 263.27 48.3477 263.938 48.3037C256.347 65.8217 255.821 85.6016 262.47 103.499C261.802 103.42 261.142 103.314 260.483 103.191C254.046 101.942 248.261 98.4464 244.157 93.326C240.053 88.2056 237.897 81.7929 238.072 75.2295C238.247 68.6661 240.742 62.3779 245.113 57.4842C249.485 52.5906 255.448 49.4091 261.942 48.5062Z" fill="#3F3D56"/>
<path d="M399.398 48.3038C400.065 48.3478 400.734 48.4094 401.393 48.5063C407.887 49.4092 413.851 52.5907 418.222 57.4843C422.593 62.3779 425.088 68.6662 425.264 75.2296C425.439 81.793 423.282 88.2057 419.178 93.3261C415.074 98.4466 409.289 101.942 402.852 103.191C402.193 103.315 401.534 103.42 400.865 103.499C407.514 85.6017 406.988 65.8218 399.398 48.3038Z" fill="#3F3D56"/>
<path d="M261.942 48.5062C269.182 31.1843 282.595 17.1762 299.572 9.20322C316.55 1.23028 335.881 -0.138185 353.81 5.3637C371.739 10.8656 386.986 22.8449 396.588 38.9745C406.19 55.1041 409.463 74.2322 405.769 92.6427C402.076 111.053 391.68 127.432 376.602 138.596C361.524 149.76 342.841 154.913 324.181 153.054C305.521 151.195 288.218 142.456 275.632 128.535C263.047 114.615 256.078 96.5063 256.079 77.7279C256.083 67.6948 258.075 57.7622 261.942 48.5062ZM262.469 103.499C268.899 120.807 281.564 135.078 297.974 143.503C314.383 151.928 333.347 153.897 351.134 149.023C368.92 144.149 384.24 132.785 394.079 117.166C403.919 101.548 407.563 82.8075 404.297 64.6331C401.03 46.4587 391.089 30.1669 376.429 18.9644C361.77 7.76177 343.454 2.45982 325.087 4.10202C306.719 5.74422 289.631 14.2116 277.185 27.8377C264.739 41.4638 257.837 59.2615 257.837 77.7279C257.84 86.5258 259.408 95.2527 262.469 103.499Z" fill="#3F3D56"/>
<path d="M292.995 60.5646H370.341C374.421 60.5646 378.333 62.1874 381.218 65.076C384.102 67.9646 385.723 71.8825 385.723 75.9676C385.723 80.0527 384.102 83.9705 381.218 86.8592C378.333 89.7478 374.421 91.3706 370.341 91.3706H292.995C288.916 91.3706 285.004 89.7478 282.119 86.8592C279.235 83.9705 277.614 80.0527 277.614 75.9676C277.614 71.8825 279.235 67.9646 282.119 65.076C285.004 62.1874 288.916 60.5646 292.995 60.5646Z" fill="#3F3D56"/>
<path d="M331.667 168.386C352.331 168.395 372.171 176.501 386.943 190.971C401.715 205.44 410.246 225.124 410.712 245.811C411.178 266.499 403.542 286.547 389.437 301.669C375.332 316.791 355.878 325.786 335.236 326.729C334.401 326.773 333.557 326.799 332.713 326.799C332.362 326.817 332.019 326.817 331.667 326.817C310.688 326.817 290.567 318.471 275.733 303.615C260.898 288.759 252.564 268.61 252.564 247.601C252.564 226.592 260.898 206.443 275.733 191.587C290.567 176.732 310.688 168.386 331.667 168.386ZM291.509 313.773C303.601 321.168 317.499 325.073 331.667 325.056C332.309 325.056 332.942 325.048 333.584 325.03C333.856 325.03 334.129 325.021 334.401 325.004C352.974 324.357 370.695 317.039 384.325 304.387C397.954 291.735 406.582 274.594 408.631 256.097C410.681 237.599 406.015 218.981 395.487 203.645C384.958 188.309 369.27 177.279 351.29 172.571C333.31 167.863 314.239 169.791 297.561 178.004C280.884 186.216 267.715 200.164 260.461 217.299C253.206 234.433 252.352 253.61 258.052 271.323C263.753 289.037 275.629 304.105 291.509 313.773Z" fill="#3F3D56"/>
<path d="M276.149 228.091H310.72C313.129 228.091 315.439 227.133 317.143 225.427C318.846 223.721 319.803 221.408 319.803 218.996C319.803 216.583 318.846 214.27 317.143 212.564C315.439 210.859 313.129 209.9 310.72 209.9H276.149C273.74 209.9 271.43 210.859 269.727 212.564C268.023 214.27 267.066 216.583 267.066 218.996C267.066 221.408 268.023 223.721 269.727 225.427C271.43 227.133 273.74 228.091 276.149 228.091Z" fill="#3F3D56"/>
<path d="M308.416 223.612C305.87 223.612 303.806 221.545 303.806 218.996C303.806 216.446 305.87 214.38 308.416 214.38C310.962 214.38 313.025 216.446 313.025 218.996C313.025 221.545 310.962 223.612 308.416 223.612Z" fill="#F2F2F2"/>
<path d="M293.433 223.612C290.888 223.612 288.824 221.545 288.824 218.996C288.824 216.446 290.888 214.38 293.433 214.38C295.979 214.38 298.043 216.446 298.043 218.996C298.043 221.545 295.979 223.612 293.433 223.612Z" fill="#F2F2F2"/>
<path d="M278.453 223.612C275.907 223.612 273.843 221.545 273.843 218.996C273.843 216.446 275.907 214.38 278.453 214.38C280.999 214.38 283.062 216.446 283.062 218.996C283.062 221.545 280.999 223.612 278.453 223.612Z" fill="#83BB62"/>
<path d="M600.306 335.96C592.402 329.272 587.601 318.706 588.86 308.421C590.119 298.136 597.917 288.68 608.032 286.496C618.147 284.312 629.678 290.358 632.751 300.253C634.441 281.176 636.39 261.299 646.518 245.053C655.689 230.343 671.574 219.817 688.789 217.934C706.004 216.051 724.129 223.163 734.866 236.77C745.602 250.376 748.231 270.158 740.711 285.78C735.172 297.288 724.966 305.852 714.274 312.82C680.16 335.049 637.842 342.559 597.576 336.625L600.306 335.96Z" fill="#F2F2F2"/>
<path d="M717.841 223.557C703.637 235.143 690.606 248.101 678.936 262.244C667.265 276.372 656.99 291.601 648.255 307.716C643.373 316.756 638.987 326.056 635.117 335.575C634.328 337.511 637.467 338.354 638.248 336.439C645.102 319.658 653.583 303.59 663.568 288.465C673.504 273.395 684.877 259.326 697.526 246.455C704.68 239.179 712.229 232.302 720.137 225.856C721.758 224.534 719.449 222.246 717.841 223.557Z" fill="white"/>
<path d="M602.986 58.0914C587.937 58.0914 575.739 45.8753 575.739 30.806C575.739 15.7368 587.937 3.52069 602.986 3.52069C618.034 3.52069 630.232 15.7368 630.232 30.806C630.232 45.8753 618.034 58.0914 602.986 58.0914Z" fill="#2F2E41"/>
<path d="M501.365 130.716C501.887 131.502 502.524 132.206 503.253 132.804C504.305 133.672 505.527 134.307 506.841 134.669C508.154 135.031 509.53 135.111 510.876 134.903C512.223 134.696 513.51 134.206 514.655 133.465C515.799 132.724 516.774 131.75 517.516 130.606C517.688 130.339 517.845 130.063 517.988 129.78L560.924 125.632C564.312 125.291 567.501 123.866 570.016 121.567C572.532 119.268 574.24 116.218 574.887 112.87L577.324 100.004L560.568 97.3936L557.561 107.699L515.699 117.996C515.375 117.711 515.031 117.45 514.671 117.213C512.803 115.999 510.575 115.468 508.362 115.709C506.149 115.95 504.086 116.947 502.523 118.534C500.959 120.121 499.99 122.199 499.779 124.419C499.568 126.638 500.128 128.862 501.365 130.716Z" fill="#FFB8B8"/>
<path d="M556.533 106.144L575.25 111.207C576.263 111.48 577.342 111.339 578.251 110.816C579.161 110.293 579.825 109.43 580.1 108.416L586.656 84.113C587.358 81.5098 587.073 78.7383 585.856 76.333C584.638 73.9278 582.575 72.0591 580.063 71.0872C577.551 70.1154 574.769 70.1093 572.253 71.07C569.737 72.0308 567.665 73.8904 566.437 76.2903L554.044 100.514C553.775 101.039 553.627 101.618 553.61 102.207C553.593 102.797 553.708 103.383 553.947 103.923C554.186 104.463 554.542 104.942 554.989 105.326C555.436 105.71 555.964 105.99 556.533 106.144Z" fill="#2F2E41"/>
<path d="M567.374 329.302H556.599L551.473 287.68L567.377 287.681L567.374 329.302Z" fill="#FFB8B8"/>
<path d="M535.818 339.32L569.684 339.322L569.685 326.219L548.903 326.218C545.433 326.218 542.105 327.598 539.651 330.055C537.197 332.512 535.819 335.845 535.818 339.32Z" fill="#2F2E41"/>
<path d="M663.416 318.785L653.335 322.596L633.856 285.472L648.734 279.847L663.416 318.785Z" fill="#FFB8B8"/>
<path d="M637.428 339.322L669.11 327.342L664.489 315.084L645.047 322.435C641.8 323.663 639.174 326.131 637.745 329.298C636.316 332.465 636.202 336.071 637.428 339.322Z" fill="#2F2E41"/>
<path d="M567.715 319.634C568.55 319.633 569.364 319.368 570.039 318.875C570.714 318.383 571.216 317.689 571.473 316.893L598.956 231.9C599.038 231.648 599.193 231.426 599.402 231.264C599.611 231.101 599.863 231.005 600.127 230.989C600.391 230.972 600.654 231.035 600.882 231.17C601.109 231.304 601.291 231.505 601.404 231.744L639.492 312.897C639.904 313.774 640.624 314.47 641.514 314.852C642.404 315.234 643.403 315.276 644.322 314.97L659.323 309.963C660.275 309.643 661.071 308.972 661.549 308.087C662.027 307.201 662.151 306.167 661.896 305.194L638.565 216.695C636.124 207.321 634.36 197.782 633.289 188.154C631.652 172.299 624.229 157.607 612.443 146.894C607.297 142.173 603.951 135.805 602.981 128.883L602.918 128.441L568.75 133.843L547.108 310.695C546.996 311.641 547.227 312.596 547.759 313.386C548.291 314.176 549.088 314.749 550.006 315L566.682 319.496C567.019 319.588 567.366 319.634 567.715 319.634Z" fill="#2F2E41"/>
<path d="M592.161 57.9615C580.238 57.9615 570.573 48.2828 570.573 36.3435C570.573 24.4043 580.238 14.7256 592.161 14.7256C604.083 14.7256 613.748 24.4043 613.748 36.3435C613.748 48.2828 604.083 57.9615 592.161 57.9615Z" fill="#FFB8B8"/>
<path d="M570.874 137.614C570.941 137.614 571.009 137.612 571.077 137.609L604.947 135.913C605.893 135.87 606.791 135.487 607.478 134.835C608.164 134.183 608.593 133.304 608.685 132.361L613.312 87.1834C613.65 83.875 613.176 80.5339 611.93 77.4511C610.684 74.3682 608.704 71.6373 606.163 69.4963C603.621 67.3553 600.596 65.8692 597.349 65.1673C594.103 64.4655 590.735 64.5693 587.538 65.4697C584.889 66.1961 582.421 67.4677 580.29 69.2031C556.464 88.7977 564.146 124.3 567.069 134.714C567.298 135.549 567.794 136.284 568.482 136.808C569.169 137.332 570.01 137.615 570.874 137.614Z" fill="#83BB62"/>
<path d="M600.339 167.95C601.282 167.95 602.22 167.809 603.121 167.532C604.425 167.136 605.631 166.469 606.66 165.574C607.688 164.679 608.516 163.577 609.089 162.339C609.663 161.102 609.969 159.757 609.987 158.392C610.005 157.028 609.735 155.675 609.194 154.423C609.068 154.132 608.926 153.848 608.77 153.572L629.104 115.477C630.698 112.463 631.279 109.015 630.761 105.644C630.243 102.274 628.653 99.1599 626.228 96.7656L616.882 87.6072L605.43 100.132L612.332 108.347L597.705 148.953C597.288 149.065 596.88 149.207 596.484 149.377C594.44 150.261 592.764 151.825 591.739 153.803C590.713 155.782 590.4 158.054 590.853 160.237C591.306 162.419 592.497 164.378 594.226 165.783C595.954 167.189 598.113 167.954 600.339 167.95Z" fill="#FFB8B8"/>
<path d="M610.469 108.344L625.047 95.5427C625.835 94.8495 626.315 93.8717 626.384 92.8238C626.453 91.776 626.103 90.7437 625.413 89.9533L608.839 71.0252C607.064 68.9977 604.602 67.7002 601.928 67.3829C599.254 67.0655 596.557 67.7509 594.358 69.3068C592.158 70.8626 590.612 73.1788 590.017 75.8087C589.422 78.4387 589.821 81.196 591.136 83.5492L604.41 107.3C604.697 107.815 605.096 108.259 605.578 108.6C606.059 108.941 606.61 109.169 607.191 109.269C607.771 109.369 608.367 109.338 608.934 109.178C609.502 109.018 610.026 108.733 610.469 108.344Z" fill="#2F2E41"/>
<path d="M606.053 57.3426C604.084 58.042 601.669 58.6586 600.119 57.2081C598.606 55.792 598.882 53.2024 599.773 51.2947C600.664 49.3869 602.047 47.6892 602.471 45.6127C603.078 42.6367 601.507 39.545 599.265 37.6048C597.023 35.6646 594.201 34.6454 591.446 33.6646L576.334 28.2852C572.594 26.9537 568.563 25.3895 566.47 21.8853C563.441 16.815 566.21 9.56725 571.178 6.60861C576.146 3.64997 582.422 4.20115 587.782 6.28152C590.746 7.43214 593.566 9.01768 596.632 9.82765C602.683 11.4262 609.563 9.99213 614.88 13.4086C619.509 16.3826 621.656 22.451 621.5 28.1289C621.344 33.8069 619.256 39.2142 617.054 44.407C615.744 47.4963 614.345 50.6213 612.126 53.0784C609.907 55.5355 606.7 57.2544 603.497 56.8023L606.053 57.3426Z" fill="#2F2E41"/>
<path d="M625.837 35.2069C616.129 35.2069 608.259 27.3256 608.259 17.6034C608.259 7.88133 616.129 0 625.837 0C635.546 0 643.416 7.88133 643.416 17.6034C643.416 27.3256 635.546 35.2069 625.837 35.2069Z" fill="#2F2E41"/>
<path d="M483.264 119.22L483.576 119.177L482.401 110.619C482.221 109.305 482.569 107.974 483.369 106.917C484.169 105.861 485.356 105.166 486.668 104.985L504.773 102.493C506.085 102.312 507.415 102.661 508.47 103.462C509.525 104.263 510.219 105.451 510.399 106.765L516.844 153.714C517.024 155.027 516.676 156.359 515.876 157.415C515.076 158.472 513.89 159.167 512.578 159.348L494.472 161.84C493.16 162.021 491.831 161.672 490.776 160.871C489.721 160.07 489.027 158.881 488.846 157.568L484.413 125.268L484.101 125.311L483.264 119.22Z" fill="#3F3D56"/>
<path d="M487.238 107.496L489.492 107.185C489.423 107.454 489.421 107.736 489.487 108.005C489.552 108.275 489.683 108.524 489.868 108.731C490.052 108.938 490.284 109.097 490.544 109.193C490.804 109.289 491.084 109.319 491.359 109.281L501.252 107.919C501.527 107.882 501.788 107.777 502.012 107.614C502.237 107.452 502.418 107.236 502.54 106.987C502.661 106.738 502.72 106.462 502.711 106.185C502.701 105.908 502.624 105.637 502.485 105.397L504.591 105.107C505.053 105.043 505.524 105.071 505.976 105.19C506.427 105.308 506.852 105.515 507.224 105.797C507.596 106.08 507.909 106.433 508.145 106.837C508.38 107.241 508.534 107.687 508.598 108.15L514.736 152.867C514.865 153.802 514.617 154.751 514.047 155.503C513.477 156.256 512.632 156.751 511.697 156.88L494.344 159.269C493.41 159.397 492.463 159.149 491.711 158.578C490.96 158.007 490.465 157.161 490.337 156.225L484.199 111.509C484.07 110.573 484.318 109.625 484.888 108.872C485.458 108.119 486.303 107.624 487.238 107.496Z" fill="white"/>
<path d="M499.545 144.621C494.205 144.621 489.876 140.286 489.876 134.939C489.876 129.592 494.205 125.257 499.545 125.257C504.884 125.257 509.213 129.592 509.213 134.939C509.213 140.286 504.884 144.621 499.545 144.621Z" fill="#83BB62"/>
<path d="M500.502 138.633C500.72 138.633 500.931 138.563 501.105 138.432L501.116 138.424L503.388 136.682C503.494 136.601 503.583 136.501 503.65 136.386C503.717 136.271 503.76 136.143 503.778 136.012C503.796 135.88 503.787 135.745 503.753 135.617C503.719 135.488 503.66 135.368 503.579 135.262C503.498 135.156 503.397 135.068 503.282 135.001C503.167 134.935 503.04 134.892 502.908 134.874C502.776 134.857 502.642 134.866 502.514 134.901C502.386 134.936 502.266 134.996 502.161 135.077L500.689 136.207L497.211 131.665C497.13 131.56 497.03 131.471 496.915 131.405C496.8 131.338 496.673 131.295 496.542 131.278C496.411 131.26 496.277 131.269 496.149 131.304C496.021 131.338 495.901 131.397 495.796 131.478C495.583 131.641 495.444 131.883 495.409 132.148C495.374 132.414 495.446 132.683 495.608 132.896L499.699 138.238C499.794 138.361 499.915 138.461 500.055 138.529C500.194 138.598 500.347 138.633 500.502 138.633Z" fill="white"/>
<path d="M1.04572 340H738.728C739.005 339.999 739.27 339.889 739.466 339.692C739.662 339.496 739.771 339.229 739.771 338.952C739.771 338.675 739.662 338.409 739.466 338.212C739.27 338.016 739.005 337.905 738.728 337.904H1.04572C0.768127 337.904 0.501953 338.014 0.305664 338.211C0.109436 338.408 -0.000854492 338.674 -0.000854492 338.952C-0.000854492 339.23 0.109436 339.497 0.305664 339.693C0.501953 339.89 0.768127 340 1.04572 340Z" fill="#CCCCCC"/>
</g>
<defs>
<clipPath id="clip0_691_1446">
<rect width="745" height="340" fill="white" transform="matrix(-1 0 0 1 745 0)"/>
</clipPath>
</defs>
</svg>
