<svg width="666" height="425" viewBox="0 0 666 425" fill="none" xmlns="http://www.w3.org/2000/svg">
<g clip-path="url(#clip0_691_1662)">
<path d="M118.455 421.302C124.806 415.936 128.664 407.458 127.652 399.204C126.641 390.951 120.375 383.364 112.247 381.611C104.118 379.858 94.8531 384.71 92.3844 392.65C91.0257 377.342 89.4601 361.392 81.3215 348.356C73.9522 336.551 61.1885 328.105 47.3555 326.594C33.5225 325.083 18.9581 330.79 10.331 341.709C1.70383 352.627 -0.408504 368.501 5.63372 381.036C10.0848 390.271 18.2853 397.143 26.8774 402.734C54.6414 420.649 87.9408 427.934 120.649 423.249L118.455 421.302Z" fill="#F2F2F2"/>
<path d="M24.0092 331.106C35.4231 340.403 45.8942 350.802 55.271 362.15C64.6493 373.487 72.9058 385.708 79.9247 398.639C83.8479 405.893 87.3722 413.356 90.4819 420.994C91.1159 422.547 88.593 423.224 87.966 421.687C82.458 408.221 75.6435 395.328 67.6203 383.191C59.6361 371.098 50.4977 359.809 40.3335 349.481C34.5846 343.642 28.519 338.124 22.1643 332.951C20.8617 331.891 22.7174 330.054 24.0092 331.106Z" fill="white"/>
<path d="M497.455 0H153.508C152.198 0.00145441 150.941 0.522799 150.014 1.44966C149.087 2.37652 148.566 3.6332 148.564 4.94398V238.017C148.566 239.328 149.087 240.585 150.014 241.512C150.941 242.439 152.198 242.96 153.508 242.961H497.455C498.766 242.96 500.023 242.439 500.949 241.512C501.876 240.585 502.398 239.328 502.399 238.017V4.94398C502.398 3.6332 501.876 2.37652 500.949 1.44966C500.023 0.522799 498.766 0.00145441 497.455 0ZM500.987 238.017C500.986 238.954 500.614 239.852 499.952 240.514C499.29 241.176 498.392 241.549 497.455 241.549H153.508C152.572 241.549 151.674 241.176 151.012 240.514C150.35 239.852 149.977 238.954 149.977 238.017V4.94398C149.977 4.00751 150.35 3.1095 151.012 2.44731C151.674 1.78512 152.572 1.41294 153.508 1.41257H497.455C498.392 1.41294 499.29 1.78512 499.952 2.44731C500.614 3.1095 500.986 4.00751 500.987 4.94398V238.017Z" fill="#3F3D56"/>
<path d="M501.692 19.8042H149.27V21.2168H501.692V19.8042Z" fill="#3F3D56"/>
<path d="M161.277 14.832C163.617 14.832 165.514 12.9347 165.514 10.5943C165.514 8.25385 163.617 6.35657 161.277 6.35657C158.936 6.35657 157.039 8.25385 157.039 10.5943C157.039 12.9347 158.936 14.832 161.277 14.832Z" fill="#3F3D56"/>
<path d="M173.46 14.832C175.801 14.832 177.698 12.9347 177.698 10.5943C177.698 8.25385 175.801 6.35657 173.46 6.35657C171.12 6.35657 169.223 8.25385 169.223 10.5943C169.223 12.9347 171.12 14.832 173.46 14.832Z" fill="#3F3D56"/>
<path d="M185.642 14.832C187.982 14.832 189.879 12.9347 189.879 10.5943C189.879 8.25385 187.982 6.35657 185.642 6.35657C183.302 6.35657 181.404 8.25385 181.404 10.5943C181.404 12.9347 183.302 14.832 185.642 14.832Z" fill="#3F3D56"/>
<path d="M355.144 52.6181H295.819C294.508 52.6181 293.25 52.0972 292.323 51.17C291.396 50.2428 290.875 48.9853 290.875 47.6741C290.875 46.3629 291.396 45.1053 292.323 44.1782C293.25 43.251 294.508 42.7301 295.819 42.7301H355.144C356.456 42.7301 357.713 43.251 358.64 44.1782C359.567 45.1053 360.088 46.3629 360.088 47.6741C360.088 48.9853 359.567 50.2428 358.64 51.17C357.713 52.0972 356.456 52.6181 355.144 52.6181Z" fill="#CCCCCC"/>
<path d="M395.754 76.6317H255.209C253.898 76.6317 252.641 76.1109 251.714 75.1837C250.786 74.2565 250.266 72.999 250.266 71.6878C250.266 70.3765 250.786 69.119 251.714 68.1918C252.641 67.2647 253.898 66.7438 255.209 66.7438H395.754C397.066 66.7438 398.323 67.2647 399.25 68.1918C400.177 69.119 400.698 70.3765 400.698 71.6878C400.698 72.999 400.177 74.2565 399.25 75.1837C398.323 76.1109 397.066 76.6317 395.754 76.6317Z" fill="#CCCCCC"/>
<path d="M437.904 224.21C432.577 224.21 427.369 222.63 422.94 219.671C418.51 216.711 415.058 212.504 413.019 207.582C410.98 202.66 410.447 197.244 411.486 192.019C412.526 186.794 415.091 181.994 418.858 178.227C422.625 174.46 427.424 171.895 432.649 170.855C437.874 169.816 443.29 170.35 448.212 172.388C453.133 174.427 457.34 177.879 460.3 182.309C463.259 186.739 464.839 191.947 464.839 197.274C464.831 204.416 461.991 211.262 456.941 216.312C451.891 221.362 445.045 224.202 437.904 224.21ZM437.904 172.196C432.944 172.196 428.096 173.666 423.972 176.422C419.848 179.178 416.633 183.094 414.735 187.677C412.837 192.259 412.341 197.302 413.308 202.167C414.276 207.031 416.664 211.5 420.171 215.007C423.679 218.515 428.147 220.903 433.012 221.871C437.876 222.838 442.918 222.342 447.501 220.444C452.083 218.545 456 215.331 458.755 211.207C461.511 207.083 462.981 202.234 462.981 197.274C462.974 190.625 460.329 184.251 455.628 179.549C450.927 174.848 444.553 172.203 437.904 172.196Z" fill="#3F3D56"/>
<path d="M212.088 152.069C206.76 152.069 201.553 150.489 197.123 147.529C192.694 144.569 189.241 140.362 187.203 135.44C185.164 130.518 184.631 125.102 185.67 119.877C186.709 114.652 189.275 109.853 193.041 106.086C196.808 102.319 201.608 99.7531 206.833 98.7138C212.058 97.6744 217.473 98.2078 222.395 100.247C227.317 102.285 231.524 105.738 234.483 110.167C237.443 114.597 239.023 119.805 239.023 125.132C239.015 132.274 236.174 139.12 231.125 144.17C226.075 149.22 219.229 152.06 212.088 152.069ZM212.088 100.054C207.128 100.054 202.279 101.525 198.155 104.28C194.031 107.036 190.817 110.953 188.919 115.535C187.021 120.118 186.524 125.16 187.492 130.025C188.459 134.89 190.848 139.358 194.355 142.866C197.862 146.373 202.331 148.761 207.195 149.729C212.06 150.697 217.102 150.2 221.684 148.302C226.267 146.404 230.183 143.189 232.939 139.065C235.694 134.941 237.165 130.092 237.165 125.132C237.158 118.483 234.513 112.109 229.812 107.407C225.11 102.706 218.736 100.061 212.088 100.054Z" fill="#3F3D56"/>
<path d="M222.551 139.411C221.846 139.412 221.17 139.132 220.67 138.633C220.171 138.135 219.89 137.459 219.889 136.754V121.641C219.89 120.936 220.17 120.26 220.669 119.762C221.167 119.264 221.842 118.984 222.547 118.983H222.551C223.256 118.984 223.931 119.264 224.43 119.762C224.928 120.26 225.208 120.936 225.209 121.641V136.754C225.208 137.458 224.928 138.134 224.43 138.632C223.931 139.13 223.256 139.411 222.551 139.411ZM215.613 139.411C215.261 139.415 214.912 139.349 214.586 139.217C214.26 139.085 213.963 138.89 213.713 138.643C213.462 138.396 213.263 138.102 213.126 137.778C212.99 137.454 212.919 137.106 212.917 136.754V128.613C212.918 127.908 213.198 127.233 213.697 126.735C214.195 126.236 214.87 125.956 215.575 125.956H215.613C216.317 125.956 216.993 126.236 217.491 126.735C217.989 127.233 218.269 127.908 218.27 128.613V136.754C218.269 137.458 217.989 138.134 217.491 138.632C216.993 139.13 216.317 139.411 215.613 139.411ZM208.608 139.411C207.902 139.412 207.226 139.132 206.727 138.633C206.228 138.135 205.947 137.459 205.946 136.754V113.511C205.946 112.806 206.227 112.131 206.725 111.633C207.223 111.134 207.898 110.854 208.603 110.853H208.608C209.312 110.854 209.988 111.134 210.486 111.633C210.984 112.131 211.264 112.806 211.265 113.511V136.754C211.264 137.458 210.984 138.134 210.486 138.632C209.988 139.13 209.312 139.411 208.608 139.411ZM201.629 139.411C201.279 139.412 200.933 139.343 200.611 139.21C200.288 139.076 199.994 138.88 199.747 138.633C199.5 138.386 199.304 138.093 199.171 137.77C199.037 137.447 198.968 137.101 198.969 136.752L198.972 133.261C198.972 132.556 199.252 131.88 199.751 131.382C200.249 130.884 200.925 130.604 201.63 130.605C202.335 130.605 203.01 130.885 203.509 131.384C204.007 131.882 204.286 132.558 204.286 133.263V136.754C204.285 137.458 204.005 138.134 203.507 138.632C203.009 139.13 202.333 139.411 201.629 139.411Z" fill="#83BB62"/>
<path d="M620.689 423.281C615.362 423.281 610.154 421.701 605.725 418.742C601.295 415.782 597.843 411.575 595.804 406.653C593.766 401.731 593.232 396.315 594.271 391.09C595.311 385.865 597.876 381.065 601.643 377.298C605.41 373.531 610.209 370.966 615.434 369.927C620.659 368.887 626.075 369.421 630.997 371.459C635.918 373.498 640.125 376.951 643.085 381.38C646.044 385.81 647.624 391.018 647.624 396.345C647.616 403.487 644.776 410.333 639.726 415.383C634.677 420.433 627.83 423.273 620.689 423.281ZM620.689 371.267C615.729 371.267 610.881 372.737 606.757 375.493C602.633 378.249 599.419 382.166 597.52 386.748C595.622 391.33 595.126 396.373 596.093 401.238C597.061 406.102 599.449 410.571 602.957 414.078C606.464 417.586 610.932 419.974 615.797 420.942C620.661 421.909 625.704 421.413 630.286 419.515C634.868 417.617 638.785 414.402 641.54 410.278C644.296 406.154 645.767 401.305 645.767 396.345C645.759 389.696 643.115 383.322 638.413 378.62C633.712 373.919 627.338 371.274 620.689 371.267Z" fill="#3F3D56"/>
<path d="M628.114 391.67L622.863 399.7C623.285 400.212 623.514 400.856 623.512 401.519C623.51 402.285 623.206 403.018 622.664 403.559C622.122 404.1 621.388 404.404 620.623 404.404C619.857 404.404 619.123 404.1 618.581 403.559C618.04 403.018 617.735 402.285 617.734 401.519C617.735 401.333 617.752 401.148 617.783 400.964L614.318 398.946C613.87 399.379 613.294 399.656 612.676 399.733C612.058 399.811 611.432 399.687 610.891 399.379L607.203 402.833V406.277C607.205 406.958 607.475 407.611 607.956 408.093C608.437 408.575 609.09 408.847 609.771 408.85H631.602C632.284 408.847 632.936 408.575 633.418 408.093C633.9 407.611 634.172 406.959 634.175 406.277V393.506L630.648 391.16C630.294 391.435 629.881 391.625 629.441 391.713C629.002 391.802 628.547 391.787 628.114 391.67Z" fill="#83BB62"/>
<path d="M612.316 393.999C613.082 393.999 613.817 394.304 614.359 394.846C614.901 395.387 615.205 396.122 615.205 396.889V397.26L618.82 399.284C619.336 398.861 619.983 398.63 620.65 398.63C620.861 398.631 621.071 398.654 621.277 398.696L626.539 390.55C626.276 390.181 626.105 389.755 626.038 389.306C625.971 388.858 626.011 388.4 626.154 387.97C626.297 387.54 626.54 387.15 626.863 386.832C627.186 386.513 627.579 386.276 628.011 386.138C628.443 386.001 628.901 385.967 629.349 386.04C629.796 386.113 630.22 386.291 630.585 386.559C630.951 386.827 631.248 387.177 631.453 387.582C631.658 387.986 631.764 388.433 631.763 388.886C631.763 389.116 631.737 389.345 631.685 389.569L634.175 391.232V386.413C634.172 385.732 633.9 385.079 633.418 384.597C632.936 384.115 632.284 383.843 631.602 383.84H609.771C609.09 383.843 608.437 384.115 607.956 384.597C607.475 385.079 607.205 385.732 607.203 386.413V400.216L609.61 397.909C609.449 397.473 609.396 397.004 609.455 396.544C609.514 396.083 609.684 395.643 609.95 395.262C610.215 394.88 610.569 394.569 610.981 394.354C611.393 394.139 611.851 394.027 612.316 394.027V393.999Z" fill="#83BB62"/>
<path d="M326.55 152.069C321.223 152.069 316.015 150.489 311.586 147.529C307.157 144.569 303.704 140.362 301.666 135.44C299.627 130.518 299.093 125.102 300.133 119.877C301.172 114.652 303.737 109.853 307.504 106.086C311.271 102.319 316.071 99.7531 321.296 98.7138C326.521 97.6744 331.936 98.2078 336.858 100.247C341.78 102.285 345.986 105.738 348.946 110.167C351.906 114.597 353.486 119.805 353.486 125.132C353.478 132.274 350.637 139.12 345.588 144.17C340.538 149.22 333.692 152.06 326.55 152.069ZM326.55 100.054C321.591 100.054 316.742 101.525 312.618 104.28C308.494 107.036 305.28 110.953 303.382 115.535C301.484 120.118 300.987 125.16 301.955 130.025C302.922 134.89 305.311 139.358 308.818 142.866C312.325 146.373 316.793 148.761 321.658 149.729C326.523 150.697 331.565 150.2 336.147 148.302C340.73 146.404 344.646 143.189 347.402 139.065C350.157 134.941 351.628 130.092 351.628 125.132C351.62 118.483 348.976 112.109 344.275 107.407C339.573 102.706 333.199 100.061 326.55 100.054Z" fill="#3F3D56"/>
<path d="M312.24 134.896C311.852 134.896 311.474 134.782 311.152 134.567C310.83 134.352 310.579 134.046 310.431 133.688C310.282 133.331 310.243 132.937 310.318 132.558C310.394 132.178 310.58 131.829 310.853 131.555L320.805 121.574C320.96 121.418 321.144 121.294 321.347 121.21C321.551 121.125 321.768 121.082 321.988 121.083H321.99C322.209 121.082 322.427 121.125 322.63 121.209C322.833 121.293 323.017 121.417 323.172 121.573L327.788 126.188C327.881 126.282 327.991 126.356 328.113 126.407C328.235 126.457 328.366 126.483 328.498 126.482C328.63 126.483 328.761 126.457 328.883 126.407C329.004 126.356 329.115 126.282 329.208 126.188L335.724 119.66C335.755 119.629 335.78 119.592 335.797 119.552C335.814 119.511 335.822 119.468 335.822 119.424C335.822 119.38 335.814 119.336 335.797 119.296C335.78 119.255 335.755 119.218 335.724 119.187L333.616 117.082C333.475 116.942 333.379 116.763 333.34 116.568C333.301 116.374 333.321 116.172 333.397 115.988C333.473 115.805 333.602 115.648 333.767 115.537C333.932 115.427 334.126 115.368 334.325 115.368H341.813C342.08 115.368 342.335 115.474 342.523 115.662C342.711 115.851 342.817 116.106 342.817 116.372V123.856C342.817 124.055 342.758 124.249 342.648 124.414C342.538 124.579 342.381 124.708 342.198 124.784C342.014 124.86 341.812 124.88 341.618 124.841C341.423 124.802 341.244 124.707 341.104 124.566L338.992 122.454C338.961 122.423 338.924 122.399 338.884 122.382C338.843 122.365 338.8 122.356 338.756 122.356C338.712 122.356 338.668 122.365 338.628 122.382C338.587 122.399 338.55 122.423 338.519 122.454L329.695 131.273C329.54 131.429 329.355 131.552 329.152 131.637C328.949 131.721 328.732 131.764 328.512 131.763C328.292 131.764 328.075 131.72 327.872 131.636C327.669 131.552 327.484 131.429 327.329 131.273L322.711 126.655C322.52 126.472 322.266 126.37 322.002 126.37C321.737 126.37 321.483 126.472 321.292 126.655L313.624 134.322C313.443 134.505 313.227 134.65 312.989 134.748C312.752 134.847 312.497 134.897 312.24 134.896Z" fill="#83BB62"/>
<path d="M326.55 222.697C321.223 222.697 316.015 221.117 311.586 218.157C307.157 215.197 303.704 210.991 301.666 206.069C299.627 201.147 299.093 195.731 300.133 190.506C301.172 185.281 303.737 180.481 307.504 176.714C311.271 172.947 316.071 170.381 321.296 169.342C326.521 168.303 331.936 168.836 336.858 170.875C341.78 172.914 345.986 176.366 348.946 180.796C351.906 185.225 353.486 190.433 353.486 195.761C353.478 202.902 350.637 209.749 345.588 214.799C340.538 219.848 333.692 222.689 326.55 222.697Z" fill="#E6E6E6"/>
<path d="M438.138 149.95C432.811 149.95 427.603 148.37 423.174 145.41C418.744 142.45 415.292 138.243 413.253 133.321C411.215 128.4 410.681 122.984 411.721 117.758C412.76 112.533 415.325 107.734 419.092 103.967C422.859 100.2 427.659 97.6342 432.884 96.5949C438.108 95.5555 443.524 96.0889 448.446 98.1277C453.368 100.166 457.574 103.619 460.534 108.049C463.494 112.478 465.073 117.686 465.073 123.013C465.065 130.155 462.225 137.002 457.175 142.051C452.126 147.101 445.279 149.942 438.138 149.95Z" fill="#E6E6E6"/>
<path d="M212.089 168.824C207.465 168.83 202.92 170.021 198.889 172.285C204.715 172.8 210.178 175.335 214.334 179.451C218.489 183.568 221.075 189.007 221.645 194.829C222.215 200.65 220.732 206.488 217.454 211.332C214.176 216.176 209.307 219.722 203.691 221.357C204.743 221.706 205.817 221.987 206.905 222.198C208.612 222.534 210.348 222.702 212.089 222.699C219.233 222.699 226.084 219.861 231.136 214.809C236.187 209.758 239.025 202.906 239.025 195.762C239.025 188.617 236.187 181.766 231.136 176.714C226.084 171.662 219.233 168.824 212.089 168.824Z" fill="#E6E6E6"/>
<path d="M201.87 170.844C200.163 170.502 198.427 170.332 196.686 170.336C189.76 170.328 183.097 172.986 178.078 177.759C173.059 182.531 170.068 189.052 169.726 195.97C169.384 202.887 171.717 209.671 176.241 214.915C180.765 220.16 187.133 223.462 194.026 224.138C200.919 224.814 207.807 222.812 213.264 218.547C218.721 214.282 222.327 208.08 223.335 201.228C224.344 194.376 222.677 187.398 218.681 181.742C214.685 176.085 208.665 172.183 201.87 170.844ZM203.692 221.357C200.243 222.361 196.618 222.611 193.063 222.092C189.508 221.573 186.107 220.296 183.088 218.348C180.07 216.4 177.505 213.827 175.567 210.801C173.63 207.776 172.365 204.37 171.858 200.813C171.351 197.256 171.614 193.632 172.629 190.186C173.645 186.74 175.388 183.552 177.743 180.838C180.097 178.125 183.007 175.948 186.275 174.457C189.543 172.965 193.094 172.193 196.686 172.193C197.428 172.193 198.162 172.228 198.89 172.285C204.716 172.8 210.179 175.335 214.335 179.451C218.49 183.568 221.076 189.007 221.646 194.829C222.216 200.65 220.733 206.488 217.455 211.332C214.177 216.176 209.308 219.723 203.692 221.357Z" fill="#3F3D56"/>
<path d="M212.369 192.532C211.479 188.629 209.077 185.24 205.689 183.107C202.302 180.974 198.208 180.273 194.304 181.157C193.922 181.244 193.528 181.351 193.18 181.458L196.779 197.276L212.597 193.682C212.53 193.314 212.456 192.913 212.369 192.532Z" fill="#83BB62"/>
<path d="M210.836 196.459L195.012 200.052L191.419 184.234C188.66 185.088 186.204 186.715 184.341 188.922C182.479 191.13 181.288 193.825 180.911 196.688C180.533 199.551 180.985 202.463 182.212 205.078C183.439 207.692 185.39 209.9 187.833 211.439C190.277 212.979 193.11 213.785 195.998 213.763C198.886 213.741 201.707 212.891 204.127 211.315C206.547 209.738 208.463 207.501 209.65 204.868C210.837 202.235 211.244 199.317 210.823 196.459H210.836Z" fill="#83BB62"/>
<path d="M488.896 323.09C483.569 323.09 478.361 321.51 473.932 318.55C469.502 315.591 466.05 311.384 464.011 306.462C461.973 301.54 461.439 296.124 462.478 290.899C463.518 285.674 466.083 280.874 469.85 277.107C473.617 273.34 478.416 270.774 483.641 269.735C488.866 268.696 494.282 269.229 499.204 271.268C504.126 273.307 508.332 276.759 511.292 281.189C514.252 285.618 515.831 290.826 515.831 296.154C515.823 303.295 512.983 310.142 507.933 315.192C502.884 320.241 496.037 323.082 488.896 323.09ZM488.896 271.075C483.936 271.075 479.088 272.546 474.964 275.302C470.84 278.057 467.626 281.974 465.727 286.557C463.829 291.139 463.333 296.182 464.3 301.046C465.268 305.911 467.656 310.38 471.164 313.887C474.671 317.394 479.139 319.783 484.004 320.75C488.868 321.718 493.911 321.221 498.493 319.323C503.075 317.425 506.992 314.211 509.747 310.087C512.503 305.962 513.974 301.114 513.974 296.154C513.966 289.505 511.322 283.13 506.62 278.429C501.919 273.727 495.545 271.083 488.896 271.075Z" fill="#3F3D56"/>
<path d="M500.519 306.947C499.533 306.947 498.569 306.655 497.749 306.108C496.929 305.561 496.289 304.783 495.911 303.872C495.534 302.962 495.434 301.959 495.626 300.992C495.818 300.025 496.292 299.137 496.988 298.439C497.685 297.741 498.573 297.266 499.54 297.073C500.507 296.88 501.509 296.978 502.42 297.355C503.331 297.731 504.11 298.37 504.658 299.189C505.207 300.009 505.5 300.972 505.5 301.958C505.501 303.28 504.976 304.548 504.042 305.483C503.108 306.419 501.841 306.945 500.519 306.947ZM488.897 306.947C487.576 306.945 486.31 306.42 485.376 305.486C484.442 304.552 483.917 303.286 483.915 301.965V290.342C483.917 289.022 484.442 287.757 485.376 286.824C486.31 285.891 487.577 285.367 488.897 285.367C490.217 285.367 491.483 285.891 492.417 286.824C493.351 287.757 493.876 289.022 493.878 290.342V301.965C493.876 303.286 493.351 304.552 492.417 305.486C491.483 306.42 490.217 306.945 488.897 306.947ZM477.278 306.947C475.956 306.945 474.689 306.419 473.755 305.485C472.82 304.55 472.294 303.283 472.293 301.961V297.318C472.293 295.996 472.818 294.728 473.753 293.793C474.688 292.858 475.956 292.333 477.278 292.333C478.6 292.333 479.868 292.858 480.803 293.793C481.737 294.728 482.263 295.996 482.263 297.318V301.961C482.261 303.283 481.735 304.55 480.801 305.485C479.866 306.419 478.599 306.945 477.278 306.947Z" fill="#83BB62"/>
<path d="M147.345 417.002L155.556 416.07L155.869 383.959L143.752 385.334L147.345 417.002Z" fill="#A0616A"/>
<path d="M172.254 421.897L146.452 424.825L145.32 414.855L161.154 413.059C163.797 412.759 166.452 413.521 168.534 415.179C170.616 416.836 171.954 419.253 172.254 421.897Z" fill="#2F2E41"/>
<path d="M62.9135 416.489L71.176 416.488L75.1063 384.617L62.9121 384.618L62.9135 416.489Z" fill="#A0616A"/>
<path d="M87.1113 424.16L61.1434 424.162L61.1429 414.128L77.0778 414.127C79.7387 414.127 82.2907 415.184 84.1724 417.066C86.054 418.947 87.1112 421.499 87.1113 424.16Z" fill="#2F2E41"/>
<path d="M122.195 273.964L126.913 289.31L152.523 344.732L159.263 397.302L143.762 397.976L134.326 349.449L101.976 314.402L73.6704 406.064L60.8652 404.716C60.8652 404.716 71.6485 286.095 86.4755 273.964C86.4755 273.964 110.738 262.506 122.195 273.964Z" fill="#2F2E41"/>
<path d="M101.268 207.748C110.41 207.748 117.821 200.336 117.821 191.194C117.821 182.052 110.41 174.641 101.268 174.641C92.1259 174.641 84.7148 182.052 84.7148 191.194C84.7148 200.336 92.1259 207.748 101.268 207.748Z" fill="#A0616A"/>
<path d="M123.881 276.996C123.881 276.996 125.903 208.251 97.5971 212.968C69.2911 217.686 81.0853 284.073 81.0853 284.073C81.0853 284.073 87.1508 296.205 101.978 282.725C116.805 269.246 123.881 276.996 123.881 276.996Z" fill="#83BB62"/>
<path d="M182.482 219.776C181.95 220.612 181.242 221.321 180.407 221.854C179.572 222.387 178.63 222.73 177.647 222.86C176.665 222.989 175.666 222.902 174.722 222.604C173.777 222.305 172.909 221.803 172.179 221.133L150.977 232.557L152.087 220.091L172.051 211.154C173.257 210.002 174.845 209.333 176.512 209.274C178.179 209.215 179.81 209.769 181.095 210.831C182.381 211.894 183.233 213.392 183.488 215.04C183.744 216.689 183.386 218.373 182.482 219.776Z" fill="#A0616A"/>
<path d="M101.111 221.362L135.527 227.18L166.37 212.619L171.052 222.632L137.289 244.139C137.289 244.139 101.543 246.566 93.2791 237.139C90.18 233.604 89.8258 230.387 90.5935 227.746C91.266 225.582 92.7064 223.738 94.6435 222.562C96.5805 221.387 98.8806 220.96 101.111 221.362Z" fill="#83BB62"/>
<path d="M99.299 208.588C99.3781 208.517 99.4395 208.428 99.4785 208.33C99.5175 208.231 99.5329 208.124 99.5235 208.019C99.5141 207.913 99.4803 207.811 99.4245 207.72C99.3688 207.63 99.2928 207.554 99.2025 207.498C97.7326 206.588 96.535 205.298 95.7355 203.765C94.936 202.232 94.5642 200.512 94.6591 198.785C94.754 197.059 95.3121 195.39 96.2747 193.954C97.2374 192.518 98.5691 191.367 100.13 190.623C104.997 188.303 111.591 190.108 115.189 185.649C115.921 184.695 116.438 183.595 116.706 182.422C116.974 181.25 116.985 180.034 116.741 178.857C115.964 174.646 112.799 171.518 109.253 169.375C104.897 166.742 99.8916 165.381 94.8026 165.447C89.7135 165.513 84.7447 167.004 80.4592 169.749C76.1737 172.495 72.7427 176.386 70.5551 180.981C68.3675 185.577 67.5106 190.693 68.0817 195.75C68.5393 199.804 69.79 204.349 67.3799 207.64C65.2587 210.536 61.2549 211.079 57.7378 211.799C50.1941 213.343 42.9164 216.904 37.7972 222.656C32.6779 228.408 29.9469 236.478 31.4904 244.022C33.0338 251.566 39.2261 258.196 46.8367 259.365C53.0315 260.317 59.428 257.686 63.9771 253.375C68.5262 249.063 71.4016 243.241 73.2153 237.241C75.368 230.121 76.2172 222.447 80.1037 216.104C83.9069 209.897 92.1028 205.448 98.5262 208.68C98.6493 208.744 98.789 208.77 98.9269 208.754C99.0649 208.737 99.1945 208.679 99.299 208.588Z" fill="#2F2E41"/>
<path d="M665.294 425H0.706257C0.518946 425 0.339306 424.926 0.206857 424.793C0.0744084 424.661 0 424.481 0 424.294C0 424.106 0.0744084 423.927 0.206857 423.794C0.339306 423.662 0.518946 423.587 0.706257 423.587H665.294C665.481 423.587 665.661 423.662 665.793 423.794C665.926 423.927 666 424.106 666 424.294C666 424.481 665.926 424.661 665.793 424.793C665.661 424.926 665.481 425 665.294 425Z" fill="#3F3D56"/>
<path d="M447.792 208.575H428.017C427.455 208.575 426.916 208.351 426.519 207.954C426.122 207.557 425.898 207.018 425.898 206.456C425.898 205.894 426.122 205.355 426.519 204.958C426.916 204.56 427.455 204.337 428.017 204.337H447.792C448.354 204.337 448.893 204.56 449.291 204.958C449.688 205.355 449.911 205.894 449.911 206.456C449.911 207.018 449.688 207.557 449.291 207.954C448.893 208.351 448.354 208.575 447.792 208.575Z" fill="#83BB62"/>
<path d="M447.792 199.393H428.017C427.455 199.393 426.916 199.17 426.519 198.772C426.122 198.375 425.898 197.836 425.898 197.274C425.898 196.712 426.122 196.173 426.519 195.776C426.916 195.379 427.455 195.155 428.017 195.155H447.792C448.354 195.155 448.893 195.379 449.291 195.776C449.688 196.173 449.911 196.712 449.911 197.274C449.911 197.836 449.688 198.375 449.291 198.772C448.893 199.17 448.354 199.393 447.792 199.393Z" fill="#83BB62"/>
<path d="M447.792 190.211H428.017C427.455 190.211 426.916 189.988 426.519 189.591C426.122 189.193 425.898 188.654 425.898 188.092C425.898 187.53 426.122 186.991 426.519 186.594C426.916 186.197 427.455 185.974 428.017 185.974H447.792C448.354 185.974 448.893 186.197 449.291 186.594C449.688 186.991 449.911 187.53 449.911 188.092C449.911 188.654 449.688 189.193 449.291 189.591C448.893 189.988 448.354 190.211 447.792 190.211Z" fill="#83BB62"/>
</g>
<defs>
<clipPath id="clip0_691_1662">
<rect width="666" height="425" fill="white"/>
</clipPath>
</defs>
</svg>
