<svg width="599" height="415" viewBox="0 0 599 415" fill="none" xmlns="http://www.w3.org/2000/svg">
<g clip-path="url(#clip0_633_1379)">
<path d="M460.948 387.797L451.328 384.233C450.129 378.202 450.208 371.92 451.56 365.934C455.424 375.971 466.763 378.431 473.223 386.443C475.222 388.96 476.71 391.969 477.577 395.249C478.445 398.529 478.669 401.995 478.234 405.39L480.258 413.41C475.531 412.938 470.948 411.275 466.824 408.535C462.7 405.795 459.134 402.043 456.371 397.538C454.843 394.993 453.594 392.233 452.656 389.324C456.759 388.844 460.948 387.797 460.948 387.797Z" fill="#F2F2F2"/>
<path d="M120.034 387.797L129.654 384.233C130.853 378.202 130.773 371.92 129.422 365.934C125.558 375.971 114.219 378.431 107.758 386.443C105.76 388.96 104.272 391.969 103.404 395.249C102.537 398.529 102.313 401.995 102.748 405.39L100.724 413.41C105.451 412.938 110.034 411.275 114.158 408.535C118.282 405.795 121.848 402.043 124.611 397.538C126.139 394.993 127.387 392.233 128.326 389.324C124.223 388.844 120.034 387.797 120.034 387.797Z" fill="#F2F2F2"/>
<path d="M471.228 372.967L463.978 364.765C465.208 358.743 467.677 353.162 471.172 348.508C470.799 359.505 480.009 367.614 482.732 378.15C483.56 381.444 483.743 384.913 483.267 388.301C482.791 391.688 481.668 394.907 479.983 397.719L478.732 405.952C474.681 403.067 471.214 399.191 468.569 394.59C465.925 389.989 464.165 384.773 463.412 379.302C463.016 376.227 462.953 373.107 463.224 370.014C467.079 371.722 471.228 372.967 471.228 372.967Z" fill="#F2F2F2"/>
<path d="M451.847 220.26C452.639 220.384 453.444 220.304 454.207 220.025C454.969 219.746 455.67 219.275 456.26 218.646C456.85 218.016 457.314 217.243 457.621 216.381C457.927 215.519 458.068 214.589 458.033 213.657L492.975 172.244L483.22 164.311L451.941 207.513C450.604 207.685 449.367 208.424 448.465 209.589C447.563 210.755 447.059 212.267 447.047 213.838C447.035 215.409 447.518 216.931 448.402 218.115C449.287 219.298 450.513 220.062 451.847 220.26Z" fill="#FFB6B6"/>
<path d="M503.723 154.331C503.723 154.331 506.2 156.064 502.078 161.344C498.778 165.571 484.379 185.893 478.631 190.136C478.943 191.188 478.946 192.331 478.641 193.386C478.335 194.44 477.738 195.346 476.944 195.96L468.107 183.079C468.611 179.385 470.743 179.574 471.941 180.022L477.485 171.972L490.047 147.359L501.952 153.04L503.723 154.331Z" fill="#83BB62"/>
<path d="M531.318 401.087H524.731L521.596 371.407H531.318V401.087Z" fill="#FFB6B6"/>
<path d="M533.468 395.817L522.944 395.083V400.35L512.938 408.422C512.444 408.821 512.072 409.393 511.876 410.057C511.68 410.72 511.671 411.439 511.85 412.109C512.028 412.778 512.386 413.364 512.869 413.78C513.353 414.195 513.938 414.419 514.539 414.419H527.068L529.228 409.21L530.071 414.419H534.795L533.468 395.817Z" fill="#2F2E41"/>
<path d="M494.316 401.087H487.729L484.594 371.407H494.316V401.087Z" fill="#FFB6B6"/>
<path d="M496.466 395.817L485.942 395.083V400.35L475.936 408.422C475.442 408.821 475.07 409.393 474.874 410.057C474.678 410.72 474.669 411.439 474.848 412.109C475.026 412.778 475.384 413.364 475.867 413.78C476.351 414.195 476.936 414.419 477.537 414.419H490.066L492.226 409.21L493.069 414.419H497.793L496.466 395.817Z" fill="#2F2E41"/>
<path d="M534.161 375.493H534.09L532.823 327.235C533.643 325.388 534.059 323.332 534.034 321.252C534.009 319.171 533.545 317.13 532.681 315.31L532.5 314.927L532.97 312.38C533.574 309.109 533.297 305.699 532.177 302.618L530.995 257.603C535.217 225.638 515.095 204.792 515.095 204.792L518.772 186.723L482.366 182.54L484.951 204.792L478.479 230.764C474.201 279.453 474.977 326.898 481.766 372.865L481.581 372.974C480.915 373.243 480.629 374.321 480.943 375.383C481.256 376.444 482.051 377.087 482.717 376.818L498.637 376.172C499.303 375.903 499.589 374.825 499.275 373.763C498.962 372.701 498.167 372.059 497.501 372.327L496.418 372.967L498.727 326.399L498.47 317.894L498.998 308.244L501.438 264.84L510.675 318.215L520.109 376.03C519.849 376.305 519.666 376.666 519.585 377.065C519.504 377.464 519.529 377.883 519.656 378.265C519.782 378.647 520.005 378.976 520.295 379.207C520.585 379.438 520.928 379.561 521.279 379.56H534.161C534.623 379.56 535.066 379.346 535.392 378.964C535.719 378.583 535.902 378.066 535.902 377.527C535.902 376.987 535.719 376.47 535.392 376.089C535.066 375.707 534.623 375.493 534.161 375.493Z" fill="#2F2E41"/>
<path d="M185.062 196.393H410.22C417.79 196.383 425.048 192.865 430.401 186.612C435.754 180.359 438.765 171.881 438.773 163.038V49.9851C438.765 41.1585 435.765 32.6949 430.43 26.4446C425.094 20.1943 417.857 16.6659 410.301 16.6308C375.333 5.32477 338.204 -0.267302 299.929 0.00978241C263.509 0.273593 224.839 5.86567 184.993 16.6308C177.435 16.6622 170.195 20.189 164.856 26.4396C159.518 32.6903 156.516 41.156 156.508 49.9851V163.038C156.516 171.881 159.527 180.359 164.88 186.612C170.233 192.865 177.491 196.383 185.062 196.393ZM410.22 18.0251C417.473 18.0347 424.428 21.405 429.557 27.3966C434.686 33.3882 437.572 41.5118 437.58 49.9851V163.038C437.572 171.512 434.687 179.635 429.557 185.627C424.428 191.619 417.473 194.989 410.22 194.998H185.062C177.808 194.989 170.853 191.619 165.724 185.627C160.595 179.635 157.71 171.512 157.701 163.038V49.9851C157.71 41.5118 160.595 33.3882 165.724 27.3966C170.853 21.405 177.808 18.0347 185.062 18.0251L185.196 18.007C267.651 -4.28024 341.205 -4.28331 410.06 17.9999L410.22 18.0251Z" fill="#E6E6E6"/>
<path d="M414.192 166.888C414.28 166.888 414.368 166.868 414.45 166.828C414.532 166.789 414.607 166.73 414.669 166.657C414.732 166.584 414.782 166.497 414.816 166.401C414.85 166.305 414.867 166.203 414.867 166.099V46.9244C414.867 46.7151 414.796 46.5144 414.669 46.3664C414.543 46.2183 414.371 46.1352 414.192 46.1352C414.012 46.1352 413.84 46.2183 413.714 46.3664C413.587 46.5144 413.516 46.7151 413.516 46.9244V166.099C413.516 166.203 413.533 166.305 413.567 166.401C413.601 166.497 413.651 166.584 413.714 166.657C413.776 166.73 413.851 166.789 413.933 166.828C414.015 166.868 414.103 166.888 414.192 166.888Z" fill="#E6E6E6"/>
<path d="M355.108 166.888C355.196 166.888 355.284 166.868 355.366 166.828C355.448 166.789 355.523 166.73 355.585 166.657C355.648 166.584 355.698 166.497 355.732 166.401C355.766 166.305 355.783 166.203 355.783 166.099V46.9244C355.783 46.7151 355.712 46.5144 355.585 46.3664C355.459 46.2183 355.287 46.1352 355.108 46.1352C354.928 46.1352 354.757 46.2183 354.63 46.3664C354.503 46.5144 354.432 46.7151 354.432 46.9244V166.099C354.432 166.203 354.449 166.305 354.483 166.401C354.517 166.497 354.567 166.584 354.63 166.657C354.692 166.73 354.767 166.789 354.849 166.828C354.931 166.868 355.019 166.888 355.108 166.888Z" fill="#E6E6E6"/>
<path d="M296.024 166.888C296.112 166.888 296.2 166.868 296.282 166.828C296.364 166.789 296.439 166.73 296.501 166.657C296.564 166.584 296.614 166.497 296.648 166.401C296.682 166.305 296.699 166.203 296.699 166.099V46.9244C296.699 46.7151 296.628 46.5144 296.501 46.3664C296.375 46.2183 296.203 46.1352 296.024 46.1352C295.844 46.1352 295.672 46.2183 295.546 46.3664C295.419 46.5144 295.348 46.7151 295.348 46.9244V166.099C295.348 166.203 295.365 166.305 295.399 166.401C295.433 166.497 295.483 166.584 295.546 166.657C295.608 166.73 295.683 166.789 295.765 166.828C295.847 166.868 295.935 166.888 296.024 166.888Z" fill="#E6E6E6"/>
<path d="M236.938 166.888C237.026 166.888 237.114 166.868 237.196 166.828C237.278 166.789 237.353 166.73 237.415 166.657C237.478 166.584 237.528 166.497 237.562 166.401C237.596 166.305 237.613 166.203 237.613 166.099V46.9244C237.613 46.7151 237.542 46.5144 237.415 46.3664C237.289 46.2183 237.117 46.1352 236.938 46.1352C236.758 46.1352 236.587 46.2183 236.46 46.3664C236.333 46.5144 236.262 46.7151 236.262 46.9244V166.099C236.262 166.203 236.279 166.305 236.313 166.401C236.347 166.497 236.397 166.584 236.46 166.657C236.523 166.73 236.597 166.789 236.679 166.828C236.761 166.868 236.849 166.888 236.938 166.888Z" fill="#E6E6E6"/>
<path d="M419.453 64.6835C419.453 64.5799 419.436 64.4772 419.402 64.3815C419.368 64.2857 419.318 64.1987 419.255 64.1254C419.193 64.0521 419.118 63.994 419.036 63.9543C418.954 63.9147 418.866 63.8943 418.777 63.8943H176.503C176.415 63.8943 176.327 63.9147 176.245 63.9544C176.163 63.994 176.088 64.0522 176.026 64.1254C175.963 64.1987 175.913 64.2857 175.879 64.3815C175.845 64.4773 175.828 64.5799 175.828 64.6835C175.828 64.7872 175.845 64.8898 175.879 64.9856C175.913 65.0813 175.963 65.1683 176.026 65.2416C176.088 65.3149 176.163 65.373 176.245 65.4127C176.327 65.4524 176.415 65.4728 176.503 65.4728H418.777C418.866 65.4728 418.954 65.4524 419.036 65.4127C419.118 65.3731 419.193 65.315 419.255 65.2417C419.318 65.1684 419.368 65.0814 419.402 64.9856C419.436 64.8898 419.453 64.7872 419.453 64.6835Z" fill="#E6E6E6"/>
<path d="M419.453 152.523C419.453 152.419 419.436 152.316 419.402 152.221C419.368 152.125 419.318 152.038 419.255 151.965C419.193 151.891 419.118 151.833 419.036 151.794C418.954 151.754 418.866 151.733 418.777 151.734H176.503C176.324 151.734 176.152 151.817 176.026 151.965C175.899 152.113 175.828 152.313 175.828 152.523C175.828 152.732 175.899 152.933 176.026 153.081C176.152 153.229 176.324 153.312 176.503 153.312H418.777C418.866 153.312 418.954 153.292 419.036 153.252C419.118 153.212 419.193 153.154 419.255 153.081C419.318 153.008 419.368 152.921 419.402 152.825C419.436 152.729 419.453 152.626 419.453 152.523Z" fill="#E6E6E6"/>
<path d="M419.453 108.603C419.453 108.499 419.436 108.397 419.402 108.301C419.368 108.205 419.318 108.118 419.255 108.045C419.193 107.972 419.118 107.914 419.036 107.874C418.954 107.834 418.866 107.814 418.777 107.814H176.503C176.324 107.814 176.152 107.897 176.026 108.045C175.899 108.193 175.828 108.394 175.828 108.603C175.828 108.812 175.899 109.013 176.026 109.161C176.152 109.309 176.324 109.392 176.503 109.392H418.777C418.866 109.392 418.954 109.372 419.036 109.332C419.118 109.293 419.193 109.235 419.255 109.161C419.318 109.088 419.368 109.001 419.402 108.905C419.436 108.809 419.453 108.707 419.453 108.603Z" fill="#E6E6E6"/>
<path d="M179.738 166.888C179.65 166.888 179.562 166.868 179.48 166.828C179.398 166.789 179.323 166.73 179.261 166.657C179.198 166.584 179.148 166.497 179.114 166.401C179.08 166.305 179.063 166.203 179.063 166.099V46.9244C179.063 46.7151 179.134 46.5144 179.261 46.3664C179.387 46.2183 179.559 46.1352 179.738 46.1352C179.918 46.1352 180.089 46.2183 180.216 46.3664C180.343 46.5144 180.414 46.7151 180.414 46.9244V166.099C180.414 166.203 180.397 166.305 180.363 166.401C180.329 166.497 180.279 166.584 180.216 166.657C180.153 166.73 180.079 166.789 179.997 166.828C179.915 166.868 179.827 166.888 179.738 166.888Z" fill="#E6E6E6"/>
<path d="M377.338 103.256H394.356C395.292 103.255 396.196 102.86 396.903 102.143C397.609 101.426 398.071 100.435 398.202 99.3522C399.253 90.3199 399.253 81.1631 398.202 72.1308C398.072 71.0613 397.62 70.0808 396.927 69.3655C396.234 68.6502 395.346 68.2468 394.421 68.2278C389.067 65.4243 383.301 65.4246 377.279 68.2275C376.719 68.2362 376.166 68.3881 375.661 68.6727C375.156 68.9572 374.71 69.3675 374.355 69.8747C373.985 70.4023 373.72 71.0195 373.58 71.6817C373.44 72.3438 373.427 73.0341 373.544 73.7024C374.911 81.6491 374.911 89.8339 373.544 97.7806C373.427 98.4489 373.44 99.1392 373.58 99.8013C373.72 100.463 373.985 101.081 374.355 101.608C374.717 102.124 375.172 102.54 375.688 102.825C376.203 103.11 376.767 103.257 377.338 103.256Z" fill="#83BB62"/>
<path d="M379.119 78.6059H393.443C393.68 78.6059 393.908 78.4957 394.076 78.2996C394.244 78.1035 394.338 77.8375 394.338 77.5602C394.338 77.2828 394.244 77.0169 394.076 76.8208C393.908 76.6247 393.68 76.5145 393.443 76.5145H379.119C378.882 76.5145 378.654 76.6247 378.486 76.8208C378.318 77.0169 378.224 77.2828 378.224 77.5602C378.224 77.8375 378.318 78.1035 378.486 78.2996C378.654 78.4957 378.882 78.6059 379.119 78.6059Z" fill="white"/>
<path d="M379.119 86.9715H393.443C393.68 86.9715 393.908 86.8613 394.076 86.6652C394.244 86.4691 394.338 86.2031 394.338 85.9258C394.338 85.6485 394.244 85.3825 394.076 85.1864C393.908 84.9903 393.68 84.8801 393.443 84.8801H379.119C378.882 84.8801 378.654 84.9903 378.486 85.1864C378.318 85.3825 378.224 85.6485 378.224 85.9258C378.224 86.2031 378.318 86.4691 378.486 86.6652C378.654 86.8613 378.882 86.9715 379.119 86.9715Z" fill="white"/>
<path d="M379.119 95.3371H393.443C393.68 95.3371 393.908 95.227 394.076 95.0309C394.244 94.8348 394.338 94.5688 394.338 94.2914C394.338 94.0141 394.244 93.7481 394.076 93.552C393.908 93.3559 393.68 93.2457 393.443 93.2457H379.119C378.882 93.2457 378.654 93.3559 378.486 93.552C378.318 93.7481 378.224 94.0141 378.224 94.2914C378.224 94.5688 378.318 94.8348 378.486 95.0309C378.654 95.227 378.882 95.3371 379.119 95.3371Z" fill="white"/>
<path d="M254.992 149.267H272.01C272.946 149.266 273.85 148.871 274.557 148.154C275.264 147.437 275.725 146.446 275.856 145.363C276.907 136.331 276.907 127.174 275.856 118.142C275.727 117.072 275.275 116.092 274.582 115.377C273.889 114.661 273 114.258 272.075 114.239C266.721 111.435 260.955 111.436 254.934 114.238C254.373 114.247 253.821 114.399 253.315 114.684C252.81 114.968 252.365 115.379 252.01 115.886C251.64 116.413 251.375 117.031 251.234 117.693C251.094 118.355 251.082 119.045 251.198 119.713C252.565 127.66 252.565 135.845 251.198 143.792C251.082 144.46 251.094 145.15 251.234 145.812C251.375 146.474 251.64 147.092 252.01 147.619C252.371 148.135 252.826 148.551 253.342 148.836C253.858 149.121 254.422 149.268 254.992 149.267Z" fill="#83BB62"/>
<path d="M256.774 124.617H271.097C271.334 124.617 271.562 124.507 271.73 124.311C271.898 124.115 271.992 123.849 271.992 123.571C271.992 123.294 271.898 123.028 271.73 122.832C271.562 122.636 271.334 122.525 271.097 122.525H256.774C256.536 122.525 256.308 122.636 256.141 122.832C255.973 123.028 255.878 123.294 255.878 123.571C255.878 123.849 255.973 124.115 256.141 124.311C256.308 124.507 256.536 124.617 256.774 124.617Z" fill="white"/>
<path d="M256.774 132.983H271.097C271.334 132.983 271.562 132.872 271.73 132.676C271.898 132.48 271.992 132.214 271.992 131.937C271.992 131.659 271.898 131.394 271.73 131.197C271.562 131.001 271.334 130.891 271.097 130.891H256.774C256.536 130.891 256.308 131.001 256.141 131.197C255.973 131.394 255.878 131.659 255.878 131.937C255.878 132.214 255.973 132.48 256.141 132.676C256.308 132.872 256.536 132.983 256.774 132.983Z" fill="white"/>
<path d="M203.068 103.256H220.086C221.022 103.255 221.927 102.86 222.633 102.143C223.34 101.426 223.801 100.435 223.933 99.3522C224.983 90.3199 224.983 81.1631 223.933 72.1308C223.803 71.0613 223.351 70.0808 222.658 69.3655C221.965 68.6502 221.076 68.2468 220.152 68.2278C214.797 65.4243 209.031 65.4246 203.01 68.2275C202.449 68.2362 201.897 68.3881 201.392 68.6727C200.886 68.9572 200.441 69.3675 200.086 69.8747C199.716 70.4023 199.451 71.0195 199.311 71.6817C199.17 72.3438 199.158 73.0341 199.275 73.7024C200.642 81.6491 200.642 89.8339 199.275 97.7806C199.158 98.4489 199.17 99.1392 199.311 99.8013C199.451 100.463 199.716 101.081 200.086 101.608C200.447 102.124 200.902 102.54 201.418 102.825C201.934 103.11 202.498 103.257 203.068 103.256Z" fill="#FD6584"/>
<path d="M204.852 86.9715H219.175C219.413 86.9715 219.64 86.8613 219.808 86.6652C219.976 86.4691 220.07 86.2031 220.07 85.9258C220.07 85.6485 219.976 85.3825 219.808 85.1864C219.64 84.9903 219.413 84.8801 219.175 84.8801H204.852C204.614 84.8801 204.387 84.9903 204.219 85.1864C204.051 85.3825 203.956 85.6485 203.956 85.9258C203.956 86.2031 204.051 86.4691 204.219 86.6652C204.387 86.8613 204.614 86.9715 204.852 86.9715Z" fill="white"/>
<path d="M204.852 95.3371H219.175C219.413 95.3371 219.64 95.227 219.808 95.0309C219.976 94.8348 220.07 94.5688 220.07 94.2914C220.07 94.0141 219.976 93.7481 219.808 93.552C219.64 93.3559 219.413 93.2457 219.175 93.2457H204.852C204.614 93.2457 204.387 93.3559 204.219 93.552C204.051 93.7481 203.956 94.0141 203.956 94.2914C203.956 94.5688 204.051 94.8348 204.219 95.0309C204.387 95.227 204.614 95.3371 204.852 95.3371Z" fill="white"/>
<path d="M490.323 100.179C493.709 94.1181 499.237 89.3552 505.394 88.9527C511.551 88.5503 518.95 94.6747 521.989 100.977C527.547 112.504 527.62 125.723 519.964 133.74C518.925 133.328 514.6 132.738 513.543 132.34L512.873 130.926L512.046 131.786C502.585 132.888 499.673 125.375 484.534 120.637C485.42 113.471 486.937 106.24 490.323 100.179Z" fill="#2F2E41"/>
<path d="M503.319 128.726C496.409 128.726 490.808 122.183 490.808 114.111C490.808 106.04 496.409 99.4967 503.319 99.4967C510.229 99.4967 515.83 106.04 515.83 114.111C515.83 122.183 510.229 128.726 503.319 128.726Z" fill="#FFB7B7"/>
<path d="M489.455 141.265L496.615 136.248L510.934 134.575L523.59 142.103L523.463 165.1L515.434 188.952L484.155 196.483L480.506 175.521C480.506 175.521 471.199 160.918 481.222 152.555L489.455 141.265Z" fill="#83BB62"/>
<path d="M498.641 91.9163C501.352 91.0285 504.217 91.0077 506.937 91.8562C509.658 92.7048 512.133 94.3913 514.104 96.7396C516.075 99.0879 517.47 102.012 518.143 105.205C518.815 108.399 518.741 111.745 517.928 114.893C510.308 115.604 502.776 114.773 496.839 108.475L496.31 103.073L494.144 107.594C491.959 106.876 489.77 106.153 487.578 105.426C488.249 102.24 489.623 99.3159 491.565 96.9451C493.506 94.5743 495.946 92.8403 498.641 91.9163Z" fill="#2F2E41"/>
<path d="M520.103 240.559C520.783 240.069 521.363 239.412 521.803 238.632C522.242 237.852 522.529 236.97 522.645 236.046C522.76 235.123 522.701 234.181 522.471 233.287C522.241 232.393 521.847 231.569 521.315 230.873L525.932 172.978L514.082 174.047L513.27 230.619C512.327 231.741 511.77 233.227 511.703 234.796C511.636 236.366 512.064 237.909 512.907 239.134C513.749 240.36 514.947 241.181 516.273 241.444C517.599 241.706 518.962 241.391 520.103 240.559Z" fill="#FFB6B6"/>
<path d="M523.152 142.334C523.152 142.334 526.009 141.845 525.678 148.98C525.413 154.692 526.672 189.9 524.521 197.434C525.332 198.018 525.954 198.9 526.289 199.943C526.624 200.985 526.652 202.128 526.37 203.191L512.548 199.75C510.938 196.517 511.272 193.198 512.442 192.66L512.373 182.328L509.319 148.272L521.082 142.644L523.152 142.334Z" fill="#83BB62"/>
<path d="M452.514 245.916C452.884 245.388 453.149 244.771 453.289 244.109C453.429 243.447 453.442 242.756 453.325 242.088C451.958 234.141 451.958 225.956 453.325 218.01C453.442 217.341 453.429 216.651 453.289 215.989C453.149 215.327 452.884 214.71 452.514 214.182C452.159 213.675 451.713 213.265 451.208 212.98C450.703 212.695 450.151 212.543 449.59 212.535C443.569 209.732 437.803 209.732 432.448 212.535C431.523 212.554 430.635 212.957 429.942 213.673C429.249 214.388 428.797 215.369 428.667 216.438C427.616 225.47 427.616 234.627 428.667 243.659C428.798 244.742 429.26 245.733 429.966 246.45C430.673 247.167 431.577 247.562 432.513 247.563H449.531C450.102 247.565 450.666 247.417 451.182 247.132C451.698 246.847 452.153 246.432 452.514 245.916Z" fill="#83BB62"/>
<path d="M447.749 222.913H433.426C433.188 222.913 432.961 222.803 432.793 222.607C432.625 222.411 432.531 222.145 432.531 221.867C432.531 221.59 432.625 221.324 432.793 221.128C432.961 220.932 433.188 220.822 433.426 220.822H447.749C447.987 220.822 448.214 220.932 448.382 221.128C448.55 221.324 448.645 221.59 448.645 221.867C448.645 222.145 448.55 222.411 448.382 222.607C448.214 222.803 447.987 222.913 447.749 222.913Z" fill="white"/>
<path d="M447.749 231.279H433.426C433.188 231.279 432.961 231.169 432.793 230.973C432.625 230.776 432.531 230.51 432.531 230.233C432.531 229.956 432.625 229.69 432.793 229.494C432.961 229.298 433.188 229.187 433.426 229.187H447.749C447.987 229.187 448.214 229.298 448.382 229.494C448.55 229.69 448.645 229.956 448.645 230.233C448.645 230.51 448.55 230.776 448.382 230.973C448.214 231.169 447.987 231.279 447.749 231.279Z" fill="white"/>
<path d="M447.749 239.645H433.426C433.188 239.645 432.961 239.534 432.793 239.338C432.625 239.142 432.531 238.876 432.531 238.599C432.531 238.321 432.625 238.056 432.793 237.859C432.961 237.663 433.188 237.553 433.426 237.553H447.749C447.987 237.553 448.214 237.663 448.382 237.859C448.55 238.056 448.645 238.321 448.645 238.599C448.645 238.876 448.55 239.142 448.382 239.338C448.214 239.534 447.987 239.645 447.749 239.645Z" fill="white"/>
<path d="M54.0585 406.108H61.3987L64.8906 373.035L54.0573 373.036L54.0585 406.108Z" fill="#A0616A"/>
<path d="M52.1872 414.42L75.8555 414.418V414.069C75.8553 411.215 74.8847 408.478 73.157 406.46C71.4294 404.442 69.0863 403.308 66.6431 403.308L62.3192 399.477L54.2528 403.309L52.1867 403.309L52.1872 414.42Z" fill="#2F2E41"/>
<path d="M88.1601 406.108H95.5003L98.9922 373.035L88.1589 373.036L88.1601 406.108Z" fill="#A0616A"/>
<path d="M86.2887 414.42L109.957 414.418V414.069C109.957 411.215 108.986 408.478 107.259 406.46C105.531 404.442 103.188 403.308 100.745 403.308H100.744L96.4208 399.477L88.3544 403.309L86.2883 403.309L86.2887 414.42Z" fill="#2F2E41"/>
<path d="M48.2163 194.366L57.9205 229.221L88.5117 228.049L79.1113 194.366H48.2163Z" fill="#2F2E41"/>
<path d="M94.0284 225.12L36.3561 226.878L37.3591 259.682C37.3591 259.682 36.3561 268.47 38.3621 270.813C40.3681 273.156 41.3711 273.156 40.3681 277.257C39.3651 281.357 44.6644 288.055 44.0207 288.807C43.3771 289.558 41.8726 293.659 41.8726 293.659L46.8876 327.05C46.8876 327.05 50.398 385.044 51.401 386.216C52.404 387.387 53.407 386.216 52.404 389.145C51.4011 392.074 50.398 390.902 51.401 392.074C52.2895 393.193 53.1265 394.366 53.9085 395.589H66.0333C66.0333 395.589 66.9475 389.731 66.9475 389.145C66.9475 388.559 67.9505 385.044 67.9505 384.458C67.9505 383.873 67.0639 382.837 67.0639 382.837C66.7576 381.646 66.5507 380.424 66.446 379.186C66.446 378.015 63.437 332.908 63.437 332.908L69.455 274.328L83.9984 331.736C83.9984 331.736 83.9984 382.115 85.0014 383.287C86.0044 384.458 86.0044 383.873 85.5029 386.216C85.0014 388.559 82.9954 387.973 84.4999 389.731C86.0044 391.488 86.5059 388.559 86.0044 391.488L85.5029 394.417L100.548 394.669C100.548 394.669 102.554 389.731 101.551 387.973C100.548 386.216 100.608 386.696 101.832 383.82C103.055 380.944 103.557 380.358 103.055 379.772C102.554 379.186 102.554 376.07 102.554 376.07L100.046 320.02C100.046 320.02 99.5449 260.854 99.5449 259.097C99.5071 258.192 99.6497 257.29 99.9614 256.461V254.076L98.0403 245.623L94.0284 225.12Z" fill="#2F2E41"/>
<path d="M88.7616 139.886L71.2092 132.27L42.1224 134.614L35.3874 138.285C33.0186 139.576 31.0902 141.76 29.9122 144.486C28.7342 147.212 28.3751 150.322 28.8925 153.315L37.6088 203.738L35.3551 227.999C35.3551 227.999 71.9615 260.268 100.547 250.31C100.547 250.31 100.045 240.937 99.5439 237.422C99.0424 233.907 98.0394 233.907 97.5379 232.15C97.0364 230.392 96.0334 232.15 97.0364 228.635C98.0394 225.12 89.0124 200.516 89.0124 200.516L88.7616 139.886Z" fill="#E6E6E6"/>
<path d="M61.0181 144.343L46.7095 134.244L51.4005 124.362H66.6012L72.623 132.883L61.0181 144.343Z" fill="#E6E6E6"/>
<path d="M56.0949 227.376C55.2775 227.431 54.4598 227.276 53.6993 226.922C52.9387 226.568 52.2539 226.023 51.693 225.327C51.1321 224.63 50.7088 223.798 50.4529 222.89C50.197 221.981 50.1147 221.018 50.2119 220.069L32.3175 209.896L41.2147 203.739L56.8434 214.343C58.1982 214.639 59.4129 215.506 60.2573 216.778C61.1017 218.051 61.5171 219.641 61.4249 221.248C61.3326 222.854 60.739 224.365 59.7567 225.495C58.7743 226.624 57.4715 227.293 56.0949 227.376Z" fill="#A0616A"/>
<path d="M49.0659 223.153L52.1836 209.799L35.1939 183.507C40.6932 175.763 42.6231 164.327 41.266 147.558C41.5665 145.749 41.2684 143.875 40.4321 142.313C39.5958 140.751 38.2834 139.618 36.7598 139.142C35.2362 138.667 33.6148 138.884 32.2228 139.75C30.8308 140.616 29.7718 142.066 29.2596 143.809C25.4152 156.906 18.7269 185.093 19.5982 186.62C20.6014 188.378 20.9457 189.158 19.3678 190.837C17.4967 192.828 18.4892 201.314 19.3428 202.531C20.1207 203.64 49.0659 223.153 49.0659 223.153Z" fill="#E6E6E6"/>
<path d="M139.011 206.635C138.248 206.98 137.429 207.126 136.612 207.062C135.795 206.997 135 206.724 134.283 206.262C133.567 205.8 132.945 205.16 132.463 204.387C131.981 203.614 131.65 202.727 131.493 201.789L111.79 198.52L118.64 189.471L136.301 193.962C137.668 193.759 139.052 194.148 140.19 195.057C141.327 195.966 142.141 197.33 142.475 198.892C142.809 200.454 142.641 202.105 142.002 203.532C141.364 204.959 140.3 206.063 139.011 206.635Z" fill="#A0616A"/>
<path d="M130.557 204.711L127.565 191.318L102.795 175.017C101.005 161.771 99.8828 157.452 91.5549 143.702C91.0442 141.959 89.9865 140.507 88.5952 139.64C87.204 138.772 85.5828 138.553 84.0587 139.027C82.5347 139.501 81.2214 140.633 80.3837 142.194C79.5461 143.755 79.2465 145.629 79.5454 147.438C81.7976 161.031 91.9871 197.463 93.2465 198.022C94.3941 198.531 130.557 204.711 130.557 204.711Z" fill="#E6E6E6"/>
<path d="M59.1743 118.211C50.5882 118.211 43.6278 110.081 43.6278 100.051C43.6278 90.0218 50.5882 81.8914 59.1743 81.8914C67.7603 81.8914 74.7207 90.0218 74.7207 100.051C74.7207 110.081 67.7603 118.211 59.1743 118.211Z" fill="#A0616A"/>
<path d="M75.6373 86.8774C75.2242 82.5342 69.8535 78.191 60.3516 75.2956C50.8497 72.4001 45.8922 84.9471 45.8922 84.9471C39.2822 88.8076 43.2068 109.317 45.2725 107.387C45.2931 107.368 45.3138 107.349 45.3344 107.33C46.6815 106.172 47.8122 104.704 48.6574 103.018C49.5026 101.331 50.0447 99.461 50.2503 97.5216L50.7257 92.5237C52.9017 94.4714 55.3543 96.1206 57.9869 95.6304L54.7649 91.9248C57.8186 93.4768 60.8722 95.0288 63.9259 96.5809L60.8933 91.7064L61.0367 91.5417C62.4563 92.9401 64.086 94.0181 65.8429 94.7206C67.8467 95.3915 70.2478 95.0286 71.6206 93.1963C71.9903 92.6907 72.2695 92.1036 72.4418 91.4699C74.9349 93.4645 75.4307 97.7353 75.4307 97.7353C75.4307 97.7353 76.0504 91.2205 75.6373 86.8774Z" fill="#2F2E41"/>
<path d="M138.016 218.429H155.033C155.97 218.428 156.874 218.033 157.58 217.316C158.287 216.598 158.748 215.608 158.88 214.525C159.931 205.493 159.931 196.336 158.88 187.304C158.75 186.234 158.298 185.254 157.605 184.538C156.912 183.823 156.023 183.42 155.099 183.401C149.744 180.597 143.978 180.598 137.957 183.4C137.396 183.409 136.844 183.561 136.339 183.846C135.834 184.13 135.388 184.54 135.033 185.048C134.663 185.575 134.398 186.192 134.258 186.855C134.117 187.517 134.105 188.207 134.222 188.875C135.589 196.822 135.589 205.007 134.222 212.953C134.105 213.622 134.117 214.312 134.258 214.974C134.398 215.636 134.663 216.254 135.033 216.781C135.394 217.297 135.849 217.713 136.365 217.998C136.881 218.283 137.445 218.43 138.016 218.429Z" fill="#3F3D56"/>
<path d="M139.799 193.779H154.122C154.36 193.779 154.587 193.669 154.755 193.472C154.923 193.276 155.018 193.01 155.018 192.733C155.018 192.456 154.923 192.19 154.755 191.994C154.587 191.798 154.36 191.687 154.122 191.687H139.799C139.562 191.687 139.334 191.798 139.166 191.994C138.998 192.19 138.904 192.456 138.904 192.733C138.904 193.01 138.998 193.276 139.166 193.472C139.334 193.669 139.562 193.779 139.799 193.779Z" fill="white"/>
<path d="M139.799 202.144H154.122C154.36 202.144 154.587 202.034 154.755 201.838C154.923 201.642 155.018 201.376 155.018 201.099C155.018 200.821 154.923 200.555 154.755 200.359C154.587 200.163 154.36 200.053 154.122 200.053H139.799C139.562 200.053 139.334 200.163 139.166 200.359C138.998 200.555 138.904 200.821 138.904 201.099C138.904 201.376 138.998 201.642 139.166 201.838C139.334 202.034 139.562 202.144 139.799 202.144Z" fill="white"/>
<path d="M139.799 210.51H154.122C154.36 210.51 154.587 210.4 154.755 210.204C154.923 210.008 155.018 209.742 155.018 209.464C155.018 209.187 154.923 208.921 154.755 208.725C154.587 208.529 154.36 208.419 154.122 208.419H139.799C139.562 208.419 139.334 208.529 139.166 208.725C138.998 208.921 138.904 209.187 138.904 209.464C138.904 209.742 138.998 210.008 139.166 210.204C139.334 210.4 139.562 210.51 139.799 210.51Z" fill="white"/>
<path d="M210.817 50.781C204.554 50.781 199.477 44.8507 199.477 37.5354C199.477 30.2201 204.554 24.2898 210.817 24.2898C217.079 24.2898 222.156 30.2201 222.156 37.5354C222.156 44.8507 217.079 50.781 210.817 50.781Z" fill="#E6E6E6"/>
<path d="M204.996 32.015C205.166 31.825 205.393 31.7189 205.629 31.7189C205.865 31.7189 206.091 31.825 206.262 32.015C208.668 34.2566 210.829 36.8351 212.697 39.6925C213.155 38.6563 213.614 37.62 214.072 36.5838C214.601 35.3877 216.147 36.4443 215.618 37.6394C214.947 39.155 214.277 40.6707 213.606 42.1863C213.525 42.3411 213.412 42.4689 213.276 42.5576C213.141 42.6463 212.988 42.6929 212.833 42.6929C212.678 42.6929 212.525 42.6463 212.39 42.5576C212.255 42.4689 212.141 42.3411 212.06 42.1863C210.07 38.9123 207.692 35.9855 204.996 33.4939C204.829 33.297 204.736 33.0313 204.736 32.7545C204.736 32.4776 204.829 32.212 204.996 32.015Z" fill="white"/>
<path d="M266.321 50.781C260.058 50.781 254.981 44.8507 254.981 37.5354C254.981 30.2201 260.058 24.2898 266.321 24.2898C272.583 24.2898 277.66 30.2201 277.66 37.5354C277.66 44.8507 272.583 50.781 266.321 50.781Z" fill="#E6E6E6"/>
<path d="M260.5 32.015C260.67 31.825 260.897 31.7189 261.133 31.7189C261.369 31.7189 261.595 31.825 261.766 32.015C264.172 34.2566 266.333 36.8351 268.2 39.6925C268.659 38.6563 269.117 37.62 269.576 36.5838C270.105 35.3877 271.651 36.4443 271.122 37.6394C270.451 39.155 269.781 40.6707 269.11 42.1863C269.029 42.3411 268.916 42.4689 268.78 42.5576C268.645 42.6463 268.492 42.6929 268.337 42.6929C268.182 42.6929 268.029 42.6463 267.894 42.5576C267.759 42.4689 267.645 42.3411 267.564 42.1863C265.574 38.9123 263.195 35.9855 260.5 33.4939C260.333 33.297 260.24 33.0313 260.24 32.7545C260.24 32.4776 260.333 32.212 260.5 32.015Z" fill="white"/>
<path d="M383.295 49.3867C377.033 49.3867 371.956 43.4564 371.956 36.1411C371.956 28.8258 377.033 22.8955 383.295 22.8955C389.558 22.8955 394.635 28.8258 394.635 36.1411C394.635 43.4564 389.558 49.3867 383.295 49.3867Z" fill="#E6E6E6"/>
<path d="M377.474 30.6208C377.645 30.4307 377.872 30.3246 378.107 30.3246C378.343 30.3246 378.57 30.4307 378.74 30.6208C381.146 32.8623 383.308 35.4408 385.175 38.2982C385.634 37.262 386.092 36.2258 386.55 35.1895C387.08 33.9935 388.625 35.05 388.096 36.2451C387.426 37.7608 386.755 39.2764 386.085 40.7921C386.004 40.9468 385.89 41.0747 385.755 41.1634C385.62 41.2521 385.467 41.2987 385.312 41.2987C385.157 41.2987 385.004 41.2521 384.869 41.1634C384.733 41.0747 384.62 40.9468 384.539 40.7921C382.549 37.518 380.17 34.5913 377.474 32.0996C377.308 31.9027 377.214 31.637 377.214 31.3602C377.214 31.0834 377.308 30.8177 377.474 30.6208Z" fill="white"/>
<path d="M518.771 103.763C514.486 103.763 511.012 99.7058 511.012 94.7006C511.012 89.6954 514.486 85.6378 518.771 85.6378C523.056 85.6378 526.529 89.6954 526.529 94.7006C526.529 99.7058 523.056 103.763 518.771 103.763Z" fill="#2F2E41"/>
<path d="M430.3 414.17C430.3 414.279 430.318 414.387 430.353 414.488C430.389 414.589 430.441 414.681 430.507 414.758C430.573 414.835 430.652 414.896 430.738 414.937C430.824 414.979 430.917 415 431.01 415H598.29C598.478 415 598.659 414.913 598.792 414.757C598.925 414.601 599 414.39 599 414.17C599 413.95 598.925 413.739 598.792 413.584C598.659 413.428 598.478 413.341 598.29 413.341H431.01C430.917 413.34 430.824 413.362 430.738 413.403C430.652 413.445 430.573 413.506 430.507 413.583C430.441 413.66 430.389 413.752 430.353 413.853C430.318 413.953 430.3 414.061 430.3 414.17Z" fill="#CCCCCC"/>
<path d="M0.000991821 414.17C0.000717163 414.279 0.0188599 414.387 0.0544586 414.488C0.0900574 414.589 0.142395 414.681 0.208405 414.758C0.274414 414.835 0.352753 414.896 0.439056 414.937C0.525345 414.979 0.617889 415 0.711227 415H167.991C168.179 415 168.36 414.913 168.493 414.757C168.626 414.601 168.701 414.39 168.701 414.17C168.701 413.95 168.626 413.739 168.493 413.584C168.36 413.428 168.179 413.341 167.991 413.341H0.711151C0.617813 413.34 0.525345 413.362 0.439056 413.403C0.352768 413.445 0.274399 413.506 0.208405 413.583C0.142395 413.66 0.0900574 413.752 0.0544586 413.853C0.0188751 413.953 0.000717163 414.061 0.000991821 414.17Z" fill="#CCCCCC"/>
<path d="M521.107 85.6104C522.45 85.174 523.847 85.9048 525.1 86.6173L529.559 89.1518C526.472 89.4681 523.385 89.7845 520.299 90.1009L519.958 89.3512C518.889 88.3052 519.764 86.0468 521.107 85.6104Z" fill="#2F2E41"/>
</g>
<defs>
<clipPath id="clip0_633_1379">
<rect width="599" height="415" fill="white" transform="matrix(-1 0 0 1 599 0)"/>
</clipPath>
</defs>
</svg>
