<svg width="595" height="609" viewBox="0 0 595 609" fill="none" xmlns="http://www.w3.org/2000/svg">
<g clip-path="url(#clip0_633_1448)">
<path d="M374.002 577.195L355.99 608.38H392.012L374.002 577.195L355.99 608.38H392.012L374.002 577.195Z" fill="#F2F2F2"/>
<path d="M327.95 156.689V242.236C327.945 244.556 327.022 246.779 325.381 248.42C323.74 250.06 321.516 250.983 319.195 250.988H253.555L254.159 250.215C288.692 227.168 313.164 196.418 327.177 157.67L327.95 156.689Z" fill="#F2F2F2"/>
<path d="M394.465 71.4886H22.471C16.5135 71.4958 10.8021 73.8648 6.58952 78.0759C2.37695 82.287 0.00718374 87.9965 0 93.9519V317.317C0.00718374 323.273 2.37695 328.982 6.58952 333.193C10.8021 337.404 16.5135 339.773 22.471 339.781H394.465C400.423 339.773 406.134 337.404 410.347 333.193C414.559 328.982 416.929 323.273 416.936 317.317V93.9519C416.929 87.9965 414.559 82.287 410.347 78.0759C406.134 73.8648 400.423 71.4958 394.465 71.4886ZM414.955 317.317C414.956 320.007 414.426 322.671 413.397 325.157C412.367 327.642 410.858 329.9 408.955 331.802C407.052 333.704 404.793 335.213 402.307 336.242C399.821 337.272 397.156 337.801 394.465 337.801H22.471C19.78 337.801 17.1153 337.272 14.629 336.242C12.1428 335.213 9.88376 333.704 7.98096 331.802C6.07815 329.9 4.56887 327.642 3.53932 325.157C2.50978 322.671 1.98016 320.007 1.98069 317.317V227.593C1.98069 222.366 2.23487 217.201 2.74325 212.099C6.5668 174.089 24.3828 138.854 52.7324 113.237C81.082 87.6191 117.943 73.4459 156.158 73.4687H394.465C399.899 73.4693 405.111 75.6275 408.953 79.4687C412.796 83.3099 414.955 88.5196 414.955 93.9519V317.317Z" fill="#E6E6E6"/>
<path d="M275.664 175.647H82.1799C80.5947 175.647 79.0745 176.277 77.9537 177.397C76.8328 178.518 76.2031 180.037 76.2031 181.622C76.2031 183.207 76.8328 184.726 77.9537 185.847C79.0745 186.967 80.5947 187.597 82.1799 187.597H275.664C277.249 187.597 278.769 186.967 279.89 185.847C281.011 184.726 281.641 183.207 281.641 181.622C281.641 180.037 281.011 178.518 279.89 177.397C278.769 176.277 277.249 175.647 275.664 175.647Z" fill="#E6E6E6"/>
<path d="M142.164 142.136H82.1789C80.5925 142.136 79.071 142.766 77.9493 143.887C76.8275 145.008 76.1973 146.529 76.1973 148.115C76.1973 149.701 76.8275 151.222 77.9493 152.343C79.071 153.465 80.5925 154.095 82.1789 154.095H142.164C143.751 154.095 145.272 153.465 146.394 152.343C147.516 151.222 148.146 149.701 148.146 148.115C148.146 146.529 147.516 145.008 146.394 143.887C145.272 142.766 143.751 142.136 142.164 142.136Z" fill="#E6E6E6"/>
<path d="M82.1799 175.647H111.841C108.097 179.934 104.032 183.929 99.6793 187.597H82.1799C80.5947 187.597 79.0745 186.967 77.9537 185.847C76.8328 184.726 76.2031 183.207 76.2031 181.622C76.2031 180.037 76.8328 178.518 77.9537 177.397C79.0745 176.277 80.5947 175.647 82.1799 175.647Z" fill="#83BB62"/>
<path d="M82.179 142.136H132.241C130.643 146.229 128.801 150.222 126.725 154.095H82.179C80.5925 154.095 79.071 153.465 77.9493 152.343C76.8275 151.222 76.1973 149.701 76.1973 148.115C76.1973 146.529 76.8275 145.008 77.9493 143.887C79.071 142.766 80.5925 142.136 82.179 142.136Z" fill="#83BB62"/>
<path d="M137.044 74.6468C102.401 78.9825 70.2548 94.9385 45.8596 119.906C21.4645 144.874 6.26399 177.376 2.74325 212.099C1.82223 211.921 0.911119 211.713 0 211.495V93.9519C0.00718374 87.9965 2.37695 82.287 6.58952 78.0759C10.8021 73.8648 16.5135 71.4958 22.471 71.4886H136.252C136.539 72.5281 136.797 73.5875 137.044 74.6468Z" fill="#83BB62" fill-opacity="0.4"/>
<path d="M135.924 92.0795C146.254 92.0795 154.629 83.7079 154.629 73.3809C154.629 63.054 146.254 54.6823 135.924 54.6823C125.593 54.6823 117.219 63.054 117.219 73.3809C117.219 83.7079 125.593 92.0795 135.924 92.0795Z" fill="white"/>
<path d="M135.924 93.0694C132.028 93.0694 128.221 91.9147 124.982 89.7513C121.743 87.5879 119.218 84.513 117.728 80.9154C116.237 77.3178 115.847 73.3591 116.607 69.5399C117.367 65.7207 119.243 62.2126 121.997 59.4591C124.752 56.7056 128.261 54.8304 132.081 54.0708C135.902 53.3111 139.862 53.701 143.461 55.1912C147.06 56.6813 150.136 59.2048 152.3 62.4426C154.464 65.6804 155.619 69.4869 155.619 73.3809C155.613 78.6008 153.536 83.6052 149.844 87.2963C146.152 90.9873 141.145 93.0635 135.924 93.0694ZM135.924 55.6725C132.42 55.6725 128.995 56.7111 126.082 58.6569C123.169 60.6027 120.898 63.3684 119.558 66.6042C118.217 69.84 117.866 73.4006 118.55 76.8357C119.233 80.2708 120.92 83.4261 123.398 85.9027C125.875 88.3793 129.032 90.0659 132.468 90.7491C135.904 91.4324 139.466 91.0817 142.703 89.7414C145.94 88.4011 148.706 86.1314 150.653 83.2192C152.599 80.3071 153.638 76.8833 153.638 73.3809C153.633 68.686 151.765 64.1848 148.444 60.8649C145.123 57.5451 140.62 55.6777 135.924 55.6725Z" fill="#3F3D56"/>
<path d="M133.373 83.1126C133.05 83.1126 132.731 83.0374 132.442 82.893C132.154 82.7486 131.902 82.5388 131.709 82.2805L126.606 75.4787C126.442 75.2602 126.322 75.0115 126.255 74.7469C126.187 74.4823 126.172 74.207 126.21 73.9366C126.249 73.6662 126.341 73.406 126.48 73.171C126.619 72.936 126.803 72.7307 127.022 72.5668C127.24 72.4029 127.489 72.2837 127.754 72.2159C128.018 72.1481 128.294 72.1331 128.564 72.1718C128.835 72.2104 129.095 72.3019 129.33 72.4411C129.565 72.5803 129.771 72.7644 129.935 72.9829L133.273 77.4324L141.848 64.575C142.154 64.1169 142.63 63.7991 143.171 63.6914C143.712 63.5837 144.273 63.695 144.732 64.0007C145.19 64.3064 145.509 64.7816 145.617 65.3219C145.726 65.8622 145.616 66.4235 145.31 66.8826L135.104 82.1863C134.92 82.4631 134.671 82.6916 134.38 82.8526C134.089 83.0137 133.763 83.1026 133.431 83.1119L133.373 83.1126Z" fill="#83BB62"/>
<path d="M283.486 223.75C293.817 223.75 302.191 215.379 302.191 205.052C302.191 194.725 293.817 186.353 283.486 186.353C273.156 186.353 264.781 194.725 264.781 205.052C264.781 215.379 273.156 223.75 283.486 223.75Z" fill="white"/>
<path d="M283.486 224.74C279.591 224.74 275.783 223.586 272.544 221.422C269.305 219.259 266.781 216.184 265.29 212.586C263.8 208.989 263.41 205.03 264.169 201.211C264.929 197.392 266.805 193.884 269.56 191.13C272.314 188.377 275.823 186.501 279.644 185.742C283.464 184.982 287.424 185.372 291.023 186.862C294.622 188.352 297.698 190.876 299.862 194.114C302.026 197.351 303.181 201.158 303.181 205.052C303.176 210.272 301.099 215.276 297.406 218.967C293.714 222.658 288.708 224.734 283.486 224.74ZM283.486 187.343C279.983 187.343 276.558 188.382 273.645 190.328C270.731 192.274 268.461 195.039 267.12 198.275C265.779 201.511 265.429 205.072 266.112 208.507C266.796 211.942 268.483 215.097 270.96 217.574C273.438 220.05 276.594 221.737 280.03 222.42C283.467 223.103 287.028 222.753 290.265 221.412C293.502 220.072 296.269 217.802 298.215 214.89C300.162 211.978 301.201 208.554 301.201 205.052C301.196 200.357 299.328 195.856 296.007 192.536C292.686 189.216 288.183 187.349 283.486 187.343Z" fill="#E6E6E6"/>
<path d="M280.933 214.784C280.61 214.784 280.292 214.708 280.003 214.564C279.714 214.419 279.463 214.21 279.269 213.951L274.166 207.15C274.002 206.931 273.883 206.682 273.815 206.418C273.747 206.153 273.732 205.878 273.771 205.608C273.849 205.061 274.141 204.569 274.582 204.238C275.024 203.907 275.579 203.765 276.125 203.843C276.671 203.921 277.164 204.213 277.495 204.654L280.834 209.103L289.408 196.246C289.715 195.788 290.191 195.47 290.731 195.362C291.272 195.255 291.833 195.366 292.292 195.672C292.751 195.977 293.069 196.453 293.178 196.993C293.287 197.533 293.176 198.095 292.871 198.554L282.665 213.857C282.48 214.134 282.232 214.363 281.941 214.524C281.65 214.685 281.324 214.774 280.991 214.783L280.933 214.784Z" fill="#E6E6E6"/>
<path d="M233.101 9.24532C224.843 3.21119 214.872 -0.027953 204.643 0.00018174C196.902 0.0906737 189.301 2.07748 182.506 5.78653C175.712 9.49559 169.931 14.8137 165.67 21.275C164.945 22.3823 166.531 23.7297 167.263 22.6106C172.455 14.7098 179.962 8.60585 188.757 5.13402C195.83 2.40951 203.475 1.50406 210.989 2.5007C218.504 3.49734 225.647 6.36415 231.765 10.8382C232.84 11.628 234.182 10.0398 233.101 9.24532Z" fill="#E6E6E6"/>
<path d="M153.992 14.0347L149.354 31.264C149.326 31.4213 149.335 31.5829 149.379 31.7363C149.424 31.8897 149.503 32.0309 149.61 32.149C149.718 32.2671 149.851 32.359 150 32.4176C150.148 32.4762 150.308 32.4999 150.468 32.4869L169.88 29.3794C171.194 29.1691 171.022 27.0967 169.698 27.3086L150.286 30.4162L151.4 31.6391L156.038 14.4098C156.387 13.116 154.338 12.7513 153.992 14.0347Z" fill="#E6E6E6"/>
<path d="M164.563 244.479C172.821 250.513 182.792 253.752 193.022 253.724C200.763 253.633 208.363 251.646 215.158 247.937C221.953 244.228 227.734 238.91 231.995 232.449C232.72 231.342 231.134 229.994 230.401 231.113C225.21 239.014 217.703 245.118 208.907 248.59C201.834 251.314 194.19 252.22 186.675 251.223C179.161 250.227 172.017 247.36 165.899 242.886C164.825 242.096 163.482 243.684 164.563 244.479Z" fill="#E6E6E6"/>
<path d="M243.673 239.689L248.311 222.46C248.339 222.303 248.331 222.141 248.286 221.988C248.242 221.834 248.163 221.693 248.055 221.575C247.947 221.457 247.814 221.365 247.666 221.306C247.517 221.248 247.357 221.224 247.198 221.237L227.785 224.345C226.472 224.555 226.643 226.627 227.967 226.415L247.38 223.308L246.266 222.085L241.627 239.314C241.279 240.608 243.327 240.973 243.673 239.689Z" fill="#E6E6E6"/>
<path d="M408.4 49.9228H334.221C331.837 49.9228 329.55 48.9758 327.864 47.2903C326.178 45.6047 325.23 43.3187 325.23 40.9349C325.23 38.5512 326.178 36.2651 327.864 34.5796C329.55 32.894 331.837 31.9471 334.221 31.9471H408.4C410.785 31.9471 413.072 32.894 414.758 34.5796C416.444 36.2651 417.391 38.5512 417.391 40.9349C417.391 43.3187 416.444 45.6047 414.758 47.2903C413.072 48.9758 410.785 49.9228 408.4 49.9228Z" fill="#F2F2F2"/>
<path d="M406.694 40.9349L410.234 37.3959C410.334 37.2963 410.414 37.1778 410.469 37.0473C410.524 36.9167 410.552 36.7766 410.552 36.6351C410.552 36.4936 410.525 36.3534 410.471 36.2226C410.417 36.0918 410.337 35.9729 410.237 35.8728C410.137 35.7728 410.018 35.6934 409.887 35.6394C409.757 35.5854 409.616 35.5578 409.475 35.5581C409.333 35.5584 409.193 35.5867 409.062 35.6413C408.932 35.6959 408.813 35.7758 408.714 35.8763L405.174 39.4152L401.633 35.8763C401.534 35.7758 401.415 35.6959 401.285 35.6413C401.154 35.5867 401.014 35.5584 400.872 35.5581C400.731 35.5578 400.591 35.5854 400.46 35.6394C400.329 35.6934 400.21 35.7728 400.11 35.8728C400.01 35.9729 399.93 36.0918 399.876 36.2226C399.822 36.3534 399.795 36.4936 399.795 36.6351C399.795 36.7766 399.824 36.9167 399.878 37.0473C399.933 37.1778 400.013 37.2963 400.113 37.3959L403.653 40.9349L400.138 44.4486C400.038 44.5482 399.958 44.6667 399.903 44.7973C399.849 44.9279 399.82 45.0679 399.82 45.2095C399.82 45.351 399.847 45.4912 399.901 45.622C399.956 45.7528 400.035 45.8716 400.135 45.9717C400.235 46.0718 400.354 46.1511 400.485 46.2051C400.616 46.2591 400.756 46.2868 400.897 46.2865C401.039 46.2861 401.179 46.2579 401.31 46.2033C401.44 46.1487 401.559 46.0688 401.659 45.9683L405.174 42.4545L408.688 45.9683C408.89 46.1683 409.163 46.2802 409.448 46.2796C409.732 46.2789 410.004 46.1658 410.205 45.9649C410.406 45.7639 410.519 45.4916 410.52 45.2074C410.521 44.9233 410.409 44.6505 410.209 44.4486L406.694 40.9349Z" fill="white"/>
<path d="M290.569 322.005C290.437 322.005 290.307 321.979 290.185 321.928C290.063 321.876 289.953 321.801 289.861 321.707L284.21 315.932C284.029 315.747 283.928 315.499 283.928 315.24C283.928 314.981 284.029 314.733 284.21 314.548L289.861 308.774C289.952 308.679 290.06 308.604 290.18 308.551C290.3 308.499 290.429 308.471 290.56 308.469C290.691 308.467 290.821 308.491 290.943 308.539C291.064 308.588 291.175 308.66 291.268 308.751C291.362 308.843 291.436 308.952 291.488 309.072C291.539 309.193 291.565 309.322 291.566 309.453C291.567 309.584 291.542 309.713 291.492 309.834C291.443 309.955 291.37 310.066 291.277 310.158L286.304 315.24L291.277 320.323C291.413 320.462 291.506 320.638 291.542 320.83C291.578 321.021 291.558 321.219 291.482 321.399C291.406 321.578 291.279 321.732 291.117 321.84C290.955 321.947 290.764 322.005 290.569 322.005Z" fill="#3F3D56"/>
<path d="M300.064 322.005C299.87 322.005 299.679 321.947 299.517 321.84C299.354 321.732 299.227 321.578 299.152 321.399C299.076 321.219 299.055 321.021 299.092 320.83C299.128 320.638 299.22 320.462 299.357 320.323L304.33 315.24L299.357 310.158C299.176 309.97 299.077 309.718 299.081 309.457C299.085 309.196 299.192 308.947 299.379 308.765C299.565 308.583 299.816 308.481 300.077 308.483C300.338 308.484 300.588 308.589 300.772 308.774L306.423 314.548C306.604 314.733 306.705 314.981 306.705 315.24C306.705 315.499 306.604 315.747 306.423 315.932L300.772 321.707C300.68 321.801 300.57 321.876 300.449 321.928C300.327 321.979 300.196 322.005 300.064 322.005Z" fill="#3F3D56"/>
<path d="M319.103 217.88C319.632 216.429 320.472 215.112 321.566 214.02C322.659 212.929 323.978 212.091 325.43 211.565C326.883 211.038 328.433 210.837 329.972 210.974C331.511 211.111 333.001 211.584 334.337 212.359L427.758 187.886L429.291 207.126L337.879 227.507C336.427 229.665 334.234 231.215 331.716 231.864C329.197 232.514 326.528 232.217 324.213 231.03C321.899 229.844 320.1 227.85 319.159 225.426C318.217 223.002 318.197 220.317 319.103 217.88Z" fill="#A0616A"/>
<path d="M459.949 184.001C457.726 180.8 454.62 178.315 451.01 176.848C447.399 175.381 443.44 174.995 439.614 175.737L405.262 182.399C405.262 182.399 417.088 221.975 432.064 221.1C438.376 220.732 446.364 217.025 453.493 212.86C455.897 211.466 457.986 209.59 459.629 207.35C461.272 205.109 462.433 202.553 463.04 199.843C463.646 197.132 463.685 194.325 463.153 191.598C462.621 188.872 461.53 186.285 459.949 184.001Z" fill="#3F3D56"/>
<path d="M425.542 588.237L416.44 588.161L412.41 552.245L425.844 552.358L425.542 588.237Z" fill="#A0616A"/>
<path d="M429.653 606.647L427.959 584.045L425.582 583.887L415.887 583.223L412.767 583.015L412.708 589.52L398.17 599.38C397.532 599.813 397.031 600.418 396.724 601.124C396.417 601.83 396.317 602.609 396.435 603.37C396.553 604.132 396.885 604.843 397.392 605.423C397.899 606.003 398.56 606.428 399.299 606.647C399.664 606.759 400.045 606.816 400.428 606.815L418.521 606.964L418.68 606.647L421.69 600.548L422.79 606.647L422.849 607.003L429.682 607.063L429.653 606.647Z" fill="#2F2E41"/>
<path d="M521.378 581.59L512.677 584.263L497.99 551.238L510.832 547.293L521.378 581.59Z" fill="#A0616A"/>
<path d="M522.418 576.867L520.101 577.432L510.663 579.719H510.653L507.622 580.461L509.534 586.688L498.65 600.469C498.181 601.071 497.89 601.792 497.81 602.55C497.73 603.309 497.864 604.075 498.197 604.761C498.53 605.447 499.048 606.027 499.694 606.434C500.339 606.84 501.086 607.058 501.849 607.063C502.251 607.062 502.652 607.002 503.037 606.884L503.81 606.647L520.338 601.568L521.418 594.49L524.478 600.291L531.005 598.281L522.418 576.867Z" fill="#2F2E41"/>
<path d="M407.232 286.233L389.861 336.698L389.287 340.736C384.91 344.89 390.409 346.259 388.347 347.355C386.286 348.45 384.899 351.521 387.677 352.07C390.456 352.619 399.413 549.451 411.228 557.093C423.044 564.736 430.234 570.264 428.064 559.073C427.19 554.564 428.427 530.391 430.215 503.13C430.418 500.04 433.62 496.77 430.842 493.767C428.064 490.763 431.185 488.786 431.359 486.293C433.851 450.696 436.729 415.551 436.729 415.551C436.729 415.551 455.143 478.77 459.925 473.876C464.707 468.983 462.815 481.032 464.276 484.632C465.497 487.641 460.287 493.551 467.944 493.642C475.601 493.733 493.584 555.183 495.408 555.113C499.022 554.975 509.182 555.365 515.215 554.123C518.194 553.51 504.969 506.986 493.926 466.812C493.045 463.608 488.253 463.533 491.335 457.348C494.418 451.162 479.08 411.14 480.396 409.289C483.89 404.376 485.22 402.241 481.775 401.919C478.329 401.597 477.312 403.486 477.126 398.72C476.939 393.954 476.345 382.202 476.345 382.202C476.345 382.202 473.849 335.722 456.374 310.043L454.883 294.785L407.232 286.233Z" fill="#2F2E41"/>
<path d="M408.024 287.313C392.97 289.499 368.351 302.842 385.468 273.453L403.466 228.579C390.277 218.343 401.358 199.428 412.41 180.525L438.071 154.872H460.364L466.26 177.287C473.546 192.974 474.476 210.871 468.854 227.228C465.186 237.883 474.201 261.008 472.397 262.734C468.435 266.523 461.503 261.908 468.435 269.166C475.368 276.423 476.756 278.745 474.081 281.544C471.406 284.343 465.464 293.253 465.464 293.253L456.374 310.043L408.024 287.313Z" fill="#3F3D56"/>
<path d="M454.562 149.607C467.64 144.523 474.118 129.804 469.033 116.731C463.947 103.658 449.223 97.1821 436.146 102.266C423.068 107.35 416.59 122.069 421.675 135.142C426.761 148.215 441.485 154.691 454.562 149.607Z" fill="#A0616A"/>
<path d="M479.538 158.935C482.992 163.877 485.303 169.527 486.303 175.473C483.519 177.253 480.278 178.188 476.973 178.165C476.861 177.732 476.748 177.3 476.62 176.867C475.662 173.516 474.238 170.317 472.388 167.364C472.642 170.549 472.21 173.751 471.122 176.755C469.375 175.961 467.503 175.479 465.591 175.329C464.033 175.328 462.496 175.691 461.102 176.386C459.483 171.018 457.992 166.082 456.934 162.54C456.902 171.418 443.885 179.159 429.682 178.037C429.169 177.716 434.315 163.117 433.818 162.781C432.68 162.028 431.574 161.21 430.468 160.409C435.116 153.23 440.166 145.538 439.3 144.384C439.365 145.81 434.267 152.669 428.72 159.143C425.642 156.883 443.132 120.122 434.491 117.141C434.347 118.439 432.439 118.439 430.115 118.167C429.502 116.025 428.59 113.98 427.406 112.093C427.56 113.994 427.331 115.907 426.732 117.718C424.437 117.718 422.148 117.96 419.903 118.439C419.384 117.622 418.811 116.84 418.188 116.099C418.249 117.002 418.223 117.909 418.108 118.807C415.815 119.304 413.924 119.881 413.651 120.346C411.856 119.689 414.918 116.724 413.796 115.186C410.942 111.34 415.174 105.731 417.851 101.757C423.35 93.6158 435.421 90.7953 443.966 95.683C444.35 94.3529 446.322 93.4715 448.855 92.8786C449.928 92.6421 451.027 92.5398 452.125 92.5741C463.026 92.7664 478.159 101.757 478.752 112.638C478.8 113.727 478.881 114.913 478.961 116.179C479.73 128.359 478.784 139.592 487.104 148.502C490.118 151.723 490.15 166.979 488.996 174.832C485.998 171.675 483.866 159.399 479.538 158.935Z" fill="#2F2E41"/>
<path d="M541.265 591.84C541.726 591.861 542.181 591.741 542.571 591.494C542.96 591.248 543.264 590.888 543.442 590.463C543.62 590.038 543.663 589.568 543.565 589.118C543.467 588.668 543.233 588.259 542.894 587.946L542.74 587.334C542.76 587.285 542.781 587.236 542.801 587.187C543.265 586.092 544.042 585.159 545.035 584.504C546.028 583.849 547.192 583.502 548.381 583.506C549.571 583.511 550.733 583.866 551.721 584.529C552.708 585.191 553.479 586.13 553.934 587.229C555.755 591.613 558.073 596.004 558.644 600.639C558.895 602.688 558.789 604.765 558.331 606.778C562.607 597.452 564.828 587.316 564.842 577.057C564.843 574.483 564.7 571.91 564.414 569.352C564.177 567.255 563.849 565.172 563.429 563.105C561.136 551.887 556.215 541.372 549.069 532.425C545.61 530.538 542.812 527.637 541.054 524.112C540.417 522.845 539.966 521.492 539.717 520.096C540.107 520.148 541.188 514.207 540.894 513.843C541.437 513.018 542.411 512.608 543.005 511.803C545.958 507.8 550.027 508.499 552.152 513.939C556.69 516.228 556.734 520.025 553.949 523.677C552.178 526.001 551.934 529.144 550.38 531.632C550.54 531.836 550.706 532.035 550.866 532.239C553.789 535.997 556.337 540.032 558.473 544.286C557.953 539.52 558.573 534.699 560.282 530.219C562.013 526.043 565.258 522.527 568.116 518.918C568.871 517.948 569.898 517.224 571.065 516.838C572.232 516.451 573.488 516.419 574.674 516.746C575.859 517.073 576.921 517.743 577.725 518.673C578.529 519.603 579.04 520.75 579.192 521.97C579.198 522.023 579.203 522.077 579.209 522.13C578.784 522.369 578.369 522.623 577.962 522.892C577.452 523.233 577.056 523.72 576.827 524.29C576.598 524.86 576.547 525.486 576.68 526.085C576.812 526.685 577.123 527.23 577.572 527.65C578.02 528.07 578.584 528.344 579.191 528.438L579.254 528.447C579.102 529.977 578.835 531.492 578.454 532.981C582.12 547.154 574.205 552.316 562.904 552.548C562.655 552.675 562.412 552.803 562.162 552.925C564.308 559.004 565.654 565.336 566.166 571.763C566.456 575.554 566.439 579.362 566.115 583.151L566.134 583.017C566.953 578.804 569.201 575.003 572.499 572.255C577.397 568.233 584.317 566.752 589.601 563.519C590.162 563.158 590.815 562.966 591.482 562.964C592.15 562.963 592.804 563.152 593.367 563.51C593.93 563.867 594.379 564.379 594.662 564.983C594.944 565.588 595.047 566.26 594.959 566.922L594.938 567.063C594.15 567.383 593.383 567.753 592.642 568.169C592.217 568.408 591.802 568.662 591.395 568.931C590.884 569.272 590.489 569.76 590.26 570.329C590.031 570.899 589.979 571.525 590.112 572.124C590.245 572.724 590.556 573.269 591.004 573.689C591.452 574.109 592.017 574.383 592.624 574.477L592.686 574.487C592.731 574.493 592.77 574.499 592.814 574.506C591.468 577.718 589.579 580.675 587.23 583.247C584.938 595.619 575.092 596.793 564.561 593.19H564.554C563.399 598.209 561.725 603.095 559.559 607.769H541.713C541.649 607.571 541.591 607.366 541.533 607.168C543.185 607.272 544.844 607.173 546.472 606.874C545.147 605.25 543.823 603.613 542.499 601.989C542.47 601.958 542.442 601.926 542.416 601.893C541.744 601.061 541.066 600.236 540.395 599.405L540.394 599.404C540.359 596.856 540.652 594.314 541.265 591.84Z" fill="#F2F2F2"/>
<path d="M341.658 607.822C341.658 607.977 341.688 608.13 341.747 608.273C341.806 608.416 341.893 608.547 342.002 608.656C342.112 608.766 342.242 608.852 342.385 608.911C342.528 608.97 342.682 609 342.837 609H593.682C593.994 609 594.294 608.876 594.515 608.655C594.736 608.434 594.86 608.134 594.86 607.822C594.86 607.509 594.736 607.21 594.515 606.989C594.294 606.768 593.994 606.644 593.682 606.644H342.837C342.682 606.643 342.528 606.674 342.385 606.733C342.242 606.792 342.112 606.878 342.002 606.988C341.893 607.097 341.806 607.227 341.747 607.371C341.688 607.514 341.658 607.667 341.658 607.822Z" fill="#CCCCCC"/>
<path d="M461.239 353.633L409.296 401.814L341.583 380.936L325.814 311.876L377.758 263.694L445.471 284.573L461.239 353.633Z" fill="#F2F2F2"/>
<path d="M374.882 317.874C374.121 316.53 373.663 315.036 373.542 313.496C373.421 311.956 373.639 310.409 374.181 308.963C374.723 307.516 375.575 306.206 376.679 305.125C377.782 304.044 379.108 303.218 380.566 302.704L422.562 215.768L438.2 227.087L394.393 309.84C395.093 312.344 394.85 315.018 393.71 317.355C392.57 319.692 390.612 321.53 388.207 322.52C385.802 323.51 383.117 323.584 380.661 322.728C378.205 321.872 376.149 320.144 374.882 317.874Z" fill="#A0616A"/>
<path d="M440.494 188.762C436.616 188.376 432.709 189.126 429.249 190.92C425.79 192.714 422.927 195.474 421.009 198.866L403.787 229.317C403.787 229.317 441.583 246.004 450.636 234.046C454.452 229.006 456.814 220.525 458.27 212.399C458.769 209.666 458.697 206.86 458.058 204.157C457.419 201.453 456.227 198.911 454.557 196.691C452.888 194.471 450.776 192.62 448.356 191.255C445.935 189.891 443.259 189.042 440.494 188.762Z" fill="#3F3D56"/>
<path d="M332.903 177.479V263.026C332.899 265.346 331.975 267.569 330.334 269.21C328.693 270.85 326.469 271.774 324.148 271.778H258.508L259.112 271.005C293.645 247.958 318.117 217.208 332.13 178.46L332.903 177.479Z" fill="#83BB62"/>
<path d="M56.0993 240.098L38.0879 271.283H74.1098L56.0993 240.098L38.0879 271.283H74.1098L56.0993 240.098Z" fill="#F2F2F2"/>
<path d="M192.417 387.015C225.413 387.015 252.162 360.275 252.162 327.29C252.162 294.305 225.413 267.566 192.417 267.566C159.421 267.566 132.672 294.305 132.672 327.29C132.672 360.275 159.421 387.015 192.417 387.015Z" fill="#F2F2F2"/>
</g>
<defs>
<clipPath id="clip0_633_1448">
<rect width="595" height="609" fill="white"/>
</clipPath>
</defs>
</svg>
