<svg width="435" height="828" viewBox="0 0 435 828" fill="none" xmlns="http://www.w3.org/2000/svg">
<g clip-path="url(#clip0_650_2343)">
<path d="M9.5742 44.0779L9.57422 420.2L11.2507 420.2L11.2507 44.0779L9.5742 44.0779Z" fill="#CBCBCB"/>
<path d="M10.2051 368.132L10.2051 369.801L63.4856 369.801L63.4856 368.132L10.2051 368.132Z" fill="#CBCBCB"/>
<path d="M105.72 231.281L105.72 317.258L10.1543 317.258L10.1543 315.59L104.044 315.59L104.044 231.281L105.72 231.281Z" fill="#CBCBCB"/>
<path d="M10.2051 259.082L10.2051 260.75L63.4856 260.75L63.4856 259.082L10.2051 259.082Z" fill="#CBCBCB"/>
<path d="M104.926 231.083L104.926 232.752L158.206 232.752L158.206 231.083L104.926 231.083Z" fill="#CBCBCB"/>
<path d="M10.2051 144.681L10.2051 146.35L63.4856 146.35L63.4856 144.681L10.2051 144.681Z" fill="#CBCBCB"/>
<path d="M10.2051 87.4812L10.2051 89.1498L63.4856 89.1498L63.4856 87.4812L10.2051 87.4812Z" fill="#CBCBCB"/>
<path d="M71.6367 352.922L71.6367 384.609L84.0397 384.609L84.0397 352.922L71.6367 352.922Z" fill="#83BB62"/>
<path d="M71.6367 244.459L71.6367 276.146L84.0397 276.146L84.0397 244.459L71.6367 244.459Z" fill="#3F3D56"/>
<path d="M71.6367 129.322L71.6367 161.008L84.0397 161.008L84.0397 129.322L71.6367 129.322Z" fill="#CBCBCB"/>
<path d="M71.6367 74.2555L71.6367 105.942L84.0397 105.942L84.0397 74.2555L71.6367 74.2555Z" fill="#83BB62"/>
<path d="M4.57812 -5.91278e-05L4.57812 31.6863L16.9811 31.6863L16.9811 -5.967e-05L4.57812 -5.91278e-05Z" fill="#3F3D56"/>
<path d="M165.518 216.092L165.518 247.778L177.921 247.778L177.921 216.092L165.518 216.092Z" fill="#3F3D56"/>
<path d="M-2.22035e-06 430.973L0 481.769L19.8829 481.769L19.8829 430.973L-2.22035e-06 430.973Z" fill="#83BB62"/>
</g>
<defs>
<clipPath id="clip0_650_2343">
<rect width="828" height="435" fill="white" transform="translate(0 828) rotate(-90)"/>
</clipPath>
</defs>
</svg>
