<svg width="940" height="485" viewBox="0 0 940 485" fill="none" xmlns="http://www.w3.org/2000/svg">
<g clip-path="url(#clip0_639_1771)">
<path d="M564.363 330.981C638.936 330.981 699.39 327.652 699.39 323.546C699.39 319.44 638.936 316.111 564.363 316.111C489.79 316.111 429.336 319.44 429.336 323.546C429.336 327.652 489.79 330.981 564.363 330.981Z" fill="#F0F0F0"/>
<path d="M147.279 485C172.136 485 192.288 481.671 192.288 477.565C192.288 473.458 172.136 470.129 147.279 470.129C122.421 470.129 102.27 473.458 102.27 477.565C102.27 481.671 122.421 485 147.279 485Z" fill="#F0F0F0"/>
<path d="M584.782 10.722L584.262 16.1465L682.77 26.8009L683.29 21.3764L584.782 10.722Z" fill="#E6E6E6"/>
<path d="M557.56 20.2528C562.826 20.2528 567.095 15.7192 567.095 10.1268C567.095 4.53432 562.826 0.000732422 557.56 0.000732422C552.294 0.000732422 548.025 4.53432 548.025 10.1268C548.025 15.7192 552.294 20.2528 557.56 20.2528Z" fill="#E6E6E6"/>
<path d="M584.782 40.4637L584.262 45.8882L682.77 56.5426L683.29 51.1181L584.782 40.4637Z" fill="#E4E4E4"/>
<path d="M557.56 49.9943C562.826 49.9943 567.095 45.4607 567.095 39.8682C567.095 34.2758 562.826 29.7422 557.56 29.7422C552.294 29.7422 548.025 34.2758 548.025 39.8682C548.025 45.4607 552.294 49.9943 557.56 49.9943Z" fill="#E4E4E4"/>
<path d="M584.782 70.2052L584.262 75.6296L682.77 86.284L683.29 80.8596L584.782 70.2052Z" fill="#83BB62"/>
<path d="M557.56 79.736C562.826 79.736 567.095 75.2024 567.095 69.6099C567.095 64.0175 562.826 59.4839 557.56 59.4839C552.294 59.4839 548.025 64.0175 548.025 69.6099C548.025 75.2024 552.294 79.736 557.56 79.736Z" fill="#83BB62"/>
<path d="M19.9277 177.205L74.2637 133.413L73.8206 218.679L22.5933 263.558L19.9277 177.205Z" fill="#E4E4E4"/>
<path d="M256.973 17.7865L362.733 1.92261L364.321 99.7457L257.903 118.461L256.973 17.7865Z" fill="#83BB62"/>
<path d="M870.424 184.282V270.748L923.007 324.417L925.462 236.766L870.424 184.282Z" fill="#83BB62"/>
<path d="M870.736 106.62V119.377L907.374 150.988L909.094 140.048L870.736 106.62Z" fill="#83BB62"/>
<path d="M871.316 128.501L870.736 141.269L940 210.556L938.86 195.972L871.316 128.501Z" fill="#E6E6E6"/>
<path d="M870.736 152.21V164.361L940 234.881V219.075L870.736 152.21Z" fill="#E6E6E6"/>
<path d="M149.879 468.673H144.391L141.779 446.19H149.88L149.879 468.673Z" fill="#9E616A"/>
<path d="M151.28 474.323L133.582 474.323V474.085C133.582 472.145 134.308 470.284 135.6 468.912C136.892 467.54 138.644 466.77 140.471 466.77L151.28 466.77L151.28 474.323Z" fill="#2F2E41"/>
<path d="M169.343 462.894L164.269 465.117L153.779 445.393L161.267 442.111L169.343 462.894Z" fill="#9E616A"/>
<path d="M172.667 467.55L156.308 474.72L156.222 474.5C155.525 472.707 155.528 470.693 156.229 468.901C156.93 467.11 158.273 465.687 159.961 464.947L169.954 460.567L172.667 467.55Z" fill="#2F2E41"/>
<path d="M153.495 299.589C153.495 299.589 173.861 309.839 160.329 356.791L159.3 393.935L152.55 462.222L141.568 461.479L136.711 395.742L120.521 341.446L123.734 315.221L153.495 299.589Z" fill="#2F2E41"/>
<path d="M122.413 322.151L124.069 288.06C112.807 267.975 124.35 256.5 125.288 255.619L135.608 239.615L144.637 236.983C146.411 236.466 148.273 236.393 150.077 236.769C151.881 237.145 153.579 237.96 155.037 239.15C156.495 240.34 157.673 241.872 158.48 243.627C159.286 245.382 159.698 247.312 159.684 249.265L159.279 305.122L122.413 322.151Z" fill="#83BB62"/>
<path d="M143.014 405.67L154.363 455.659L167.369 450.045L149.744 404.799L143.014 405.67Z" fill="#2F2E41"/>
<path d="M125.708 339.833C126.476 339.487 127.164 338.966 127.723 338.307C128.282 337.648 128.698 336.867 128.942 336.019C129.186 335.171 129.252 334.277 129.135 333.399C129.018 332.521 128.721 331.681 128.265 330.938L139.773 313.631L130.186 313.048L119.988 329.355C118.864 330.25 118.088 331.553 117.807 333.016C117.526 334.479 117.761 336 118.466 337.291C119.171 338.583 120.297 339.555 121.632 340.023C122.967 340.492 124.417 340.424 125.708 339.833Z" fill="#9E616A"/>
<path d="M129.701 256.335L134.732 294.027L120.521 322.447L132.413 330.352L152.9 298.187L144.321 252.615L129.701 256.335Z" fill="#83BB62"/>
<path d="M140.136 230.724C148.522 230.724 155.319 223.505 155.319 214.6C155.319 205.695 148.522 198.476 140.136 198.476C131.751 198.476 124.953 205.695 124.953 214.6C124.953 223.505 131.751 230.724 140.136 230.724Z" fill="#9E616A"/>
<path d="M163.029 274.725C163.596 265.704 167.152 257.256 170.019 248.743C172.885 240.23 175.111 230.965 172.944 222.222C171.677 217.716 169.685 213.477 167.057 209.692C162.314 202.387 156.267 195.595 148.432 192.517C140.596 189.438 130.722 190.973 125.567 197.955C123.676 200.412 122.658 203.496 122.69 206.67C122.726 208.245 123.122 209.789 123.845 211.166C124.567 212.543 125.594 213.712 126.838 214.574C128.269 215.494 129.971 215.926 131.274 217.04C132.577 218.155 133.29 220.421 132.105 221.676L132.578 221.923C136.824 222.895 139.194 228.006 139.157 232.619C139.121 237.232 137.355 241.6 136.261 246.064C135.168 250.529 134.848 255.649 137.373 259.403C139.883 263.135 144.734 264.777 146.566 268.93C149.066 274.598 144.535 281.087 145.079 287.319C145.601 293.302 150.881 297.819 156.407 299.109C161.933 300.399 167.673 299.179 173.213 297.959C165.674 293.759 162.461 283.746 163.029 274.725Z" fill="#2F2E41"/>
<path d="M514.697 191.974L515.438 165.776L512.145 141.413L507.218 141.768L503.072 167.403L507.704 194.888C506.812 196.188 506.341 197.76 506.361 199.368C506.382 200.976 506.893 202.534 507.819 203.807C508.744 205.08 510.034 206 511.493 206.429C512.953 206.857 514.504 206.771 515.914 206.184C517.324 205.596 518.516 204.539 519.311 203.17C520.107 201.801 520.463 200.196 520.326 198.594C520.189 196.992 519.566 195.481 518.551 194.287C517.536 193.093 516.184 192.282 514.697 191.974Z" fill="#9E616A"/>
<path d="M514.072 253.441L500.262 315.534L510.668 316.319L530.612 256.222L514.072 253.441Z" fill="#9E616A"/>
<path d="M538.691 249.36L557.751 309.866L566.985 304.711L552.359 243.882L538.691 249.36Z" fill="#9E616A"/>
<path d="M513.354 197.247C513.354 197.247 506.737 205.018 518.156 219.935L503.35 302.302L514.352 306.551L534.356 251.317L552.359 299.115L566.362 292.742L547.234 219.935L549.359 201.393L544.07 196.204L513.354 197.247Z" fill="#E4E4E4"/>
<path d="M527.097 113.397C527.097 113.397 507.072 121.729 509.072 134.475L513.998 184.861L508.932 202.335C508.932 202.335 542.722 208.098 548.902 201.559L550.08 146.159L552.294 124.262L541.59 119.664L538.92 115.457L527.097 113.397Z" fill="#3F3D56"/>
<path d="M512.145 128.156L504.842 145.62L515.7 150.085L512.145 128.156Z" fill="#3F3D56"/>
<path d="M566.89 199.227L558.083 149.299L544.072 148.056L548.021 173.12L557.562 201.479C556.773 202.714 556.353 204.173 556.356 205.666C556.359 207.158 556.784 208.616 557.577 209.848C558.37 211.08 559.494 212.031 560.802 212.576C562.11 213.121 563.543 213.236 564.913 212.905C566.284 212.574 567.529 211.813 568.486 210.721C569.444 209.628 570.07 208.255 570.284 206.78C570.497 205.305 570.287 203.796 569.682 202.448C569.077 201.101 568.104 199.979 566.89 199.227Z" fill="#9E616A"/>
<path d="M536.361 130.364L544.442 154.727L560.083 152.532C560.083 152.532 563.51 129.982 552.295 124.262L536.361 130.364Z" fill="#3F3D56"/>
<path d="M547.334 94.8118C546.926 115.668 516.676 112.107 520.684 91.6162C523.77 75.3103 547.746 78.2085 547.334 94.8118Z" fill="#9E616A"/>
<path d="M539.963 75.6287C530.479 77.3456 515.791 73.3074 516.079 89.0764C515.106 90.6207 514.037 92.3125 514.728 94.249C518.073 98.5817 519.822 105.291 524.189 108.335C528.081 108.304 533.162 108.881 535.772 105.275C536.881 102.318 534.919 98.7129 536.592 95.9378C538.786 95.1945 540.926 98.1762 541.783 93.9297C541.663 92.8989 541.807 91.8528 542.199 90.9015C542.592 89.9502 543.219 89.1288 544.014 88.5238C547.448 84.3472 545.108 76.651 539.963 75.6287Z" fill="#3F3D56"/>
<path d="M497.568 313.987L513.923 313.986C516.687 313.986 519.338 315.153 521.293 317.228C523.247 319.304 524.345 322.119 524.345 325.054V325.414L497.569 325.415L497.568 313.987Z" fill="#2F2E41"/>
<path d="M553.746 306.49L569.733 302.829C572.435 302.21 575.258 302.757 577.581 304.349C579.903 305.94 581.535 308.446 582.118 311.316L582.189 311.667L556.014 317.661L553.746 306.49Z" fill="#2F2E41"/>
<path d="M621.688 318.295H626.973L629.486 296.651H621.688L621.688 318.295Z" fill="#FFB6B6"/>
<path d="M620.34 316.463L630.745 316.462C632.504 316.463 634.191 317.204 635.434 318.525C636.678 319.846 637.377 321.637 637.377 323.504V323.733L620.34 323.734L620.34 316.463Z" fill="#2F2E41"/>
<path d="M594.683 318.295H599.967L602.48 296.651H594.682L594.683 318.295Z" fill="#FFB6B6"/>
<path d="M593.334 316.463L603.739 316.462C605.498 316.463 607.185 317.204 608.429 318.525C609.672 319.846 610.371 321.637 610.371 323.504V323.733L593.334 323.734L593.334 316.463Z" fill="#2F2E41"/>
<path d="M656.381 77.1162C656.382 76.1745 656.185 75.2443 655.807 74.3927C655.428 73.5411 654.877 72.7892 654.192 72.191C653.507 71.5929 652.705 71.1634 651.845 70.9334C650.986 70.7034 650.088 70.6787 649.218 70.8611C648.348 71.0434 647.527 71.4282 646.814 71.9879C646.101 72.5475 645.513 73.2681 645.093 74.0977C644.674 74.9273 644.432 75.8454 644.387 76.7859C644.341 77.7264 644.492 78.666 644.83 79.537L632.688 99.9383L625.129 116.116L631.366 121.995L636.167 116.63L651.866 83.2844C653.157 82.9346 654.301 82.1386 655.119 81.0217C655.936 79.9049 656.38 78.5308 656.381 77.1162Z" fill="#FFB6B6"/>
<path d="M593.368 144.035L581.466 142.076L578.631 164.942L563.184 200.243C562.176 200.91 561.377 201.88 560.888 203.028C560.399 204.177 560.242 205.454 560.436 206.698C560.631 207.942 561.168 209.097 561.98 210.017C562.792 210.936 563.843 211.58 564.999 211.865C566.155 212.151 567.366 212.066 568.477 211.622C569.588 211.177 570.55 210.393 571.241 209.368C571.932 208.343 572.322 207.123 572.361 205.863C572.399 204.603 572.086 203.359 571.459 202.288L587.61 171.316L593.368 144.035Z" fill="#FFB6B6"/>
<path d="M599.964 182.128C599.964 182.128 589.498 192.406 590.828 218.25L593.76 258.174L593.02 313.827L603.77 312.93L613.162 219.663L622.164 257.902L618.932 308.841L629.287 309.096L640.167 251.529L637.589 208.856L633.257 182.128H599.964Z" fill="#2F2E41"/>
<path d="M611.161 121.941L586.156 129.376L598.87 169.831L596.97 185.307L635.524 185.572L626.596 155.659C626.596 155.659 631.606 144.716 625.885 137.046L611.161 121.941Z" fill="#E4E4E4"/>
<path d="M608.16 128.314L611.161 121.941C611.161 121.941 611.064 120.339 618.114 119.547L626.386 110.815L633.957 118.829L621.163 138.936L608.16 128.314Z" fill="#E4E4E4"/>
<path d="M596.157 134.687C596.157 134.687 587.156 124.065 582.155 129.376C577.154 134.687 579.718 151.575 579.718 151.575L595.294 154.142L596.157 134.687Z" fill="#E4E4E4"/>
<path d="M600.724 93.8569C616.054 93.93 616.053 118.684 600.723 118.755C585.394 118.682 585.395 93.9278 600.724 93.8569Z" fill="#FFB6B6"/>
<path d="M602.431 105.483C604.503 106.779 606.656 108.105 609.047 108.382C611.437 108.66 614.144 107.592 615.103 105.25C615.403 104.438 615.562 103.576 615.572 102.704C615.783 98.2564 614.334 93.8996 611.539 90.579C610.137 88.9514 608.42 87.6641 606.506 86.8049C604.593 85.9457 602.527 85.5348 600.451 85.6003C596.49 85.7831 592.829 87.7744 589.314 89.7225C586.082 91.514 582.669 93.488 580.913 96.8813C578.31 101.909 580.207 108.066 580.713 113.778C581.067 118.038 580.61 122.33 579.369 126.398C578.127 130.465 576.127 134.226 573.486 137.455L595.298 139.649C597.941 140.063 600.628 140.034 603.262 139.563C605.507 139.031 607.574 137.862 609.243 136.182C610.913 134.501 612.122 132.372 612.743 130.02C613.364 127.668 613.373 125.181 612.77 122.824C612.166 120.466 610.972 118.327 609.315 116.633C606.219 113.467 601.24 111.226 601.118 106.664" fill="#2F2E41"/>
<path d="M0 161.534L79.897 99.4194L79.2649 104.734L0.24905 167.403L0 161.534Z" fill="#83BB62"/>
<path d="M95.9685 447.247C117.999 447.15 117.999 452.314 95.9679 452.218C73.9378 452.314 73.9376 447.15 95.9685 447.247Z" fill="#F0F0F0"/>
<path d="M712.093 356.96C734.124 356.864 734.124 362.028 712.093 361.931C690.063 362.027 690.063 356.863 712.093 356.96Z" fill="#F0F0F0"/>
<path d="M710.333 353.186C710.378 350.919 708.846 348.456 706.711 348.44C705.86 348.502 705.053 348.869 704.423 349.479C703.793 350.09 703.377 350.91 703.241 351.804C703.133 352.702 703.201 353.615 703.442 354.484C703.682 355.353 704.089 356.159 704.637 356.853C705.741 358.231 707.02 359.439 708.438 360.442L708.815 358.982C708.552 359.158 708.272 359.304 707.98 359.417C709.128 357.505 710.288 355.453 710.333 353.186Z" fill="#F0F0F0"/>
<path d="M708.816 358.982C709.144 358.758 709.445 358.493 709.714 358.193C709.467 358.246 709.223 358.316 708.976 358.364L708.816 358.982Z" fill="#F0F0F0"/>
<path d="M724.847 341.235C723.86 340.412 722.691 339.873 721.452 339.668C720.213 339.463 718.945 339.6 717.769 340.066C716.603 340.554 715.552 341.309 714.691 342.276C713.831 343.244 713.181 344.401 712.788 345.665C712.015 348.103 712.175 350.751 711.8 353.292C711.585 355.112 710.857 356.82 709.713 358.193C713.545 357.381 717.269 356.077 720.804 354.31C723.361 353.027 726.006 351.259 726.893 348.408C727.25 347.131 727.246 345.771 726.883 344.496C726.519 343.22 725.811 342.087 724.847 341.235Z" fill="#F0F0F0"/>
<path d="M96.21 443.473C96.2548 441.206 94.723 438.743 92.5878 438.727C91.7366 438.789 90.9303 439.155 90.3003 439.766C89.6702 440.377 89.2536 441.196 89.1182 442.091C89.0101 442.989 89.0783 443.902 89.3186 444.771C89.5589 445.639 89.966 446.446 90.5144 447.14C91.6179 448.518 92.8971 449.726 94.3151 450.729L94.692 449.269C94.4288 449.445 94.1488 449.591 93.8567 449.704C95.0054 447.792 96.1651 445.74 96.21 443.473Z" fill="#F0F0F0"/>
<path d="M94.6914 449.269C95.0191 449.045 95.3204 448.78 95.5887 448.48C95.3419 448.532 95.0985 448.602 94.8509 448.651L94.6914 449.269Z" fill="#F0F0F0"/>
<path d="M110.724 431.521C109.737 430.699 108.568 430.159 107.329 429.955C106.09 429.75 104.822 429.887 103.646 430.352C102.48 430.841 101.429 431.595 100.568 432.563C99.7075 433.531 99.0576 434.688 98.6648 435.952C97.8924 438.39 98.0515 441.038 97.6766 443.579C97.4616 445.398 96.7343 447.107 95.5898 448.48C99.4215 447.667 103.146 446.363 106.681 444.596C109.237 443.313 111.883 441.546 112.77 438.695C113.127 437.418 113.123 436.057 112.76 434.782C112.396 433.507 111.688 432.373 110.724 431.521Z" fill="#F0F0F0"/>
</g>
<defs>
<clipPath id="clip0_639_1771">
<rect width="940" height="485" fill="white"/>
</clipPath>
</defs>
</svg>
