<svg width="888" height="461" viewBox="0 0 888 461" fill="none" xmlns="http://www.w3.org/2000/svg">
<g clip-path="url(#clip0_639_1706)">
<path d="M213.701 452.706L191.827 417.992L213.711 456.488L213.723 460.443C215.284 460.425 216.828 460.365 218.357 460.264L216.573 409.451L216.597 409.059L216.557 408.984L216.387 404.182L239.258 366.136L216.363 400.587L216.295 401.604L214.947 363.213L234.609 323.849L214.793 356.467L213.871 276.894L213.867 276.629L213.864 276.89L213.415 339.628L194.627 314.525L213.432 345.032L213.519 379.394L196.086 346.207L213.529 384.445L213.577 403.552L188.254 357.344L213.597 410.218L213.701 452.706Z" fill="#E2E2E2"/>
<path d="M401.412 452.706L379.538 417.992L401.422 456.488L401.434 460.443C402.995 460.425 404.539 460.365 406.068 460.264L404.284 409.452L404.308 409.059L404.267 408.984L404.098 404.182L426.969 366.136L404.074 400.587L404.005 401.604L402.658 363.213L422.32 323.849L402.504 356.467L401.582 276.894L401.578 276.63L401.575 276.89L401.126 339.628L382.338 314.526L401.143 345.032L401.23 379.394L383.797 346.207L401.24 384.446L401.288 403.553L375.965 357.345L401.308 410.218L401.412 452.706Z" fill="#E2E2E2"/>
<path d="M25.8109 454.939L10.0154 429.872L25.8182 457.669L25.8266 460.526C26.9535 460.512 28.069 460.469 29.1731 460.396L27.8848 423.705L27.9017 423.421L27.8727 423.367L27.7501 419.9L44.2655 392.427L27.733 417.304L27.6835 418.038L26.7103 390.316L40.9084 361.892L26.5994 385.445L25.9338 327.986L25.9307 327.795L25.9284 327.983L25.6044 373.286L12.0374 355.159L25.6164 377.188L25.6794 402L13.0912 378.036L25.6863 405.648L25.7211 419.445L7.43555 386.078L25.7355 424.258L25.8109 454.939Z" fill="#E2E2E2"/>
<path d="M857.945 452.706L836.071 417.992L857.955 456.488L857.967 460.443C859.528 460.425 861.073 460.365 862.602 460.264L860.817 409.451L860.841 409.059L860.801 408.984L860.631 404.182L883.502 366.136L860.607 400.587L860.539 401.604L859.191 363.213L878.853 323.849L859.037 356.467L858.115 276.894L858.111 276.629L858.108 276.89L857.659 339.628L838.871 314.525L857.676 345.032L857.763 379.394L840.33 346.207L857.773 384.445L857.821 403.552L832.498 357.344L857.841 410.218L857.945 452.706Z" fill="#E2E2E2"/>
<path d="M264.715 400.295H382.715V395.295H264.715V400.295Z" fill="#83BB62"/>
<path d="M258.715 395.295H376.715V390.295H258.715V395.295Z" fill="#83BB62"/>
<path d="M265.715 390.295H383.715V385.295H265.715V390.295Z" fill="#83BB62"/>
<path d="M277.715 385.295H395.715V380.295H277.715V385.295Z" fill="#83BB62"/>
<path d="M177.313 387.289H181.41V358.2H177.313V387.289Z" fill="#3F3D56"/>
<path d="M177.305 357.831L178.846 361.627L330.455 300.092L328.914 296.295L177.305 357.831Z" fill="#3F3D56"/>
<path d="M101.518 430.717H137.162V416.787H101.518V430.717Z" fill="#3F3D56"/>
<path d="M104.797 444.646H280.557V429.078H104.797V444.646Z" fill="#3F3D56"/>
<path d="M133.68 436.862H175.879V383.806H144.332L133.68 410.565V436.862Z" fill="#E2E2E2"/>
<path d="M151.298 405.11H169.324V387.084H151.298V405.11Z" fill="white"/>
<path d="M137.777 405.315H149.249V387.289H144.332L137.777 405.315Z" fill="white"/>
<path d="M164.407 423.137H168.504V415.353H164.407V423.137Z" fill="#3F3D56"/>
<path d="M145.766 406.544H145.561C144.529 406.544 143.539 406.134 142.809 405.404C142.079 404.675 141.669 403.685 141.669 402.652C141.669 401.62 142.079 400.63 142.809 399.9C143.539 399.17 144.529 398.76 145.561 398.76H145.766V406.544Z" fill="#3F3D56"/>
<path d="M298.174 436.862H297.969C296.937 436.862 295.947 436.452 295.217 435.722C294.487 434.992 294.077 434.002 294.077 432.97C294.077 431.938 294.487 430.948 295.217 430.218C295.947 429.488 296.937 429.078 297.969 429.078H298.174V436.862Z" fill="#3F3D56"/>
<path d="M117.292 429.019C114.245 429.058 111.246 429.783 108.518 431.141C105.791 432.499 103.404 434.455 101.536 436.862H93.5293L101.314 415.178L137.572 408.027L136.548 436.862H133.047C131.18 434.455 128.793 432.499 126.065 431.141C123.337 429.783 120.339 429.058 117.292 429.019Z" fill="#E2E2E2"/>
<path d="M116.882 459.805C126.725 459.805 134.704 451.826 134.704 441.983C134.704 432.14 126.725 424.161 116.882 424.161C107.04 424.161 99.0605 432.14 99.0605 441.983C99.0605 451.826 107.04 459.805 116.882 459.805Z" fill="#3F3D56"/>
<path d="M116.882 451.363C122.062 451.363 126.262 447.164 126.262 441.983C126.262 436.803 122.062 432.603 116.882 432.603C111.701 432.603 107.502 436.803 107.502 441.983C107.502 447.164 111.701 451.363 116.882 451.363Z" fill="#E2E2E2"/>
<path d="M277.893 459.6C286.491 459.6 293.461 452.63 293.461 444.032C293.461 435.433 286.491 428.463 277.893 428.463C269.294 428.463 262.324 435.433 262.324 444.032C262.324 452.63 269.294 459.6 277.893 459.6Z" fill="#3F3D56"/>
<path d="M277.893 452.226C282.419 452.226 286.087 448.557 286.087 444.032C286.087 439.506 282.419 435.838 277.893 435.838C273.368 435.838 269.699 439.506 269.699 444.032C269.699 448.557 273.368 452.226 277.893 452.226Z" fill="#E2E2E2"/>
<path d="M174.65 438.501H183.254V376.432H174.65V438.501Z" fill="#3F3D56"/>
<path d="M174.65 430.921H298.379V427.234H174.65V430.921Z" fill="#3F3D56"/>
<path d="M143.307 407.773H147.404V406.135H143.307V407.773Z" fill="#3F3D56"/>
<path d="M324.394 400.265C324.355 400.222 324.325 400.172 324.307 400.117C324.289 400.062 324.283 400.004 324.289 399.946L329.94 346.514C329.95 346.414 329.998 346.321 330.072 346.253C330.147 346.186 330.244 346.148 330.345 346.147H330.347C330.448 346.147 330.545 346.185 330.62 346.251C330.695 346.318 330.743 346.411 330.754 346.511L336.865 399.832C336.872 399.889 336.866 399.947 336.849 400.001C336.832 400.056 336.803 400.107 336.765 400.15C336.727 400.193 336.681 400.227 336.628 400.251C336.576 400.275 336.519 400.288 336.462 400.288L324.701 400.399H324.697C324.64 400.399 324.583 400.387 324.531 400.364C324.479 400.341 324.432 400.307 324.394 400.265ZM330.364 350.298L325.153 399.575L335.999 399.473L330.364 350.298Z" fill="#3F3D56"/>
<path d="M101.389 415.494L101.58 415.567C102.546 415.932 103.327 416.666 103.751 417.607C104.176 418.548 104.209 419.619 103.844 420.584C103.479 421.55 102.745 422.331 101.804 422.755C100.863 423.18 99.792 423.213 98.8265 422.848L98.6349 422.775L101.389 415.494Z" fill="#3F3D56"/>
<path d="M328.491 356.152H332.588V296.336H328.491V356.152Z" fill="#3F3D56"/>
<path d="M179.361 364.755C182.529 364.755 185.097 362.187 185.097 359.019C185.097 355.852 182.529 353.284 179.361 353.284C176.193 353.284 173.625 355.852 173.625 359.019C173.625 362.187 176.193 364.755 179.361 364.755Z" fill="#3F3D56"/>
<path d="M187.715 427.295H305.715V422.295H187.715V427.295Z" fill="#83BB62"/>
<path d="M194.715 422.295H312.715V417.295H194.715V422.295Z" fill="#83BB62"/>
<path d="M189.715 418.295H307.715V413.295H189.715V418.295Z" fill="#83BB62"/>
<path d="M196.715 413.295H314.715V408.295H196.715V413.295Z" fill="#83BB62"/>
<path d="M382.338 122.242C386.098 122.238 389.734 123.592 392.574 126.056C394.819 125.443 397.172 125.34 399.462 125.754C401.357 123.003 404.083 120.931 407.24 119.839C410.397 118.748 413.82 118.694 417.01 119.687C420.2 120.68 422.988 122.666 424.969 125.357C426.949 128.047 428.017 131.3 428.016 134.641H367.02C367.767 131.133 369.697 127.988 372.485 125.731C375.273 123.474 378.751 122.243 382.338 122.242Z" fill="#E2E2E2"/>
<path d="M290.572 171.59C294.127 171.586 297.564 172.867 300.25 175.196C302.371 174.617 304.596 174.519 306.761 174.91C308.553 172.309 311.129 170.35 314.114 169.318C317.099 168.286 320.336 168.236 323.351 169.174C326.367 170.113 329.003 171.991 330.875 174.535C332.747 177.078 333.757 180.154 333.757 183.312H276.09C276.797 179.995 278.621 177.022 281.257 174.888C283.893 172.755 287.181 171.591 290.572 171.59Z" fill="#E2E2E2"/>
<path d="M594.998 245.186V370.091H643.572V243.451L632.296 243.853V218.296H624.118L622.77 161.692C626.07 159.542 628.393 154.434 628.393 148.47C628.397 146.758 628.197 145.052 627.799 143.386C629.361 141.696 630.318 139.536 630.521 137.244C630.724 134.951 630.16 132.656 628.919 130.719C629.957 131.625 631.165 132.317 632.472 132.754C633.78 133.19 635.161 133.362 636.535 133.261C637.91 133.159 639.25 132.786 640.479 132.162C641.708 131.538 642.801 130.676 643.694 129.626C644.587 128.576 645.263 127.36 645.682 126.047C646.101 124.734 646.255 123.351 646.136 121.977C646.016 120.604 645.625 119.269 644.984 118.048C644.344 116.828 643.468 115.746 642.407 114.867C644.191 114.208 645.762 113.073 646.946 111.585C648.131 110.097 648.886 108.312 649.128 106.426C649.37 104.539 649.09 102.622 648.319 100.882C647.548 99.1434 646.316 97.6487 644.755 96.561C643.194 95.4733 641.365 94.834 639.467 94.7126C637.568 94.5913 635.673 94.9925 633.987 95.8726C632.3 96.7528 630.887 98.0782 629.901 99.705C628.915 101.332 628.393 103.198 628.393 105.1C628.393 105.253 628.398 105.404 628.404 105.554C626.975 105.118 625.469 104.994 623.987 105.191C622.506 105.388 621.085 105.902 619.819 106.697C618.554 107.492 617.475 108.55 616.655 109.8C615.835 111.049 615.293 112.46 615.066 113.937C613.768 113.165 612.318 112.684 610.815 112.529C609.313 112.373 607.795 112.547 606.366 113.037C604.937 113.527 603.632 114.322 602.542 115.367C601.451 116.413 600.601 117.683 600.051 119.089C599.501 120.496 599.263 122.005 599.354 123.513C599.446 125.02 599.864 126.49 600.581 127.82C601.297 129.15 602.294 130.307 603.503 131.213C604.712 132.119 606.104 132.75 607.581 133.064C607.579 133.14 607.575 133.215 607.575 133.291C608.542 136.208 609.772 139.031 611.251 141.725C610.528 143.9 610.166 146.178 610.178 148.47C610.178 154.434 612.5 159.542 615.8 161.692L614.453 218.296H606.274V244.783L594.998 245.186ZM625.33 125.917L625.357 125.918C625.507 125.918 625.656 125.913 625.805 125.906C625.898 126.214 626.006 126.515 626.126 126.81C625.878 126.497 625.612 126.199 625.33 125.917Z" fill="#E2E2E2"/>
<path d="M568.255 459H715.713V288.411H568.255V459Z" fill="#3F3D56"/>
<path d="M622.105 459H661.861V424.304H622.105V459Z" fill="#E2E2E2"/>
<path d="M519.111 63.9548C519.108 64.0808 519.101 64.2057 519.101 64.3323C519.099 66.6523 519.563 68.9489 520.467 71.0857C521.37 73.2224 522.695 75.1555 524.361 76.7698C524.621 77.3248 524.911 77.8657 525.228 78.3901C524.023 82.0145 523.418 85.8118 523.438 89.6315C523.438 102.805 530.234 113.485 538.618 113.485C547.001 113.485 553.797 102.805 553.797 89.6315C553.803 86.7778 553.471 83.9335 552.808 81.158C555.411 78.3413 557.006 74.7407 557.344 70.9203C557.682 67.0998 556.743 63.2752 554.675 60.0454C556.404 61.5568 558.417 62.7096 560.596 63.4368C562.775 64.1641 565.076 64.4513 567.367 64.2818C569.658 64.1124 571.892 63.4896 573.94 62.4497C575.989 61.4098 577.81 59.9734 579.298 58.2239C580.787 56.4745 581.913 54.4468 582.612 52.2585C583.31 50.0703 583.567 47.7651 583.368 45.4768C583.168 43.1884 582.516 40.9625 581.449 38.9282C580.382 36.8939 578.922 35.0917 577.153 33.6263C580.128 32.5286 582.745 30.6368 584.72 28.1564C586.695 25.676 587.952 22.7018 588.355 19.557C588.759 16.4122 588.293 13.2169 587.008 10.3184C585.723 7.41984 583.668 4.92882 581.067 3.11592C578.466 1.30303 575.418 0.237592 572.253 0.0353407C569.089 -0.166911 565.93 0.501761 563.119 1.96872C560.309 3.43568 557.954 5.64483 556.31 8.35619C554.667 11.0675 553.797 14.1775 553.797 17.348C553.797 17.602 553.806 17.854 553.816 18.1053C551.434 17.3777 548.924 17.1712 546.455 17.4998C543.986 17.8283 541.617 18.6843 539.508 20.0096C537.399 21.3349 535.6 23.0984 534.233 25.1805C532.867 27.2625 531.964 29.6143 531.586 32.0762C529.423 30.789 527.005 29.988 524.501 29.7289C521.997 29.4698 519.467 29.7588 517.085 30.5758C514.704 31.3928 512.529 32.7182 510.712 34.4601C508.894 36.202 507.478 38.3185 506.56 40.6628C505.643 43.0071 505.247 45.523 505.399 48.0358C505.551 50.5486 506.249 52.9981 507.443 55.2143C508.637 57.4305 510.299 59.3602 512.314 60.8696C514.329 62.3789 516.648 63.4317 519.111 63.9548ZM548.737 52.0441C548.987 52.0441 549.236 52.0357 549.484 52.0252C549.639 52.538 549.818 53.0399 550.02 53.5312C549.606 53.0101 549.163 52.5132 548.692 52.043L548.737 52.0441Z" fill="#E2E2E2"/>
<path d="M529.941 232.03H547.292L546.672 206.01V206L544.401 110.59C542.66 111.654 540.658 112.218 538.616 112.218C536.575 112.218 534.573 111.654 532.832 110.59L530.562 206V206.01L529.941 232.03Z" fill="#83BB62"/>
<path d="M498.141 250.82V459H579.092V247.93L560.301 248.6V206.01H516.931V250.15L498.141 250.82Z" fill="#83BB62"/>
<path d="M725.841 63.9548C725.838 64.0808 725.832 64.2057 725.832 64.3323C725.829 66.6523 726.294 68.9489 727.197 71.0857C728.101 73.2224 729.425 75.1555 731.091 76.7698C731.352 77.3248 731.641 77.8657 731.959 78.3901C730.753 82.0145 730.148 85.8118 730.169 89.6315C730.169 102.805 736.965 113.485 745.348 113.485C753.732 113.485 760.528 102.805 760.528 89.6315C760.534 86.7778 760.202 83.9335 759.538 81.158C762.141 78.3413 763.737 74.7407 764.074 70.9203C764.412 67.0998 763.473 63.2752 761.405 60.0454C763.135 61.5569 765.148 62.7097 767.326 63.4369C769.505 64.1642 771.807 64.4515 774.098 64.282C776.389 64.1126 778.623 63.4898 780.671 62.4499C782.719 61.4099 784.54 59.9736 786.029 58.2241C787.517 56.4746 788.644 54.4469 789.342 52.2586C790.041 50.0704 790.298 47.7652 790.098 45.4768C789.899 43.1884 789.247 40.9625 788.18 38.9282C787.113 36.8939 785.653 35.0917 783.884 33.6263C786.858 32.5286 789.475 30.6368 791.45 28.1564C793.425 25.676 794.682 22.7018 795.086 19.557C795.489 16.4122 795.023 13.2169 793.738 10.3184C792.453 7.41984 790.399 4.92882 787.797 3.11592C785.196 1.30303 782.148 0.237593 778.984 0.0353408C775.82 -0.166911 772.661 0.501761 769.85 1.96872C767.039 3.43568 764.684 5.64483 763.041 8.35619C761.397 11.0675 760.528 14.1774 760.528 17.348C760.528 17.602 760.536 17.854 760.547 18.1053C758.165 17.3777 755.654 17.1712 753.185 17.4998C750.716 17.8283 748.347 18.6843 746.238 20.0096C744.13 21.3349 742.331 23.0984 740.964 25.1805C739.597 27.2625 738.694 29.6143 738.317 32.0762C736.153 30.789 733.736 29.988 731.231 29.7289C728.727 29.4698 726.197 29.7588 723.816 30.5758C721.435 31.3928 719.26 32.7182 717.442 34.4601C715.625 36.202 714.208 38.3185 713.291 40.6628C712.373 43.0071 711.977 45.523 712.13 48.0358C712.282 50.5486 712.979 52.9981 714.174 55.2143C715.368 57.4305 717.03 59.3602 719.045 60.8696C721.059 62.3789 723.379 63.4317 725.841 63.9548ZM755.468 52.0441C755.718 52.0441 755.966 52.0357 756.214 52.0252C756.37 52.5379 756.548 53.0399 756.75 53.5312C756.336 53.0101 755.893 52.5132 755.423 52.043L755.468 52.0441Z" fill="#E2E2E2"/>
<path d="M736.674 232.03H754.022L751.131 110.594C747.392 111.937 743.303 111.937 739.565 110.594L736.674 232.03Z" fill="#83BB62"/>
<path d="M704.871 250.82V459H785.831V247.93L779.181 248.17L767.031 248.6V206.01H723.661V250.15L704.871 250.82Z" fill="#83BB62"/>
<path d="M663.982 329H683.982V309H663.982V329Z" fill="white"/>
<path d="M631.982 329H651.982V309H631.982V329Z" fill="white"/>
<path d="M599.982 329H619.982V309H599.982V329Z" fill="white"/>
<path d="M663.982 361H683.982V341H663.982V361Z" fill="white"/>
<path d="M631.982 361H651.982V341H631.982V361Z" fill="white"/>
<path d="M599.982 361H619.982V341H599.982V361Z" fill="white"/>
<path d="M663.982 393H683.982V373H663.982V393Z" fill="white"/>
<path d="M631.982 393H651.982V373H631.982V393Z" fill="white"/>
<path d="M599.982 393H619.982V373H599.982V393Z" fill="white"/>
<path d="M528.617 321H548.617V301H528.617V321Z" fill="white"/>
<path d="M528.617 353H548.617V333H528.617V353Z" fill="white"/>
<path d="M528.617 385H548.617V365H528.617V385Z" fill="white"/>
<path d="M528.617 417H548.617V397H528.617V417Z" fill="white"/>
<path d="M735.182 321H755.182V301H735.182V321Z" fill="white"/>
<path d="M735.182 353H755.182V333H735.182V353Z" fill="white"/>
<path d="M735.182 385H755.182V365H735.182V385Z" fill="white"/>
<path d="M735.182 417H755.182V397H735.182V417Z" fill="white"/>
<path d="M888 458.295H0V460.295H888V458.295Z" fill="#3F3D56"/>
</g>
<defs>
<clipPath id="clip0_639_1706">
<rect width="888" height="460.526" fill="white"/>
</clipPath>
</defs>
</svg>
