<svg width="63" height="63" viewBox="0 0 63 63" fill="none" xmlns="http://www.w3.org/2000/svg">
<path d="M51.6875 31.5V31H51.1875H41.3438C38.3591 31 35.9375 28.5784 35.9375 25.5938V9.84375C35.9375 6.85915 38.3591 4.4375 41.3438 4.4375H57.0938C60.0784 4.4375 62.5 6.85915 62.5 9.84375V39.375C62.5 49.9762 53.9137 58.5625 43.3125 58.5625H42.3281C40.9677 58.5625 39.875 57.4698 39.875 56.1094V50.2031C39.875 48.8427 40.9677 47.75 42.3281 47.75H43.3125C47.9322 47.75 51.6875 43.9947 51.6875 39.375V31.5ZM16.25 31.5V31H15.75H5.90625C2.92165 31 0.5 28.5784 0.5 25.5938V9.84375C0.5 6.85915 2.92165 4.4375 5.90625 4.4375H21.6562C24.6409 4.4375 27.0625 6.85915 27.0625 9.84375V39.375C27.0625 49.9762 18.4762 58.5625 7.875 58.5625H6.89062C5.53024 58.5625 4.4375 57.4698 4.4375 56.1094V50.2031C4.4375 48.8427 5.53024 47.75 6.89062 47.75H7.875C12.4947 47.75 16.25 43.9947 16.25 39.375V31.5Z" stroke="#7DC242"/>
</svg>
