<svg width="63" height="57" viewBox="0 0 63 57" fill="none" xmlns="http://www.w3.org/2000/svg">
<path d="M11.3125 28.5V28H11.8125H21.6562C24.6409 28 27.0625 25.5784 27.0625 22.5938V6.84375C27.0625 3.85915 24.6409 1.4375 21.6562 1.4375H5.90625C2.92165 1.4375 0.5 3.85915 0.5 6.84375V36.375C0.5 46.9762 9.0863 55.5625 19.6875 55.5625H20.6719C22.0323 55.5625 23.125 54.4698 23.125 53.1094V47.2031C23.125 45.8427 22.0323 44.75 20.6719 44.75H19.6875C15.0678 44.75 11.3125 40.9947 11.3125 36.375V28.5ZM46.75 28.5V28H47.25H57.0938C60.0783 28 62.5 25.5784 62.5 22.5938V6.84375C62.5 3.85915 60.0783 1.4375 57.0938 1.4375H41.3438C38.3591 1.4375 35.9375 3.85915 35.9375 6.84375V36.375C35.9375 46.9762 44.5238 55.5625 55.125 55.5625H56.1094C57.4698 55.5625 58.5625 54.4698 58.5625 53.1094V47.2031C58.5625 45.8427 57.4698 44.75 56.1094 44.75H55.125C50.5053 44.75 46.75 40.9947 46.75 36.375V28.5Z" stroke="#7DC242"/>
</svg>
