<svg width="839" height="886" viewBox="0 0 839 886" fill="none" xmlns="http://www.w3.org/2000/svg">
<g clip-path="url(#clip0_646_2190)">
<path d="M181.862 358.824C142.363 320.543 125.681 280.606 134.887 246.371C146.7 202.438 199.183 172.061 278.878 163.031L279.172 165.551C200.587 174.455 148.905 204.15 137.377 247.02C128.418 280.337 144.858 319.401 183.669 357.017L181.862 358.824Z" fill="#F0F0F0"/>
<path d="M562.957 494.711C513.66 494.711 460.09 487.499 406.881 473.63C341.08 456.48 280.747 430.593 232.406 398.768L233.838 396.661C281.946 428.331 342.011 454.1 407.54 471.178C466.757 486.613 526.418 493.765 580.052 491.878L580.145 494.411C574.481 494.612 568.752 494.712 562.957 494.711Z" fill="#F0F0F0"/>
<path d="M676.049 478.762L675.224 476.359C719.313 461.683 746.889 438.042 754.971 407.989C765.244 369.785 742.925 325.451 692.127 283.154C641.069 240.643 567.443 205.369 484.809 183.832L485.468 181.38C568.464 203.011 642.448 238.468 693.79 281.218C745.391 324.182 768.003 369.434 757.461 408.638C749.148 439.553 720.996 463.801 676.049 478.762Z" fill="#F0F0F0"/>
<path d="M271.207 495.771C174.343 453.475 99.7009 398.602 61.0332 341.259L63.1791 339.856C101.58 396.802 175.829 451.35 272.252 493.453L271.207 495.771Z" fill="#F0F0F0"/>
<path d="M611.778 569.044C601.787 569.044 591.625 568.825 581.293 568.385L581.404 565.852C658.511 569.138 726.545 560.054 778.162 539.575L779.126 541.928C734.098 559.79 676.708 569.044 611.778 569.044Z" fill="#F0F0F0"/>
<path d="M555.575 165.305C539.565 160.174 523.097 155.395 506.629 151.103C411.863 126.404 318.707 117.634 237.228 125.747L236.969 123.224C318.751 115.084 412.226 123.874 507.288 148.651C523.802 152.956 540.317 157.748 556.372 162.894L555.575 165.305Z" fill="#F0F0F0"/>
<path d="M121.325 362.628C81.8263 324.347 65.144 284.41 74.3496 250.175C86.1634 206.242 138.646 175.866 218.341 166.835L218.635 169.356C140.05 178.259 88.3677 207.954 76.8402 250.824C67.8811 284.141 84.3213 323.206 123.132 360.821L121.325 362.628Z" fill="#F0F0F0"/>
<path d="M502.418 498.515C453.121 498.515 399.551 491.303 346.342 477.434C280.541 460.284 220.208 434.398 171.867 402.573L173.299 400.465C221.407 432.136 281.472 457.904 347.001 474.982C406.218 490.417 465.879 497.569 519.513 495.682L519.606 498.215C513.942 498.416 508.212 498.516 502.418 498.515Z" fill="#F0F0F0"/>
<path d="M615.51 482.566L614.685 480.164C658.774 465.488 686.35 441.846 694.432 411.794C704.704 373.589 682.386 329.255 631.588 286.958C580.53 244.447 506.904 209.173 424.27 187.636L424.929 185.184C507.924 206.816 581.909 242.272 633.251 285.022C684.852 327.987 707.464 373.239 696.922 412.443C688.609 443.357 660.457 467.605 615.51 482.566Z" fill="#F0F0F0"/>
<path d="M210.67 499.575C113.805 457.28 39.1637 402.407 0.496094 345.063L2.64199 343.66C41.0424 400.607 115.292 455.155 211.714 497.257L210.67 499.575Z" fill="#F0F0F0"/>
<path d="M551.239 572.848C541.248 572.848 531.086 572.629 520.754 572.19L520.865 569.656C597.972 572.943 666.006 563.858 717.623 543.379L718.587 545.732C673.559 563.594 616.169 572.848 551.239 572.848Z" fill="#F0F0F0"/>
<path d="M495.037 169.11C479.027 163.978 462.56 159.2 446.092 154.907C351.326 130.208 258.17 121.438 176.691 129.552L176.432 127.028C258.214 118.888 351.689 127.679 446.751 152.455C463.265 156.76 479.78 161.552 495.835 166.699L495.037 169.11Z" fill="#F0F0F0"/>
<path d="M511.057 397.398L532.953 394.862L540.682 460.803L560.413 551.863C563.157 553.179 565.397 555.333 566.797 558.003C568.198 560.673 568.685 563.717 568.186 566.682C567.687 569.647 566.229 572.374 564.029 574.457C561.828 576.541 559.004 577.868 555.975 578.243C552.946 578.618 549.875 578.02 547.22 576.538C544.564 575.055 542.466 572.769 541.238 570.017C540.009 567.266 539.716 564.198 540.401 561.27C541.087 558.341 542.715 555.709 545.043 553.765L525.225 500.114L511.057 397.398Z" fill="#FFB6B6"/>
<path d="M479.247 867.5H497.287L505.871 798.991H479.244L479.247 867.5Z" fill="#FFB6B6"/>
<path d="M474.646 884.713H532.817V883.989C532.817 878.077 530.431 872.408 526.186 868.228C521.94 864.047 516.182 861.699 510.177 861.698H474.646V884.713Z" fill="#2F2E41"/>
<path d="M340.795 857.813L358.508 861.18L380.132 795.518L353.984 790.548L340.795 857.813Z" fill="#FFB6B6"/>
<path d="M332.967 873.858L390.083 884.717L390.222 884.005C391.36 878.201 390.11 872.189 386.746 867.291C383.382 862.394 378.18 859.013 372.284 857.891L337.4 851.259L332.967 873.858Z" fill="#2F2E41"/>
<path d="M507.535 289.34L497.053 309.14L418.545 292.093L427.145 253.704C433.952 223.318 461.242 201.374 492.106 208.075C522.97 214.777 537.371 244.476 530.563 274.862L517.912 313.666L505.112 310.886L507.535 289.34Z" fill="#2F2E41"/>
<path d="M535.53 507.724C535.53 507.724 543.258 545.767 532.954 601.563C522.649 657.36 520.073 681.453 520.073 681.453C520.073 681.453 527.802 690.33 522.649 695.402C517.497 700.475 522.649 710.62 522.649 710.62L511.057 833.625L471.128 827.284L476.28 711.888C476.28 711.888 471.128 701.743 473.704 699.207C476.28 696.671 471.128 681.453 471.128 681.453L464.687 560.984L424.758 692.866C424.758 692.866 428.622 697.939 424.758 701.743C420.894 705.547 413.166 724.569 413.166 724.569L387.405 813.335L346.188 805.727L369.372 704.279C369.372 704.279 366.796 697.939 370.66 694.134C371.787 692.97 372.611 691.555 373.059 690.008C373.508 688.462 373.569 686.832 373.236 685.258C373.236 685.258 369.372 681.453 374.524 676.381C379.677 671.309 382.253 651.019 382.253 651.019C382.253 651.019 386.117 515.333 398.997 507.724C411.878 500.116 535.53 507.724 535.53 507.724Z" fill="#2F2E41"/>
<path d="M477.288 297.902C497.206 297.902 513.353 282.005 513.353 262.396C513.353 242.786 497.206 226.889 477.288 226.889C457.37 226.889 441.223 242.786 441.223 262.396C441.223 282.005 457.37 297.902 477.288 297.902Z" fill="#FFB6B6"/>
<path d="M426.461 307.847C426.461 307.847 400.283 304.827 392.555 312.436L400.283 465.876C400.283 465.876 395.131 469.68 397.707 478.557C399.203 484.383 399.203 490.484 397.707 496.31C397.707 496.31 389.979 505.187 393.843 508.991C397.707 512.795 536.816 510.259 536.816 510.259C536.816 510.259 541.968 501.382 534.239 496.31C526.511 491.238 530.375 477.289 530.375 477.289C530.375 477.289 532.951 473.484 526.511 467.144C520.071 460.803 514.919 408.811 514.919 408.811L531.663 345.407C531.663 345.407 514.808 326.675 495.543 325.263L426.461 307.847Z" fill="#E6E6E6"/>
<path d="M511.708 346.278L531.663 345.405C531.663 345.405 543.256 368.231 544.544 388.521L551.637 464.211L505.902 470.947L511.708 346.278Z" fill="#E6E6E6"/>
<path d="M508.186 264.157L521.582 247.187C522.372 243.615 521.693 239.879 519.694 236.798C517.695 233.716 514.539 231.539 510.914 230.741L460.305 219.751C456.676 218.973 452.881 219.641 449.751 221.609C446.621 223.577 444.409 226.685 443.599 230.253L443.57 230.38L447.195 250.871L447.831 250.76C479.24 245.246 488.187 247.186 507.672 263.727L508.186 264.157Z" fill="#2F2E41"/>
<path d="M373.396 535.293L375.811 435.443L378.387 364.429L409.3 368.233L392.698 537.962C394.444 540.12 395.501 542.739 395.735 545.488C395.969 548.237 395.369 550.993 394.012 553.407C392.655 555.821 390.602 557.785 388.112 559.049C385.621 560.314 382.806 560.824 380.021 560.513C377.237 560.203 374.608 559.086 372.468 557.305C370.328 555.524 368.773 553.158 367.999 550.507C367.225 547.855 367.266 545.037 368.119 542.409C368.971 539.781 370.596 537.461 372.788 535.742C372.987 535.586 373.189 535.437 373.396 535.293Z" fill="#FFB6B6"/>
<path d="M415.105 314.575L392.556 312.435C392.556 312.435 388.691 312.435 384.827 325.116C380.963 337.797 359.721 471.819 359.721 471.819L406.725 476.019L415.105 314.575Z" fill="#E6E6E6"/>
<path d="M740.902 328.011C763.128 328.011 781.145 310.272 781.145 288.39C781.145 266.509 763.128 248.77 740.902 248.77C718.676 248.77 700.658 266.509 700.658 288.39C700.658 310.272 718.676 328.011 740.902 328.011Z" fill="#83BB62"/>
<path d="M750.342 313.137C742.128 313.137 734.098 310.739 727.269 306.247C720.439 301.754 715.115 295.368 711.972 287.896C708.829 280.425 708.006 272.203 709.609 264.272C711.211 256.34 715.167 249.055 720.975 243.336C726.783 237.618 734.184 233.723 742.24 232.146C750.296 230.568 758.647 231.378 766.236 234.473C773.825 237.567 780.311 242.808 784.875 249.532C789.438 256.256 791.874 264.162 791.874 272.249C791.862 283.089 787.482 293.482 779.696 301.148C771.91 308.813 761.354 313.125 750.342 313.137ZM750.342 233.896C742.638 233.896 735.106 236.146 728.7 240.36C722.294 244.574 717.3 250.564 714.352 257.572C711.404 264.58 710.632 272.291 712.135 279.731C713.638 287.171 717.348 294.004 722.797 299.368C728.245 304.732 735.186 308.385 742.743 309.864C750.299 311.344 758.132 310.585 765.25 307.682C772.368 304.779 778.452 299.863 782.733 293.556C787.013 287.249 789.298 279.834 789.298 272.249C789.287 262.081 785.179 252.332 777.875 245.142C770.572 237.952 760.671 233.908 750.342 233.896Z" fill="#3F3D56"/>
<path d="M837.083 886H64.2568C63.9152 886 63.5875 885.866 63.346 885.629C63.1044 885.391 62.9688 885.068 62.9688 884.732C62.9688 884.396 63.1044 884.073 63.346 883.835C63.5875 883.597 63.9152 883.464 64.2568 883.464H837.083C837.424 883.464 837.752 883.597 837.994 883.835C838.235 884.073 838.371 884.396 838.371 884.732C838.371 885.068 838.235 885.391 837.994 885.629C837.752 885.866 837.424 886 837.083 886Z" fill="#CACACA"/>
<path d="M783.237 834.423C779.173 835.829 774.809 836.181 770.567 835.446C766.324 834.71 762.346 832.911 759.014 830.221C750.53 823.211 747.87 811.66 745.706 800.966L739.305 769.334L752.707 778.42C762.345 784.953 772.2 791.697 778.875 801.16C785.549 810.624 788.462 823.544 783.099 833.785" fill="#FD6584"/>
<path d="M781.169 874.921C782.856 862.82 784.591 850.566 783.407 838.336C782.356 827.475 778.991 816.867 772.138 808.169C768.501 803.561 764.076 799.613 759.061 796.503C757.753 795.69 756.549 797.73 757.851 798.539C766.529 803.939 773.24 811.912 777.019 821.309C781.192 831.76 781.862 843.151 781.14 854.252C780.705 860.965 779.784 867.634 778.855 874.295C778.782 874.597 778.828 874.914 778.984 875.183C779.139 875.453 779.392 875.654 779.693 875.746C779.999 875.827 780.325 875.786 780.601 875.632C780.877 875.478 781.08 875.222 781.166 874.922L781.169 874.921Z" fill="#F2F2F2"/>
<path d="M769.026 855.507C767.283 858.116 764.887 860.238 762.069 861.67C759.251 863.102 756.106 863.795 752.937 863.683C744.793 863.302 738.002 857.706 731.89 852.397L713.812 836.677L725.777 836.114C734.381 835.709 743.208 835.331 751.409 837.943C759.61 840.555 767.163 846.842 768.661 855.189" fill="#E6E6E6"/>
<path d="M785.936 881.877C777.822 867.73 768.396 852.007 751.565 846.982C746.885 845.589 741.978 845.09 737.108 845.512C735.573 845.639 735.957 847.972 737.494 847.842C745.658 847.174 753.806 849.297 760.566 853.851C767.072 858.211 772.136 864.271 776.423 870.699C779.049 874.63 781.401 878.74 783.753 882.839C784.499 884.147 786.696 883.202 785.936 881.877Z" fill="#F2F2F2"/>
<path d="M146.044 850.892C148.97 852.095 152.162 852.535 155.311 852.171C158.461 851.806 161.462 850.65 164.026 848.812C170.561 844.013 173.012 835.636 175.064 827.869L181.126 804.89L170.887 811.01C163.523 815.41 155.991 819.957 150.676 826.637C145.361 833.318 142.672 842.68 146.174 850.432" fill="#E6E6E6"/>
<path d="M147.002 882.064C145.694 865.868 144.578 847.644 155.677 834.211C158.766 830.48 162.552 827.365 166.829 825.033C168.174 824.293 169.181 826.439 167.832 827.177C160.685 831.118 155.136 837.363 152.118 844.861C149.201 852.057 148.444 859.869 148.541 867.558C148.597 872.263 148.981 876.965 149.359 881.658C149.483 883.154 147.124 883.58 147.002 882.064Z" fill="#F2F2F2"/>
<path d="M122.686 481.082C154.635 481.082 180.536 455.582 180.536 424.128C180.536 392.673 154.635 367.173 122.686 367.173C90.7362 367.173 64.8359 392.673 64.8359 424.128C64.8359 455.582 90.7362 481.082 122.686 481.082Z" fill="#E4E4E4"/>
<path d="M87.7633 226.156C93.4543 226.156 98.0677 221.614 98.0677 216.011C98.0677 210.408 93.4543 205.866 87.7633 205.866C82.0724 205.866 77.459 210.408 77.459 216.011C77.459 221.614 82.0724 226.156 87.7633 226.156Z" fill="#F2F2F2"/>
<path d="M617.148 175.432C622.839 175.432 627.452 170.89 627.452 165.287C627.452 159.684 622.839 155.142 617.148 155.142C611.457 155.142 606.844 159.684 606.844 165.287C606.844 170.89 611.457 175.432 617.148 175.432Z" fill="#FD6584"/>
<path d="M685.414 535.571C691.105 535.571 695.718 531.029 695.718 525.426C695.718 519.823 691.105 515.281 685.414 515.281C679.723 515.281 675.109 519.823 675.109 525.426C675.109 531.029 679.723 535.571 685.414 535.571Z" fill="#F2F2F2"/>
<path d="M223.944 255.703L224.335 253.196L274.662 260.797C269.533 255.923 252.549 240.848 237.145 239.32C218.743 237.494 210.647 245.249 209.577 255.702C208.507 266.154 214.868 275.345 233.27 277.171C248.869 278.719 268.875 266.972 274.611 263.356L223.944 255.703Z" fill="#F2F2F2"/>
<path d="M705.529 121.392L703.976 119.368L744.607 89.1577C737.482 89.3773 714.663 90.8487 702.808 100.652C688.646 112.363 688.645 123.484 695.508 131.529C702.371 139.573 713.498 141.494 727.661 129.783C739.666 119.856 745.066 97.5471 746.433 90.9783L705.529 121.392Z" fill="#F2F2F2"/>
<path d="M609.592 412.213L608.475 410.757L637.707 389.023C632.581 389.181 616.164 390.239 607.635 397.292C597.446 405.718 597.446 413.719 602.383 419.506C607.32 425.294 615.325 426.675 625.515 418.25C634.152 411.108 638.037 395.058 639.021 390.333L609.592 412.213Z" fill="#F2F2F2"/>
<path d="M378.189 66.2605C386.109 45.2964 404.821 27.182 427.434 25.0273C413.839 45.3371 407.979 69.7267 410.891 93.8808C412.048 103.192 414.32 113.43 409.221 121.355C406.049 126.286 400.459 129.321 394.696 130.691C388.932 132.061 382.927 131.955 377 131.841L375.673 132.486C371.504 110.499 370.269 87.2246 378.189 66.2605Z" fill="#F0F0F0"/>
<path d="M427.543 25.4842C412.128 36.087 400.497 51.2023 394.304 68.6832C392.903 72.4231 392.11 76.3571 391.953 80.3403C391.927 84.2253 392.959 88.0461 394.941 91.4058C396.725 94.5749 398.922 97.6131 399.893 101.154C400.362 102.974 400.435 104.871 400.108 106.72C399.78 108.57 399.059 110.33 397.992 111.886C395.436 115.832 391.592 118.637 387.736 121.252C383.455 124.156 378.962 127.105 376.342 131.667C376.025 132.219 375.172 131.702 375.489 131.15C380.047 123.214 389.611 120.332 395.463 113.591C398.193 110.445 399.977 106.47 399.133 102.282C398.395 98.6193 396.131 95.4843 394.297 92.2909C392.315 89.0414 391.171 85.3634 390.966 81.5784C390.916 77.6002 391.554 73.6427 392.853 69.8753C395.64 61.3478 399.772 53.3047 405.096 46.0408C411.127 37.7173 418.559 30.4707 427.071 24.6146C427.598 24.2523 428.067 25.1243 427.543 25.4842Z" fill="white"/>
<path d="M395.963 62.9388C393.125 61.5177 390.892 59.1496 389.664 56.2576C388.436 53.3656 388.292 50.1379 389.257 47.1509C389.455 46.5471 390.417 46.821 390.219 47.4255C389.315 50.2053 389.449 53.212 390.599 55.9027C391.748 58.5935 393.836 60.7911 396.487 62.099C397.063 62.3839 396.535 63.222 395.963 62.9388Z" fill="white"/>
<path d="M393.822 89.9161C400.028 87.9862 405.268 83.8241 408.496 78.2598C408.815 77.7082 409.668 78.2252 409.349 78.7761C405.979 84.5603 400.517 88.8807 394.054 90.875C393.438 91.0647 393.209 90.1047 393.822 89.9161Z" fill="white"/>
<path d="M411.814 38.8365C412.795 39.6116 413.957 40.1346 415.195 40.3584C416.433 40.5822 417.707 40.4998 418.905 40.1187C419.518 39.9214 419.746 40.8816 419.137 41.0776C417.812 41.4926 416.404 41.5819 415.036 41.3376C413.668 41.0933 412.382 40.5229 411.289 39.6763C411.179 39.605 411.101 39.4952 411.071 39.3692C411.04 39.2433 411.06 39.1106 411.125 38.9982C411.195 38.8874 411.306 38.8082 411.435 38.7779C411.564 38.7476 411.7 38.7687 411.814 38.8365Z" fill="white"/>
<path d="M481.939 78.4652C481.56 78.5991 481.18 78.733 480.799 78.8749C475.706 80.7011 470.773 82.9315 466.048 85.5443C465.679 85.7406 465.309 85.945 464.947 86.1513C453.63 92.5654 443.622 100.992 435.431 111.003C432.175 114.99 429.232 119.215 426.627 123.641C423.03 129.754 419.624 136.664 414.341 141.118C413.795 141.589 413.22 142.026 412.619 142.427L376.574 134.03C376.502 133.971 376.428 133.919 376.355 133.859L374.9 133.589C375.019 133.351 375.146 133.108 375.264 132.87C375.332 132.732 375.408 132.596 375.476 132.458C375.524 132.366 375.572 132.275 375.61 132.19C375.626 132.159 375.642 132.129 375.656 132.106C375.694 132.021 375.738 131.946 375.774 131.869C376.485 130.504 377.206 129.141 377.938 127.782C377.94 127.773 377.94 127.773 377.95 127.767C383.427 117.353 390.14 107.615 397.948 98.7573C398.185 98.4961 398.423 98.2267 398.676 97.9693C402.242 94.0741 406.126 90.4723 410.288 87.1999C412.573 85.4153 414.948 83.7457 417.404 82.1976C423.759 78.2093 430.711 75.23 438.006 73.3687C452.549 69.6605 468.135 70.5726 480.965 77.8961C481.293 78.0837 481.613 78.2695 481.939 78.4652Z" fill="#F0F0F0"/>
<path d="M481.751 78.8966C462.958 78.2248 444.429 83.3997 428.794 93.6863C425.388 95.8419 422.348 98.5126 419.787 101.6C417.391 104.687 415.879 108.349 415.406 112.206C414.893 115.794 414.789 119.523 413.399 122.925C412.66 124.656 411.559 126.214 410.166 127.497C408.774 128.779 407.122 129.758 405.318 130.368C400.864 132.003 396.079 131.964 391.401 131.767C386.208 131.548 380.816 131.239 375.935 133.328C375.344 133.581 374.979 132.663 375.57 132.41C384.062 128.775 393.462 132.143 402.256 130.229C406.36 129.336 410.215 127.22 412.102 123.375C413.753 120.013 413.863 116.169 414.351 112.531C414.756 108.762 416.092 105.147 418.242 102.004C420.635 98.7977 423.565 96.0162 426.906 93.7781C434.346 88.6213 442.564 84.6483 451.257 82.0046C461.162 78.9332 471.528 77.5526 481.906 77.9225C482.548 77.9456 482.389 78.9196 481.751 78.8966Z" fill="white"/>
<path d="M433.63 90.0824C432.233 87.2655 431.899 84.0514 432.687 81.0143C433.475 77.9771 435.334 75.3145 437.931 73.5021C438.458 73.1371 439.059 73.9261 438.532 74.2915C436.109 75.9749 434.378 78.4553 433.65 81.2849C432.922 84.1146 433.246 87.1073 434.563 89.7227C434.848 90.2914 433.914 90.6478 433.63 90.0824Z" fill="white"/>
<path d="M415.423 110.354C421.559 112.492 428.287 112.274 434.268 109.745C434.86 109.494 435.224 110.412 434.633 110.663C428.405 113.283 421.402 113.496 415.022 111.257C414.414 111.043 414.818 110.141 415.423 110.354Z" fill="white"/>
<path d="M461.025 80.2334C461.334 81.4342 461.942 82.5404 462.794 83.4527C463.645 84.3651 464.713 85.0549 465.903 85.4604C466.513 85.6665 466.108 86.5685 465.502 86.3637C464.19 85.9098 463.011 85.1465 462.068 84.1405C461.125 83.1346 460.447 81.9166 460.092 80.593C460.048 80.471 460.053 80.3371 460.106 80.2184C460.158 80.0998 460.255 80.0053 460.376 79.9543C460.5 79.9073 460.637 79.9102 460.759 79.9625C460.88 80.0147 460.976 80.1121 461.025 80.2334Z" fill="white"/>
<path d="M268.705 355.387C276.625 334.423 295.337 316.308 317.95 314.153C304.355 334.463 298.495 358.853 301.406 383.007C302.563 392.318 304.835 402.556 299.737 410.481C296.565 415.412 290.974 418.447 285.211 419.817C279.448 421.187 273.443 421.081 267.515 420.967L266.188 421.612C262.019 399.625 260.785 376.351 268.705 355.387Z" fill="#F0F0F0"/>
<path d="M318.061 314.61C302.645 325.213 291.015 340.328 284.822 357.809C283.421 361.549 282.627 365.483 282.47 369.466C282.445 373.351 283.477 377.172 285.458 380.532C287.242 383.701 289.44 386.739 290.41 390.28C290.879 392.1 290.953 393.996 290.625 395.846C290.298 397.696 289.577 399.456 288.51 401.012C285.954 404.958 282.11 407.763 278.254 410.378C273.973 413.282 269.479 416.231 266.86 420.793C266.543 421.345 265.69 420.828 266.007 420.276C270.564 412.34 280.129 409.458 285.98 402.716C288.711 399.571 290.494 395.596 289.65 391.408C288.912 387.745 286.649 384.61 284.815 381.417C282.832 378.167 281.689 374.489 281.483 370.704C281.434 366.726 282.072 362.769 283.371 359.001C286.158 350.474 290.289 342.431 295.614 335.167C301.644 326.843 309.076 319.597 317.589 313.741C318.116 313.378 318.584 314.25 318.061 314.61Z" fill="white"/>
<path d="M286.478 352.065C283.64 350.644 281.408 348.276 280.18 345.384C278.951 342.492 278.807 339.264 279.773 336.277C279.971 335.673 280.933 335.947 280.735 336.551C279.83 339.331 279.965 342.338 281.114 345.029C282.264 347.719 284.352 349.917 287.003 351.225C287.578 351.51 287.051 352.348 286.478 352.065Z" fill="white"/>
<path d="M284.339 379.042C290.546 377.112 295.785 372.95 299.013 367.386C299.333 366.834 300.185 367.351 299.866 367.902C296.496 373.686 291.035 378.007 284.571 380.001C283.955 380.191 283.726 379.231 284.339 379.042Z" fill="white"/>
<path d="M302.329 327.963C303.311 328.738 304.473 329.261 305.71 329.484C306.948 329.708 308.223 329.626 309.42 329.245C310.034 329.048 310.262 330.008 309.653 330.204C308.328 330.619 306.92 330.708 305.552 330.464C304.184 330.219 302.897 329.649 301.805 328.802C301.695 328.731 301.617 328.621 301.586 328.495C301.556 328.369 301.575 328.237 301.64 328.124C301.71 328.013 301.822 327.934 301.951 327.904C302.08 327.874 302.216 327.895 302.329 327.963Z" fill="white"/>
<path d="M372.457 367.591C372.077 367.725 371.698 367.859 371.316 368.001C366.224 369.827 361.291 372.058 356.565 374.67C356.197 374.867 355.826 375.071 355.464 375.277C344.148 381.691 334.14 390.118 325.948 400.129C322.692 404.116 319.749 408.34 317.144 412.767C313.547 418.88 310.141 425.789 304.858 430.244C304.313 430.715 303.738 431.152 303.137 431.553L267.092 423.156C267.02 423.097 266.945 423.045 266.873 422.985L265.418 422.715C265.536 422.477 265.664 422.234 265.782 421.996C265.85 421.858 265.926 421.722 265.994 421.584C266.042 421.492 266.09 421.401 266.128 421.316C266.144 421.285 266.16 421.255 266.174 421.232C266.212 421.147 266.256 421.072 266.292 420.995C267.002 419.63 267.723 418.267 268.455 416.908C268.457 416.899 268.457 416.899 268.467 416.893C273.945 406.479 280.658 396.741 288.466 387.883C288.703 387.622 288.941 387.353 289.194 387.095C292.76 383.2 296.643 379.598 300.805 376.326C303.09 374.541 305.465 372.872 307.922 371.324C314.276 367.335 321.229 364.356 328.524 362.495C343.067 358.786 358.652 359.699 371.482 367.022C371.81 367.21 372.131 367.395 372.457 367.591Z" fill="#F0F0F0"/>
<path d="M372.267 368.023C353.474 367.351 334.944 372.526 319.309 382.812C315.903 384.968 312.864 387.639 310.303 390.726C307.907 393.813 306.394 397.475 305.922 401.332C305.408 404.92 305.305 408.649 303.914 412.051C303.176 413.782 302.075 415.34 300.682 416.623C299.29 417.905 297.637 418.884 295.834 419.494C291.38 421.129 286.595 421.09 281.917 420.893C276.723 420.674 271.332 420.365 266.451 422.454C265.859 422.708 265.495 421.789 266.086 421.537C274.578 417.901 283.977 421.269 292.772 419.355C296.875 418.462 300.73 416.346 302.618 412.501C304.268 409.139 304.378 405.295 304.866 401.658C305.271 397.888 306.607 394.274 308.758 391.13C311.151 387.924 314.081 385.142 317.422 382.904C324.862 377.747 333.079 373.774 341.773 371.131C351.678 368.059 362.044 366.679 372.422 367.049C373.064 367.072 372.905 368.046 372.267 368.023Z" fill="white"/>
<path d="M324.146 379.208C322.749 376.391 322.415 373.177 323.203 370.14C323.991 367.103 325.849 364.44 328.447 362.628C328.974 362.263 329.575 363.052 329.047 363.418C326.625 365.101 324.894 367.581 324.166 370.411C323.438 373.241 323.762 376.233 325.078 378.849C325.364 379.417 324.43 379.774 324.146 379.208Z" fill="white"/>
<path d="M305.94 399.48C312.076 401.618 318.805 401.4 324.785 398.871C325.377 398.62 325.742 399.538 325.15 399.789C318.922 402.409 311.919 402.622 305.539 400.383C304.932 400.169 305.336 399.267 305.94 399.48Z" fill="white"/>
<path d="M351.542 369.359C351.852 370.56 352.46 371.666 353.311 372.579C354.163 373.491 355.231 374.181 356.42 374.586C357.03 374.792 356.626 375.694 356.019 375.49C354.707 375.036 353.529 374.272 352.586 373.266C351.643 372.261 350.964 371.043 350.61 369.719C350.566 369.597 350.571 369.463 350.623 369.344C350.676 369.226 350.773 369.131 350.893 369.08C351.017 369.033 351.155 369.036 351.276 369.088C351.398 369.141 351.493 369.238 351.542 369.359Z" fill="white"/>
<path d="M717.389 512.523C713.347 497.647 716.517 480.136 728.338 470.053C728.929 486.788 735.514 502.778 746.927 515.194C751.347 519.967 756.767 524.822 757.113 531.271C757.133 535.335 755.567 539.251 752.739 542.212C749.926 545.129 746.744 547.68 743.272 549.801L742.788 550.684C731.546 539.978 721.431 527.398 717.389 512.523Z" fill="#F0F0F0"/>
<path d="M728.584 470.267C724.223 482.268 723.814 495.316 727.415 507.559C728.143 510.208 729.29 512.727 730.815 515.025C732.373 517.215 734.499 518.955 736.972 520.063C739.351 520.967 741.609 522.152 743.698 523.592C744.698 524.43 745.507 525.466 746.072 526.632C746.637 527.799 746.945 529.07 746.976 530.362C746.959 533.555 746.291 536.711 745.011 539.644C743.784 542.954 742.455 546.373 742.832 549.961C742.877 550.396 742.189 550.44 742.144 550.006C741.489 543.763 745.691 538.392 746.246 532.312C746.458 530.91 746.341 529.48 745.904 528.13C745.468 526.78 744.723 525.547 743.728 524.524C741.831 522.757 739.291 521.886 736.969 520.813C734.541 519.767 732.41 518.151 730.762 516.107C729.124 513.894 727.88 511.422 727.083 508.797C725.196 502.917 724.258 496.781 724.306 490.614C724.322 483.575 725.56 476.591 727.967 469.964C728.116 469.554 728.732 469.859 728.584 470.267Z" fill="white"/>
<path d="M726.021 503.684C723.853 504 721.641 503.546 719.781 502.405C717.92 501.264 716.533 499.508 715.866 497.453C715.732 497.036 716.383 496.813 716.517 497.229C717.134 499.145 718.427 500.78 720.162 501.839C721.896 502.898 723.958 503.313 725.976 503.007C726.414 502.941 726.457 503.618 726.021 503.684Z" fill="white"/>
<path d="M735.741 519.667C738.443 516.148 739.699 511.756 739.259 507.365C739.215 506.93 739.902 506.886 739.946 507.321C740.396 511.89 739.08 516.458 736.259 520.114C735.99 520.462 735.473 520.013 735.741 519.667Z" fill="white"/>
<path d="M725.16 483.935C726.025 483.984 726.888 483.822 727.674 483.462C728.459 483.102 729.141 482.556 729.659 481.872C729.924 481.52 730.441 481.97 730.178 482.319C729.602 483.072 728.848 483.674 727.981 484.074C727.114 484.474 726.161 484.658 725.205 484.612C725.115 484.615 725.026 484.584 724.958 484.525C724.89 484.466 724.847 484.384 724.839 484.296C724.833 484.206 724.864 484.118 724.924 484.05C724.984 483.983 725.069 483.941 725.16 483.935Z" fill="white"/>
<path d="M780.568 478.661C780.409 478.885 780.25 479.109 780.094 479.338C777.974 482.362 776.108 485.549 774.514 488.87C774.386 489.125 774.261 489.385 774.141 489.643C770.386 497.684 768.18 506.342 767.635 515.175C767.421 518.691 767.479 522.217 767.809 525.724C768.265 530.567 769.15 535.782 767.989 540.356C767.873 540.834 767.727 541.305 767.552 541.766L743.92 551.197C743.855 551.192 743.792 551.192 743.727 551.187L742.801 551.606C742.772 551.426 742.745 551.239 742.715 551.06C742.697 550.955 742.684 550.849 742.667 550.745C742.657 550.675 742.647 550.605 742.633 550.542C742.63 550.519 742.627 550.495 742.625 550.477C742.612 550.414 742.607 550.355 742.596 550.297C742.442 549.253 742.295 548.205 742.155 547.154C742.153 547.149 742.153 547.149 742.156 547.142C741.014 539.146 740.84 531.046 741.637 523.01C741.664 522.77 741.689 522.526 741.727 522.282C742.152 518.696 742.873 515.15 743.885 511.68C744.445 509.782 745.102 507.913 745.854 506.08C747.806 501.348 750.503 496.947 753.844 493.04C760.506 485.251 769.624 479.647 779.791 478.724C780.051 478.7 780.306 478.679 780.568 478.661Z" fill="#F0F0F0"/>
<path d="M780.636 478.977C769.816 485.974 761.509 496.15 756.898 508.06C755.859 510.606 755.234 513.298 755.046 516.036C754.951 518.709 755.584 521.359 756.881 523.709C758.228 525.841 759.306 528.125 760.093 530.513C760.38 531.775 760.392 533.081 760.13 534.348C759.868 535.614 759.336 536.812 758.571 537.862C756.605 540.401 754.141 542.525 751.325 544.108C748.321 546.023 745.17 547.966 743.276 551.054C743.047 551.428 742.47 551.056 742.699 550.682C745.994 545.309 752.634 543.511 756.796 538.986C757.821 537.992 758.603 536.781 759.08 535.444C759.557 534.108 759.717 532.682 759.548 531.275C759.113 528.74 757.618 526.539 756.42 524.306C755.121 522.031 754.408 519.478 754.342 516.869C754.387 514.131 754.906 511.419 755.875 508.852C757.964 503.038 760.968 497.583 764.778 492.688C769.094 487.077 774.354 482.234 780.329 478.37C780.699 478.13 781.004 478.74 780.636 478.977Z" fill="white"/>
<path d="M758.153 504.139C756.229 503.106 754.74 501.433 753.953 499.419C753.165 497.405 753.131 495.181 753.855 493.144C754.003 492.733 754.66 492.94 754.512 493.352C753.834 495.247 753.866 497.319 754.603 499.193C755.34 501.067 756.733 502.62 758.531 503.571C758.922 503.779 758.542 504.345 758.153 504.139Z" fill="white"/>
<path d="M756.139 522.662C760.449 521.454 764.138 518.692 766.47 514.925C766.701 514.552 767.278 514.924 767.047 515.297C764.612 519.212 760.767 522.079 756.28 523.326C755.852 523.445 755.713 522.78 756.139 522.662Z" fill="white"/>
<path d="M769.543 487.86C770.203 488.413 770.992 488.795 771.839 488.973C772.687 489.151 773.566 489.119 774.397 488.88C774.823 488.757 774.961 489.422 774.538 489.545C773.618 489.805 772.647 489.839 771.711 489.644C770.774 489.45 769.9 489.032 769.165 488.428C769.091 488.377 769.04 488.3 769.021 488.213C769.003 488.125 769.019 488.034 769.066 487.958C769.116 487.883 769.195 487.831 769.284 487.813C769.373 487.795 769.466 487.812 769.543 487.86Z" fill="white"/>
</g>
<defs>
<clipPath id="clip0_646_2190">
<rect width="837.875" height="886" fill="white" transform="translate(0.496094)"/>
</clipPath>
</defs>
</svg>
