<svg width="734" height="591" viewBox="0 0 734 591" fill="none" xmlns="http://www.w3.org/2000/svg">
<g clip-path="url(#clip0_627_1006)">
<path d="M254.332 575.578L261.543 577.858L273.306 549.575L262.663 546.21L254.332 575.578Z" fill="#FFB8B8"/>
<path d="M253.197 572.51L267.399 577.001C269.799 577.76 271.816 579.495 273.005 581.824C274.194 584.153 274.458 586.885 273.739 589.419L273.651 589.729L250.398 582.376L253.197 572.51Z" fill="#2F2E41"/>
<path d="M322.862 581.798L329.93 579.062L323.299 548.978L312.867 553.016L322.862 581.798Z" fill="#FFB8B8"/>
<path d="M320.215 580.06L334.134 574.671C336.487 573.761 339.086 573.874 341.359 574.987C343.633 576.099 345.394 578.119 346.257 580.603L346.363 580.907L323.573 589.729L320.215 580.06Z" fill="#2F2E41"/>
<path d="M266.423 524.379L254.143 567.166L268.879 571.705L283.002 532.158L266.423 524.379Z" fill="#2F2E41"/>
<path d="M305.107 534.103L316.16 574.297L331.511 566.518L320.459 528.917L305.107 534.103Z" fill="#2F2E41"/>
<path d="M299.355 541.353C289.525 541.305 279.718 540.35 270.046 538.499L269.8 538.446V528.558L264.188 527.9L268.568 511.382C266.526 485.933 269.428 453.705 270.367 444.429C270.582 442.254 270.723 441.033 270.723 441.033L275.648 396.831L283.89 388.8L287.633 391.372L294.578 398.704C302.651 419.679 309.056 439.425 309.096 440.694L336.168 532.287L335.985 532.423C326.585 539.429 312.256 541.353 299.355 541.353Z" fill="#3F3D56"/>
<path opacity="0.2" d="M279.141 416.437L277.248 428.911L290.062 434.492L279.141 416.437Z" fill="black"/>
<path d="M304.286 388.734H274.658C274.049 388.734 273.464 388.478 273.033 388.023C272.602 387.568 272.36 386.951 272.359 386.307V372.824C272.368 368.038 274.175 363.452 277.383 360.071C280.592 356.691 284.939 354.792 289.472 354.792C294.005 354.792 298.352 356.691 301.56 360.071C304.769 363.452 306.576 368.038 306.585 372.824V386.307C306.584 386.951 306.341 387.568 305.911 388.023C305.48 388.478 304.895 388.734 304.286 388.734Z" fill="#2F2E41"/>
<path d="M292.744 387.922C299.673 387.922 305.29 381.991 305.29 374.676C305.29 367.36 299.673 361.429 292.744 361.429C285.814 361.429 280.197 367.36 280.197 374.676C280.197 381.991 285.814 387.922 292.744 387.922Z" fill="#FFB8B8"/>
<path d="M310.634 374.172H292.517L292.331 371.426L291.402 374.172H288.613L288.245 368.73L286.404 374.172H281.006V373.903C281.01 370.113 282.437 366.481 284.975 363.801C287.513 361.122 290.954 359.615 294.543 359.61H297.097C300.686 359.615 304.127 361.122 306.664 363.801C309.202 366.481 310.63 370.113 310.634 373.903V374.172Z" fill="#2F2E41"/>
<path d="M292.368 391.251C292.232 391.251 292.095 391.238 291.961 391.213L278.695 388.742V365.594H293.298L292.937 366.039C287.907 372.233 291.696 382.276 294.403 387.712C294.603 388.11 294.691 388.559 294.66 389.009C294.628 389.458 294.476 389.888 294.223 390.25C294.011 390.56 293.732 390.813 293.41 390.986C293.087 391.16 292.73 391.251 292.368 391.251Z" fill="#2F2E41"/>
<path d="M315.776 447.201H308.505C308.271 447.202 308.046 447.111 307.873 446.945C307.701 446.78 307.593 446.552 307.571 446.307L306.115 430.556H318.166L316.71 446.307C316.688 446.552 316.581 446.78 316.408 446.945C316.235 447.111 316.01 447.202 315.776 447.201Z" fill="#83BB62"/>
<path d="M318.146 432.537H306.134C305.885 432.537 305.646 432.433 305.471 432.247C305.295 432.061 305.196 431.809 305.195 431.547V429.169C305.196 428.906 305.295 428.654 305.471 428.468C305.646 428.283 305.885 428.178 306.134 428.178H318.146C318.395 428.178 318.633 428.283 318.809 428.468C318.985 428.654 319.084 428.906 319.084 429.169V431.547C319.084 431.809 318.985 432.061 318.809 432.247C318.633 432.433 318.395 432.537 318.146 432.537Z" fill="#2F2E41"/>
<path opacity="0.2" d="M271.027 440.424C274.367 444.506 278.896 447.301 283.903 448.37C288.911 449.438 294.113 448.72 298.691 446.328L301.422 444.901L271.027 440.424Z" fill="black"/>
<path d="M314.686 437.375C314.126 436.711 313.435 436.185 312.662 435.833C311.889 435.482 311.052 435.313 310.211 435.34C309.37 435.367 308.544 435.588 307.792 435.988C307.041 436.389 306.381 436.958 305.861 437.656L293.193 433.901L289.154 441.473L307.114 446.51C308.283 447.356 309.706 447.719 311.112 447.532C312.518 447.344 313.81 446.619 314.743 445.493C315.676 444.367 316.186 442.919 316.175 441.422C316.165 439.926 315.635 438.486 314.686 437.375Z" fill="#FFB8B8"/>
<path d="M284.458 445.777C278.435 445.778 270.286 442.049 260.612 434.828C260.073 434.434 259.617 433.925 259.274 433.335C258.93 432.745 258.707 432.086 258.617 431.4C257.903 426.627 262.313 420.175 262.745 419.556L267.381 406.116C267.434 405.898 268.928 400.083 272.678 398.014C273.468 397.586 274.336 397.344 275.223 397.304C276.109 397.264 276.993 397.427 277.815 397.783C284.958 400.529 279.38 421.737 278.614 424.518L288.079 429.221L294.089 433.266L302.32 434.175L300.085 445.094L287.585 445.391C286.562 445.656 285.511 445.785 284.458 445.777Z" fill="#3F3D56"/>
<path d="M733.731 346.165C733.724 333.405 731.029 320.806 725.842 309.282C720.654 297.757 713.103 287.595 703.735 279.532C694.368 271.469 683.42 265.707 671.683 262.664C659.946 259.62 647.715 259.371 635.876 261.935C624.036 264.499 612.886 269.811 603.231 277.487C593.577 285.162 585.66 295.01 580.055 306.315C574.451 317.62 571.298 330.099 570.826 342.85C570.354 355.6 572.574 368.302 577.325 380.034C577.246 379.941 577.163 379.85 577.084 379.756C580.703 388.662 585.721 396.859 591.925 404.002C591.943 404.023 591.962 404.044 591.981 404.066C592.481 404.642 592.985 405.215 593.5 405.776C600.946 413.976 609.861 420.533 619.727 425.065C629.593 429.597 640.213 432.015 650.971 432.179L648.218 590.076H656.724L655.003 485.862L667.308 479.022L665.431 475.258L654.924 481.098L654.116 432.171C675.397 431.656 695.642 422.368 710.521 406.295C725.4 390.222 733.73 368.64 733.731 346.165Z" fill="#E6E6E6" fill-opacity="0.4"/>
<path d="M491.885 304.234C491.878 289.28 488.72 274.516 482.64 261.01C476.56 247.504 467.711 235.595 456.734 226.146C445.756 216.697 432.925 209.944 419.171 206.377C405.416 202.811 391.082 202.519 377.208 205.523C363.333 208.528 350.265 214.753 338.951 223.749C327.637 232.744 318.36 244.284 311.791 257.533C305.223 270.781 301.529 285.406 300.975 300.349C300.422 315.291 303.024 330.176 308.592 343.926C308.499 343.816 308.402 343.709 308.309 343.599C312.551 354.037 318.431 363.643 325.701 372.014C325.723 372.039 325.745 372.063 325.767 372.089C326.354 372.764 326.944 373.435 327.547 374.093C336.273 383.703 346.721 391.386 358.283 396.698C369.845 402.009 382.291 404.843 394.899 405.034L391.672 590.076H401.641L399.623 467.946L414.043 459.931L411.844 455.519L399.531 462.363L398.584 405.025C423.523 404.421 447.249 393.537 464.686 374.701C482.122 355.865 491.885 330.573 491.885 304.234Z" fill="#E6E6E6" fill-opacity="0.6"/>
<path d="M217.604 264.794C217.596 247.777 214.002 230.975 207.083 215.605C200.165 200.236 190.095 186.684 177.602 175.931C165.11 165.178 150.509 157.494 134.857 153.435C119.204 149.376 102.893 149.044 87.1036 152.463C71.3146 155.882 56.4438 162.966 43.5684 173.203C30.693 183.44 20.1356 196.572 12.6611 211.648C5.18664 226.725 0.982221 243.368 0.352508 260.372C-0.277206 277.376 2.68356 294.315 9.02029 309.962C8.91403 309.837 8.80423 309.716 8.69849 309.591C13.5252 321.468 20.2164 332.4 28.49 341.925C28.5147 341.954 28.5401 341.982 28.5649 342.011C29.2325 342.779 29.9038 343.543 30.5908 344.292C40.5211 355.227 52.41 363.971 65.5672 370.016C78.7245 376.06 92.8879 379.285 107.235 379.502L103.563 590.076H114.908L112.612 451.095L129.022 441.973L126.519 436.953L112.507 444.741L111.429 379.492C139.81 378.805 166.809 366.419 186.652 344.984C206.494 323.549 217.604 294.766 217.604 264.794Z" fill="#E6E6E6"/>
<path d="M202.974 314.11C281.635 314.11 345.403 246.784 345.403 163.733C345.403 80.6823 281.635 13.3563 202.974 13.3563C124.312 13.3563 60.5449 80.6823 60.5449 163.733C60.5449 246.784 124.312 314.11 202.974 314.11Z" fill="#83BB62"/>
<path opacity="0.2" d="M97.8089 63.2932C84.5234 96.1044 82.7212 132.834 92.7241 166.919C102.727 201.004 123.883 230.223 152.413 249.355C180.942 268.487 214.985 276.285 248.459 271.356C281.932 266.427 312.655 249.091 335.137 222.448C327.022 242.494 314.875 260.438 299.539 275.035C284.203 289.633 266.044 300.536 246.321 306.989C226.598 313.442 205.782 315.29 185.315 312.406C164.848 309.522 145.219 301.974 127.789 290.285C110.36 278.597 95.5451 263.047 84.3723 244.713C73.1995 226.38 65.9356 205.701 63.0838 184.109C60.232 162.517 61.8606 140.529 67.8566 119.667C73.8526 98.806 84.0727 79.5704 97.8089 63.2932Z" fill="black"/>
<path d="M203.364 163.733H203.756L210.799 590.076H195.93L203.364 163.733Z" fill="#3F3D56"/>
<path d="M226.017 389.38L202.473 402.467L205.754 409.047L229.298 395.96L226.017 389.38Z" fill="#3F3D56"/>
<path d="M420.822 586.088C420.822 586.088 421.336 574.72 431.871 576.041L420.822 586.088Z" fill="#3F3D56"/>
<path d="M417.847 575.27C420.759 575.27 423.119 572.777 423.119 569.703C423.119 566.628 420.759 564.136 417.847 564.136C414.935 564.136 412.574 566.628 412.574 569.703C412.574 572.777 414.935 575.27 417.847 575.27Z" fill="#83BB62"/>
<path d="M418.477 579.077H416.988V590.076H418.477V579.077Z" fill="#3F3D56"/>
<path d="M55.4492 584.517C55.4492 584.517 55.9631 573.148 66.4976 574.47L55.4492 584.517Z" fill="#3F3D56"/>
<path d="M52.4717 573.698C55.3836 573.698 57.7441 571.206 57.7441 568.131C57.7441 565.057 55.3836 562.565 52.4717 562.565C49.5598 562.565 47.1992 565.057 47.1992 568.131C47.1992 571.206 49.5598 573.698 52.4717 573.698Z" fill="#83BB62"/>
<path d="M53.1035 577.505H51.6152V588.505H53.1035V577.505Z" fill="#3F3D56"/>
<path d="M141.77 585.302C141.77 585.302 142.283 573.934 152.818 575.255L141.77 585.302Z" fill="#3F3D56"/>
<path d="M138.794 574.484C141.706 574.484 144.066 571.992 144.066 568.917C144.066 565.843 141.706 563.35 138.794 563.35C135.882 563.35 133.521 565.843 133.521 568.917C133.521 571.992 135.882 574.484 138.794 574.484Z" fill="#83BB62"/>
<path d="M139.424 578.291H137.936V589.29H139.424V578.291Z" fill="#3F3D56"/>
<path d="M371.335 72.6948L381.911 63.7641C373.695 62.8071 370.319 67.5379 368.937 71.2824C362.519 68.4684 355.531 72.1563 355.531 72.1563L376.692 80.267C375.624 77.2565 373.766 74.6298 371.335 72.6948Z" fill="#3F3D56"/>
<path d="M358.696 241.295L369.272 232.365C361.056 231.408 357.68 236.139 356.299 239.883C349.88 237.069 342.893 240.757 342.893 240.757L364.053 248.868C362.986 245.857 361.127 243.23 358.696 241.295Z" fill="#3F3D56"/>
<path d="M565.094 590.214C565.094 590.214 565.608 578.846 576.142 580.167L565.094 590.214Z" fill="#3F3D56"/>
<path d="M466.123 590.214C466.123 590.214 466.637 578.846 477.171 580.167L466.123 590.214Z" fill="#3F3D56"/>
<path d="M105.213 590.214C105.213 590.214 105.727 578.846 116.261 580.167L105.213 590.214Z" fill="#3F3D56"/>
<path d="M609.742 590.214C609.742 590.214 610.256 578.846 620.791 580.167L609.742 590.214Z" fill="#3F3D56"/>
<path d="M588.906 590.214C588.906 590.214 589.42 578.846 599.955 580.167L588.906 590.214Z" fill="#3F3D56"/>
<path d="M545.925 590.214C545.925 590.214 545.411 578.846 534.877 580.167L545.925 590.214Z" fill="#3F3D56"/>
<path d="M374.773 590.214C374.773 590.214 374.259 578.846 363.725 580.167L374.773 590.214Z" fill="#3F3D56"/>
<path d="M232.642 590.214C232.642 590.214 232.128 578.846 221.594 580.167L232.642 590.214Z" fill="#3F3D56"/>
<path d="M81.5796 590.214C81.5796 590.214 81.0657 578.846 70.5312 580.167L81.5796 590.214Z" fill="#3F3D56"/>
<path d="M654.57 590.214C654.57 590.214 654.056 578.846 643.521 580.167L654.57 590.214Z" fill="#3F3D56"/>
<path d="M590.574 591C590.574 591 590.06 579.632 579.525 580.953L590.574 591Z" fill="#3F3D56"/>
<path d="M734 588.728H0V590.473H734V588.728Z" fill="#3F3D56"/>
</g>
<defs>
<clipPath id="clip0_627_1006">
<rect width="734" height="591" fill="white"/>
</clipPath>
</defs>
</svg>
