<svg width="687" height="398" viewBox="0 0 687 498" fill="none" xmlns="http://www.w3.org/2000/svg">
<g clip-path="url(#clip0_639_1567)">
<path d="M249.208 373.335V493.383H549.955C584.22 493.383 612.1 466.455 612.1 433.359C612.1 400.263 584.221 373.335 549.955 373.335H249.208Z" fill="#F2F2F2"/>
<path d="M241.823 492.459C241.823 493.684 242.31 494.858 243.175 495.724C244.041 496.589 245.215 497.076 246.439 497.077H555.312C572.088 497.077 588.176 490.412 600.038 478.549C611.9 466.687 618.564 450.597 618.564 433.821C618.564 417.044 611.9 400.955 600.038 389.092C588.176 377.229 572.088 370.565 555.312 370.565H246.439C245.215 370.565 244.041 371.051 243.175 371.917C242.309 372.783 241.823 373.957 241.823 375.182C241.823 376.407 242.309 377.581 243.175 378.447C244.041 379.313 245.215 379.799 246.439 379.799H555.312C569.639 379.799 583.379 385.491 593.509 395.622C603.639 405.753 609.331 419.493 609.331 433.821C609.331 448.148 603.639 461.889 593.509 472.02C583.379 482.151 569.639 487.842 555.312 487.842H246.439C245.215 487.843 244.041 488.329 243.175 489.195C242.31 490.061 241.823 491.235 241.823 492.459Z" fill="#83BB62" fill-opacity="0.4"/>
<path d="M249.209 401.039H572.395C572.64 401.039 572.875 400.941 573.048 400.768C573.221 400.595 573.318 400.36 573.318 400.115C573.318 399.87 573.221 399.635 573.048 399.462C572.875 399.289 572.64 399.192 572.395 399.192H249.209C248.965 399.192 248.73 399.289 248.557 399.462C248.383 399.635 248.286 399.87 248.286 400.115C248.286 400.36 248.383 400.595 248.557 400.768C248.73 400.941 248.965 401.039 249.209 401.039Z" fill="#CCCCCC"/>
<path d="M249.209 423.201H572.395C572.64 423.201 572.875 423.104 573.048 422.931C573.221 422.757 573.318 422.523 573.318 422.278C573.318 422.033 573.221 421.798 573.048 421.625C572.875 421.452 572.64 421.354 572.395 421.354H249.209C248.965 421.354 248.73 421.452 248.557 421.625C248.383 421.798 248.286 422.033 248.286 422.278C248.286 422.523 248.383 422.757 248.557 422.931C248.73 423.104 248.965 423.201 249.209 423.201Z" fill="#CCCCCC"/>
<path d="M249.209 445.364H572.395C572.64 445.364 572.875 445.266 573.048 445.093C573.221 444.92 573.318 444.685 573.318 444.44C573.318 444.195 573.221 443.961 573.048 443.787C572.875 443.614 572.64 443.517 572.395 443.517H249.209C248.965 443.517 248.73 443.614 248.557 443.787C248.383 443.961 248.286 444.195 248.286 444.44C248.286 444.685 248.383 444.92 248.557 445.093C248.73 445.266 248.965 445.364 249.209 445.364Z" fill="#CCCCCC"/>
<path d="M249.209 467.526H572.395C572.64 467.526 572.875 467.429 573.048 467.256C573.221 467.083 573.318 466.848 573.318 466.603C573.318 466.358 573.221 466.123 573.048 465.95C572.875 465.777 572.64 465.68 572.395 465.68H249.209C248.965 465.68 248.73 465.777 248.557 465.95C248.383 466.123 248.286 466.358 248.286 466.603C248.286 466.848 248.383 467.083 248.557 467.256C248.73 467.429 248.965 467.526 249.209 467.526Z" fill="#CCCCCC"/>
<path d="M16.7766 395.933L92.0925 489.411L326.277 300.706C352.96 279.205 357.775 240.744 337.011 214.973C316.247 189.201 277.644 185.726 250.962 207.227L16.7766 395.933Z" fill="#F2F2F2"/>
<path d="M85.7602 493.327C86.5288 494.281 87.6443 494.89 88.8616 495.02C90.0789 495.151 91.2984 494.794 92.2521 494.026L332.765 300.221C345.828 289.695 354.175 274.41 355.969 257.73C357.763 241.05 352.858 224.34 342.333 211.277C331.808 198.213 316.524 189.866 299.845 188.072C283.166 186.277 266.457 191.183 253.394 201.708L12.8808 395.514C12.4083 395.894 12.0154 396.364 11.7244 396.896C11.4335 397.428 11.2502 398.012 11.1852 398.616C11.1201 399.219 11.1745 399.829 11.3453 400.411C11.5161 400.993 11.7998 401.535 12.1804 402.008C12.5609 402.48 13.0308 402.873 13.5632 403.163C14.0956 403.454 14.68 403.637 15.283 403.702C15.8861 403.766 16.496 403.712 17.0779 403.54C17.6598 403.369 18.2023 403.085 18.6743 402.704L259.188 208.899C264.711 204.445 271.058 201.122 277.866 199.122C284.673 197.121 291.808 196.481 298.863 197.239C305.918 197.996 312.755 200.136 318.983 203.537C325.21 206.937 330.707 211.532 335.159 217.057C339.611 222.583 342.931 228.931 344.929 235.74C346.927 242.549 347.564 249.685 346.803 256.74C346.043 263.795 343.9 270.631 340.498 276.858C337.095 283.085 332.499 288.58 326.972 293.03L86.4586 486.835C85.5055 487.604 84.8966 488.719 84.7657 489.937C84.6347 491.154 84.9925 492.374 85.7602 493.327Z" fill="#CCCCCC"/>
<path d="M34.1579 417.505L285.816 214.719C285.911 214.643 285.989 214.549 286.047 214.443C286.105 214.336 286.142 214.219 286.155 214.099C286.168 213.978 286.157 213.856 286.123 213.74C286.089 213.624 286.032 213.515 285.956 213.421C285.88 213.326 285.786 213.248 285.679 213.19C285.573 213.131 285.456 213.095 285.336 213.082C285.215 213.069 285.093 213.08 284.977 213.114C284.86 213.148 284.752 213.205 284.657 213.281L32.9992 416.067C32.9046 416.143 32.826 416.237 32.7677 416.343C32.7095 416.449 32.6727 416.566 32.6597 416.687C32.6466 416.808 32.6574 416.93 32.6916 417.046C32.7257 417.163 32.7825 417.271 32.8587 417.366C32.9348 417.46 33.0288 417.539 33.1353 417.597C33.2419 417.655 33.3588 417.692 33.4795 417.705C33.6001 417.718 33.7222 417.706 33.8386 417.672C33.955 417.638 34.0635 417.581 34.1579 417.505Z" fill="#CCCCCC"/>
<path d="M48.0612 434.762L299.719 231.977C299.91 231.823 300.031 231.6 300.057 231.356C300.083 231.113 300.012 230.869 299.858 230.679C299.705 230.488 299.482 230.367 299.238 230.34C298.995 230.314 298.751 230.385 298.561 230.538L46.9025 433.324C46.8079 433.4 46.7292 433.494 46.671 433.601C46.6127 433.707 46.576 433.824 46.5629 433.945C46.5499 434.065 46.5607 434.187 46.5948 434.304C46.629 434.42 46.6858 434.529 46.7619 434.623C46.8381 434.718 46.9321 434.796 47.0386 434.855C47.1451 434.913 47.2621 434.949 47.3827 434.962C47.5034 434.975 47.6254 434.964 47.7418 434.93C47.8583 434.895 47.9668 434.839 48.0612 434.762Z" fill="#CCCCCC"/>
<path d="M61.9665 452.02L313.625 249.234C313.815 249.081 313.937 248.857 313.963 248.614C313.99 248.37 313.918 248.126 313.764 247.936C313.611 247.745 313.388 247.623 313.144 247.597C312.901 247.571 312.657 247.642 312.466 247.796L60.8078 450.582C60.7134 450.658 60.6349 450.752 60.5768 450.858C60.5186 450.965 60.4821 451.081 60.4691 451.202C60.4561 451.323 60.467 451.445 60.5012 451.561C60.5353 451.677 60.5921 451.786 60.6682 451.88C60.7443 451.975 60.8382 452.053 60.9446 452.111C61.051 452.169 61.1678 452.206 61.2884 452.219C61.409 452.232 61.531 452.221 61.6473 452.187C61.7637 452.153 61.8721 452.096 61.9665 452.02Z" fill="#CCCCCC"/>
<path d="M75.8708 469.278L327.529 266.492C327.623 266.416 327.702 266.322 327.76 266.215C327.818 266.109 327.855 265.992 327.868 265.872C327.881 265.751 327.87 265.629 327.836 265.513C327.801 265.396 327.745 265.288 327.669 265.193C327.593 265.099 327.499 265.02 327.392 264.962C327.286 264.904 327.169 264.868 327.048 264.855C326.928 264.842 326.806 264.853 326.69 264.887C326.573 264.921 326.465 264.978 326.37 265.054L74.7121 467.839C74.6175 467.915 74.5389 468.009 74.4806 468.116C74.4223 468.222 74.3856 468.339 74.3726 468.46C74.3595 468.58 74.3703 468.703 74.4045 468.819C74.4386 468.935 74.4954 469.044 74.5716 469.139C74.6477 469.233 74.7417 469.312 74.8482 469.37C74.9548 469.428 75.0717 469.464 75.1924 469.477C75.313 469.49 75.4351 469.479 75.5515 469.445C75.6679 469.411 75.7764 469.354 75.8708 469.278Z" fill="#CCCCCC"/>
<path d="M0.923401 498H686.077C686.322 498 686.556 497.903 686.73 497.729C686.903 497.556 687 497.321 687 497.077C687 496.832 686.903 496.597 686.73 496.424C686.556 496.25 686.322 496.153 686.077 496.153H0.923401C0.678467 496.153 0.443604 496.25 0.270447 496.424C0.09729 496.597 0 496.832 0 497.077C0 497.321 0.09729 497.556 0.270447 497.729C0.443604 497.903 0.678467 498 0.923401 498Z" fill="#CCCCCC"/>
<path d="M374.82 360.717L385.376 360.716L390.396 319.996L374.816 319.998L374.82 360.717Z" fill="#FFB8B8"/>
<path d="M392.918 357.7H372.559V370.519H405.736C405.736 368.836 405.405 367.169 404.761 365.613C404.116 364.058 403.172 362.645 401.982 361.455C400.792 360.264 399.379 359.32 397.823 358.676C396.268 358.032 394.601 357.7 392.918 357.7Z" fill="#2F2E41"/>
<path d="M482.668 360.717L493.224 360.716L498.244 319.996L482.664 319.998L482.668 360.717Z" fill="#FFB8B8"/>
<path d="M500.764 357.7H480.405V370.519H513.582C513.582 368.836 513.25 367.169 512.606 365.613C511.962 364.058 511.018 362.645 509.828 361.455C508.637 360.264 507.224 359.32 505.669 358.676C504.114 358.032 502.447 357.7 500.764 357.7Z" fill="#2F2E41"/>
<path d="M447.408 58.6692V54.0519C447.408 46.1535 444.271 38.5786 438.686 32.9935C433.101 27.4085 425.527 24.2709 417.629 24.2709C409.731 24.2709 402.157 27.4085 396.572 32.9935C390.987 38.5786 387.85 46.1535 387.85 54.0519V58.6692C387.85 64.3634 390.112 69.8244 394.138 73.8508C398.164 77.8772 403.625 80.1393 409.318 80.1393H425.939C428.759 80.1393 431.55 79.5839 434.155 78.505C436.76 77.426 439.127 75.8445 441.12 73.8508C443.114 71.8572 444.695 69.4903 445.774 66.8854C446.853 64.2806 447.408 61.4887 447.408 58.6692Z" fill="#2F2E41"/>
<path d="M417.629 81.728C405.104 81.728 394.95 71.5735 394.95 59.0473C394.95 46.5211 405.104 36.3666 417.629 36.3666C430.155 36.3666 440.309 46.5211 440.309 59.0473C440.309 71.5735 430.155 81.728 417.629 81.728Z" fill="#FFB8B8"/>
<path d="M540.99 136.998C540.07 136.129 538.97 135.472 537.768 135.074C536.567 134.676 535.292 134.546 534.035 134.694C532.778 134.841 531.569 135.263 530.492 135.929C529.415 136.594 528.498 137.488 527.804 138.547L508.362 134.869L503.246 146.139L530.774 150.947C532.63 151.995 534.805 152.326 536.889 151.877C538.972 151.428 540.818 150.23 542.078 148.511C543.337 146.791 543.922 144.669 543.721 142.548C543.521 140.426 542.549 138.451 540.99 136.998Z" fill="#FFB8B8"/>
<path d="M435.057 96.3967L466.937 117.4L520.732 134.579C521.445 134.808 522.057 135.277 522.463 135.907C522.869 136.536 523.045 137.287 522.959 138.031L521.786 148.14C521.734 148.587 521.589 149.019 521.36 149.407C521.132 149.795 520.825 150.131 520.459 150.393C520.093 150.656 519.676 150.839 519.235 150.931C518.794 151.023 518.339 151.021 517.898 150.927L467.269 140.074C464.819 139.552 462.502 138.532 460.462 137.077L424.646 111.593C423.348 110.664 422.312 109.415 421.639 107.967C420.966 106.519 420.679 104.922 420.806 103.33C420.938 101.737 421.482 100.205 422.385 98.885C423.288 97.5653 424.519 96.5034 425.957 95.8038C427.394 95.1043 428.99 94.791 430.585 94.895C432.181 94.9989 433.722 95.5165 435.057 96.3967Z" fill="#CCCCCC"/>
<path d="M385.188 349.162C385.998 349.162 386.791 348.926 387.469 348.483C388.148 348.04 388.683 347.409 389.009 346.668L437.403 227.081C437.516 226.821 437.706 226.603 437.947 226.454C438.188 226.306 438.468 226.235 438.751 226.251C439.033 226.267 439.304 226.369 439.527 226.543C439.75 226.718 439.914 226.956 439.997 227.227L479.479 343.649C479.646 344.191 479.922 344.693 480.289 345.124C480.657 345.555 481.109 345.907 481.618 346.157C482.127 346.407 482.681 346.55 483.247 346.578C483.814 346.606 484.379 346.517 484.91 346.319L498.15 341.353C498.869 341.086 499.499 340.625 499.971 340.021C500.444 339.417 500.739 338.694 500.825 337.932C506.781 286.042 454.84 155.063 454.315 153.746L454.17 153.382L406.821 163.856L406.722 163.963C387.832 184.573 372.305 314.56 369.384 340.409C369.275 341.343 369.487 342.286 369.986 343.082C370.485 343.879 371.24 344.482 372.127 344.792L383.814 348.926C384.255 349.082 384.72 349.162 385.188 349.162Z" fill="#2F2E41"/>
<path d="M425.984 168.072C437.455 168.072 450.245 165.785 454.182 156.344L454.272 156.127L454.15 155.926C451.043 150.827 446.936 142.129 449.143 140.496C453.492 137.281 455.602 131.991 455.414 124.774C455.008 109.107 444.333 95.1974 428.852 90.1613C424.531 88.7784 420.134 87.6461 415.682 86.7701C412.436 86.1152 409.086 86.1873 405.872 86.9811C402.658 87.7749 399.659 89.2707 397.092 91.3612C394.492 93.4654 392.39 96.1193 390.938 99.1323C389.486 102.145 388.719 105.442 388.693 108.787C388.53 125.53 391.108 148.849 404.309 164.859C404.928 165.602 405.789 166.102 406.74 166.273C413.092 167.422 419.53 168.024 425.984 168.072Z" fill="#CCCCCC"/>
<path d="M430.251 167.445C429.627 165.205 428.144 163.303 426.125 162.15C424.105 160.998 421.713 160.689 419.467 161.291C419.009 161.419 418.562 161.585 418.13 161.786L403.369 148.351L393.102 155.268L414.213 173.95C415.166 175.669 416.667 177.02 418.476 177.787C420.285 178.555 422.299 178.695 424.197 178.186C425.303 177.883 426.338 177.364 427.242 176.659C428.146 175.954 428.901 175.077 429.464 174.078C430.027 173.079 430.387 171.979 430.522 170.84C430.657 169.702 430.565 168.548 430.251 167.445Z" fill="#FFB8B8"/>
<path d="M405.707 167.616C406.665 167.616 407.593 167.285 408.334 166.678L414.156 161.921C414.641 161.524 415.03 161.023 415.295 160.455C415.559 159.886 415.691 159.266 415.681 158.639C415.671 158.012 415.52 157.396 415.239 156.836C414.957 156.276 414.552 155.787 414.055 155.406L389.639 136.678C389.35 136.455 389.16 136.127 389.111 135.765C389.062 135.403 389.158 135.036 389.377 134.744L404.447 114.82C406.198 112.513 407.076 109.66 406.926 106.768C406.777 103.875 405.608 101.129 403.628 99.0157C401.543 96.7633 398.687 95.3772 395.627 95.1325C392.567 94.8877 389.528 95.8022 387.111 97.6945L387.015 97.7951L371.279 120.329C369.577 121.664 368.207 123.373 367.275 125.325C366.344 127.276 365.876 129.416 365.908 131.579C365.94 133.741 366.472 135.866 367.461 137.789C368.45 139.712 369.871 141.38 371.612 142.663L403.233 166.801C403.95 167.33 404.817 167.616 405.707 167.616Z" fill="#CCCCCC"/>
<path d="M437.717 52.6668V41.4136L417.628 32.6409L398.473 41.4136V52.6668C398.473 53.1566 398.667 53.6264 399.014 53.9727C399.36 54.3191 399.83 54.5137 400.32 54.5137H435.87C436.36 54.5137 436.83 54.3191 437.176 53.9727C437.522 53.6264 437.717 53.1566 437.717 52.6668Z" fill="#2F2E41"/>
<path d="M418.55 25.7637C421.504 16.309 415.3 5.47351 406.13 1.7311C396.959 -2.01131 385.987 0.604746 378.249 6.78777C370.511 12.9708 365.71 22.2318 363.166 31.8049C360.622 41.3781 360.139 51.3605 359.67 61.2548C348.402 63.3246 340.738 76.6895 344.641 87.4606C348.544 98.2317 362.991 103.583 372.968 97.953C382.946 92.3232 385.835 77.1898 378.635 68.2794C375.227 64.0632 373.324 58.8307 373.226 53.4106C373.128 47.9905 374.841 42.6927 378.094 38.3562C381.347 34.0197 385.953 30.8924 391.184 29.4697C396.415 28.0469 401.97 28.4101 406.971 30.5016C412.524 32.824 419.492 26.7899 418.55 25.7637Z" fill="#2F2E41"/>
<path d="M545.155 93.3443C558.645 93.2557 571.966 90.3379 584.258 84.7794C584.99 84.4533 585.611 83.9214 586.046 83.2485C586.481 82.5756 586.71 81.7908 586.707 80.9896V47.3597C586.706 46.258 586.268 45.2017 585.489 44.4227C584.71 43.6436 583.653 43.2054 582.552 43.2042H507.757C506.656 43.2055 505.6 43.6437 504.821 44.4227C504.042 45.2017 503.603 46.258 503.602 47.3597V80.9897C503.599 81.7908 503.829 82.5756 504.263 83.2485C504.698 83.9214 505.319 84.4533 506.051 84.7795C518.343 90.338 531.664 93.2557 545.155 93.3443Z" fill="#83BB62"/>
<path d="M545.165 66.1C545.72 66.1005 546.269 65.9901 546.78 65.7753L606.091 40.7504C606.856 40.4277 607.506 39.8833 607.959 39.1873C608.412 38.4914 608.645 37.6758 608.63 36.8458C608.615 36.0157 608.351 35.2093 607.874 34.5304C607.396 33.8515 606.726 33.3313 605.95 33.0369L546.638 10.5346C545.682 10.1705 544.626 10.1728 543.673 10.5409L485.156 33.0431C484.384 33.3399 483.718 33.8603 483.244 34.5375C482.769 35.2148 482.508 36.0182 482.492 36.845C482.477 37.6718 482.709 38.4843 483.158 39.1787C483.607 39.873 484.253 40.4176 485.013 40.7427L543.531 65.7672C544.048 65.9873 544.604 66.1005 545.165 66.1Z" fill="#83BB62"/>
<path d="M579.782 87.0676C576.722 87.0676 574.242 84.587 574.242 81.527C574.242 78.467 576.722 75.9863 579.782 75.9863C582.842 75.9863 585.322 78.467 585.322 81.527C585.322 84.587 582.842 87.0676 579.782 87.0676Z" fill="#3F3D56"/>
<path opacity="0.2" d="M484.811 37.1905L543.329 62.2151C543.785 62.4102 544.276 62.5113 544.772 62.5125C545.268 62.5137 545.759 62.4149 546.217 62.2221L605.527 37.1978C606.272 36.8911 606.894 36.3448 607.294 35.6454C607.555 36.099 607.717 36.6029 607.769 37.1239C607.821 37.6449 607.761 38.1709 607.594 38.6671C607.427 39.1632 607.157 39.6182 606.8 40.0017C606.444 40.3853 606.01 40.6886 605.527 40.8916L546.217 65.9158C545.759 66.1087 545.268 66.2075 544.772 66.2063C544.276 66.2051 543.785 66.1039 543.329 65.9088L484.811 40.8843C484.331 40.6795 483.9 40.3752 483.546 39.9915C483.192 39.6078 482.923 39.1534 482.758 38.6583C482.593 38.1632 482.534 37.6386 482.587 37.1193C482.639 36.5999 482.801 36.0976 483.061 35.6454C483.458 36.3392 484.073 36.8824 484.811 37.1905Z" fill="black"/>
<path d="M579.317 81.5053C579.072 81.5053 578.837 81.4081 578.664 81.2349C578.491 81.0617 578.393 80.8268 578.393 80.5819V49.6822L547.939 38.5869C547.694 38.5905 547.458 38.4967 547.282 38.3261C547.106 38.1555 547.006 37.9221 547.002 37.6772C546.998 37.4323 547.092 37.1959 547.263 37.0202C547.433 36.8444 547.667 36.7436 547.912 36.74L578.366 47.8353C578.611 47.8297 578.855 47.8738 579.082 47.9651C579.31 48.0564 579.516 48.193 579.689 48.3664C579.865 48.5378 580.003 48.7426 580.098 48.9686C580.193 49.1946 580.241 49.4372 580.24 49.6822V80.5819C580.24 80.8268 580.143 81.0617 579.97 81.2349C579.797 81.408 579.562 81.5053 579.317 81.5053Z" fill="#3F3D56"/>
</g>
<defs>
<clipPath id="clip0_639_1567">
<rect width="687" height="498" fill="white" transform="matrix(-1 0 0 1 687 0)"/>
</clipPath>
</defs>
</svg>
